<?xml version="1.0" encoding="UTF-8" standalone="no"?>
<!-- Generator: Adobe Illustrator 17.0.0, SVG Export Plug-In . SVG Version: 6.00 Build 0)  -->

<svg
   xmlns:dc="http://purl.org/dc/elements/1.1/"
   xmlns:cc="http://creativecommons.org/ns#"
   xmlns:rdf="http://www.w3.org/1999/02/22-rdf-syntax-ns#"
   xmlns:svg="http://www.w3.org/2000/svg"
   xmlns="http://www.w3.org/2000/svg"
   xmlns:sodipodi="http://sodipodi.sourceforge.net/DTD/sodipodi-0.dtd"
   xmlns:inkscape="http://www.inkscape.org/namespaces/inkscape"
   version="1.1"
   id="Camada_1"
   x="0px"
   y="0px"
   width="689.71899"
   height="117.208"
   viewBox="0 0 689.71898 117.208"
   enable-background="new 0 0 871.348 521.39"
   xml:space="preserve"
   sodipodi:docname="logo_iscte_detailed_en.svg"
   inkscape:version="0.92.4 (f8dce91, 2019-08-02)"><metadata
   id="metadata81"><rdf:RDF><cc:Work
       rdf:about=""><dc:format>image/svg+xml</dc:format><dc:type
         rdf:resource="http://purl.org/dc/dcmitype/StillImage" /></cc:Work></rdf:RDF></metadata><defs
   id="defs79" /><sodipodi:namedview
   pagecolor="#ffffff"
   bordercolor="#666666"
   borderopacity="1"
   objecttolerance="10"
   gridtolerance="10"
   guidetolerance="10"
   inkscape:pageopacity="0"
   inkscape:pageshadow="2"
   inkscape:window-width="1920"
   inkscape:window-height="1011"
   id="namedview77"
   showgrid="false"
   inkscape:zoom="0.72111921"
   inkscape:cx="143.42717"
   inkscape:cy="36.907744"
   inkscape:window-x="1680"
   inkscape:window-y="0"
   inkscape:window-maximized="1"
   inkscape:current-layer="Camada_1" />
<g
   id="g74"
   transform="translate(-71.394997,-186.55)">
	<g
   id="g16">
		<path
   d="m 503.859,246.666 c -0.061,-0.249 -0.118,-0.499 -0.184,-0.745 -3.444,-12.805 -14.25,-21.433 -28.508,-21.433 -14.404,0 -25.359,8.619 -28.693,21.413 -0.066,0.252 -0.122,0.51 -0.182,0.765 z"
   id="path2"
   inkscape:connector-curvature="0"
   style="fill:none" />
		<rect
   x="71.394997"
   y="206.99899"
   width="20.961"
   height="94.142998"
   id="rect4" />
		<path
   d="m 175.23,246.716 h -0.094 -33.085 c -8.663,0 -14.056,-4.086 -14.056,-10.46 0,-5.884 5.394,-9.48 14.056,-9.48 h 60.053 0.094 v -17.161 h -0.094 -62.505 -0.094 c -20.43,0 -33.343,10.297 -33.343,27.132 0,16.671 12.912,27.131 33.343,27.131 h 0.094 35.864 c 8.662,0 14.056,4.086 14.056,10.624 0,5.884 -5.394,9.48 -14.056,9.48 H 112.795 112.7 v 17.161 h 0.094 62.341 0.094 c 21.901,0 35.631,-10.624 35.631,-27.295 0,-16.672 -13.729,-27.132 -35.63,-27.132 z"
   id="path6"
   inkscape:connector-curvature="0" />
		<path
   d="m 370.319,285.942 c -13.239,0 -22.228,-9.643 -22.228,-23.372 v -35.794 h 63.74 v -17.161 h -63.74 v -22.882 h -19.613 v 76.818 c 0,23.863 16.998,40.044 41.842,40.044 24.696,0 41.053,-16.049 41.66,-39.655 h -19.626 c -0.579,12.996 -9.399,22.002 -22.035,22.002 z"
   id="path8"
   inkscape:connector-curvature="0" />
		<path
   d="m 446.646,263.939 h 78.076 l -0.034,-0.879 h 0.003 v -7.682 c 0,-2.895 -0.218,-5.704 -0.633,-8.415 l -0.012,-0.298 h -0.034 c -3.758,-23.604 -22.84,-39.667 -48.845,-39.667 -29.257,0 -50.177,20.103 -50.177,48.379 0,26.804 20.921,45.764 50.177,45.764 h 37.592 l 0.115,-17.174 h -37.592 c -14.048,0.001 -25.084,-7.786 -28.636,-20.028 z m 28.521,-39.452 c 14.258,0 25.064,8.628 28.508,21.433 0.066,0.246 0.124,0.496 0.184,0.745 h -57.567 c 0.06,-0.256 0.116,-0.513 0.182,-0.765 3.334,-12.793 14.289,-21.413 28.693,-21.413 z"
   id="path10"
   inkscape:connector-curvature="0" />
		<rect
   x="71.394997"
   y="186.55"
   width="20.959999"
   height="7.7379999"
   id="rect12" />
		<path
   d="m 270.617,286.27 c -17.488,0 -29.91,-13.076 -29.91,-30.891 0,-17.815 12.422,-30.891 29.91,-30.891 11.061,0 20.09,5.104 25.236,13.443 L 314,230.684 c -8.145,-14.577 -23.801,-23.685 -43.383,-23.685 -29.256,0 -50.177,20.103 -50.177,48.379 0,28.276 20.921,48.38 50.177,48.38 26.06,0 45.167,-16.132 48.867,-39.819 h -19.961 c -3.273,13.463 -14.324,22.331 -28.906,22.331 z"
   id="path14"
   inkscape:connector-curvature="0" />
	</g>
	<g
   id="g72">
		<path
   d="m 598.799,224.993 c -0.731,2.259 -3.309,5.153 -8.812,5.153 -2.641,0 -5.281,-0.636 -7.126,-2.672 -0.287,-0.286 -1.05,-1.209 -1.432,-2.418 -0.351,-1.146 -0.351,-2.195 -0.351,-4.581 v -13.362 h 4.231 v 13.808 c 0,1.336 0,1.813 0.223,2.481 0.414,1.336 1.623,2.672 4.613,2.672 0.541,0 3.627,0 4.55,-2.545 0.254,-0.731 0.286,-1.336 0.286,-2.831 v -13.585 h 4.199 v 12.948 c 0.001,2.577 0.033,3.659 -0.381,4.932 z"
   id="path18"
   inkscape:connector-curvature="0"
   style="fill:#020303" />
		<path
   d="m 618.01,229.574 -9.831,-15.748 0.255,15.748 h -4.104 v -22.461 h 3.786 l 9.958,15.844 -0.509,-15.844 h 4.136 v 22.461 z"
   id="path20"
   inkscape:connector-curvature="0"
   style="fill:#020303" />
		<path
   d="m 626.786,229.574 v -22.461 h 4.136 v 22.461 z"
   id="path22"
   inkscape:connector-curvature="0"
   style="fill:#020303" />
		<path
   d="M 646.063,229.574 H 640.4 l -6.617,-22.461 h 4.422 l 5.026,17.721 4.899,-17.721 h 4.327 z"
   id="path24"
   inkscape:connector-curvature="0"
   style="fill:#020303" />
		<path
   d="m 655.222,229.574 v -22.461 h 15.971 v 3.754 h -11.835 v 5.281 h 10.849 v 3.627 h -10.849 v 6.013 h 12.631 v 3.786 z"
   id="path26"
   inkscape:connector-curvature="0"
   style="fill:#020303" />
		<path
   d="m 687.574,229.574 -4.423,-8.335 h -3.785 v 8.335 h -4.168 v -22.461 h 9.194 c 1.018,0 4.04,0.096 6.045,2.736 1.304,1.718 1.368,3.658 1.368,4.39 0,0.351 -0.032,1.464 -0.414,2.514 -0.35,0.923 -1.432,2.863 -4.009,3.659 l 4.995,9.162 z m -1.431,-18.166 c -0.732,-0.478 -1.591,-0.668 -3.373,-0.668 h -3.403 v 6.999 h 1.495 c 2.449,0 3.977,0 4.995,-0.541 0.636,-0.35 1.686,-1.177 1.686,-2.99 -10e-4,-0.574 -0.065,-1.909 -1.4,-2.8 z"
   id="path28"
   inkscape:connector-curvature="0"
   style="fill:#020303" />
		<path
   d="m 711.08,227.824 c -2.704,2.291 -6.331,2.322 -7.349,2.322 -1.336,0 -5.631,-0.063 -8.749,-3.34 -0.382,-0.414 -0.796,-0.955 -1.082,-1.464 l 3.531,-2.449 c 0.986,1.463 2.832,3.372 6.968,3.372 0.191,0 0.986,0 1.654,-0.159 0.478,-0.096 2.673,-0.7 2.673,-2.8 0,-0.223 -0.032,-0.827 -0.414,-1.336 -0.764,-1.019 -2.8,-1.305 -3.913,-1.559 l -2.672,-0.604 c -1.146,-0.255 -2.387,-0.51 -3.404,-1.051 -1.05,-0.54 -3.214,-1.972 -3.214,-5.217 0,-0.51 0.063,-1.973 0.859,-3.31 1.018,-1.718 3.468,-3.69 8.018,-3.69 2.004,0 5.949,0.318 9.066,4.55 l -3.468,2.577 c -0.699,-1.113 -2.29,-3.341 -5.821,-3.341 -0.224,0 -3.055,-0.031 -3.978,1.718 -0.19,0.351 -0.254,0.669 -0.254,1.019 0,0.382 0.095,0.7 0.286,1.018 0.541,0.923 1.781,1.209 3.85,1.655 l 2.322,0.509 c 2.132,0.477 4.485,1.113 5.981,2.863 0.636,0.7 1.304,1.718 1.304,3.786 10e-4,2.036 -0.634,3.595 -2.194,4.931 z"
   id="path30"
   inkscape:connector-curvature="0"
   style="fill:#020303" />
		<path
   d="m 716.93,229.574 v -22.461 h 4.136 v 22.461 z"
   id="path32"
   inkscape:connector-curvature="0"
   style="fill:#020303" />
		<path
   d="m 734.68,210.899 v 18.675 h -4.199 v -18.675 h -6.108 v -3.786 h 16.512 v 3.786 z"
   id="path34"
   inkscape:connector-curvature="0"
   style="fill:#020303" />
		<path
   d="m 753.543,220.698 v 8.876 h -4.168 v -8.876 l -7.508,-13.585 h 4.772 l 4.867,9.29 4.899,-9.29 h 4.709 z"
   id="path36"
   inkscape:connector-curvature="0"
   style="fill:#020303" />
		<path
   d="m 581.078,265.624 v -22.461 h 4.136 v 22.461 z"
   id="path38"
   inkscape:connector-curvature="0"
   style="fill:#020303" />
		<path
   d="m 604.11,265.624 -9.831,-15.748 0.255,15.748 h -4.104 v -22.461 h 3.786 l 9.958,15.844 -0.509,-15.844 h 4.136 v 22.461 z"
   id="path40"
   inkscape:connector-curvature="0"
   style="fill:#020303" />
		<path
   d="m 628.252,263.874 c -2.704,2.291 -6.331,2.322 -7.349,2.322 -1.336,0 -5.631,-0.063 -8.749,-3.34 -0.382,-0.414 -0.796,-0.955 -1.082,-1.464 l 3.531,-2.449 c 0.986,1.463 2.832,3.372 6.968,3.372 0.191,0 0.986,0 1.654,-0.159 0.478,-0.096 2.673,-0.7 2.673,-2.8 0,-0.223 -0.032,-0.827 -0.414,-1.336 -0.764,-1.019 -2.8,-1.305 -3.913,-1.56 l -2.672,-0.604 c -1.146,-0.255 -2.387,-0.51 -3.404,-1.051 -1.05,-0.54 -3.214,-1.972 -3.214,-5.217 0,-0.51 0.063,-1.973 0.859,-3.309 1.018,-1.719 3.468,-3.691 8.018,-3.691 2.004,0 5.949,0.318 9.066,4.55 l -3.468,2.577 c -0.699,-1.113 -2.29,-3.341 -5.821,-3.341 -0.224,0 -3.055,-0.031 -3.978,1.718 -0.19,0.351 -0.254,0.669 -0.254,1.019 0,0.382 0.095,0.7 0.286,1.018 0.541,0.923 1.781,1.209 3.85,1.655 l 2.322,0.509 c 2.132,0.477 4.485,1.113 5.981,2.863 0.636,0.7 1.304,1.718 1.304,3.786 10e-4,2.037 -0.635,3.596 -2.194,4.932 z"
   id="path42"
   inkscape:connector-curvature="0"
   style="fill:#020303" />
		<path
   d="m 642.564,246.949 v 18.675 h -4.199 v -18.675 h -6.108 v -3.786 h 16.512 v 3.786 z"
   id="path44"
   inkscape:connector-curvature="0"
   style="fill:#020303" />
		<path
   d="m 651.977,265.624 v -22.461 h 4.136 v 22.461 z"
   id="path46"
   inkscape:connector-curvature="0"
   style="fill:#020303" />
		<path
   d="m 669.728,246.949 v 18.675 h -4.199 v -18.675 h -6.108 v -3.786 h 16.512 v 3.786 z"
   id="path48"
   inkscape:connector-curvature="0"
   style="fill:#020303" />
		<path
   d="m 696.862,261.043 c -0.731,2.259 -3.309,5.153 -8.812,5.153 -2.641,0 -5.281,-0.636 -7.126,-2.672 -0.287,-0.286 -1.05,-1.209 -1.432,-2.418 -0.351,-1.146 -0.351,-2.195 -0.351,-4.581 v -13.362 h 4.231 v 13.808 c 0,1.336 0,1.813 0.223,2.481 0.414,1.336 1.623,2.672 4.613,2.672 0.541,0 3.627,0 4.55,-2.545 0.254,-0.731 0.286,-1.336 0.286,-2.831 v -13.585 h 4.199 v 12.948 c 10e-4,2.577 0.033,3.659 -0.381,4.932 z"
   id="path50"
   inkscape:connector-curvature="0"
   style="fill:#020303" />
		<path
   d="m 710.792,246.949 v 18.675 h -4.199 v -18.675 h -6.108 v -3.786 h 16.512 v 3.786 z"
   id="path52"
   inkscape:connector-curvature="0"
   style="fill:#020303" />
		<path
   d="m 720.143,265.624 v -22.461 h 15.971 v 3.754 h -11.835 v 5.281 h 10.849 v 3.627 h -10.849 v 6.013 h 12.631 v 3.786 z"
   id="path54"
   inkscape:connector-curvature="0"
   style="fill:#020303" />
		<path
   d="m 598.48,299.032 c -0.509,0.541 -1.812,1.846 -3.817,2.577 -0.7,0.254 -2.004,0.636 -3.913,0.636 -3.182,0 -5.6,-1.05 -7.699,-3.468 -2.1,-2.386 -2.99,-5.186 -2.99,-8.303 0,-0.732 0.031,-2.45 0.668,-4.359 1.463,-4.485 5.312,-7.477 10.117,-7.477 4.326,0 6.903,2.354 7.953,3.563 1.178,1.336 2.832,3.945 2.8,8.24 0,1.4 -0.16,5.378 -3.119,8.591 z m -2.449,-13.585 c -1.177,-1.909 -2.959,-2.959 -5.218,-2.959 -1.399,0 -2.418,0.445 -2.863,0.669 -1.591,0.858 -3.563,2.958 -3.563,7.158 0,0.858 0.032,4.994 3.182,7.062 1.368,0.891 2.736,0.954 3.309,0.954 0.445,0 1.464,-0.031 2.577,-0.541 1.654,-0.763 3.818,-2.672 3.913,-6.903 0.031,-1.845 -0.319,-3.817 -1.337,-5.44 z"
   id="path56"
   inkscape:connector-curvature="0"
   style="fill:#020303" />
		<path
   d="m 609.803,282.965 v 5.6 h 9.385 v 3.595 h -9.385 v 9.513 h -4.168 v -22.461 h 14.857 v 3.754 h -10.689 z"
   id="path58"
   inkscape:connector-curvature="0"
   style="fill:#020303" />
		<path
   d="m 632.702,301.673 v -22.461 h 4.231 v 18.644 h 8.908 v 3.817 z"
   id="path60"
   inkscape:connector-curvature="0"
   style="fill:#020303" />
		<path
   d="m 649.211,301.673 v -22.461 h 4.136 v 22.461 z"
   id="path62"
   inkscape:connector-curvature="0"
   style="fill:#020303" />
		<path
   d="m 673.865,299.923 c -2.704,2.291 -6.331,2.322 -7.349,2.322 -1.336,0 -5.631,-0.063 -8.749,-3.34 -0.382,-0.414 -0.796,-0.955 -1.082,-1.464 l 3.531,-2.449 c 0.986,1.463 2.832,3.372 6.968,3.372 0.191,0 0.986,0 1.654,-0.159 0.478,-0.096 2.673,-0.7 2.673,-2.8 0,-0.223 -0.032,-0.827 -0.414,-1.336 -0.764,-1.019 -2.8,-1.305 -3.913,-1.56 l -2.672,-0.604 c -1.146,-0.255 -2.387,-0.51 -3.404,-1.051 -1.05,-0.54 -3.214,-1.972 -3.214,-5.217 0,-0.51 0.063,-1.973 0.859,-3.309 1.018,-1.719 3.468,-3.691 8.018,-3.691 2.004,0 5.949,0.318 9.066,4.55 l -3.468,2.577 c -0.699,-1.113 -2.29,-3.341 -5.821,-3.341 -0.224,0 -3.055,-0.031 -3.978,1.718 -0.19,0.351 -0.254,0.669 -0.254,1.019 0,0.382 0.095,0.7 0.286,1.018 0.541,0.923 1.781,1.209 3.85,1.655 l 2.322,0.509 c 2.132,0.477 4.485,1.113 5.981,2.863 0.636,0.7 1.304,1.718 1.304,3.786 10e-4,2.037 -0.634,3.596 -2.194,4.932 z"
   id="path64"
   inkscape:connector-curvature="0"
   style="fill:#020303" />
		<path
   d="m 694.668,300.654 c -1.973,1.114 -3.977,1.019 -6.141,1.019 h -8.812 v -22.461 h 8.05 c 1.113,0 2.259,0 3.372,0.096 0.7,0.063 2.545,0.254 4.009,1.813 0.477,0.509 1.432,1.718 1.432,3.595 0,0.636 -0.159,2.863 -2.036,4.04 -0.541,0.351 -1.05,0.478 -1.687,0.604 0.286,0.063 0.986,0.191 1.718,0.604 1.146,0.604 3.055,2.1 3.055,5.345 -0.001,2.259 -0.956,4.2 -2.96,5.345 z m -2.959,-16.798 c -1.081,-1.336 -3.054,-1.209 -4.549,-1.209 h -3.277 v 5.6 h 1.464 c 1.113,0 2.227,0 3.372,-0.063 1.05,-0.063 2.067,-0.191 2.831,-1.019 0.255,-0.254 0.7,-0.795 0.7,-1.749 0,-0.255 -0.064,-0.955 -0.541,-1.56 z m -0.191,8.081 c -1.146,-0.572 -2.641,-0.541 -5.281,-0.541 h -2.354 v 6.649 h 4.709 c 1.399,0 2.99,0.096 4.04,-1.146 0.286,-0.318 0.7,-0.891 0.7,-1.973 0,-0.634 -0.191,-2.162 -1.814,-2.989 z"
   id="path66"
   inkscape:connector-curvature="0"
   style="fill:#020303" />
		<path
   d="m 719,299.032 c -0.509,0.541 -1.812,1.846 -3.817,2.577 -0.7,0.254 -2.004,0.636 -3.913,0.636 -3.182,0 -5.6,-1.05 -7.699,-3.468 -2.1,-2.386 -2.99,-5.186 -2.99,-8.303 0,-0.732 0.031,-2.45 0.668,-4.359 1.463,-4.485 5.312,-7.477 10.117,-7.477 4.326,0 6.903,2.354 7.953,3.563 1.178,1.336 2.832,3.945 2.8,8.24 -10e-4,1.4 -0.16,5.378 -3.119,8.591 z m -2.449,-13.585 c -1.177,-1.909 -2.959,-2.959 -5.218,-2.959 -1.399,0 -2.418,0.445 -2.863,0.669 -1.591,0.858 -3.563,2.958 -3.563,7.158 0,0.858 0.032,4.994 3.182,7.062 1.368,0.891 2.736,0.954 3.309,0.954 0.445,0 1.464,-0.031 2.577,-0.541 1.654,-0.763 3.818,-2.672 3.913,-6.903 0.031,-1.845 -0.32,-3.817 -1.337,-5.44 z"
   id="path68"
   inkscape:connector-curvature="0"
   style="fill:#020303" />
		<path
   d="m 739.866,301.673 -9.831,-15.748 0.255,15.748 h -4.104 v -22.461 h 3.786 l 9.958,15.844 -0.509,-15.844 h 4.136 v 22.461 z"
   id="path70"
   inkscape:connector-curvature="0"
   style="fill:#020303" />
	</g>
</g>
</svg>