<?xml version="1.0" encoding="UTF-8"?>
<svg width="740.44" height="117.21" enable-background="new 0 0 871.348 521.39" version="1.1" viewBox="0 0 740.44 117.21" xml:space="preserve" xmlns="http://www.w3.org/2000/svg" xmlns:cc="http://creativecommons.org/ns#" xmlns:dc="http://purl.org/dc/elements/1.1/" xmlns:rdf="http://www.w3.org/1999/02/22-rdf-syntax-ns#"><metadata><rdf:RDF><cc:Work rdf:about=""><dc:format>image/svg+xml</dc:format><dc:type rdf:resource="http://purl.org/dc/dcmitype/StillImage"/><dc:title/></cc:Work></rdf:RDF></metadata><g fill="#fff">

<path d="m507.14 43.051v-22.58h4.158v22.58z"/><path d="m530.3 43.051-9.883-15.832.256 15.832h-4.126v-22.58h3.806l10.011 15.928-.512-15.928h4.158v22.58z"/><path d="m554.58 41.291c-2.719 2.302-6.365 2.334-7.388 2.334-1.343 0-5.661-.064-8.796-3.358-.384-.416-.8-.959-1.087-1.471l3.55-2.463c.992 1.471 2.847 3.39 7.004 3.39.192 0 .992 0 1.663-.16.48-.096 2.687-.703 2.687-2.814 0-.224-.032-.832-.416-1.344-.768-1.023-2.815-1.311-3.934-1.567l-2.687-.608c-1.151-.256-2.399-.512-3.422-1.056-1.056-.544-3.23-1.982-3.23-5.245 0-.512.064-1.983.863-3.327 1.023-1.727 3.486-3.71 8.06-3.71 2.015 0 5.981.32 9.115 4.574l-3.486 2.59c-.704-1.12-2.303-3.358-5.853-3.358-.224 0-3.07-.032-3.998 1.727-.192.352-.256.672-.256 1.023 0 .384.096.704.288 1.024.544.927 1.791 1.215 3.87 1.663l2.335.512c2.143.48 4.51 1.12 6.013 2.879.64.704 1.311 1.728 1.311 3.807.001 2.048-.639 3.614-2.206 4.958z"/><path d="m568.96 24.271v18.775h-4.222v-18.775h-6.141v-3.806h16.6v3.806z"/><path d="m578.44 43.051v-22.58h4.158v22.58z"/><path d="m596.28 24.271v18.775h-4.222v-18.775h-6.141v-3.806h16.6v3.806z"/><path d="m623.56 38.441c-.736 2.27-3.326 5.181-8.86 5.181-2.654 0-5.309-.639-7.164-2.686-.288-.288-1.055-1.215-1.439-2.431-.352-1.152-.352-2.207-.352-4.605v-13.433h4.254v13.881c0 1.343 0 1.823.224 2.495.416 1.343 1.631 2.686 4.638 2.686.544 0 3.646 0 4.574-2.559.256-.736.288-1.343.288-2.847v-13.657h4.222v13.018c-.001 2.59.031 3.678-.385 4.957z"/><path d="m637.58 24.271v18.775h-4.222v-18.775h-6.141v-3.806h16.599v3.806z"/><path d="m663.2 40.391c-.512.543-1.823 1.855-3.838 2.59-.703.255-2.015.639-3.934.639-3.198 0-5.629-1.055-7.74-3.486-2.111-2.399-3.006-5.214-3.006-8.348 0-.735.032-2.463.672-4.381 1.471-4.51 5.341-7.517 10.171-7.517 4.35 0 6.94 2.367 7.996 3.582 1.183 1.343 2.847 3.966 2.815 8.284-.001 1.408-.161 5.406-3.136 8.637zm-2.463-13.658c-1.183-1.919-2.974-2.974-5.245-2.974-1.407 0-2.431.448-2.879.672-1.599.863-3.582 2.974-3.582 7.196 0 .863.032 5.021 3.198 7.1 1.375.896 2.75.96 3.326.96.448 0 1.471-.032 2.591-.544 1.663-.767 3.838-2.686 3.934-6.94.033-1.856-.319-3.839-1.343-5.47z"/><path d="m524.96 74.691c-.736 2.27-3.326 5.181-8.86 5.181-2.654 0-5.309-.639-7.164-2.686-.288-.288-1.055-1.215-1.439-2.431-.352-1.152-.352-2.207-.352-4.605v-13.433h4.254v13.881c0 1.343 0 1.823.224 2.495.416 1.343 1.631 2.686 4.638 2.686.544 0 3.646 0 4.574-2.559.256-.736.288-1.343.288-2.847v-13.657h4.222v13.018c-.001 2.59.031 3.678-.385 4.957z"/><path d="m544.28 79.291-9.883-15.832.256 15.832h-4.126v-22.58h3.806l10.011 15.928-.512-15.928h4.158v22.58z"/><path d="m553.1 79.291v-22.58h4.158v22.58z"/><path d="m572.48 79.291h-5.693l-6.653-22.58h4.446l5.053 17.815 4.925-17.815h4.35z"/><path d="m581.7 79.291v-22.58h16.056v3.774h-11.898v5.309h10.907v3.646h-10.907v6.045h12.698v3.806z"/><path d="m614.22 79.291-4.446-8.379h-3.806v8.379h-4.19v-22.58h9.243c1.023 0 4.062.096 6.077 2.751 1.311 1.727 1.375 3.678 1.375 4.413 0 .352-.032 1.472-.416 2.527-.352.927-1.439 2.879-4.03 3.678l5.021 9.211zm-1.44-18.263c-.736-.48-1.599-.671-3.39-.671h-3.422v7.036h1.503c2.463 0 3.998 0 5.021-.544.64-.352 1.695-1.183 1.695-3.007.001-.575-.063-1.918-1.407-2.814z"/><path d="m637.86 77.541c-2.719 2.302-6.365 2.334-7.388 2.334-1.343 0-5.661-.064-8.795-3.358-.384-.416-.8-.959-1.088-1.471l3.55-2.463c.992 1.471 2.847 3.39 7.004 3.39.192 0 .992 0 1.664-.16.48-.096 2.687-.703 2.687-2.814 0-.224-.032-.832-.416-1.344-.768-1.023-2.815-1.311-3.934-1.567l-2.687-.608c-1.151-.256-2.399-.512-3.422-1.056-1.056-.544-3.23-1.982-3.23-5.245 0-.512.064-1.983.864-3.327 1.023-1.727 3.486-3.71 8.06-3.71 2.015 0 5.981.32 9.116 4.574l-3.486 2.59c-.704-1.12-2.303-3.358-5.853-3.358-.224 0-3.07-.032-3.998 1.727-.192.352-.256.672-.256 1.023 0 .384.096.704.288 1.024.544.927 1.791 1.215 3.87 1.663l2.335.512c2.143.48 4.51 1.12 6.013 2.879.64.704 1.311 1.728 1.311 3.807-.002 2.047-.641 3.614-2.209 4.958z"/><path d="m643.74 79.291v-22.58h4.158v22.58z"/><path d="m661.6 60.521v18.775h-4.222v-18.775h-6.141v-3.806h16.6v3.806z"/><path d="m682.42 79.291-1.312-4.414h-8.476l-1.312 4.414h-4.542l7.644-22.58h4.797l7.708 22.58zm-5.533-18.519-3.135 10.394h6.237zm1.087-6.269h-2.847l1.727-3.838h4.574z"/><path d="m702.28 79.291-4.446-8.379h-3.806v8.379h-4.19v-22.58h9.243c1.023 0 4.062.096 6.077 2.751 1.311 1.727 1.375 3.678 1.375 4.413 0 .352-.032 1.472-.416 2.527-.352.927-1.439 2.879-4.03 3.678l5.021 9.211zm-1.439-18.263c-.736-.48-1.599-.671-3.39-.671h-3.422v7.036h1.503c2.463 0 3.998 0 5.021-.544.64-.352 1.695-1.183 1.695-3.007 0-.575-.064-1.918-1.407-2.814z"/><path d="m710.46 79.291v-22.58h4.158v22.58z"/><path d="m737.3 76.641c-.512.543-1.823 1.855-3.838 2.59-.703.255-2.015.639-3.934.639-3.198 0-5.629-1.055-7.74-3.486-2.111-2.399-3.006-5.214-3.006-8.348 0-.735.032-2.463.672-4.381 1.471-4.51 5.341-7.517 10.171-7.517 4.35 0 6.941 2.367 7.996 3.582 1.183 1.343 2.847 3.966 2.815 8.284-.002 1.409-.162 5.407-3.136 8.637zm-2.463-13.657c-1.183-1.919-2.974-2.974-5.245-2.974-1.407 0-2.431.448-2.879.672-1.599.863-3.582 2.974-3.582 7.196 0 .863.032 5.021 3.199 7.1 1.375.896 2.75.96 3.326.96.448 0 1.471-.032 2.591-.544 1.663-.767 3.838-2.686 3.934-6.94.031-1.856-.321-3.839-1.344-5.47z"/><path d="m519.58 114.94c-1.951.607-3.518.607-5.533.607h-7.196v-22.58h8.092c1.023 0 2.271.064 3.262.255 1.119.224 3.55.96 5.437 3.391.992 1.311 2.335 3.838 2.335 7.836 0 4.478-1.727 8.988-6.397 10.491zm-.256-16.696c-.384-.32-1.151-.895-2.367-1.215-1.087-.288-1.663-.256-3.646-.256h-2.239v14.969h1.119c2.271 0 3.614-.032 4.638-.192.576-.096 2.175-.352 3.326-1.759 1.407-1.791 1.343-5.085 1.343-5.373.001-3.359-1.023-5.15-2.174-6.174z"/><path d="m529.72 115.54v-22.58h16.056v3.774h-11.898v5.309h10.906v3.646h-10.906v6.045h12.698v3.806z"/><path d="m559.04 115.54v-22.58h4.254v18.743h8.956v3.838h-13.21z"/><path d="m575.64 115.54v-22.58h4.158v22.58z"/><path d="m600.44 113.79c-2.719 2.302-6.365 2.334-7.388 2.334-1.343 0-5.661-.064-8.796-3.358-.384-.416-.8-.959-1.088-1.471l3.55-2.463c.992 1.471 2.847 3.39 7.004 3.39.192 0 .992 0 1.663-.16.48-.096 2.687-.703 2.687-2.814 0-.224-.032-.832-.416-1.344-.768-1.023-2.815-1.311-3.934-1.567l-2.687-.608c-1.151-.256-2.399-.512-3.422-1.056-1.056-.543-3.23-1.982-3.23-5.245 0-.512.064-1.983.864-3.327 1.023-1.727 3.486-3.71 8.06-3.71 2.015 0 5.981.32 9.115 4.574l-3.486 2.59c-.704-1.12-2.303-3.358-5.853-3.358-.224 0-3.07-.032-3.998 1.727-.192.352-.256.672-.256 1.023 0 .384.096.704.288 1.024.544.927 1.791 1.215 3.87 1.663l2.335.512c2.143.48 4.51 1.12 6.013 2.879.64.704 1.311 1.728 1.311 3.807.001 2.047-.639 3.614-2.206 4.958z"/><path d="m621.36 114.52c-1.983 1.119-3.998 1.023-6.173 1.023h-8.86v-22.58h8.092c1.119 0 2.271 0 3.39.096.704.064 2.559.256 4.03 1.823.48.512 1.439 1.727 1.439 3.614 0 .64-.16 2.879-2.047 4.062-.544.352-1.056.48-1.695.608.288.064.992.192 1.727.607 1.151.608 3.07 2.111 3.07 5.373.002 2.272-.958 4.223-2.973 5.374zm-2.974-16.888c-1.087-1.343-3.07-1.215-4.574-1.215h-3.294v5.629h1.471c1.119 0 2.239 0 3.39-.064 1.056-.064 2.079-.192 2.847-1.024.256-.255.704-.8.704-1.759-.001-.255-.064-.959-.544-1.567zm-.192 8.124c-1.151-.575-2.655-.543-5.309-.543h-2.367v6.684h4.734c1.407 0 3.007.096 4.062-1.152.288-.319.704-.895.704-1.983-.001-.639-.193-2.174-1.824-3.006z"/><path d="m645.82 112.89c-.512.543-1.823 1.855-3.838 2.59-.703.255-2.015.639-3.934.639-3.198 0-5.629-1.055-7.74-3.486-2.111-2.399-3.006-5.214-3.006-8.348 0-.735.032-2.463.672-4.381 1.471-4.51 5.341-7.517 10.171-7.517 4.35 0 6.94 2.367 7.996 3.582 1.183 1.343 2.847 3.966 2.815 8.284-.001 1.409-.161 5.407-3.136 8.637zm-2.462-13.657c-1.183-1.919-2.974-2.974-5.245-2.974-1.407 0-2.431.448-2.879.672-1.599.863-3.582 2.974-3.582 7.196 0 .863.032 5.021 3.198 7.1 1.375.896 2.75.96 3.326.96.448 0 1.471-.032 2.591-.544 1.663-.767 3.838-2.686 3.934-6.94.032-1.856-.32-3.839-1.343-5.47z"/><path d="m666.26 115.54-1.312-4.414h-8.476l-1.312 4.414h-4.542l7.644-22.58h4.797l7.708 22.58zm-5.533-18.518-3.135 10.394h6.237z"/><rect x="-3.3569e-6" y="20.451" width="20.961" height="94.143"/><path d="m103.84 60.171h-33.179c-8.663 0-14.056-4.086-14.056-10.46 0-5.884 5.394-9.48 14.056-9.48h60.147v-17.161h-62.693c-20.43 0-33.343 10.297-33.343 27.132 0 16.671 12.912 27.131 33.343 27.131h35.958c8.662 0 14.056 4.086 14.056 10.624 0 5.884-5.394 9.48-14.056 9.48h-62.763v17.161h62.529c21.901 0 35.631-10.624 35.631-27.295 0-16.672-13.729-27.132-35.63-27.132z"/><path d="m298.92 99.391c-13.239 0-22.228-9.643-22.228-23.372v-35.794h63.74v-17.161h-63.74v-22.882h-19.613v76.818c0 23.863 16.998 40.044 41.842 40.044 24.696 0 41.053-16.049 41.66-39.655h-19.626c-.579 12.996-9.399 22.002-22.035 22.002z"/><rect x="-3.3569e-6" y=".0010031" width="20.96" height="7.738"/><path d="m199.22 99.721c-17.488 0-29.91-13.076-29.91-30.891s12.422-30.891 29.91-30.891c11.061 0 20.09 5.104 25.236 13.443l18.147-7.247c-8.145-14.577-23.801-23.685-43.383-23.685-29.256 0-50.177 20.103-50.177 48.379s20.921 48.38 50.177 48.38c26.06 0 45.167-16.132 48.867-39.819h-19.961c-3.273 13.463-14.324 22.331-28.906 22.331z"/></g><path d="m375.26 77.391h78.076l-.034-.879h.003v-7.682c0-2.895-.218-5.704-.633-8.415l-.012-.298h-.034c-3.758-23.604-22.84-39.667-48.844-39.667-29.257 0-50.177 20.103-50.177 48.379 0 26.804 20.921 45.764 50.177 45.764h37.592l.115-17.174h-37.592c-14.049.001-25.085-7.786-28.637-20.028zm28.521-39.452c14.258 0 25.064 8.628 28.508 21.433.066.246.124.496.184.745h-57.567c.06-.256.116-.513.182-.765 3.334-12.793 14.289-21.413 28.693-21.413z" fill="#fff"/></svg>
