<?xml version="1.0" encoding="UTF-8"?>
<svg width="689.72" height="117.21" enable-background="new 0 0 871.348 521.39" version="1.1" viewBox="0 0 689.72 117.21" xml:space="preserve" xmlns="http://www.w3.org/2000/svg" xmlns:cc="http://creativecommons.org/ns#" xmlns:dc="http://purl.org/dc/elements/1.1/" xmlns:rdf="http://www.w3.org/1999/02/22-rdf-syntax-ns#"><metadata><rdf:RDF><cc:Work rdf:about=""><dc:format>image/svg+xml</dc:format><dc:type rdf:resource="http://purl.org/dc/dcmitype/StillImage"/><dc:title/></cc:Work></rdf:RDF></metadata>

<g fill="#fff"><rect x="-3.5693e-7" y="20.449" width="20.961" height="94.143"/><path d="m103.84 60.166h-33.179c-8.663 0-14.056-4.086-14.056-10.46 0-5.884 5.394-9.48 14.056-9.48h60.147v-17.161h-62.693c-20.43 0-33.343 10.297-33.343 27.132 0 16.671 12.912 27.131 33.343 27.131h35.958c8.662 0 14.056 4.086 14.056 10.624 0 5.884-5.394 9.48-14.056 9.48h-62.763v17.161h62.529c21.901 0 35.631-10.624 35.631-27.295 0-16.672-13.729-27.132-35.63-27.132z"/><path d="m298.92 99.392c-13.239 0-22.228-9.643-22.228-23.372v-35.794h63.74v-17.161h-63.74v-22.882h-19.613v76.818c0 23.863 16.998 40.044 41.842 40.044 24.696 0 41.053-16.049 41.66-39.655h-19.626c-.579 12.996-9.399 22.002-22.035 22.002z"/><rect x="-3.5693e-7" y="3.0518e-6" width="20.96" height="7.738"/><path d="m199.22 99.72c-17.488 0-29.91-13.076-29.91-30.891s12.422-30.891 29.91-30.891c11.061 0 20.09 5.104 25.236 13.443l18.147-7.247c-8.145-14.577-23.801-23.685-43.383-23.685-29.256 0-50.177 20.103-50.177 48.379s20.921 48.38 50.177 48.38c26.06 0 45.167-16.132 48.867-39.819h-19.961c-3.273 13.463-14.324 22.331-28.906 22.331z"/><g transform="translate(-71.395 -186.55)">
		<path d="m598.8 224.99c-.731 2.259-3.309 5.153-8.812 5.153-2.641 0-5.281-.636-7.126-2.672-.287-.286-1.05-1.209-1.432-2.418-.351-1.146-.351-2.195-.351-4.581v-13.362h4.231v13.808c0 1.336 0 1.813.223 2.481.414 1.336 1.623 2.672 4.613 2.672.541 0 3.627 0 4.55-2.545.254-.731.286-1.336.286-2.831v-13.585h4.199v12.948c.001 2.577.033 3.659-.381 4.932z"/>
		<path d="m618.01 229.57-9.831-15.748.255 15.748h-4.104v-22.461h3.786l9.958 15.844-.509-15.844h4.136v22.461z"/>
		<path d="m626.79 229.57v-22.461h4.136v22.461z"/>
		<path d="m646.06 229.57h-5.663l-6.617-22.461h4.422l5.026 17.721 4.899-17.721h4.327z"/>
		<path d="m655.22 229.57v-22.461h15.971v3.754h-11.835v5.281h10.849v3.627h-10.849v6.013h12.631v3.786z"/>
		<path d="m687.57 229.57-4.423-8.335h-3.785v8.335h-4.168v-22.461h9.194c1.018 0 4.04.096 6.045 2.736 1.304 1.718 1.368 3.658 1.368 4.39 0 .351-.032 1.464-.414 2.514-.35.923-1.432 2.863-4.009 3.659l4.995 9.162zm-1.431-18.166c-.732-.478-1.591-.668-3.373-.668h-3.403v6.999h1.495c2.449 0 3.977 0 4.995-.541.636-.35 1.686-1.177 1.686-2.99-.001-.574-.065-1.909-1.4-2.8z"/>
		<path d="m711.08 227.82c-2.704 2.291-6.331 2.322-7.349 2.322-1.336 0-5.631-.063-8.749-3.34-.382-.414-.796-.955-1.082-1.464l3.531-2.449c.986 1.463 2.832 3.372 6.968 3.372.191 0 .986 0 1.654-.159.478-.096 2.673-.7 2.673-2.8 0-.223-.032-.827-.414-1.336-.764-1.019-2.8-1.305-3.913-1.559l-2.672-.604c-1.146-.255-2.387-.51-3.404-1.051-1.05-.54-3.214-1.972-3.214-5.217 0-.51.063-1.973.859-3.31 1.018-1.718 3.468-3.69 8.018-3.69 2.004 0 5.949.318 9.066 4.55l-3.468 2.577c-.699-1.113-2.29-3.341-5.821-3.341-.224 0-3.055-.031-3.978 1.718-.19.351-.254.669-.254 1.019 0 .382.095.7.286 1.018.541.923 1.781 1.209 3.85 1.655l2.322.509c2.132.477 4.485 1.113 5.981 2.863.636.7 1.304 1.718 1.304 3.786.001 2.036-.634 3.595-2.194 4.931z"/>
		<path d="m716.93 229.57v-22.461h4.136v22.461z"/>
		<path d="m734.68 210.9v18.675h-4.199v-18.675h-6.108v-3.786h16.512v3.786z"/>
		<path d="m753.54 220.7v8.876h-4.168v-8.876l-7.508-13.585h4.772l4.867 9.29 4.899-9.29h4.709z"/>
		<path d="m581.08 265.62v-22.461h4.136v22.461z"/>
		<path d="m604.11 265.62-9.831-15.748.255 15.748h-4.104v-22.461h3.786l9.958 15.844-.509-15.844h4.136v22.461z"/>
		<path d="m628.25 263.87c-2.704 2.291-6.331 2.322-7.349 2.322-1.336 0-5.631-.063-8.749-3.34-.382-.414-.796-.955-1.082-1.464l3.531-2.449c.986 1.463 2.832 3.372 6.968 3.372.191 0 .986 0 1.654-.159.478-.096 2.673-.7 2.673-2.8 0-.223-.032-.827-.414-1.336-.764-1.019-2.8-1.305-3.913-1.56l-2.672-.604c-1.146-.255-2.387-.51-3.404-1.051-1.05-.54-3.214-1.972-3.214-5.217 0-.51.063-1.973.859-3.309 1.018-1.719 3.468-3.691 8.018-3.691 2.004 0 5.949.318 9.066 4.55l-3.468 2.577c-.699-1.113-2.29-3.341-5.821-3.341-.224 0-3.055-.031-3.978 1.718-.19.351-.254.669-.254 1.019 0 .382.095.7.286 1.018.541.923 1.781 1.209 3.85 1.655l2.322.509c2.132.477 4.485 1.113 5.981 2.863.636.7 1.304 1.718 1.304 3.786.001 2.037-.635 3.596-2.194 4.932z"/>
		<path d="m642.56 246.95v18.675h-4.199v-18.675h-6.108v-3.786h16.512v3.786z"/>
		<path d="m651.98 265.62v-22.461h4.136v22.461z"/>
		<path d="m669.73 246.95v18.675h-4.199v-18.675h-6.108v-3.786h16.512v3.786z"/>
		<path d="m696.86 261.04c-.731 2.259-3.309 5.153-8.812 5.153-2.641 0-5.281-.636-7.126-2.672-.287-.286-1.05-1.209-1.432-2.418-.351-1.146-.351-2.195-.351-4.581v-13.362h4.231v13.808c0 1.336 0 1.813.223 2.481.414 1.336 1.623 2.672 4.613 2.672.541 0 3.627 0 4.55-2.545.254-.731.286-1.336.286-2.831v-13.585h4.199v12.948c.001 2.577.033 3.659-.381 4.932z"/>
		<path d="m710.79 246.95v18.675h-4.199v-18.675h-6.108v-3.786h16.512v3.786z"/>
		<path d="m720.14 265.62v-22.461h15.971v3.754h-11.835v5.281h10.849v3.627h-10.849v6.013h12.631v3.786z"/>
		<path d="m598.48 299.03c-.509.541-1.812 1.846-3.817 2.577-.7.254-2.004.636-3.913.636-3.182 0-5.6-1.05-7.699-3.468-2.1-2.386-2.99-5.186-2.99-8.303 0-.732.031-2.45.668-4.359 1.463-4.485 5.312-7.477 10.117-7.477 4.326 0 6.903 2.354 7.953 3.563 1.178 1.336 2.832 3.945 2.8 8.24 0 1.4-.16 5.378-3.119 8.591zm-2.449-13.585c-1.177-1.909-2.959-2.959-5.218-2.959-1.399 0-2.418.445-2.863.669-1.591.858-3.563 2.958-3.563 7.158 0 .858.032 4.994 3.182 7.062 1.368.891 2.736.954 3.309.954.445 0 1.464-.031 2.577-.541 1.654-.763 3.818-2.672 3.913-6.903.031-1.845-.319-3.817-1.337-5.44z"/>
		<path d="m609.8 282.96v5.6h9.385v3.595h-9.385v9.513h-4.168v-22.461h14.857v3.754h-10.689z"/>
		<path d="m632.7 301.67v-22.461h4.231v18.644h8.908v3.817z"/>
		<path d="m649.21 301.67v-22.461h4.136v22.461z"/>
		<path d="m673.86 299.92c-2.704 2.291-6.331 2.322-7.349 2.322-1.336 0-5.631-.063-8.749-3.34-.382-.414-.796-.955-1.082-1.464l3.531-2.449c.986 1.463 2.832 3.372 6.968 3.372.191 0 .986 0 1.654-.159.478-.096 2.673-.7 2.673-2.8 0-.223-.032-.827-.414-1.336-.764-1.019-2.8-1.305-3.913-1.56l-2.672-.604c-1.146-.255-2.387-.51-3.404-1.051-1.05-.54-3.214-1.972-3.214-5.217 0-.51.063-1.973.859-3.309 1.018-1.719 3.468-3.691 8.018-3.691 2.004 0 5.949.318 9.066 4.55l-3.468 2.577c-.699-1.113-2.29-3.341-5.821-3.341-.224 0-3.055-.031-3.978 1.718-.19.351-.254.669-.254 1.019 0 .382.095.7.286 1.018.541.923 1.781 1.209 3.85 1.655l2.322.509c2.132.477 4.485 1.113 5.981 2.863.636.7 1.304 1.718 1.304 3.786.001 2.037-.634 3.596-2.194 4.932z"/>
		<path d="m694.67 300.65c-1.973 1.114-3.977 1.019-6.141 1.019h-8.812v-22.461h8.05c1.113 0 2.259 0 3.372.096.7.063 2.545.254 4.009 1.813.477.509 1.432 1.718 1.432 3.595 0 .636-.159 2.863-2.036 4.04-.541.351-1.05.478-1.687.604.286.063.986.191 1.718.604 1.146.604 3.055 2.1 3.055 5.345-.001 2.259-.956 4.2-2.96 5.345zm-2.959-16.798c-1.081-1.336-3.054-1.209-4.549-1.209h-3.277v5.6h1.464c1.113 0 2.227 0 3.372-.063 1.05-.063 2.067-.191 2.831-1.019.255-.254.7-.795.7-1.749 0-.255-.064-.955-.541-1.56zm-.191 8.081c-1.146-.572-2.641-.541-5.281-.541h-2.354v6.649h4.709c1.399 0 2.99.096 4.04-1.146.286-.318.7-.891.7-1.973 0-.634-.191-2.162-1.814-2.989z"/>
		<path d="m719 299.03c-.509.541-1.812 1.846-3.817 2.577-.7.254-2.004.636-3.913.636-3.182 0-5.6-1.05-7.699-3.468-2.1-2.386-2.99-5.186-2.99-8.303 0-.732.031-2.45.668-4.359 1.463-4.485 5.312-7.477 10.117-7.477 4.326 0 6.903 2.354 7.953 3.563 1.178 1.336 2.832 3.945 2.8 8.24-.001 1.4-.16 5.378-3.119 8.591zm-2.449-13.585c-1.177-1.909-2.959-2.959-5.218-2.959-1.399 0-2.418.445-2.863.669-1.591.858-3.563 2.958-3.563 7.158 0 .858.032 4.994 3.182 7.062 1.368.891 2.736.954 3.309.954.445 0 1.464-.031 2.577-.541 1.654-.763 3.818-2.672 3.913-6.903.031-1.845-.32-3.817-1.337-5.44z"/>
		<path d="m739.87 301.67-9.831-15.748.255 15.748h-4.104v-22.461h3.786l9.958 15.844-.509-15.844h4.136v22.461z"/>
	</g><path d="m375.25 77.389h78.076l-.034-.879h.003v-7.682c0-2.895-.218-5.704-.633-8.415l-.012-.298h-.034c-3.758-23.604-22.84-39.667-48.845-39.667-29.257 0-50.177 20.103-50.177 48.379 0 26.804 20.921 45.764 50.177 45.764h37.592l.115-17.174h-37.592c-14.048.001-25.084-7.786-28.636-20.028zm28.521-39.452c14.258 0 25.064 8.628 28.508 21.433.066.246.124.496.184.745h-57.567c.06-.256.116-.513.182-.765 3.334-12.793 14.289-21.413 28.693-21.413z"/></g></svg>
