<?xml version="1.0" standalone="no"?>
<!DOCTYPE svg PUBLIC "-//W3C//DTD SVG 1.1//EN" "http://www.w3.org/Graphics/SVG/1.1/DTD/svg11.dtd" >
<svg xmlns="http://www.w3.org/2000/svg">
<metadata></metadata>
<defs>
<font id="MorganPosterRegular" horiz-adv-x="913" >
<font-face units-per-em="2048" ascent="1772" descent="-276" />
<missing-glyph horiz-adv-x="286" />
<glyph horiz-adv-x="0" />
<glyph horiz-adv-x="2048" />
<glyph unicode="&#xd;" horiz-adv-x="681" />
<glyph unicode=" "  horiz-adv-x="286" />
<glyph unicode="&#x09;" horiz-adv-x="286" />
<glyph unicode="&#xa0;" horiz-adv-x="286" />
<glyph unicode="!" horiz-adv-x="415" d="M119 0v180h178v-180h-178zM123 1417h168l-19 -1089h-131z" />
<glyph unicode="&#x22;" horiz-adv-x="663" d="M125 1415h151l-20 -368h-113zM387 1415h152l-19 -368h-114z" />
<glyph unicode="#" horiz-adv-x="786" d="M37 567l8 121h117l24 277h-127l11 120h125l22 261h117l-21 -261h191l22 261h119l-24 -261h122l-8 -120h-121l-26 -277h119l-9 -121h-120l-21 -250h-117l23 250h-195l-18 -250h-119l21 250h-115zM279 688h192l27 275h-195z" />
<glyph unicode="$" horiz-adv-x="811" d="M90 797v426q0 197 207 196h65v176h127v-176h201l6 -6v-127h-370q-47 0 -62.5 -16.5t-15.5 -48.5v-365q0 -59 63 -59h273q57 0 97 -38t40 -91v-465q0 -109 -53.5 -156t-161.5 -47h-39v-166h-127v166h-238l-10 12v121h402q72 0 71 72v375q0 43 -9 58t-44 15h-246 q-176 0 -176 144z" />
<glyph unicode="%" horiz-adv-x="1234" d="M96 924v352q0 147 148 147h139q147 0 147 -147v-352q0 -150 -145 -150h-141q-147 0 -148 150zM199 -49l706 1524h131l-704 -1524h-133zM215 924q0 -41 39 -41h115q18 0 28.5 8t11.5 16.5t1 26.5v344q0 39 -45 39h-111q-39 0 -39 -39v-354zM705 125v352q0 147 147 148h139 q147 0 148 -148v-352q0 -150 -146 -150h-141q-147 0 -147 150zM823 123q0 -39 39 -39h115q18 0 28.5 8t11.5 16.5t1 26.5v344q0 37 -45 37h-111q-39 0 -39 -37v-356z" />
<glyph unicode="&#x26;" horiz-adv-x="917" d="M102 211v399q0 145 138 166v6q-74 16 -104 58.5t-30 124.5v247q0 211 216 211h383l12 -12v-131h-379q-39 0 -58.5 -19.5t-19.5 -48.5v-247q0 -55 25.5 -85t97.5 -30h502v-139h-125v-711l-10 -6h-390q-127 0 -192.5 48t-65.5 169zM260 221q0 -47 19.5 -67.5t64.5 -20.5 h254v578h-240q-98 0 -98 -76v-414z" />
<glyph unicode="'" horiz-adv-x="401" d="M125 1417h151l-20 -368h-113z" />
<glyph unicode="(" horiz-adv-x="405" d="M63 342v680q0 68 3.5 120t11.5 114.5t27.5 107.5t48 85t74.5 60.5t108 20.5h61v-121h-61q-111 0 -111 -291v-862q0 -324 111 -324h61v-118h-61q-72 2 -124 36.5t-80 84t-44 124t-20.5 138t-4.5 145.5z" />
<glyph unicode=")" horiz-adv-x="405" d="M8 -68h62q111 0 110 324v862q0 291 -110 291h-62v121h62q61 0 107 -20.5t75 -60.5t48 -85t27.5 -107.5t11.5 -114.5t3 -120v-680q0 -82 -4 -145.5t-20.5 -138t-44 -124t-80 -84t-123.5 -36.5h-62v118z" />
<glyph unicode="*" horiz-adv-x="583" d="M49 1288l49 88l144 -82v162h100v-162l141 82l52 -88l-154 -90l100 -154l-82 -57l-106 162l-109 -162l-84 57l103 154z" />
<glyph unicode="+" horiz-adv-x="798" d="M109 618v111h235v238h111v-238h235v-111h-235v-233h-111v233h-235z" />
<glyph unicode="," horiz-adv-x="446" d="M115 -193l35 373h176l-93 -373h-118z" />
<glyph unicode="-" horiz-adv-x="532" d="M49 629v145h434v-145h-434z" />
<glyph unicode="." horiz-adv-x="446" d="M135 0v180h176v-180h-176z" />
<glyph unicode="/" horiz-adv-x="489" d="M2 -20l332 1454h153l-335 -1454h-150z" />
<glyph unicode="0" horiz-adv-x="925" d="M111 258v901q0 141 64.5 206t203.5 65h166q139 0 204.5 -65t65.5 -206v-901q0 -141 -65.5 -205.5t-204.5 -64.5h-166q-139 0 -203.5 64.5t-64.5 205.5zM270 238q0 -109 103 -109h188q94 0 94 109v923q0 66 -20.5 97.5t-81.5 31.5h-180q-61 0 -82 -31.5t-21 -97.5v-923z " />
<glyph unicode="1" horiz-adv-x="557" d="M74 1276v141h321v-1417h-157v1276h-164z" />
<glyph unicode="2" horiz-adv-x="819" d="M88 1280v131l12 12h418q109 0 159 -53t50 -143v-398q0 -92 -57.5 -135t-149.5 -43h-207q-37 0 -50 -15t-13 -56v-437h483v-143h-643v627q0 168 176 168h242q61 0 61 75v334q0 76 -80 76h-401z" />
<glyph unicode="3" horiz-adv-x="815" d="M72 10v129h399q96 0 96 84v355q0 74 -94 73h-242v144h236q47 0 73.5 13t26.5 56v344q0 33 -23.5 51.5t-64.5 18.5h-407v131l12 12h420q111 0 164 -49t53 -155v-310q0 -82 -28.5 -123t-102.5 -59v-6q135 -25 135 -162v-344q0 -217 -221 -217h-422z" />
<glyph unicode="4" horiz-adv-x="874" d="M45 344v158l422 917h203v-948h159v-127h-159v-344h-138v344h-487zM168 471h364v768h-8z" />
<glyph unicode="5" horiz-adv-x="825" d="M76 6v131h418q80 0 79 74v405q0 66 -79 66h-392v735h594v-141h-444v-449h303q176 0 176 -161v-467q0 -100 -49 -152.5t-176 -52.5h-418z" />
<glyph unicode="6" d="M111 254v905q0 264 262 264h399l12 -12v-133h-411q-102 0 -103 -117v-399q41 76 144 76h211q88 0 139 -44t51 -132v-406q0 -119 -58.5 -192.5t-158.5 -73.5h-250q-111 0 -174 68.5t-63 195.5zM270 248q0 -68 32 -95.5t99 -27.5h134q66 0 93 24.5t27 92.5v368q0 88 -90 88 h-190q-45 0 -75 -24.5t-30 -61.5v-364z" />
<glyph unicode="7" horiz-adv-x="784" d="M66 1274v143h663v-133l-471 -1284h-162l475 1274h-505z" />
<glyph unicode="8" horiz-adv-x="917" d="M106 203v340q0 70 37 119t111 59v6q-78 20 -111.5 65.5t-33.5 127.5v290q0 223 245 224h242q94 0 151.5 -58.5t57.5 -142.5v-338q0 -70 -37 -108.5t-113 -59.5v-6q76 -10 116 -60.5t40 -119.5v-338q0 -213 -242 -213h-223q-117 0 -178.5 48t-61.5 165zM262 223 q0 -94 113 -94h168q106 0 106 82v362q0 45 -26.5 61.5t-77.5 16.5h-187q-51 0 -73.5 -17.5t-22.5 -64.5v-346zM262 891q0 -94 113 -94h168q106 0 106 82v335q0 45 -26.5 61.5t-77.5 16.5h-187q-51 0 -73.5 -17.5t-22.5 -64.5v-319z" />
<glyph unicode="9" d="M98 756v405q0 119 58.5 192.5t158.5 73.5h250q111 0 174.5 -68.5t63.5 -195.5v-905q0 -264 -262 -264h-400l-12 12v133h412q102 0 102 117v399q-41 -76 -143 -75h-211q-88 0 -139.5 44t-51.5 132zM258 807q0 -88 90 -88h191q45 0 74.5 24.5t29.5 61.5v364 q0 68 -31.5 95.5t-99.5 27.5h-133q-66 0 -93.5 -24.5t-27.5 -91.5v-369z" />
<glyph unicode=":" horiz-adv-x="446" d="M135 0v180h176v-180h-176zM135 639v180h176v-180h-176z" />
<glyph unicode=";" horiz-adv-x="446" d="M115 -193l35 373h176l-93 -373h-118zM139 639v180h178v-180h-178z" />
<glyph unicode="&#x3c;" horiz-adv-x="714" d="M102 625v88l457 225l53 -100l-352 -170l348 -168l-51 -101z" />
<glyph unicode="=" horiz-adv-x="798" d="M104 504v112h590v-112h-590zM104 745v113h590v-113h-590z" />
<glyph unicode="&#x3e;" horiz-adv-x="798" d="M145 838l54 100l454 -225v-88l-452 -226l-54 101l349 168z" />
<glyph unicode="?" horiz-adv-x="770" d="M78 1278v133l12 12h379q211 0 211 -184v-403q0 -188 -176 -189h-96q-25 0 -33 -10t-8 -37v-272h-142v331q0 57 38 96.5t95 39.5h103q63 0 63 63v338q0 49 -23.5 65.5t-74.5 16.5h-348zM209 0v180h176v-180h-176z" />
<glyph unicode="@" horiz-adv-x="1402" d="M104 618q0 119 27 237t82 226.5t132 191.5t188.5 132t240.5 49q252 0 388 -156.5t136 -408.5q0 -223 -106.5 -410.5t-271.5 -187.5q-51 0 -93.5 30.5t-54.5 86.5q-80 -115 -182 -115q-90 0 -132 81t-42 173q0 80 19.5 172t55 181t99 148.5t143.5 59.5h221l-75 -549 q0 -6 -2.5 -29.5t-2.5 -29.5q0 -35 17.5 -58.5t48.5 -23.5q61 0 110.5 53t75 133t39 153.5t13.5 129.5q0 201 -107.5 328.5t-302.5 127.5q-135 0 -243.5 -67.5t-171 -176t-95.5 -232.5t-33 -251q0 -252 122 -403.5t366 -151.5q223 0 471 111l39 -96q-106 -57 -250 -92 t-273 -35q-295 0 -445.5 185t-150.5 484zM541 590q0 -170 82 -170q57 0 95 45t44 104l59 426h-104q-74 0 -125 -148.5t-51 -256.5z" />
<glyph unicode="A" d="M113 0v1143q0 295 344 295q162 0 253 -74t91 -219v-1145h-160v371h-377v-371h-151zM264 518h377v645q0 68 -57.5 101.5t-132.5 33.5q-78 0 -132.5 -33.5t-54.5 -103.5v-643z" />
<glyph unicode="B" d="M123 0v1417h473q109 0 162 -49t53 -156v-305q0 -82 -27.5 -123t-101.5 -59v-6q133 -23 133 -162v-344q0 -213 -219 -213h-473zM281 143h301q45 0 60 18.5t15 65.5v351q0 41 -17 57t-62 16h-297v-508zM281 795h301q43 0 59 12t16 57v340q0 70 -69 70h-307v-479z" />
<glyph unicode="C" horiz-adv-x="761" d="M102 262v901q0 260 263 260h323l12 -12v-131h-323q-66 0 -90.5 -35t-24.5 -106v-860q0 -70 26.5 -106t94.5 -36h317v-131l-12 -12h-321q-137 0 -201 65.5t-64 202.5z" />
<glyph unicode="D" d="M123 0v1417h428q260 0 260 -252v-903q0 -262 -262 -262h-426zM283 143h221q147 0 147 131v869q0 131 -153 131h-215v-1131z" />
<glyph unicode="E" horiz-adv-x="817" d="M123 0v1417h612v-143h-452v-479h366v-144h-366v-508h452v-143h-612z" />
<glyph unicode="F" horiz-adv-x="806" d="M123 0v1417h612v-143h-452v-481h366v-144h-366v-649h-160z" />
<glyph unicode="G" horiz-adv-x="888" d="M102 264v899q0 137 67 198.5t204 61.5h391l12 -12v-131h-397q-68 0 -93.5 -35t-25.5 -106v-863q0 -139 127 -139h234v502h155v-633l-10 -12h-393q-143 0 -207 65.5t-64 204.5z" />
<glyph unicode="H" horiz-adv-x="942" d="M123 0v1417h160v-622h376v622h160v-1417h-160v651h-376v-651h-160z" />
<glyph unicode="I" horiz-adv-x="405" d="M123 0v1417h160v-1417h-160z" />
<glyph unicode="J" horiz-adv-x="712" d="M66 2v139h264q59 0 84.5 27t25.5 88v1161h158v-1153q0 -143 -58.5 -206.5t-197.5 -63.5h-268z" />
<glyph unicode="K" horiz-adv-x="919" d="M123 0v1417h160v-626h172l207 626h155l-215 -626h66q82 0 115.5 -48.5t33.5 -113.5v-629h-160v571q0 47 -17 63.5t-56 16.5h-301v-651h-160z" />
<glyph unicode="L" horiz-adv-x="753" d="M123 0v1417h158v-1274h452v-143h-610z" />
<glyph unicode="M" horiz-adv-x="1159" d="M123 0v1417h256l199 -780h10l190 780h258v-1417h-145v1243h-12l-250 -928h-103l-245 922h-13v-1237h-145z" />
<glyph unicode="N" horiz-adv-x="942" d="M123 0v1417h196l347 -1028h10v1028h143v-1417h-160l-380 1118h-15v-1118h-141z" />
<glyph unicode="O" horiz-adv-x="897" d="M102 283v854q0 301 346.5 301t346.5 -299v-858q0 -156 -92.5 -228.5t-253.5 -72.5q-346 0 -347 303zM260 262q0 -74 51 -109.5t135 -35.5q80 0 135.5 35.5t55.5 107.5v895q0 72 -53.5 108.5t-137.5 36.5q-186 0 -186 -147v-891z" />
<glyph unicode="P" horiz-adv-x="915" d="M123 0v1417h477q217 0 217 -200v-576q0 -117 -57.5 -166t-163.5 -49h-313v-426h-160zM283 569h280q94 0 94 84v537q0 84 -94 84h-280v-705z" />
<glyph unicode="Q" horiz-adv-x="897" d="M102 283v854q0 301 346.5 301t346.5 -299v-858q0 -260 -267 -297v-148h-157v148q-268 33 -269 299zM260 262q0 -74 51 -109.5t135 -35.5q80 0 135.5 35.5t55.5 107.5v895q0 72 -53.5 108.5t-137.5 36.5q-186 0 -186 -147v-891z" />
<glyph unicode="R" horiz-adv-x="925" d="M123 0v1417h463q117 0 174 -48t57 -163v-547q0 -102 -52 -157.5t-124 -55.5h-51l266 -446h-178l-260 446h-135v-446h-160zM283 580h301q43 0 58 21.5t15 70.5v518q0 84 -92 84h-282v-694z" />
<glyph unicode="S" horiz-adv-x="811" d="M84 805v418q0 200 209 200h2h401l6 -6v-137h-378q-80 0 -80 -68v-352q0 -59 65 -59h279q59 0 99 -39t40 -94v-467q0 -111 -54.5 -159t-164.5 -48h-412l-10 12v131h410q74 0 73 74v369q0 43 -10 58t-45 15h-250q-180 0 -180 152z" />
<glyph unicode="T" horiz-adv-x="835" d="M41 1274v143h754v-143h-297v-1274h-160v1274h-297z" />
<glyph unicode="U" horiz-adv-x="911" d="M113 293v1124h157v-1120q0 -172 203 -172q74 0 124 43t50 129v1120h152v-1130q0 -152 -95.5 -229.5t-246.5 -77.5q-166 0 -255 78.5t-89 234.5z" />
<glyph unicode="V" horiz-adv-x="892" d="M102 961v456h162v-504q0 -219 43 -338l142 -382h8l135 378q45 125 45 357v489h154v-473q0 -289 -58 -438l-203 -516h-168l-198 502q-61 158 -62 469z" />
<glyph unicode="W" horiz-adv-x="1454" d="M113 274v1143h159v-1159q0 -68 57.5 -103.5t133.5 -35.5q84 0 134 38t50 117v1143h160v-1159q0 -68 57.5 -103.5t133 -35.5t131 35.5t55.5 105.5v1157h157v-1138q0 -299 -354 -299q-178 0 -262 81q-89 -81 -268 -81h-4q-340 0 -340 294z" />
<glyph unicode="X" horiz-adv-x="905" d="M109 0v526q0 156 161 195v6q-74 14 -116.5 66.5t-42.5 130.5v493h159v-487q0 -68 55.5 -105t123.5 -37q76 0 134 33t58 103v493h158v-489q0 -152 -160 -201v-6q72 -14 116 -62.5t44 -121.5v-537h-158v530q0 135 -188 136q-182 0 -183 -131v-535h-161z" />
<glyph unicode="Y" horiz-adv-x="901" d="M102 657v760h160v-745q0 -43 19.5 -59.5t62.5 -16.5h229q16 0 27.5 2t18 7t10.5 8t6 12.5t2 12.5v16.5v17.5v745h162v-753q0 -203 -211 -203h-58v-461h-159v461h-66q-203 0 -203 196z" />
<glyph unicode="Z" horiz-adv-x="802" d="M70 0v119l493 1153h-487v145h657v-129l-491 -1145h487v-143h-659z" />
<glyph unicode="[" horiz-adv-x="417" d="M76 -186v1716h330v-127h-168v-1464h168v-125h-330z" />
<glyph unicode="\" horiz-adv-x="487" d="M2 1434h150l333 -1454h-151z" />
<glyph unicode="]" horiz-adv-x="417" d="M12 -61h168v1464h-168v127h330v-1716h-330v125z" />
<glyph unicode="^" horiz-adv-x="729" d="M0 651v113h729v-113h-729z" />
<glyph unicode="_" horiz-adv-x="1024" />
<glyph unicode="`" horiz-adv-x="477" d="M96 1718l137 51l148 -276h-105z" />
<glyph unicode="a" d="M113 0v1143q0 295 344 295q162 0 253 -74t91 -219v-1145h-160v371h-377v-371h-151zM264 518h377v645q0 68 -57.5 101.5t-132.5 33.5q-78 0 -132.5 -33.5t-54.5 -103.5v-643z" />
<glyph unicode="b" d="M123 0v1417h473q109 0 162 -49t53 -156v-305q0 -82 -27.5 -123t-101.5 -59v-6q133 -23 133 -162v-344q0 -213 -219 -213h-473zM281 143h301q45 0 60 18.5t15 65.5v351q0 41 -17 57t-62 16h-297v-508zM281 795h301q43 0 59 12t16 57v340q0 70 -69 70h-307v-479z" />
<glyph unicode="c" horiz-adv-x="761" d="M102 262v901q0 260 263 260h323l12 -12v-131h-323q-66 0 -90.5 -35t-24.5 -106v-860q0 -70 26.5 -106t94.5 -36h317v-131l-12 -12h-321q-137 0 -201 65.5t-64 202.5z" />
<glyph unicode="d" d="M123 0v1417h428q260 0 260 -252v-903q0 -262 -262 -262h-426zM283 143h221q147 0 147 131v869q0 131 -153 131h-215v-1131z" />
<glyph unicode="e" horiz-adv-x="817" d="M102 262v901q0 260 263 260h360l12 -12v-131h-362q-66 0 -89.5 -35t-23.5 -106v-346h387v-144h-387v-370q0 -72 25.5 -107t93.5 -35h356v-131l-12 -12h-358q-137 0 -201 65.5t-64 202.5z" />
<glyph unicode="f" horiz-adv-x="817" d="M102 0v1163q0 260 263 260h360l12 -12v-131h-364q-66 0 -88.5 -34t-22.5 -107v-346h387v-144h-387v-649h-160z" />
<glyph unicode="g" horiz-adv-x="888" d="M102 264v899q0 137 67 198.5t204 61.5h391l12 -12v-131h-397q-68 0 -93.5 -35t-25.5 -106v-863q0 -139 127 -139h234v502h155v-633l-10 -12h-393q-143 0 -207 65.5t-64 204.5z" />
<glyph unicode="h" horiz-adv-x="942" d="M123 0v1417h160v-622h376v622h160v-1417h-160v651h-376v-651h-160z" />
<glyph unicode="i" horiz-adv-x="405" d="M123 0v1417h160v-1417h-160z" />
<glyph unicode="j" horiz-adv-x="712" d="M66 2v139h264q59 0 84.5 27t25.5 88v1161h158v-1153q0 -143 -58.5 -206.5t-197.5 -63.5h-268z" />
<glyph unicode="k" horiz-adv-x="919" d="M123 0v1417h160v-620h268q53 0 79.5 24.5t26.5 96.5v499h156v-489q0 -88 -27.5 -133t-107.5 -60v-6q139 -25 139 -166v-563h-160v561q0 96 -100 96h-274v-657h-160z" />
<glyph unicode="l" horiz-adv-x="753" d="M123 0v1417h158v-1274h452v-143h-610z" />
<glyph unicode="m" horiz-adv-x="1454" d="M113 0v1139q0 299 354 299q178 0 262 -82q90 82 272 82q340 0 340 -295v-1143h-159v1159q0 68 -57.5 103.5t-133.5 35.5q-84 0 -134 -37.5t-50 -117.5v-1143h-160v1159q0 68 -57.5 103.5t-133 35.5t-131 -35.5t-55.5 -105.5v-1157h-157z" />
<glyph unicode="n" horiz-adv-x="919" d="M113 0v1139q0 299 354 299q340 0 340 -295v-1143h-160v1159q0 68 -57.5 103.5t-133 35.5t-131 -35.5t-55.5 -105.5v-1157h-157z" />
<glyph unicode="o" horiz-adv-x="897" d="M102 283v854q0 301 346.5 301t346.5 -299v-858q0 -156 -92.5 -228.5t-253.5 -72.5q-346 0 -347 303zM260 262q0 -74 51 -109.5t135 -35.5q80 0 135.5 35.5t55.5 107.5v895q0 72 -53.5 108.5t-137.5 36.5q-186 0 -186 -147v-891z" />
<glyph unicode="p" horiz-adv-x="915" d="M123 0v1417h477q217 0 217 -200v-576q0 -117 -57.5 -166t-163.5 -49h-313v-426h-160zM283 569h280q94 0 94 84v537q0 84 -94 84h-280v-705z" />
<glyph unicode="q" horiz-adv-x="897" d="M102 283v854q0 301 346.5 301t346.5 -299v-858q0 -260 -267 -297v-148h-157v148q-268 33 -269 299zM260 262q0 -74 51 -109.5t135 -35.5q80 0 135.5 35.5t55.5 107.5v895q0 72 -53.5 108.5t-137.5 36.5q-186 0 -186 -147v-891z" />
<glyph unicode="r" horiz-adv-x="917" d="M123 0v1417h463q117 0 174 -48t57 -163v-522q0 -143 -133 -172v-6q135 -23 135 -156v-350h-160v356q0 84 -75 84h-303v-440h-158zM281 580h290q88 0 88 94v516q0 84 -94 84h-284v-694z" />
<glyph unicode="s" horiz-adv-x="811" d="M84 805v418q0 200 209 200h2h401l6 -6v-137h-378q-80 0 -80 -68v-352q0 -59 65 -59h279q59 0 99 -39t40 -94v-467q0 -111 -54.5 -159t-164.5 -48h-412l-10 12v131h410q74 0 73 74v369q0 43 -10 58t-45 15h-250q-180 0 -180 152z" />
<glyph unicode="t" horiz-adv-x="911" d="M113 293v1124h155v-317h531v-144h-531v-671q0 -160 211 -160q70 0 119 43t49 113v452h152v-434q0 -156 -90.5 -237.5t-249.5 -81.5q-162 0 -254 79.5t-92 233.5z" />
<glyph unicode="u" horiz-adv-x="911" d="M113 293v1124h157v-1120q0 -172 203 -172q74 0 124 43t50 129v1120h152v-1130q0 -152 -95.5 -229.5t-246.5 -77.5q-166 0 -255 78.5t-89 234.5z" />
<glyph unicode="v" horiz-adv-x="892" d="M102 961v456h162v-504q0 -219 43 -338l142 -382h8l135 378q45 125 45 357v489h154v-473q0 -289 -58 -438l-203 -516h-168l-198 502q-61 158 -62 469z" />
<glyph unicode="w" horiz-adv-x="1454" d="M113 274v1143h159v-1159q0 -68 57.5 -103.5t133.5 -35.5q84 0 134 38t50 117v1143h160v-1159q0 -68 57.5 -103.5t133 -35.5t131 35.5t55.5 105.5v1157h157v-1138q0 -299 -354 -299q-178 0 -262 81q-89 -81 -268 -81h-4q-340 0 -340 294z" />
<glyph unicode="x" horiz-adv-x="905" d="M109 0v526q0 156 161 195v6q-74 14 -116.5 66.5t-42.5 130.5v493h159v-487q0 -68 55.5 -105t123.5 -37q76 0 134 33t58 103v493h158v-489q0 -152 -160 -201v-6q72 -14 116 -62.5t44 -121.5v-537h-158v530q0 135 -188 136q-182 0 -183 -131v-535h-161z" />
<glyph unicode="y" horiz-adv-x="917" d="M102 637v780h162v-735q0 -88 90 -88h201q82 0 82 86v737h162v-1159q0 -264 -264 -264h-400l-12 12v133h412q102 0 102 117v281q-45 -76 -143 -76h-199q-88 0 -140.5 44t-52.5 132z" />
<glyph unicode="z" horiz-adv-x="802" d="M70 0v119l493 1153h-487v145h657v-129l-491 -1145h487v-143h-659z" />
<glyph unicode="{" horiz-adv-x="417" d="M-4 756l80 98v676h330v-127h-168v-574l-62 -65l62 -62v-763h168v-125h-330v848z" />
<glyph unicode="|" horiz-adv-x="516" d="M184 -20v1454h146v-1454h-146z" />
<glyph unicode="}" horiz-adv-x="417" d="M12 -61h168v763l62 62l-62 65v574h-168v127h330v-676l80 -98l-80 -94v-848h-330v125z" />
<glyph unicode="~" horiz-adv-x="1275" d="M0 651v113h1276v-113h-1276z" />
<glyph unicode="&#xa1;" horiz-adv-x="415" d="M119 1032v182h178v-182h-178zM125 -203l18 1090h131l19 -1090h-168z" />
<glyph unicode="&#xa2;" horiz-adv-x="776" d="M104 266v608q0 260 263 261h43v176h127v-176h161l13 -11v-133h-334q-113 0 -113 -141v-592q0 -66 31 -90.5t102 -24.5h314v-131l-13 -12h-161v-182h-127v182h-37q-139 0 -204 65.5t-65 200.5z" />
<glyph unicode="&#xa3;" horiz-adv-x="868" d="M78 666v120h176v404q0 125 54 179t175 54h258l9 -8v-133h-267q-47 0 -59 -20.5t-12 -79.5v-396h305l-25 -120h-280v-533h399v-133h-729v133h172v533h-176z" />
<glyph unicode="&#xa4;" horiz-adv-x="823" d="M39 524v119h147v186h-147v119h147v215q0 260 263 260h301l12 -12v-131h-301q-66 0 -90.5 -35t-24.5 -106v-191h336l-25 -119h-311v-186h283l-25 -119h-258v-245q0 -70 26.5 -106t94.5 -36h295v-131l-12 -12h-299q-137 0 -201 65.5t-64 202.5v262h-147z" />
<glyph unicode="&#xa5;" horiz-adv-x="901" d="M102 788v629h160v-614q0 -43 19.5 -59.5t62.5 -16.5h229q16 0 27.5 2t18 7t10.5 8.5t6 12.5t2 12v16.5v17.5v614h162v-622q0 -203 -211 -203h-58v-156h265v-117h-265v-319h-159v319h-265v117h265v156h-66q-203 0 -203 196z" />
<glyph unicode="&#xa6;" horiz-adv-x="1024" />
<glyph unicode="&#xa7;" horiz-adv-x="950" d="M133 324v909q0 182 193 182h485l6 -6v-125h-467q-72 0 -71 -61v-213h59h358q53 0 90 -36t37 -85v-940q0 -100 -49 -143.5t-149 -43.5h-482l-8 11v118h477q68 0 68 68v227h-383q-164 0 -164 138zM279 375q0 -53 59 -53h342v485q0 68 -70 67h-331v-499z" />
<glyph unicode="&#xa8;" horiz-adv-x="610" d="M82 1511v148h151v-148h-151zM377 1511v148h153v-148h-153z" />
<glyph unicode="&#xa9;" horiz-adv-x="1441" d="M121 324v778q0 119 38 203t105.5 128t142 63.5t164.5 19.5h299q215 0 333 -98.5t118 -330.5v-745q0 -238 -120 -339t-337 -101h-286q-92 0 -169 19.5t-144.5 64.5t-105.5 131t-38 207zM254 332q0 -166 83 -234.5t241 -68.5h286q176 0 251 71.5t75 239.5v750 q0 162 -74 230.5t-246 68.5h-299q-154 0 -235.5 -68t-81.5 -227v-762zM453 422v586q0 213 213 213h266l14 -11v-127h-264q-80 0 -80 -94v-555q0 -96 84 -96h260v-125l-12 -12h-266q-115 0 -165 54t-50 167z" />
<glyph unicode="&#xaa;" horiz-adv-x="573" d="M72 715v80h430v-80h-430zM88 1004v53q0 78 40 107.5t120 29.5h117v86q0 45 -70 45h-176v74l14 16h174q78 0 119 -26.5t41 -98.5v-401l-12 -15h-205q-162 0 -162 130zM188 999q0 -25 9.5 -35t38.5 -10h129v166h-129q-47 0 -48 -47v-74z" />
<glyph unicode="&#xab;" horiz-adv-x="731" d="M111 709l131 264h123l-125 -264l125 -267h-123zM367 709l129 264h125l-125 -264l125 -267h-125z" />
<glyph unicode="&#xac;" horiz-adv-x="798" d="M133 862l80 80l186 -188l187 186l80 -80l-187 -184l185 -184l-80 -80l-185 184l-184 -186l-80 79l187 187z" />
<glyph unicode="&#xad;" horiz-adv-x="532" d="M49 629v145h434v-145h-434z" />
<glyph unicode="&#xae;" d="M113 0v1143q0 295 344 295q162 0 253 -74t91 -219v-1145h-160v371h-377v-371h-151zM248 1522v102h418v-102h-418zM264 518h377v645q0 68 -57.5 101.5t-132.5 33.5q-78 0 -132.5 -33.5t-54.5 -103.5v-643z" />
<glyph unicode="&#xaf;" horiz-adv-x="591" d="M86 1522v102h420v-102h-420z" />
<glyph unicode="&#xb0;" horiz-adv-x="475" d="M76 1382.5q0 65.5 47 113.5t114.5 48t114.5 -48t47 -113.5t-47 -111.5t-114 -46q-70 0 -116 46t-46 111.5zM152 1382.5q0 -34.5 24.5 -60.5t61 -26t61.5 26t25 60.5t-25 60t-61.5 25.5t-61 -25.5t-24.5 -60z" />
<glyph unicode="&#xb1;" horiz-adv-x="897" d="M102 283v854q0 301 346.5 301t346.5 -299v-858q0 -156 -92.5 -228.5t-253.5 -72.5q-346 0 -347 303zM225 1522v102h420v-102h-420zM260 262q0 -74 51 -109.5t135 -35.5q80 0 135.5 35.5t55.5 107.5v895q0 72 -53.5 108.5t-137.5 36.5q-186 0 -186 -147v-891z" />
<glyph unicode="&#xb2;" horiz-adv-x="1024" />
<glyph unicode="&#xb3;" horiz-adv-x="1024" />
<glyph unicode="&#xb4;" horiz-adv-x="477" d="M96 1493l146 276l139 -51l-180 -225h-105z" />
<glyph unicode="&#xb6;" horiz-adv-x="950" d="M123 549v590q0 150 62.5 214t189.5 64h432l6 -8v-1651h-145v1522h-129v-985h-215q-106 0 -153.5 62.5t-47.5 191.5z" />
<glyph unicode="&#xb7;" horiz-adv-x="573" d="M199 600v180h176v-180h-176z" />
<glyph unicode="&#xb8;" horiz-adv-x="460" d="M154 -209l30 305h154l-82 -305h-102z" />
<glyph unicode="&#xb9;" horiz-adv-x="1024" />
<glyph unicode="&#xba;" horiz-adv-x="573" d="M72 713v82h430v-82h-430zM88 1028v227q0 164 193 164q80 0 138 -36.5t58 -120.5v-230q0 -84 -55 -124t-137 -40q-197 0 -197 160zM190 1020q0 -63 93 -64q90 0 90 74v238q0 66 -92 65q-90 0 -91 -65v-248z" />
<glyph unicode="&#xbb;" horiz-adv-x="731" d="M111 442l125 267l-125 264h125l129 -264l-129 -267h-125zM365 442l127 267l-127 264h124l132 -264l-132 -267h-124z" />
<glyph unicode="&#xbc;" horiz-adv-x="1024" />
<glyph unicode="&#xbd;" horiz-adv-x="1024" />
<glyph unicode="&#xbe;" horiz-adv-x="1024" />
<glyph unicode="&#xbf;" horiz-adv-x="770" d="M90 -27v404q0 188 176 188h96q25 0 33 9.5t8 37.5v273h142v-332q0 -57 -38 -96t-95 -39h-103q-63 0 -63 -64v-338q0 -49 23.5 -65.5t74.5 -16.5h348v-133l-12 -12h-379q-211 0 -211 184zM385 1032v180h176v-180h-176z" />
<glyph unicode="&#xc0;" d="M113 0v1143q0 295 344 295q162 0 253 -74t91 -219v-1145h-160v371h-377v-371h-151zM221 1718l139 49l146 -274h-105zM264 518h377v645q0 68 -57.5 101.5t-132.5 33.5q-78 0 -132.5 -33.5t-54.5 -103.5v-643z" />
<glyph unicode="&#xc1;" d="M113 0v1143q0 295 344 295q162 0 253 -74t91 -219v-1145h-160v371h-377v-371h-151zM264 518h377v645q0 68 -57.5 101.5t-132.5 33.5q-78 0 -132.5 -33.5t-54.5 -103.5v-643zM406 1495l145 277l139 -52l-180 -225h-104z" />
<glyph unicode="&#xc2;" d="M113 0v1143q0 295 344 295q162 0 253 -74t91 -219v-1145h-160v371h-377v-371h-151zM233 1495l160 240h131l156 -240h-129l-94 147l-95 -147h-129zM264 518h377v645q0 68 -57.5 101.5t-132.5 33.5q-78 0 -132.5 -33.5t-54.5 -103.5v-643z" />
<glyph unicode="&#xc3;" d="M113 0v1143q0 295 344 295q162 0 253 -74t91 -219v-1145h-160v371h-377v-371h-151zM193 1511q31 156 151 156q37 0 111 -20q86 -23 123 -23q49 0 73 57l70 -16q-25 -152 -143 -152q-39 0 -113 21q-82 20 -123 20q-55 0 -78 -57zM264 518h377v645q0 68 -57.5 101.5 t-132.5 33.5q-78 0 -132.5 -33.5t-54.5 -103.5v-643z" />
<glyph unicode="&#xc4;" d="M113 0v1143q0 295 344 295q162 0 253 -74t91 -219v-1145h-160v371h-377v-371h-151zM233 1511v148h152v-148h-152zM264 518h377v645q0 68 -57.5 101.5t-132.5 33.5q-78 0 -132.5 -33.5t-54.5 -103.5v-643zM528 1511v148h152v-148h-152z" />
<glyph unicode="&#xc5;" d="M113 0v1143q0 295 344 295q162 0 253 -74t91 -219v-1145h-160v371h-377v-371h-151zM264 518h377v645q0 68 -57.5 101.5t-132.5 33.5q-78 0 -132.5 -33.5t-54.5 -103.5v-643zM305 1624q0 57 44 97t107.5 40t107.5 -40t44 -97t-44 -98t-107.5 -41t-107.5 41t-44 98z M383 1624q0 -29 21.5 -49.5t52 -20.5t52 20.5t21.5 49.5t-21.5 48.5t-52 19.5t-52 -19.5t-21.5 -48.5z" />
<glyph unicode="&#xc6;" horiz-adv-x="1314" d="M113 0v1106q0 150 83 230.5t242 80.5h795v-143h-453v-479h367v-146h-367v-506h453v-143h-612v371h-357v-371h-151zM264 518h357v756h-197q-160 0 -160 -133v-623z" />
<glyph unicode="&#xc7;" horiz-adv-x="761" d="M102 262v901q0 260 263 260h323l12 -12v-131h-323q-66 0 -90.5 -35t-24.5 -106v-860q0 -70 26.5 -106t94.5 -36h317v-131l-12 -12h-156l-55 -201h-102l22 201h-30q-137 0 -201 65.5t-64 202.5z" />
<glyph unicode="&#xc8;" horiz-adv-x="817" d="M123 0v1417h612v-143h-452v-479h366v-144h-366v-508h452v-143h-612zM233 1718l140 49l145 -274h-104z" />
<glyph unicode="&#xc9;" horiz-adv-x="817" d="M123 0v1417h612v-143h-452v-479h366v-144h-366v-508h452v-143h-612zM414 1495l145 277l139 -52l-180 -225h-104z" />
<glyph unicode="&#xca;" horiz-adv-x="817" d="M123 0v1417h612v-143h-452v-479h366v-144h-366v-508h452v-143h-612zM225 1495l160 240h131l156 -240h-129l-94 147l-95 -147h-129z" />
<glyph unicode="&#xcb;" horiz-adv-x="817" d="M123 0v1417h612v-143h-452v-479h366v-144h-366v-508h452v-143h-612zM219 1511v148h154v-148h-154zM514 1511v148h154v-148h-154z" />
<glyph unicode="&#xcc;" horiz-adv-x="405" d="M-31 1718l140 49l145 -274h-104zM123 0v1417h160v-1417h-160z" />
<glyph unicode="&#xcd;" horiz-adv-x="405" d="M123 -41v1458h160v-1458h-160zM158 1495l145 277l139 -52l-180 -225h-104z" />
<glyph unicode="&#xce;" horiz-adv-x="405" d="M-20 1495l159 240h131l156 -240h-129l-94 147l-94 -147h-129zM123 0v1417h160v-1417h-160z" />
<glyph unicode="&#xcf;" horiz-adv-x="405" d="M-20 1511v148h151v-148h-151zM123 0v1417h160v-1417h-160zM274 1511v148h152v-148h-152z" />
<glyph unicode="&#xd0;" horiz-adv-x="1024" />
<glyph unicode="&#xd1;" horiz-adv-x="942" d="M123 0v1417h196l347 -1028h10v1028h143v-1417h-160l-380 1118h-15v-1118h-141zM209 1511q31 156 151 156q37 0 111 -20q86 -23 123 -23q49 0 74 57l69 -16q-25 -152 -143 -152q-39 0 -113 21q-82 20 -123 20q-55 0 -77 -57z" />
<glyph unicode="&#xd2;" horiz-adv-x="897" d="M102 283v854q0 301 346.5 301t346.5 -299v-858q0 -156 -92.5 -228.5t-253.5 -72.5q-346 0 -347 303zM221 1718l139 49l146 -274h-105zM260 262q0 -74 51 -109.5t135 -35.5q80 0 135.5 35.5t55.5 107.5v895q0 72 -53.5 108.5t-137.5 36.5q-186 0 -186 -147v-891z" />
<glyph unicode="&#xd3;" horiz-adv-x="897" d="M102 283v854q0 301 346.5 301t346.5 -299v-858q0 -156 -92.5 -228.5t-253.5 -72.5q-346 0 -347 303zM260 262q0 -74 51 -109.5t135 -35.5q80 0 135.5 35.5t55.5 107.5v895q0 72 -53.5 108.5t-137.5 36.5q-186 0 -186 -147v-891zM406 1495l145 277l139 -52l-180 -225h-104 z" />
<glyph unicode="&#xd4;" horiz-adv-x="897" d="M102 283v854q0 301 346.5 301t346.5 -299v-858q0 -156 -92.5 -228.5t-253.5 -72.5q-346 0 -347 303zM225 1495l160 240h131l156 -240h-129l-94 147l-95 -147h-129zM260 262q0 -74 51 -109.5t135 -35.5q80 0 135.5 35.5t55.5 107.5v895q0 72 -53.5 108.5t-137.5 36.5 q-186 0 -186 -147v-891z" />
<glyph unicode="&#xd5;" horiz-adv-x="897" d="M102 283v854q0 301 346.5 301t346.5 -299v-858q0 -156 -92.5 -228.5t-253.5 -72.5q-346 0 -347 303zM184 1511q31 156 152 156q37 0 110 -20q86 -23 123 -23q49 0 74 57l70 -16q-25 -152 -144 -152q-39 0 -112 21q-82 20 -123 20q-55 0 -78 -57zM260 262q0 -74 51 -109.5 t135 -35.5q80 0 135.5 35.5t55.5 107.5v895q0 72 -53.5 108.5t-137.5 36.5q-186 0 -186 -147v-891z" />
<glyph unicode="&#xd6;" horiz-adv-x="897" d="M102 283v854q0 301 346.5 301t346.5 -299v-858q0 -156 -92.5 -228.5t-253.5 -72.5q-346 0 -347 303zM225 1511v148h152v-148h-152zM260 262q0 -74 51 -109.5t135 -35.5q80 0 135.5 35.5t55.5 107.5v895q0 72 -53.5 108.5t-137.5 36.5q-186 0 -186 -147v-891zM520 1511 v148h152v-148h-152z" />
<glyph unicode="&#xd7;" horiz-adv-x="1024" />
<glyph unicode="&#xd8;" horiz-adv-x="897" d="M27 -18l92 184q-16 53 -17 117v854q0 301 347 301q180 0 266 -84l41 82h114l-92 -185q16 -53 17 -112v-858q0 -156 -92.5 -228.5t-253.5 -72.5q-182 0 -267 81l-41 -79h-114zM260 446l373 744q-12 55 -63.5 82.5t-123.5 27.5q-186 0 -186 -147v-707zM264 225 q23 -109 182 -108q80 0 135.5 35.5t55.5 107.5v711z" />
<glyph unicode="&#xd9;" horiz-adv-x="911" d="M113 293v1124h157v-1120q0 -172 203 -172q74 0 124 43t50 129v1120h152v-1130q0 -152 -95.5 -229.5t-246.5 -77.5q-166 0 -255 78.5t-89 234.5zM238 1718l139 49l145 -274h-104z" />
<glyph unicode="&#xda;" horiz-adv-x="911" d="M113 293v1124h157v-1120q0 -172 203 -172q74 0 124 43t50 129v1120h152v-1130q0 -152 -95.5 -229.5t-246.5 -77.5q-166 0 -255 78.5t-89 234.5zM406 1495l145 277l139 -52l-180 -225h-104z" />
<glyph unicode="&#xdb;" horiz-adv-x="911" d="M113 293v1124h157v-1120q0 -172 203 -172q74 0 124 43t50 129v1120h152v-1130q0 -152 -95.5 -229.5t-246.5 -77.5q-166 0 -255 78.5t-89 234.5zM233 1495l160 240h131l156 -240h-129l-94 147l-95 -147h-129z" />
<glyph unicode="&#xdc;" horiz-adv-x="911" d="M113 293v1124h157v-1120q0 -172 203 -172q74 0 124 43t50 129v1120h152v-1130q0 -152 -95.5 -229.5t-246.5 -77.5q-166 0 -255 78.5t-89 234.5zM231 1511v148h154v-148h-154zM526 1511v148h154v-148h-154z" />
<glyph unicode="&#xdd;" horiz-adv-x="1024" />
<glyph unicode="&#xde;" horiz-adv-x="1024" />
<glyph unicode="&#xdf;" horiz-adv-x="811" d="M84 805v418q0 201 211 200h401l6 -6v-137h-378q-80 0 -80 -68v-352q0 -59 65 -59h279q59 0 99 -39t40 -94v-467q0 -111 -54.5 -159t-164.5 -48h-412l-10 12v131h410q74 0 73 74v369q0 43 -10 58t-45 15h-250q-180 0 -180 152zM188 1735h129l95 -150l94 150h129l-162 -240 h-129z" />
<glyph unicode="&#xe0;" d="M113 0v1143q0 295 344 295q162 0 253 -74t91 -219v-1145h-160v371h-377v-371h-151zM221 1718l139 49l146 -274h-105zM264 518h377v645q0 68 -57.5 101.5t-132.5 33.5q-78 0 -132.5 -33.5t-54.5 -103.5v-643z" />
<glyph unicode="&#xe1;" d="M113 0v1143q0 295 344 295q162 0 253 -74t91 -219v-1145h-160v371h-377v-371h-151zM264 518h377v645q0 68 -57.5 101.5t-132.5 33.5q-78 0 -132.5 -33.5t-54.5 -103.5v-643zM406 1495l145 277l139 -52l-180 -225h-104z" />
<glyph unicode="&#xe2;" d="M113 0v1143q0 295 344 295q162 0 253 -74t91 -219v-1145h-160v371h-377v-371h-151zM233 1495l160 240h131l156 -240h-129l-94 147l-95 -147h-129zM264 518h377v645q0 68 -57.5 101.5t-132.5 33.5q-78 0 -132.5 -33.5t-54.5 -103.5v-643z" />
<glyph unicode="&#xe3;" d="M113 0v1143q0 295 344 295q162 0 253 -74t91 -219v-1145h-160v371h-377v-371h-151zM193 1511q31 156 151 156q37 0 111 -20q86 -23 123 -23q49 0 73 57l70 -16q-25 -152 -143 -152q-39 0 -113 21q-82 20 -123 20q-55 0 -78 -57zM264 518h377v645q0 68 -57.5 101.5 t-132.5 33.5q-78 0 -132.5 -33.5t-54.5 -103.5v-643z" />
<glyph unicode="&#xe4;" d="M113 0v1143q0 295 344 295q162 0 253 -74t91 -219v-1145h-160v371h-377v-371h-151zM233 1511v148h152v-148h-152zM264 518h377v645q0 68 -57.5 101.5t-132.5 33.5q-78 0 -132.5 -33.5t-54.5 -103.5v-643zM528 1511v148h152v-148h-152z" />
<glyph unicode="&#xe5;" d="M113 0v1143q0 295 344 295q162 0 253 -74t91 -219v-1145h-160v371h-377v-371h-151zM264 518h377v645q0 68 -57.5 101.5t-132.5 33.5q-78 0 -132.5 -33.5t-54.5 -103.5v-643zM305 1624q0 57 44 97t107.5 40t107.5 -40t44 -97t-44 -98t-107.5 -41t-107.5 41t-44 98z M383 1624q0 -29 21.5 -49.5t52 -20.5t52 20.5t21.5 49.5t-21.5 48.5t-52 19.5t-52 -19.5t-21.5 -48.5z" />
<glyph unicode="&#xe6;" horiz-adv-x="1314" d="M113 0v1106q0 150 83 230.5t242 80.5h795v-143h-453v-479h367v-146h-367v-506h453v-143h-612v371h-357v-371h-151zM264 518h357v756h-197q-160 0 -160 -133v-623z" />
<glyph unicode="&#xe7;" horiz-adv-x="761" d="M102 262v901q0 260 263 260h323l12 -12v-131h-323q-66 0 -90.5 -35t-24.5 -106v-860q0 -70 26.5 -106t94.5 -36h317v-131l-12 -12h-156l-55 -201h-102l22 201h-30q-137 0 -201 65.5t-64 202.5z" />
<glyph unicode="&#xe8;" horiz-adv-x="817" d="M102 262v901q0 260 263 260h360l12 -12v-131h-362q-66 0 -89.5 -35t-23.5 -106v-346h387v-144h-387v-370q0 -72 25.5 -107t93.5 -35h356v-131l-12 -12h-358q-137 0 -201 65.5t-64 202.5zM238 1718l139 49l145 -274h-104z" />
<glyph unicode="&#xe9;" horiz-adv-x="817" d="M102 262v901q0 260 263 260h360l12 -12v-131h-362q-66 0 -89.5 -35t-23.5 -106v-346h387v-144h-387v-370q0 -72 25.5 -107t93.5 -35h356v-131l-12 -12h-358q-137 0 -201 65.5t-64 202.5zM414 1495l145 277l139 -52l-180 -225h-104z" />
<glyph unicode="&#xea;" horiz-adv-x="817" d="M102 262v901q0 260 263 260h360l12 -12v-131h-362q-66 0 -89.5 -35t-23.5 -106v-346h387v-144h-387v-370q0 -72 25.5 -107t93.5 -35h356v-131l-12 -12h-358q-137 0 -201 65.5t-64 202.5zM233 1495l160 240h131l156 -240h-129l-94 147l-95 -147h-129z" />
<glyph unicode="&#xeb;" horiz-adv-x="817" d="M102 262v901q0 260 263 260h360l12 -12v-131h-362q-66 0 -89.5 -35t-23.5 -106v-346h387v-144h-387v-370q0 -72 25.5 -107t93.5 -35h356v-131l-12 -12h-358q-137 0 -201 65.5t-64 202.5zM233 1511v148h152v-148h-152zM528 1511v148h152v-148h-152z" />
<glyph unicode="&#xec;" horiz-adv-x="405" d="M-31 1718l140 49l145 -274h-104zM123 0v1417h160v-1417h-160z" />
<glyph unicode="&#xed;" horiz-adv-x="405" d="M123 0v1417h160v-1417h-160zM158 1495l145 277l139 -52l-180 -225h-104z" />
<glyph unicode="&#xee;" horiz-adv-x="405" d="M-20 1495l159 240h131l156 -240h-129l-94 147l-94 -147h-129zM123 0v1417h160v-1417h-160z" />
<glyph unicode="&#xef;" horiz-adv-x="405" d="M-20 1511v148h151v-148h-151zM123 0v1417h160v-1417h-160zM274 1511v148h152v-148h-152z" />
<glyph unicode="&#xf0;" horiz-adv-x="1024" />
<glyph unicode="&#xf1;" horiz-adv-x="919" d="M113 0v1139q0 299 354 299q340 0 340 -295v-1143h-160v1159q0 68 -57.5 103.5t-133 35.5t-131 -35.5t-55.5 -105.5v-1157h-157zM195 1511q31 156 153 156q33 0 111 -20q86 -23 121 -23q47 0 75 57l70 -16q-29 -152 -145 -152q-35 0 -113 20.5t-123 20.5q-33 0 -49 -12 t-27 -45z" />
<glyph unicode="&#xf2;" horiz-adv-x="897" d="M102 283v854q0 301 346.5 301t346.5 -299v-858q0 -156 -92.5 -228.5t-253.5 -72.5q-346 0 -347 303zM221 1718l139 49l146 -274h-105zM260 262q0 -74 51 -109.5t135 -35.5q80 0 135.5 35.5t55.5 107.5v895q0 72 -53.5 108.5t-137.5 36.5q-186 0 -186 -147v-891z" />
<glyph unicode="&#xf3;" horiz-adv-x="897" d="M102 283v854q0 301 346.5 301t346.5 -299v-858q0 -156 -92.5 -228.5t-253.5 -72.5q-346 0 -347 303zM260 262q0 -74 51 -109.5t135 -35.5q80 0 135.5 35.5t55.5 107.5v895q0 72 -53.5 108.5t-137.5 36.5q-186 0 -186 -147v-891zM406 1495l145 277l139 -52l-180 -225h-104 z" />
<glyph unicode="&#xf4;" horiz-adv-x="897" d="M102 283v854q0 301 346.5 301t346.5 -299v-858q0 -156 -92.5 -228.5t-253.5 -72.5q-346 0 -347 303zM225 1495l160 240h131l156 -240h-129l-94 147l-95 -147h-129zM260 262q0 -74 51 -109.5t135 -35.5q80 0 135.5 35.5t55.5 107.5v895q0 72 -53.5 108.5t-137.5 36.5 q-186 0 -186 -147v-891z" />
<glyph unicode="&#xf5;" horiz-adv-x="897" d="M102 283v854q0 301 346.5 301t346.5 -299v-858q0 -156 -92.5 -228.5t-253.5 -72.5q-346 0 -347 303zM184 1511q31 156 152 156q37 0 110 -20q86 -23 123 -23q49 0 74 57l70 -16q-25 -152 -144 -152q-39 0 -112 21q-82 20 -123 20q-55 0 -78 -57zM260 262q0 -74 51 -109.5 t135 -35.5q80 0 135.5 35.5t55.5 107.5v895q0 72 -53.5 108.5t-137.5 36.5q-186 0 -186 -147v-891z" />
<glyph unicode="&#xf6;" horiz-adv-x="897" d="M102 283v854q0 301 346.5 301t346.5 -299v-858q0 -156 -92.5 -228.5t-253.5 -72.5q-346 0 -347 303zM225 1511v148h152v-148h-152zM260 262q0 -74 51 -109.5t135 -35.5q80 0 135.5 35.5t55.5 107.5v895q0 72 -53.5 108.5t-137.5 36.5q-186 0 -186 -147v-891zM520 1511 v148h152v-148h-152z" />
<glyph unicode="&#xf7;" horiz-adv-x="798" d="M117 618v111h565v-111h-565zM326 393v148h147v-148h-147zM326 809v147h147v-147h-147z" />
<glyph unicode="&#xf8;" horiz-adv-x="897" d="M27 -18l92 184q-16 53 -17 117v854q0 301 347 301q180 0 266 -84l41 82h114l-92 -185q16 -53 17 -112v-858q0 -156 -92.5 -228.5t-253.5 -72.5q-182 0 -267 81l-41 -79h-114zM260 446l373 744q-12 55 -63.5 82.5t-123.5 27.5q-186 0 -186 -147v-707zM264 225 q23 -109 182 -108q80 0 135.5 35.5t55.5 107.5v711z" />
<glyph unicode="&#xf9;" horiz-adv-x="911" d="M113 293v1124h157v-1120q0 -172 203 -172q74 0 124 43t50 129v1120h152v-1130q0 -152 -95.5 -229.5t-246.5 -77.5q-166 0 -255 78.5t-89 234.5zM238 1718l139 49l145 -274h-104z" />
<glyph unicode="&#xfa;" horiz-adv-x="911" d="M113 293v1124h157v-1120q0 -172 203 -172q74 0 124 43t50 129v1120h152v-1130q0 -152 -95.5 -229.5t-246.5 -77.5q-166 0 -255 78.5t-89 234.5zM406 1495l145 277l139 -52l-180 -225h-104z" />
<glyph unicode="&#xfb;" horiz-adv-x="911" d="M113 293v1124h157v-1120q0 -172 203 -172q74 0 124 43t50 129v1120h152v-1130q0 -152 -95.5 -229.5t-246.5 -77.5q-166 0 -255 78.5t-89 234.5zM233 1495l160 240h131l156 -240h-129l-94 147l-95 -147h-129z" />
<glyph unicode="&#xfc;" horiz-adv-x="911" d="M113 293v1124h157v-1120q0 -172 203 -172q74 0 124 43t50 129v1120h152v-1130q0 -152 -95.5 -229.5t-246.5 -77.5q-166 0 -255 78.5t-89 234.5zM231 1511v148h154v-148h-154zM526 1511v148h154v-148h-154z" />
<glyph unicode="&#xfd;" horiz-adv-x="1024" />
<glyph unicode="&#xfe;" horiz-adv-x="1024" />
<glyph unicode="&#xff;" horiz-adv-x="917" d="M102 637v780h162v-735q0 -88 90 -88h201q82 0 82 86v737h162v-1159q0 -264 -264 -264h-400l-12 12v133h412q102 0 102 117v281q-45 -76 -143 -76h-199q-88 0 -140.5 44t-52.5 132zM236 1511v148h151v-148h-151zM530 1511v148h152v-148h-152z" />
<glyph unicode="&#x152;" horiz-adv-x="1302" d="M102 301v815q0 301 332 301h787v-143h-453v-479h367v-146h-367v-506h453v-143h-787q-164 0 -248 71.5t-84 229.5zM262 276q0 -133 174 -133h172v1131h-172q-174 0 -174 -133v-865z" />
<glyph unicode="&#x153;" horiz-adv-x="1302" d="M102 301v815q0 301 332 301h787v-143h-453v-479h367v-146h-367v-506h453v-143h-787q-164 0 -248 71.5t-84 229.5zM262 276q0 -133 174 -133h172v1131h-172q-174 0 -174 -133v-865z" />
<glyph unicode="&#x178;" horiz-adv-x="901" d="M102 657v760h160v-745q0 -43 19.5 -59.5t62.5 -16.5h229q16 0 27.5 2t18 7t10.5 8t6 12.5t2 12.5v16.5v17.5v745h162v-753q0 -203 -211 -203h-58v-461h-159v461h-66q-203 0 -203 196zM227 1511v148h152v-148h-152zM522 1511v148h152v-148h-152z" />
<glyph unicode="&#x2c6;" horiz-adv-x="552" d="M53 1495l162 240h129l156 -240h-129l-95 150l-94 -150h-129z" />
<glyph unicode="&#x2dc;" horiz-adv-x="647" d="M59 1511q31 156 152 156q37 0 111 -20q86 -23 120 -23q47 0 76 57l70 -16q-25 -152 -146 -152q-37 0 -110 21q-82 20 -123 20q-55 0 -76 -57z" />
<glyph unicode="&#x2000;" horiz-adv-x="886" />
<glyph unicode="&#x2001;" horiz-adv-x="1772" />
<glyph unicode="&#x2002;" horiz-adv-x="886" />
<glyph unicode="&#x2003;" horiz-adv-x="1772" />
<glyph unicode="&#x2004;" horiz-adv-x="590" />
<glyph unicode="&#x2005;" horiz-adv-x="443" />
<glyph unicode="&#x2006;" horiz-adv-x="295" />
<glyph unicode="&#x2007;" horiz-adv-x="295" />
<glyph unicode="&#x2008;" horiz-adv-x="221" />
<glyph unicode="&#x2009;" horiz-adv-x="354" />
<glyph unicode="&#x200a;" horiz-adv-x="98" />
<glyph unicode="&#x2010;" horiz-adv-x="532" d="M49 629v145h434v-145h-434z" />
<glyph unicode="&#x2011;" horiz-adv-x="532" d="M49 629v145h434v-145h-434z" />
<glyph unicode="&#x2012;" horiz-adv-x="532" d="M49 629v145h434v-145h-434z" />
<glyph unicode="&#x2013;" horiz-adv-x="858" d="M63 651v113h732v-113h-732z" />
<glyph unicode="&#x2014;" horiz-adv-x="1402" d="M63 651v113h1276v-113h-1276z" />
<glyph unicode="&#x2018;" horiz-adv-x="403" d="M90 1042l90 375h121l-35 -375h-176z" />
<glyph unicode="&#x2019;" horiz-adv-x="403" d="M102 1042l35 375h176l-90 -375h-121z" />
<glyph unicode="&#x201a;" horiz-adv-x="403" d="M102 -193l35 373h176l-90 -373h-121z" />
<glyph unicode="&#x201c;" horiz-adv-x="661" d="M90 1042l90 375h121l-35 -375h-176zM348 1042l90 375h121l-35 -375h-176z" />
<glyph unicode="&#x201d;" horiz-adv-x="661" d="M102 1042l35 375h176l-90 -375h-121zM360 1042l35 375h176l-90 -375h-121z" />
<glyph unicode="&#x201e;" horiz-adv-x="661" d="M102 -193l35 373h176l-90 -373h-121zM360 -193l35 373h176l-90 -373h-121z" />
<glyph unicode="&#x2022;" horiz-adv-x="573" d="M199 600v180h176v-180h-176z" />
<glyph unicode="&#x2026;" horiz-adv-x="1165" d="M125 0v180h176v-180h-176zM494 0v180h176v-180h-176zM864 0v180h176v-180h-176z" />
<glyph unicode="&#x202f;" horiz-adv-x="354" />
<glyph unicode="&#x2039;" horiz-adv-x="475" d="M111 707l129 266h125l-125 -266l125 -267h-125z" />
<glyph unicode="&#x203a;" horiz-adv-x="475" d="M111 440l125 269l-125 264h125l129 -264l-129 -269h-125z" />
<glyph unicode="&#x205f;" horiz-adv-x="443" />
<glyph unicode="&#x20ac;" horiz-adv-x="823" d="M39 524v119h147v186h-147v119h147v215q0 260 263 260h301l12 -12v-131h-301q-66 0 -90.5 -35t-24.5 -106v-191h336l-25 -119h-311v-186h283l-25 -119h-258v-245q0 -70 26.5 -106t94.5 -36h295v-131l-12 -12h-299q-137 0 -201 65.5t-64 202.5v262h-147z" />
<glyph unicode="&#x2122;" horiz-adv-x="761" d="M102 262v901q0 260 263 260h323l12 -12v-131h-323q-66 0 -90.5 -35t-24.5 -106v-860q0 -70 26.5 -106t94.5 -36h317v-131l-12 -12h-321q-137 0 -201 65.5t-64 202.5zM225 1735h129l95 -150l94 150h129l-162 -240h-129z" />
<glyph unicode="&#xe000;" horiz-adv-x="1413" d="M0 0v1413h1413v-1413h-1413z" />
<glyph unicode="&#xfb01;" horiz-adv-x="1210" d="M123 0v1417h612v-143h-452v-481h366v-144h-366v-649h-160zM928 0v1417h159v-1417h-159z" />
<glyph unicode="&#xfb02;" horiz-adv-x="1558" d="M123 0v1417h612v-143h-452v-481h366v-144h-366v-649h-160zM928 0v1417h157v-1274h453v-143h-610z" />
</font>
</defs>
</svg>
