<?xml version="1.0" standalone="no"?>
<!DOCTYPE svg PUBLIC "-//W3C//DTD SVG 1.1//EN" "http://www.w3.org/Graphics/SVG/1.1/DTD/svg11.dtd" >
<svg xmlns="http://www.w3.org/2000/svg">
<metadata></metadata>
<defs>
<font id="morganavecboldoblique" horiz-adv-x="1282" >
<font-face units-per-em="2048" ascent="1638" descent="-410" />
<missing-glyph horiz-adv-x="450" />
<glyph horiz-adv-x="2048" />
<glyph horiz-adv-x="2048" />
<glyph unicode="&#xd;" horiz-adv-x="2048" />
<glyph unicode=" "  horiz-adv-x="450" />
<glyph unicode="&#x09;" horiz-adv-x="450" />
<glyph unicode="&#xa0;" horiz-adv-x="450" />
<glyph unicode="!" horiz-adv-x="669" d="M125 0l43 309h305l-43 -309h-305zM217 430l96 987h326l-180 -987h-242z" />
<glyph unicode="&#x22;" horiz-adv-x="956" d="M145 918l97 294l2 289h295l-31 -221l-213 -362h-150zM571 918l97 294l2 289h297l-31 -221l-213 -362h-152z" />
<glyph unicode="#" horiz-adv-x="1263" d="M76 268l37 185h204l103 503h-223l39 185h217l57 284h176l-57 -284h278l58 284h174l-58 -284h201l-35 -185h-200l-101 -503h213l-35 -185h-213l-57 -286h-176l57 286h-278l-58 -286h-174l60 286h-209zM494 453h278l100 503h-280z" />
<glyph unicode="$" d="M70 80l47 336h286l-24 -172h340q63 0 92.5 24.5t34.5 71.5q14 104 14 121q0 40 -25 58.5t-85 29.5q-280 45 -329 56q-170 37 -226 102q-41 47 -41 120q0 24 3.5 53.5t12.5 87t14 97.5q48 319 424 319h33l23 162h280l-22 -162h55q204 -4 276 -47l-47 -333h-284l22 167 h-328q-64 0 -94.5 -26.5t-36.5 -77.5q-3 -19 -5.5 -36.5t-4 -27t-2.5 -17.5l-1.5 -12t-0.5 -7q0 -30 20.5 -49t45.5 -26.5t69 -14.5q40 -5 179 -26.5t149 -23.5q128 -18 192 -75t64 -164q0 -49 -12 -131q-12 -91 -28 -154.5t-44 -118t-69.5 -86.5t-103 -49.5t-145.5 -17.5 h-59l-22 -176h-283l25 176h-76q-73 0 -165.5 12.5t-137.5 36.5z" />
<glyph unicode="%" horiz-adv-x="1810" d="M164 852q0 15 4 55l41 287q34 248 293 248h151q226 0 226 -191q0 -34 -5 -59l-38 -285q-36 -243 -293 -243h-152q-227 0 -227 188zM362 885q0 -24 13.5 -35.5t44.5 -11.5h141q39 0 57 18t23 55q43 280 43 306q0 27 -13.5 38t-49.5 11h-142q-39 0 -54.5 -15.5t-21.5 -54.5 l-38 -283q0 -7 -1.5 -16t-1.5 -12zM412 6l974 1475l142 -43l-977 -1475zM1032 168q0 15 4 55l39 285q37 250 295 250h152q114 0 169.5 -47t55.5 -144q0 -38 -4 -61l-41 -283q-33 -246 -291 -246h-149q-230 0 -230 191zM1233 201q0 -24 11.5 -35.5t41.5 -11.5h141q41 0 59 18 t23 55q43 293 43 305q0 27 -14 38.5t-49 11.5h-141q-39 0 -53.5 -15.5t-20.5 -56.5l-39 -283q-2 -10 -2 -26z" />
<glyph unicode="&#x26;" horiz-adv-x="1570" d="M106 285l33 223q13 94 94.5 165t198.5 72l2 7q-158 58 -158 229l19 133q24 165 135.5 246.5t284.5 81.5h387q222 0 315 -56l-53 -325h-262l26 158h-352q-97 0 -136 -32t-54 -132l-13 -82q0 -135 150 -135h846l-33 -230h-180l-84 -598l-21 -18h-809q-157 0 -246.5 72 t-89.5 221zM414 330q0 -34 10.5 -58t26.5 -37.5t46 -20.5t58 -9t72 -2h381l61 405h-405q-49 0 -84 -5.5t-68 -20t-52 -43.5t-26 -74z" />
<glyph unicode="'" horiz-adv-x="530" d="M145 918l97 294l2 289h295l-31 -221l-213 -362h-150z" />
<glyph unicode="(" horiz-adv-x="747" d="M139 86q0 110 15.5 240.5t58.5 421.5q127 819 508 819h127l-23 -156h-65q-194 0 -279 -588l-67 -487q-27 -193 -27 -328q0 -284 135 -284h68l-23 -158h-127q-72 0 -126.5 31t-87 80.5t-53 120t-27.5 139.5t-7 149z" />
<glyph unicode=")" horiz-adv-x="747" d="M-104 -434l22 158h66q192 0 280 612l70 487q24 165 24 291q0 297 -137 297h-67l22 156h127q303 0 303 -506q0 -34 -1.5 -68.5t-5.5 -79.5t-7.5 -77.5t-12 -96t-13.5 -99t-17.5 -122t-18.5 -131.5q-11 -74 -24.5 -145t-37 -155t-51 -156t-68 -141t-87 -117t-108 -77.5 t-131.5 -29.5h-127z" />
<glyph unicode="*" horiz-adv-x="917" d="M168 1225l111 155l198 -123l35 244h178l-35 -244l234 123l63 -155l-260 -138l133 -229l-159 -104l-138 239l-198 -243l-135 102l190 235z" />
<glyph unicode="+" d="M92 516l29 213h446l64 453h223l-63 -453h442l-29 -213h-444l-66 -457h-223l66 457h-445z" />
<glyph unicode="," horiz-adv-x="555" d="M6 -274l96 294l2 289h295l-30 -221l-213 -362h-150z" />
<glyph unicode="-" horiz-adv-x="708" d="M68 469l34 244h596l-34 -244h-596z" />
<glyph unicode="." horiz-adv-x="555" d="M66 0l45 309h305l-45 -309h-305z" />
<glyph unicode="/" horiz-adv-x="757" d="M-66 -422l658 1954h217l-653 -1954h-222z" />
<glyph unicode="0" d="M82 268q0 45 4 70l102 727q17 119 84 200t161.5 116.5t211.5 35.5h275q164 0 264 -72.5t100 -218.5q0 -41 -4 -61l-102 -727q-27 -188 -149.5 -275.5t-317.5 -87.5h-262q-367 0 -367 293zM391 307q0 -114 150 -114h141q78 0 127 35t59 108l103 719q2 10 2 30 q0 117 -150 117h-141q-166 0 -186 -147l-103 -725q-2 -8 -2 -23z" />
<glyph unicode="1" horiz-adv-x="1181" d="M100 0l29 211l311 4l135 967h-286l30 207l555 43h39l-172 -1217l295 -4l-28 -211h-908z" />
<glyph unicode="2" horiz-adv-x="1247" d="M63 0l68 498q20 137 114 204.5t257 92.5l254 30q71 10 111 36.5t48 84.5l19 131q5 48 -28 77.5t-113 29.5h-287l-21 -152h-262l49 342q66 22 174 32.5t197 10.5h252q110 0 190 -29t124 -97t30 -169l-31 -223q-19 -132 -113.5 -202t-254.5 -93l-258 -35 q-81 -10 -115.5 -34.5t-44.5 -94.5l-29 -211h721l-33 -229h-1018z" />
<glyph unicode="3" horiz-adv-x="1253" d="M88 18l29 207h549q81 0 123.5 31t52.5 106l14 97q0 5 1 14.5t1 13.5q0 54 -35 75.5t-106 21.5h-307l32 235h312q77 0 108 32t41 124l8 63q4 28 4 43q0 62 -42 83.5t-123 21.5h-220l-22 -156h-264l45 334q43 22 123.5 37.5t167.5 15.5h309q342 0 342 -250q0 -29 -6 -63 l-15 -103q-12 -88 -42 -143t-68.5 -80t-100.5 -41l-2 -10q93 -14 137 -72t44 -143q0 -19 -4 -51l-17 -117q-13 -97 -50 -169t-92 -114.5t-121 -63t-144 -20.5h-385q-74 0 -157.5 11.5t-119.5 29.5z" />
<glyph unicode="4" d="M80 346l33 240q51 63 342 417.5t342 417.5h389l-119 -854h221l-33 -221h-221l-47 -346h-291l49 346h-665zM362 567h414l88 623h-10l-63 -96z" />
<glyph unicode="5" d="M94 33l29 190h577q84 0 119.5 37t44.5 102l17 113q2 12 2 33q0 94 -125 94h-545l113 793h931l-34 -246h-662l-43 -309h397q134 0 212.5 -68.5t78.5 -183.5q0 -17 -4 -49l-28 -203q-23 -163 -137.5 -261t-284.5 -98h-402q-80 0 -152 14t-104 42z" />
<glyph unicode="6" horiz-adv-x="1269" d="M113 326l100 714q27 196 142.5 287.5t318.5 91.5h362q147 0 244 -53l-25 -182h-555q-91 0 -130 -31t-52 -117l-29 -202q98 71 256 71h179q160 0 234.5 -85t53.5 -230l-36 -260q-26 -193 -139 -274t-306 -81h-262q-95 0 -163 16.5t-118 55.5t-69.5 109t-5.5 170zM422 342 q-20 -145 104 -145h193q70 0 105.5 33t47.5 114l33 240q7 57 -24 85.5t-95 28.5h-131q-95 0 -186 -26z" />
<glyph unicode="7" horiz-adv-x="1261" d="M158 0l803 1169h-476l-26 -182h-271l62 414h1061l-31 -219q-70 -100 -396.5 -602t-379.5 -580h-346z" />
<glyph unicode="8" horiz-adv-x="1277" d="M80 227q0 22 4 54q11 91 27 168q19 95 85 168t158 96v4q-161 43 -161 201q0 31 20 174q25 163 136 244t280 81h303q348 0 348 -258q0 -70 -16 -184q-17 -112 -74.5 -171.5t-169.5 -86.5v-6q82 -23 133 -78t51 -137q0 -20 -26 -209q-49 -312 -455 -312h-283 q-360 0 -360 252zM399 307q0 -64 37.5 -90.5t110.5 -26.5h145q81 0 125.5 34.5t54.5 121.5q4 31 9 65.5t7.5 52.5t2.5 30q0 66 -41 90t-113 24h-133q-166 0 -186 -157q-2 -13 -7.5 -43t-8.5 -54.5t-3 -46.5zM492 915q0 -114 143 -114h125q85 0 132 30t58 109q21 132 21 147 q0 62 -33.5 87.5t-101.5 25.5h-166q-69 0 -110 -36t-52 -105q-16 -115 -16 -144z" />
<glyph unicode="9" horiz-adv-x="1269" d="M74 33l24 180h555q92 0 132.5 32t52.5 117l26 203q-54 -39 -124.5 -57.5t-131.5 -18.5h-180q-141 0 -216 66.5t-75 185.5q0 24 4 64l37 260q26 191 138.5 271.5t304.5 80.5h264q84 0 147 -13t113 -42.5t76 -83.5t26 -131q0 -37 -6 -78l-100 -711q-30 -193 -145.5 -285.5 t-315.5 -92.5h-363q-143 0 -243 53zM444 788q0 -47 31.5 -71.5t89.5 -24.5h133q94 0 189 27l47 330q4 32 4 49q0 104 -111 104h-192q-70 0 -107 -34.5t-49 -114.5l-33 -244q0 -3 -1 -10t-1 -11z" />
<glyph unicode=":" horiz-adv-x="555" d="M66 0l45 309h305l-45 -309h-305zM162 676l43 309h305l-43 -309h-305z" />
<glyph unicode=";" horiz-adv-x="555" d="M8 -274l96 294l2 289h297l-30 -221l-228 -362h-137zM162 676l43 309h305l-43 -309h-305z" />
<glyph unicode="&#x3c;" d="M143 543l25 168l971 475l78 -195l-750 -364l645 -363l-127 -194z" />
<glyph unicode="=" d="M59 303l31 213h1110l-31 -213h-1110zM121 733l31 213h1110l-31 -213h-1110z" />
<glyph unicode="&#x3e;" d="M104 264l750 363l-647 364l133 195l836 -475l-23 -168l-975 -473z" />
<glyph unicode="?" horiz-adv-x="1150" d="M199 1040l49 363q124 35 313 35h303q145 0 225 -60.5t80 -179.5q0 -28 -6 -63l-16 -121q-18 -132 -86.5 -209.5t-212.5 -110.5l-148 -30q-18 -4 -28 -7.5t-22.5 -12t-19 -25t-9.5 -41.5l-21 -148h-246l33 240q11 85 69.5 131t168.5 71l100 23q59 11 81.5 31.5t29.5 77.5 l16 114q2 8 2 27q0 34 -25.5 53t-89.5 19h-258l-24 -177h-258zM268 0l43 307h303l-43 -307h-303z" />
<glyph unicode="@" horiz-adv-x="2103" d="M172 422q0 285 59 483t184 322t308.5 179.5t443.5 55.5q183 0 326 -36t253 -113.5t169 -210t59 -314.5q0 -187 -37.5 -334t-113.5 -253t-198 -162.5t-284 -56.5h-473q-45 0 -85 7t-77.5 22.5t-64.5 39.5t-43 60.5t-16 81.5q0 65 2 77l53 512q8 60 28.5 112.5t56.5 98.5 t94.5 72.5t133.5 26.5h586l-104 -955q87 -1 156.5 34.5t114 95.5t74 143.5t42 173t12.5 188.5q0 128 -32 225.5t-89 162t-143 105t-187 57.5t-227 17q-230 0 -389 -54t-258 -170t-143 -286t-44 -413q0 -122 15 -216.5t43.5 -167t76 -124t106 -86t141.5 -54.5t174 -28t210 -8 q226 0 498 47l-6 -111q-238 -61 -565 -61q-225 0 -379.5 42t-259.5 138t-153 251.5t-48 383.5zM868 270q0 -31 18.5 -47t49.5 -16h233l66 655h-211q-54 1 -76.5 -18.5t-25.5 -57.5l-54 -493v-23z" />
<glyph unicode="A" horiz-adv-x="1550" d="M-49 0l29 201l102 8l612 1218h418l270 -1218l101 -6l-29 -203h-563l27 199l143 2l-51 241h-514l-109 -241l145 -2l-26 -199h-555zM598 657h369l-97 496l-6 74h-6l-29 -74z" />
<glyph unicode="B" horiz-adv-x="1454" d="M-2 0l31 205l147 2l139 1005q-10 0 -72.5 2.5t-72.5 2.5l29 199h950q140 0 212.5 -59.5t72.5 -166.5q0 -19 -4 -55l-15 -121q-26 -234 -246 -283v-10q187 -35 187 -209q0 -19 -4 -51l-21 -144q-13 -91 -48.5 -155t-91.5 -98.5t-119.5 -49t-143.5 -14.5h-930zM492 223h352 q79 0 121.5 32.5t54.5 113.5l12 94q4 28 4 41q0 54 -32 78t-101 24h-358zM578 831h350q75 0 117.5 28.5t52.5 103.5l12 102q4 24 4 35q0 50 -29 72t-96 22h-362z" />
<glyph unicode="C" horiz-adv-x="1337" d="M94 305q0 28 8 98l86 605q60 430 521 430h344q85 0 180.5 -10t140.5 -31l-55 -377h-272l26 186h-342q-112 0 -158.5 -53t-62.5 -168l-78 -559q-8 -62 -8 -80q0 -139 166 -139h342q14 108 29 186h272l-53 -368q-57 -28 -161.5 -40t-189.5 -12h-348q-198 0 -292.5 81.5 t-94.5 250.5z" />
<glyph unicode="D" horiz-adv-x="1499" d="M-2 0q24 150 31 201l145 6l143 1005q-10 0 -74.5 2.5t-74.5 2.5l29 199h882q189 0 286 -84.5t97 -244.5q0 -63 -6 -96l-78 -551q-33 -234 -161 -337t-351 -103h-868zM494 223h329q113 0 169 56t71 174l72 516q0 3 3 22.5t3 28.5q0 174 -185 174h-327z" />
<glyph unicode="E" horiz-adv-x="1400" d="M-2 0l31 201l145 4l143 1007l-149 5l29 200h1224l-49 -356h-252l19 141h-510l-49 -371h331l15 113h215l-60 -428h-215l15 109h-332l-57 -408h495l21 141h274l-51 -358h-1233z" />
<glyph unicode="F" horiz-adv-x="1351" d="M-2 0l31 201l145 4l143 1007l-149 5l29 200h1224l-53 -377h-252l23 162h-510l-51 -385h333l15 109h215l-64 -447h-213l15 115h-334l-56 -389l207 -4l-28 -201h-670z" />
<glyph unicode="G" horiz-adv-x="1484" d="M100 301q0 47 6 94l91 633q14 99 54 175t92 120.5t121.5 72.5t135 38t139.5 10h381q263 0 328 -39l-53 -379h-279l27 186h-416q-180 0 -207 -208l-86 -594q-4 -32 -4 -50q0 -151 170 -151h131q76 0 153.5 13.5t116.5 29.5l41 295h-299l33 229h608l-110 -776h-232l-18 80 q-134 -107 -369 -107h-159q-396 0 -396 328z" />
<glyph unicode="H" horiz-adv-x="1689" d="M-2 0l31 201l145 4l143 1007l-149 5l29 200h610l-29 -200l-147 -5l-51 -370h622l51 370l-147 5l29 200h610l-29 -200l-147 -5l-142 -1007l148 -4l-29 -201h-610l29 201l147 4l57 407h-622l-58 -407l148 -4l-29 -201h-610z" />
<glyph unicode="I" horiz-adv-x="747" d="M-2 0l31 201l145 4l141 1007l-147 5l29 200h610l-29 -200l-147 -5l-142 -1007l148 -4l-29 -201h-610z" />
<glyph unicode="J" horiz-adv-x="1409" d="M66 272q0 27 8 105l28 192h293l-24 -161q-4 -23 -4 -70q0 -66 39.5 -94.5t121.5 -28.5h168q95 0 138.5 47.5t56.5 145.5l115 804l-201 5l29 200h647l-29 -200l-131 -5l-113 -811q-31 -223 -146 -325.5t-333 -102.5h-297q-188 0 -277 69t-89 230z" />
<glyph unicode="K" horiz-adv-x="1540" d="M-2 0l29 201l147 6l141 1005l-147 5l29 200h618l-37 -200l-147 -5l-68 -491l559 496h-149l28 202h619l-29 -202l-127 -3l-465 -409l349 -594l161 -10l-28 -201h-424l-78 193l-242 432l-213 -176l-35 -242l148 -6l-29 -201h-610z" />
<glyph unicode="L" horiz-adv-x="1374" d="M-2 0l31 201l145 4l143 1007l-149 5l29 200h610l-29 -200l-147 -5l-137 -995h493l27 193h274l-57 -410h-1233z" />
<glyph unicode="M" horiz-adv-x="1902" d="M-2 0l31 201l145 6l143 1005l-149 5l29 200h577l182 -733l9 -80h6l28 76l387 737h572l-29 -198l-139 -2l-141 -1014l137 -2l-29 -201h-575l28 203l158 4l102 723l46 241l-13 -2l-86 -188l-379 -694h-260l-178 706l-39 176h-8l-21 -239l-102 -723l152 -4l-29 -203h-555z " />
<glyph unicode="N" horiz-adv-x="1609" d="M-2 0l31 201l145 6l141 1003l-147 7l29 200h505l388 -839l63 -166l6 2l23 280l73 518l-143 5l29 200h538l-28 -200l-148 -5l-170 -1212h-305l-440 950l-56 160l-8 -2l-14 -264l-88 -639l143 -4l-28 -201h-539z" />
<glyph unicode="O" horiz-adv-x="1495" d="M88 311q0 39 6 86l90 635q21 132 93.5 226t180 140t240.5 46h357q189 0 297 -80.5t108 -245.5q0 -34 -6 -74l-90 -643q-30 -213 -169 -320.5t-359 -107.5h-340q-196 0 -302 84t-106 254zM416 360q0 -153 162 -153h251q182 0 211 194l84 609q4 16 4 49q0 73 -39 113 t-118 40h-254q-92 0 -144.5 -51.5t-66.5 -142.5q-2 -19 -86 -617q-4 -28 -4 -41z" />
<glyph unicode="P" horiz-adv-x="1447" d="M-2 0l31 203l145 2l141 1007q-10 0 -72.5 2.5t-72.5 2.5l29 199h888q175 0 257.5 -61t82.5 -190q0 -33 -6 -73l-35 -252q-23 -169 -129 -249.5t-305 -80.5h-420l-40 -305q14 0 97 -2t97 -2l-29 -201h-659zM563 727h342q86 0 123.5 33.5t46.5 109.5l27 191q4 32 4 41 q0 52 -35 73t-115 21h-327z" />
<glyph unicode="Q" horiz-adv-x="1495" d="M94 297q0 47 6 100l90 635q19 134 93.5 228.5t184 139t245.5 44.5h348q187 0 296 -81t109 -243q0 -36 -6 -76l-90 -643q-30 -211 -165 -319.5t-339 -108.5h-37l-12 -86q-2 -12 -2 -39q0 -75 115 -75h133l-23 -156q-105 -27 -209 -27q-331 0 -331 224q0 35 2 53l16 106 h-39q-184 0 -284.5 88t-100.5 236zM422 354q0 -147 162 -147h250q184 0 210 194l86 609q5 40 5 45q0 157 -158 157h-254q-91 0 -145 -52t-66 -142l-86 -617q-4 -32 -4 -47z" />
<glyph unicode="R" horiz-adv-x="1497" d="M-2 0l31 201l147 6l141 1007l-147 3l29 200h915q326 0 326 -254q0 -51 -4 -80l-27 -194q-17 -131 -113 -205.5t-237 -77.5l-123 -2v-8q16 -4 30 -9t27.5 -13.5t23.5 -15t22 -19t18.5 -18t18.5 -21t15 -20t15 -21.5t14 -19l172 -237l166 -2l-28 -201h-410l-70 152 l-217 325q-28 39 -56.5 56.5t-72.5 17.5h-65l-47 -344l145 -6l-29 -201h-610zM569 762h320q101 0 144.5 28.5t56.5 114.5l20 154q4 14 4 41q0 52 -38 73t-122 21h-325z" />
<glyph unicode="S" horiz-adv-x="1368" d="M70 27l49 352h260l-25 -176h449q63 0 92 24t35 72l20 141q0 4 1 14.5t1 14.5q0 42 -25.5 59t-86.5 25l-383 49q-148 21 -215.5 71t-67.5 154q0 41 4 64l31 227q47 320 422 320h393q232 0 315 -49l-49 -342h-262l25 170h-418q-67 0 -96.5 -29.5t-36.5 -81.5l-19 -127 q-2 -8 -2 -21q0 -67 135 -84l406 -55q129 -18 191.5 -68.5t62.5 -152.5q0 -36 -6 -74l-35 -248q-22 -157 -110.5 -226.5t-260.5 -69.5h-489q-80 0 -171.5 11t-133.5 36z" />
<glyph unicode="T" horiz-adv-x="1460" d="M127 991l61 426h1338l-60 -426h-260l31 211h-252l-141 -997l147 -4l-26 -201h-611l27 201l149 4l142 997h-254l-31 -211h-260z" />
<glyph unicode="U" horiz-adv-x="1599" d="M147 1217l29 200h610l-28 -203l-148 -2l-114 -804l-4 -52q0 -141 157 -141h234q90 0 143.5 50t65.5 143l112 804l-145 5l28 200h588l-28 -200l-150 -5l-113 -815q-59 -424 -503 -424h-330q-184 0 -282.5 80t-98.5 244q0 26 8 104l115 811z" />
<glyph unicode="V" horiz-adv-x="1460" d="M98 1217l29 200h559l-29 -196l-141 -4l156 -824l8 -102h6l37 102l399 824l-145 4l29 196h550l-28 -200l-101 -7l-628 -1222h-334l-268 1222z" />
<glyph unicode="W" horiz-adv-x="2033" d="M113 1217l28 200h537l-29 -200h-141l39 -750l-4 -217h10l59 217l357 942h377l79 -944l5 -215h12l53 217l252 750h-145l28 200h514l-28 -200l-107 -9l-414 -1220h-405l-70 1013l2 152h-12l-41 -149l-369 -1016h-413l-70 1220z" />
<glyph unicode="X" horiz-adv-x="1540" d="M-37 0l29 201l117 6l444 528l-293 479l-110 3l28 200h615l-29 -200h-133l223 -383l295 383h-139l28 200h580l-29 -200l-110 -3l-430 -509l311 -498l110 -6l-28 -201h-613l29 201h127l-237 395l-316 -395h129l-29 -201h-569z" />
<glyph unicode="Y" horiz-adv-x="1462" d="M109 1217l28 200h602l-28 -200l-140 -3l185 -385l22 -69h4l37 67l293 387l-135 3l29 200h575l-29 -200l-116 -5l-543 -677l-47 -330l147 -4l-28 -201h-611l29 201l149 6l46 315l-351 690z" />
<glyph unicode="Z" horiz-adv-x="1343" d="M14 0l29 203l911 995h-495l-25 -186h-272l57 405h1174l-31 -209l-911 -987h516l26 197h273l-60 -418h-1192z" />
<glyph unicode="[" horiz-adv-x="747" d="M61 -422l281 1991h516l-22 -158h-263l-233 -1677h262l-22 -156h-519z" />
<glyph unicode="\" horiz-adv-x="813" d="M215 1532h217l266 -1954h-221z" />
<glyph unicode="]" horiz-adv-x="747" d="M-92 -422l22 156h263l235 1677h-262l22 158h517l-279 -1991h-518z" />
<glyph unicode="^" horiz-adv-x="976" d="M90 424l287 905h225l287 -905h-232l-172 653l-174 -653h-221z" />
<glyph unicode="_" horiz-adv-x="1024" d="M-100 -324l24 205h1026l-26 -205h-1024z" />
<glyph unicode="`" horiz-adv-x="843" d="M287 1513l243 62l226 -371h-205z" />
<glyph unicode="a" horiz-adv-x="1243" d="M66 195q0 38 22 180q23 133 106.5 193.5t229.5 60.5h375l20 141q4 32 4 47q0 42 -27 59t-87 17h-228l-18 -129h-250l41 285q137 49 328 49h241q135 0 211 -53.5t76 -167.5q0 -39 -4 -62l-84 -590v-37l125 -6l-27 -182l-348 -12l-12 125h-4q-120 -138 -283 -138h-166 q-120 0 -180.5 59.5t-60.5 160.5zM346 244q0 -74 109 -74h90q32 0 64 7.5t64 23.5t54 46.5t27 71.5l20 140h-276q-66 0 -96 -21.5t-40 -83.5q-16 -96 -16 -110z" />
<glyph unicode="b" horiz-adv-x="1259" d="M98 0l183 1298h-136l29 197l422 16l-76 -522q55 51 133.5 80t151.5 29h119q131 0 194.5 -55.5t63.5 -147.5q0 -43 -6 -78q-7 -71 -76 -543q-11 -82 -48 -142.5t-90.5 -93.5t-112 -48t-124.5 -15h-109q-77 0 -143 29.5t-106 81.5l-60 -86h-209zM416 246q34 -22 90.5 -36.5 t109.5 -14.5h78q62 0 92 29t39 93l62 437q6 42 6 49q0 40 -30.5 61t-84.5 21h-88q-99 0 -188 -29z" />
<glyph unicode="c" horiz-adv-x="1087" d="M106 256q0 30 7 84q36 235 55 395q56 363 453 363h221q61 0 133.5 -13t120.5 -34l-45 -314h-242l22 156h-227q-58 0 -95 -33.5t-46 -97.5l-57 -410q-5 -45 -5 -47q0 -60 33 -86t105 -26h438l-23 -158q-98 -60 -262 -60h-223q-178 0 -270.5 66.5t-92.5 214.5z" />
<glyph unicode="d" horiz-adv-x="1286" d="M106 236q0 15 9 96q6 38 19 132t28 203.5t18 131.5q21 142 119.5 220.5t239.5 78.5h139q104 0 215 -33l35 248h-142l29 196l426 9l-178 -1268v-55l121 -9l-27 -186l-340 -14l-22 114h-4q-53 -58 -129.5 -91.5t-159.5 -33.5h-109q-154 0 -220.5 71.5t-66.5 189.5zM395 307 q0 -106 129 -106h43q84 0 209 35l90 632q-97 19 -174 19h-110q-56 0 -85.5 -28t-39.5 -99l-54 -373q-8 -40 -8 -80z" />
<glyph unicode="e" horiz-adv-x="1198" d="M106 252q0 40 5 74l59 417q51 355 465 355h133q80 0 141.5 -11.5t114 -38.5t81 -78.5t28.5 -125.5q0 -31 -7 -66l-39 -291l-206 -28h-461q-6 -50 -11.5 -89t-7.5 -53.5t-2 -21.5q0 -52 31.5 -75t101.5 -23h492q-20 -133 -23 -158q-101 -64 -256 -64h-288 q-105 0 -180.5 25t-123 88.5t-47.5 163.5zM446 647h396l18 125q2 12 2 35q0 55 -31.5 74.5t-103.5 19.5h-94q-82 0 -121.5 -33.5t-48.5 -103.5z" />
<glyph unicode="f" horiz-adv-x="772" d="M61 -434l187 1292h-170l26 201h172l25 178q11 66 38 117t64 83.5t85 54t98 30t108 8.5q55 0 132.5 -10t123.5 -21l-28 -190h-256q-24 0 -38 -3.5t-27.5 -21t-18.5 -51.5l-23 -174h238l-27 -201h-240l-172 -1212z" />
<glyph unicode="g" horiz-adv-x="1241" d="M39 -395l27 184h503q75 0 111 33t47 104l29 215q-112 -104 -303 -104h-68q-285 0 -285 244q0 29 11 98l61 426q20 142 113.5 217.5t234.5 75.5h137q173 0 246 -105l41 80h225l-161 -1143q-54 -374 -473 -374h-238q-69 0 -143 12.5t-115 36.5zM389 354q0 -104 125 -104h74 q29 0 60.5 4.5t46 8t46.5 13t33 9.5l78 549q-32 21 -88.5 35t-114.5 14h-65q-121 0 -142 -129l-47 -338q-6 -35 -6 -62z" />
<glyph unicode="h" horiz-adv-x="1329" d="M119 0l178 1298h-135l28 211l422 4l-75 -534q136 119 307 119h104q117 0 181.5 -47t64.5 -144q0 -17 -4 -49l-94 -670l125 -6l-27 -182h-408l107 766q0 1 2 16.5t2 16.5q-3 71 -94 71h-90q-109 0 -195 -22l-92 -658v-190h-307z" />
<glyph unicode="i" horiz-adv-x="673" d="M121 872l29 199l415 14l-127 -895l125 -4l-26 -186h-412l125 872h-129zM301 1235l39 276h285l-39 -276h-285z" />
<glyph unicode="j" horiz-adv-x="638" d="M-190 -422q3 24 15 101t15 102h137q72 0 104 29.5t44 115.5l133 948h-154l29 197l438 14l-170 -1206q-11 -79 -37.5 -137t-62 -93.5t-85.5 -56.5t-99 -28.5t-111 -7.5q-121 0 -196 22zM311 1237l37 274h283l-37 -274h-283z" />
<glyph unicode="k" horiz-adv-x="1251" d="M102 0l183 1298h-135l28 197l420 16l-133 -950l405 318l-178 10l27 180l508 4l-35 -207l-354 -245l217 -428l151 -11l-28 -182h-353l-55 143l-166 316l-176 -142l-16 -129v-188h-310z" />
<glyph unicode="l" horiz-adv-x="659" d="M119 0l182 1298h-137l31 197l419 16l-186 -1323l125 -6l-27 -182h-407z" />
<glyph unicode="m" horiz-adv-x="1966" d="M117 874l28 205l394 2l-2 -102q139 119 309 119h90q199 0 235 -131q138 131 328 131h88q115 0 180.5 -46t65.5 -141q0 -17 -4 -53l-94 -670l125 -6l-27 -182h-408l107 768q0 1 2 14.5t2 14.5q-3 73 -94 73h-72q-108 0 -194 -22l-93 -660v-188h-309l109 770q0 2 1 15t1 14 q0 71 -94 71h-78q-86 0 -189 -22l-92 -658v-190h-307l121 874h-129z" />
<glyph unicode="n" horiz-adv-x="1333" d="M117 874l28 205l394 2l-2 -102q139 119 309 119h108q115 0 180.5 -46t65.5 -139q0 -19 -4 -55l-94 -670l125 -6l-27 -182h-407l108 772q0 2 1 14t1 13q-3 71 -94 71h-84q-115 0 -201 -22l-92 -658v-190h-307l121 874h-129z" />
<glyph unicode="o" horiz-adv-x="1255" d="M106 254q0 40 5 74l61 430q25 171 141 255.5t289 84.5h244q156 0 244 -70t88 -211q0 -42 -4 -65l-60 -418q-50 -359 -430 -359h-233q-345 0 -345 279zM399 293q0 -53 30 -84t89 -31h156q64 0 102 38t47 101l62 439q2 10 2 28q0 111 -113 111h-158q-137 0 -153 -139 l-64 -439v-24z" />
<glyph unicode="p" horiz-adv-x="1284" d="M66 -424l180 1298h-129l28 199l396 8l-4 -102q129 119 280 119h117q138 0 205 -56t67 -155q0 -18 -6 -78l-76 -533q-21 -151 -120.5 -226t-237.5 -75h-121q-155 0 -231 84l-41 -292v-191h-307zM438 244q31 -19 86 -34t115 -15h76q64 0 94.5 28.5t40.5 102.5l61 428 q4 16 4 37q0 88 -112 88h-92q-36 0 -95 -8.5t-90 -18.5z" />
<glyph unicode="q" horiz-adv-x="1247" d="M106 172q0 37 5 68q69 469 77 555q11 82 46.5 142.5t87.5 94.5t110 50t123 16h107q156 0 243 -111l33 86h250l-184 -1309v-188h-308l70 494q-54 -41 -132 -68t-147 -27h-145q-236 0 -236 197zM399 272q0 -21 6.5 -35.5t15.5 -22.5t24.5 -12.5t28.5 -5.5t32 -1h80 q107 0 200 26l86 615q-77 45 -202 45h-80q-55 0 -85 -27.5t-40 -97.5l-64 -451q-2 -10 -2 -33z" />
<glyph unicode="r" horiz-adv-x="1036" d="M119 874l28 199l388 8v-110q83 51 187.5 82.5t209.5 31.5q76 0 123 -8q-4 -37 -16 -119.5t-26 -176t-18 -119.5h-252l27 196q-123 0 -250 -43l-88 -625v-190h-307l123 874h-129z" />
<glyph unicode="s" horiz-adv-x="1103" d="M47 23l39 276h254l-18 -129h282q65 0 88 24t29 68l12 82v25q0 27 -15.5 36.5t-55.5 12.5l-283 20q-54 4 -98 16t-80.5 34t-57 58.5t-20.5 84.5q0 18 2.5 39.5t9.5 68.5t12 86q19 127 112 200t247 73h301q146 0 254 -41l-39 -285h-254l16 131h-270q-57 0 -78 -23t-26 -69 q-3 -26 -6.5 -50t-5 -34t-1.5 -14q0 -24 17.5 -34t54.5 -13l272 -21q132 -10 202.5 -52.5t70.5 -139.5q0 -18 -3 -42t-10 -73t-12 -88q-22 -132 -114 -203.5t-242 -71.5h-330q-64 0 -140.5 12t-115.5 36z" />
<glyph unicode="t" horiz-adv-x="837" d="M59 858l29 201h178q2 17 17.5 129.5t17.5 132.5q38 2 149.5 14.5t137.5 14.5l-41 -291h301l-29 -201h-301l-80 -563q-2 -10 -2 -31q0 -30 16 -46.5t58 -16.5h223l-26 -183q-106 -43 -279 -43q-65 0 -113 8t-89 28t-62 59t-21 96q0 17 4 53l89 639h-177z" />
<glyph unicode="u" horiz-adv-x="1316" d="M104 874l27 195l410 12l-111 -778q0 -4 -1 -15.5t-1 -15.5q0 -69 96 -69h92q114 0 195 22l90 649h-135l29 201l417 6l-122 -886l124 -7l-26 -194l-361 -2l-18 106q-126 -123 -305 -123h-127q-115 0 -179.5 46t-64.5 141q0 17 4 53l92 659h-125z" />
<glyph unicode="v" horiz-adv-x="1159" d="M51 874l29 197l389 2v-199l96 -573l4 -86l11 -2l30 84l267 580l-170 6l28 188l426 2l-10 -196l-449 -887h-344l-174 882z" />
<glyph unicode="w" horiz-adv-x="1794" d="M63 874l29 197l387 2v-199l62 -512l6 -110h8l25 110l227 711h358l97 -700l6 -119h8l33 117l204 506l-155 6l28 188l408 2l-8 -196l-389 -887h-307l-117 715l-10 129h-11l-30 -125l-240 -719h-344l-143 882z" />
<glyph unicode="x" horiz-adv-x="1206" d="M-4 0l24 178l373 369l-211 323l-127 4l29 197l350 2l78 -190l143 -246l230 237l-142 7l21 190l459 2l-27 -199l-354 -354l211 -334l127 -4l-27 -182h-338l-74 176l-163 262l-232 -256l150 -4l-27 -178h-473z" />
<glyph unicode="y" horiz-adv-x="1159" d="M43 -420l31 217h192q53 1 79 21.5t44 58.5l51 107l-243 888l-123 2l28 197l387 2v-196l121 -521l13 -104h10l26 102l228 520l-172 9l28 188l418 2v-201l-477 -974q-31 -67 -56 -110.5t-65.5 -90t-87.5 -73t-117 -43.5t-159 -17q-94 0 -156 16z" />
<glyph unicode="z" horiz-adv-x="1075" d="M6 0l25 182l684 695h-357l-18 -132h-223l47 328h907l-31 -215l-649 -661h352l19 127h223l-47 -324h-932z" />
<glyph unicode="{" horiz-adv-x="747" d="M68 -346q0 5 1 16t1 17l116 819l-94 129l129 131l96 682q17 115 129 121h410l-22 -158h-265l-94 -663l-119 -107l90 -96l-114 -824h264l-23 -155h-389q-56 0 -86 19.5t-30 68.5z" />
<glyph unicode="|" horiz-adv-x="944" d="M238 -426l272 1939h223l-272 -1939h-223z" />
<glyph unicode="}" horiz-adv-x="747" d="M-113 -434l23 155h262l117 824l117 96l-89 107l93 663h-265l23 158h401q105 -3 105 -94q0 -4 -1 -13t-1 -14l-97 -682l93 -131l-129 -129l-115 -819q-13 -121 -150 -121h-387z" />
<glyph unicode="~" horiz-adv-x="1241" d="M92 506q26 127 82 192.5t150 65.5q66 0 296 -28.5t293 -28.5q13 0 23.5 1.5t18 3t14 6.5t9.5 7.5t7 10.5t5.5 11.5t5 15t5.5 15.5l140 -30q-24 -125 -72.5 -186.5t-146.5 -61.5q-68 0 -294 28.5t-284 28.5q-46 0 -70 -14.5t-36 -50.5z" />
<glyph unicode="&#xa1;" horiz-adv-x="628" d="M53 -322l178 990h242l-96 -990h-324zM217 786l43 310h305l-43 -310h-305z" />
<glyph unicode="&#xa2;" horiz-adv-x="1079" d="M76 287q0 39 6 82l51 358q27 188 137.5 274.5t304.5 88.5h19l24 170h211l-24 -170h51q137 -3 225 -48l-43 -317h-256l23 158h-236q-59 0 -94.5 -33.5t-44.5 -97.5l-53 -371q-4 -32 -4 -45q0 -61 31.5 -87t101.5 -26h461l-23 -160q-95 -59 -252 -59h-39l-26 -190h-211 l26 190h-12q-176 2 -265 68.5t-89 214.5z" />
<glyph unicode="&#xa3;" horiz-adv-x="1228" d="M49 0l33 227h176l57 414h-165l28 195h164l43 292q47 330 502 330q181 0 332 -45l-45 -319h-236l20 143h-196q-28 0 -54 -23t-34 -75l-43 -303h358l-28 -195h-357l-57 -414h575l-73 -227h-1000z" />
<glyph unicode="&#xa4;" horiz-adv-x="1460" d="M53 465l23 158h174l22 157h-174l23 158h174q18 139 60 236t110.5 155t156 83.5t205.5 25.5h320q224 0 301 -41l-49 -342h-269l23 153h-303q-114 0 -159.5 -60.5t-65.5 -209.5h512l-23 -158h-512l-22 -157h503l-24 -158h-502q-12 -102 -12 -121q0 -76 39 -108.5t123 -32.5 h305l20 145h268l-45 -323q-57 -28 -160.5 -40t-191.5 -12h-303q-191 0 -289 77t-98 249q0 59 16 166h-176z" />
<glyph unicode="&#xa5;" horiz-adv-x="1449" d="M113 1214l28 203h602l-28 -203l-137 -4l194 -401l10 -35h2l21 35l305 401l-127 4l29 203h555l-29 -203l-117 -6l-456 -585h323l-22 -170h-381l-37 -244l147 -4l-28 -205h-613l29 205l147 4l37 244h-395l23 170h325l-291 585z" />
<glyph unicode="&#xa6;" horiz-adv-x="944" d="M246 -322l119 844h215l-119 -844h-215zM385 672l119 844h215l-119 -844h-215z" />
<glyph unicode="&#xa7;" horiz-adv-x="1419" d="M100 -397l31 207h637q57 0 87.5 27t37.5 85l22 154h-503q-118 0 -188 59t-70 170q0 17 4 53l106 760q18 132 119.5 214.5t226.5 82.5h701l22 -31l-26 -198h-619q-127 0 -141 -105l-23 -151h518q113 0 177.5 -63t64.5 -171q0 -33 -4 -51l-104 -747q-19 -136 -113.5 -226 t-226.5 -90h-715zM449 375q0 -39 24 -56.5t74 -17.5h399l43 311q2 8 2 23q0 38 -26.5 54t-81.5 16h-389l-43 -308q-2 -8 -2 -22z" />
<glyph unicode="&#xa8;" horiz-adv-x="913" d="M221 1217l41 284h260l-41 -284h-260zM635 1217l41 284h262l-41 -284h-262z" />
<glyph unicode="&#xa9;" horiz-adv-x="1871" d="M143 510q0 78 10 162.5t37 184t67.5 190.5t106.5 177t149.5 148.5t202 100.5t257.5 38h244q131 0 234 -34t168.5 -90t108.5 -135t60.5 -162.5t17.5 -178.5q0 -88 -12 -178t-40.5 -188t-71 -185.5t-109.5 -167t-150 -137t-197.5 -91.5t-248.5 -34h-238q-102 0 -186 16.5 t-144.5 45.5t-107.5 72t-76.5 91.5t-48 108.5t-26 119t-7.5 127zM266 500q0 -80 12 -145.5t44 -127t83.5 -103.5t135.5 -67.5t194 -25.5h256q121 0 221.5 32.5t169.5 86t122.5 128.5t84.5 152t50.5 164.5t26.5 159t7 141.5q0 84 -13.5 156t-48.5 140t-89.5 116t-141 77 t-198.5 29h-232q-132 0 -240.5 -42.5t-177.5 -107t-121.5 -155.5t-79 -174t-42.5 -177t-19.5 -150t-3.5 -107zM453 440q0 38 6 82l55 393q52 345 422 345h254q191 0 250 -35l-47 -324h-230l27 174h-229q-95 0 -134.5 -46.5t-52.5 -141.5l-47 -336q-1 -7 -2.5 -19t-2.5 -22 t-1 -18q0 -63 33.5 -96.5t109.5 -33.5h223l25 168h229l-43 -311q-44 -22 -124 -31.5t-144 -9.5h-264q-160 0 -236.5 64t-76.5 198z" />
<glyph unicode="&#xaa;" horiz-adv-x="909" d="M88 344l23 168h694l-23 -168h-694zM113 788q0 21 2 29l10 74q13 101 88 157t184 56h219l13 92q2 8 2 23q0 26 -16.5 35.5t-55.5 9.5h-145l-13 -88h-196l31 217q112 37 233 37h188q207 0 207 -162q0 -13 -4 -41l-57 -422h84l-21 -158l-264 -8l-2 84q-69 -94 -192 -94h-111 q-89 0 -136.5 43.5t-47.5 115.5zM344 836q0 -52 66 -52h67q97 0 109 97l12 88h-160q-40 0 -60 -15.5t-26 -50.5l-8 -53v-14z" />
<glyph unicode="&#xab;" horiz-adv-x="1310" d="M88 498l21 137l514 371l110 -134l-348 -299l260 -337l-147 -127zM649 498l21 137l516 371l110 -134l-352 -299l262 -337l-145 -127z" />
<glyph unicode="&#xac;" horiz-adv-x="1751" d="M168 655v224h1417v-709h-229v485h-1188z" />
<glyph unicode="&#xad;" horiz-adv-x="708" d="M68 469l34 244h596l-34 -244h-596z" />
<glyph unicode="&#xae;" horiz-adv-x="1871" d="M143 510q0 94 19 246q15 105 53 208.5t107 203t159 175t217.5 122t274.5 46.5h244q131 0 234 -34t168.5 -90t108.5 -135t60.5 -162.5t17.5 -178.5q0 -88 -12 -178t-40.5 -188t-71 -185.5t-109.5 -167t-150 -137t-197.5 -91.5t-248.5 -34h-238q-102 0 -186 16.5 t-144.5 45.5t-107.5 72t-76.5 91.5t-48 108.5t-26 119t-7.5 127zM266 500q0 -80 12 -145.5t44 -127t83.5 -103.5t135.5 -67.5t194 -25.5h256q121 0 221.5 32.5t169.5 86t122.5 128.5t84.5 152t50.5 164.5t26.5 159t7 141.5q0 84 -13.5 156t-48.5 140t-89.5 116t-141 77 t-198.5 29h-232q-132 0 -240.5 -42.5t-177.5 -107t-121.5 -155.5t-79 -174t-42.5 -177t-19.5 -150t-3.5 -107zM410 236l22 165h109l90 654h-107l23 159h659q242 0 242 -186q0 -35 -4 -53l-14 -115q-12 -92 -83 -145t-178 -58l-49 -2l-2 -8q66 -19 115 -86l117 -164h108 l-22 -161h-293l-207 331q-17 23 -30 32t-36 9h-55l-31 -209q14 -2 109 -2l-23 -161h-460zM836 766h208q67 0 96 16t36 66l16 102v23q0 36 -21 50.5t-73 14.5h-224z" />
<glyph unicode="&#xaf;" horiz-adv-x="894" d="M156 1257l8 201h682l-10 -201h-680z" />
<glyph unicode="&#xb0;" horiz-adv-x="708" d="M147 1239q0 108 78.5 189t190.5 81q113 0 174 -62.5t61 -158.5q0 -113 -80 -188.5t-190 -75.5q-106 0 -170 63.5t-64 151.5zM274 1255q0 -53 32 -87.5t83 -34.5q58 0 97.5 43t39.5 102q0 50 -30 86.5t-88 36.5q-60 0 -97 -42.5t-37 -103.5z" />
<glyph unicode="&#xb1;" d="M10 2l29 213h1116l-29 -213h-1116zM115 733l28 213h447l53 387h223l-53 -387h442l-28 -213h-445l-51 -375h-223l51 375h-444z" />
<glyph unicode="&#xb4;" horiz-adv-x="843" d="M315 1204l287 363l248 -62l-332 -301h-203z" />
<glyph unicode="&#xb6;" horiz-adv-x="1353" d="M141 485q0 35 6 76l82 580q22 149 123.5 212.5t282.5 63.5h645l10 -16l-256 -1819h-209l226 1610h-217l-129 -922h-334q-230 0 -230 215z" />
<glyph unicode="&#xb7;" horiz-adv-x="555" d="M125 584l45 309h305l-45 -309h-305z" />
<glyph unicode="&#xb8;" horiz-adv-x="735" d="M41 -373l20 144h150q70 0 103.5 18.5t33.5 69.5q0 37 -22 72t-64 81h131q65 -23 114.5 -78.5t49.5 -113.5q0 -97 -88.5 -157t-226.5 -62q-116 0 -201 26z" />
<glyph unicode="&#xba;" horiz-adv-x="940" d="M115 338l24 170h684l-22 -170h-686zM162 836q0 35 41 327q18 133 104 200t219 67h160q117 0 183.5 -51t66.5 -160q0 -46 -39 -322q-20 -142 -103.5 -206t-226.5 -64h-149q-123 0 -189.5 48.5t-66.5 160.5zM397 864q0 -69 82 -69h74q51 0 77 26.5t34 77.5l36 262 q2 10 2 31q0 37 -20.5 52.5t-63.5 15.5h-73q-53 0 -78 -23t-31 -74l-37 -268q0 -5 -1 -15.5t-1 -15.5z" />
<glyph unicode="&#xbb;" horiz-adv-x="1310" d="M25 236l358 337l-268 299l147 134l412 -371l-21 -137l-516 -389zM586 236l356 337l-266 299l147 134l412 -371l-21 -137l-516 -389z" />
<glyph unicode="&#xbf;" horiz-adv-x="1150" d="M78 -102q0 31 6 61l16 123q18 132 86.5 209t212.5 110l148 31q19 4 28.5 7.5t22 12t19.5 25t10 41.5l20 148h246l-33 -240q-12 -86 -69.5 -132.5t-167.5 -70.5l-101 -22q-59 -11 -81 -31t-29 -78l-17 -117q-2 -8 -2 -24q0 -35 25 -53.5t90 -18.5h258l25 176h258l-50 -364 q-127 -33 -313 -33h-303q-146 0 -225.5 60t-79.5 180zM635 801l41 295h303l-43 -295h-301z" />
<glyph unicode="&#xc0;" horiz-adv-x="1550" d="M-49 0l29 201l102 8l612 1218h418l270 -1218l101 -6l-29 -203h-563l27 199l143 2l-51 241h-514l-109 -241l145 -2l-26 -199h-555zM553 1835l244 61l225 -370h-205zM598 657h369l-97 496l-6 74h-6l-29 -74z" />
<glyph unicode="&#xc1;" horiz-adv-x="1550" d="M-49 0l29 201l102 8l612 1218h418l270 -1218l101 -6l-29 -203h-563l27 199l143 2l-51 241h-514l-109 -241l145 -2l-26 -199h-555zM598 657h369l-97 496l-6 74h-6l-29 -74zM782 1528l287 362l248 -61l-332 -301h-203z" />
<glyph unicode="&#xc2;" horiz-adv-x="1550" d="M-49 0l29 201l102 8l612 1218h418l270 -1218l101 -6l-29 -203h-563l27 199l143 2l-51 241h-514l-109 -241l145 -2l-26 -199h-555zM563 1522l273 338h206l185 -338h-213l-90 184l-142 -184h-219zM598 657h369l-97 496l-6 74h-6l-29 -74z" />
<glyph unicode="&#xc3;" horiz-adv-x="1550" d="M-49 0l29 201l102 8l612 1218h418l270 -1218l101 -6l-29 -203h-563l27 199l143 2l-51 241h-514l-109 -241l145 -2l-26 -199h-555zM494 1563q42 127 99.5 184t151.5 57q60 0 166.5 -28.5t163.5 -28.5q16 0 28.5 3t20 5.5t15.5 12t11 13.5t11.5 20t12.5 22l120 -27 q-37 -120 -93 -182t-152 -62q-60 0 -165 28t-157 28q-46 0 -68.5 -15t-40.5 -55zM598 657h369l-97 496l-6 74h-6l-29 -74z" />
<glyph unicode="&#xc4;" horiz-adv-x="1550" d="M-49 0l29 201l102 8l612 1218h418l270 -1218l101 -6l-29 -203h-563l27 199l143 2l-51 241h-514l-109 -241l145 -2l-26 -199h-555zM557 1542l41 285h260l-41 -285h-260zM598 657h369l-97 496l-6 74h-6l-29 -74zM971 1542l41 285h262l-41 -285h-262z" />
<glyph unicode="&#xc5;" horiz-adv-x="1550" d="M-49 0l29 201l102 8l612 1218h418l270 -1218l101 -6l-29 -203h-563l27 199l143 2l-51 241h-514l-109 -241l145 -2l-26 -199h-555zM598 657h369l-97 496l-6 74h-6l-29 -74zM694 1683q0 96 75 170t179 74q94 0 144.5 -48t50.5 -122q0 -102 -77 -175t-177 -73 q-94 0 -144.5 50.5t-50.5 123.5zM827 1700q0 -37 21.5 -61.5t56.5 -24.5q45 0 79 36t34 85q0 37 -21 63.5t-61 26.5q-49 0 -79 -38t-30 -87z" />
<glyph unicode="&#xc6;" horiz-adv-x="2170" d="M-51 0l28 205l113 10l602 991l-164 6l29 205h1634l-49 -358h-256l19 139h-504l-53 -381h327l17 115h217l-60 -430h-219l15 102h-328l-53 -385h491l19 143h278l-51 -362h-1241l28 203l156 8l45 313h-403l-197 -319l148 -2l-29 -203h-559zM707 743h313l65 465h-114z" />
<glyph unicode="&#xc7;" horiz-adv-x="1337" d="M94 305q0 28 8 98l86 605q60 430 521 430h344q85 0 180.5 -9.5t140.5 -31.5l-55 -377h-272l26 186h-342q-112 0 -158.5 -53t-62.5 -168l-78 -559q-8 -62 -8 -80q0 -139 166 -139h342q14 108 29 186h272l-53 -368q-57 -28 -161.5 -40t-189.5 -12h-8q41 -30 66.5 -71 t25.5 -82q0 -97 -88.5 -157t-226.5 -62q-116 0 -201 26l21 144h149q70 0 104 18.5t34 69.5q0 48 -52 114h-172q-198 0 -292.5 81.5t-94.5 250.5z" />
<glyph unicode="&#xc8;" horiz-adv-x="1400" d="M-2 0l31 201l145 4l143 1007l-149 5l29 200h1224l-49 -356h-252l19 141h-510l-49 -371h331l15 113h215l-60 -428h-215l15 109h-332l-57 -408h495l21 141h274l-51 -358h-1233zM516 1841l244 62l225 -371h-205z" />
<glyph unicode="&#xc9;" horiz-adv-x="1400" d="M-2 0l31 201l145 4l143 1007l-149 5l29 200h1224l-49 -356h-252l19 141h-510l-49 -371h331l15 113h215l-60 -428h-215l15 109h-332l-57 -408h495l21 141h274l-51 -358h-1233zM694 1532l287 362l248 -61l-332 -301h-203z" />
<glyph unicode="&#xca;" horiz-adv-x="1400" d="M-2 0l31 201l145 4l143 1007l-149 5l29 200h1224l-49 -356h-252l19 141h-510l-49 -371h331l15 113h215l-60 -428h-215l15 109h-332l-57 -408h495l21 141h274l-51 -358h-1233zM520 1522l273 338h206l185 -338h-213l-90 184l-142 -184h-219z" />
<glyph unicode="&#xcb;" horiz-adv-x="1400" d="M-2 0l31 201l145 4l143 1007l-149 5l29 200h1224l-49 -356h-252l19 141h-510l-49 -371h331l15 113h215l-60 -428h-215l15 109h-332l-57 -408h495l21 141h274l-51 -358h-1233zM516 1544l41 285h260l-41 -285h-260zM930 1544l41 285h262l-41 -285h-262z" />
<glyph unicode="&#xcc;" horiz-adv-x="747" d="M-2 0l31 201l145 4l141 1007l-147 5l29 200h610l-29 -200l-147 -5l-142 -1007l148 -4l-29 -201h-610zM145 1841l244 62l225 -371h-204z" />
<glyph unicode="&#xcd;" horiz-adv-x="747" d="M-2 0l31 201l145 4l141 1007l-147 5l29 200h610l-29 -200l-147 -5l-142 -1007l148 -4l-29 -201h-610zM393 1532l287 362l248 -61l-332 -301h-203z" />
<glyph unicode="&#xce;" horiz-adv-x="743" d="M-20 0l30 201l146 4l141 1007l-147 5l28 200h610l-28 -200l-148 -5l-141 -1007l147 -4l-28 -201h-610zM160 1522l272 338h207l184 -338h-213l-90 184l-141 -184h-219z" />
<glyph unicode="&#xcf;" horiz-adv-x="747" d="M-2 0l31 201l145 4l141 1007l-147 5l29 200h610l-29 -200l-147 -5l-142 -1007l148 -4l-29 -201h-610zM172 1544l41 285h260l-41 -285h-260zM586 1544l41 285h262l-41 -285h-262z" />
<glyph unicode="&#xd0;" horiz-adv-x="1499" d="M-2 0q24 150 31 201l145 6l59 416h-143l27 196h145l55 393q-10 0 -74.5 2.5t-74.5 2.5l29 200h882q189 0 286 -85t97 -245q0 -63 -6 -96l-78 -551q-33 -234 -161 -337t-351 -103h-868zM494 223h329q113 0 169 56t71 174l72 516q0 3 3 22.5t3 28.5q0 174 -185 174h-327 l-54 -375h277l-29 -196h-274z" />
<glyph unicode="&#xd1;" horiz-adv-x="1609" d="M-2 0l31 201l145 6l141 1003l-147 7l29 200h505l388 -839l63 -166l6 2l23 280l73 518l-143 5l29 200h538l-28 -200l-148 -5l-170 -1212h-305l-440 950l-56 160l-8 -2l-14 -264l-88 -639l143 -4l-28 -201h-539zM586 1559q42 127 100 184t152 57q60 0 166 -28.5t163 -28.5 q16 0 28.5 3t20 5.5t15.5 12t11 13.5t11.5 20t12.5 22l120 -27q-37 -120 -93 -182t-152 -62q-60 0 -165 28t-157 28q-46 0 -68 -15t-40 -55z" />
<glyph unicode="&#xd2;" horiz-adv-x="1495" d="M88 311q0 39 6 86l90 635q21 132 93.5 226t180 140t240.5 46h357q189 0 297 -80.5t108 -245.5q0 -34 -6 -74l-90 -643q-30 -213 -169 -320.5t-359 -107.5h-340q-196 0 -302 84t-106 254zM416 360q0 -153 162 -153h251q182 0 211 194l84 609q4 16 4 49q0 73 -39 113 t-118 40h-254q-92 0 -144.5 -51.5t-66.5 -142.5q-2 -19 -86 -617q-4 -28 -4 -41zM528 1839l244 62l225 -371h-204z" />
<glyph unicode="&#xd3;" horiz-adv-x="1495" d="M88 311q0 39 6 86l90 635q21 132 93.5 226t180 140t240.5 46h357q189 0 297 -80.5t108 -245.5q0 -34 -6 -74l-90 -643q-30 -213 -169 -320.5t-359 -107.5h-340q-196 0 -302 84t-106 254zM416 360q0 -153 162 -153h251q182 0 211 194l84 609q4 16 4 49q0 73 -39 113 t-118 40h-254q-92 0 -144.5 -51.5t-66.5 -142.5q-2 -19 -86 -617q-4 -28 -4 -41zM764 1530l287 362l247 -61l-331 -301h-203z" />
<glyph unicode="&#xd4;" horiz-adv-x="1495" d="M88 311q0 39 6 86l90 635q21 132 93.5 226t180 140t240.5 46h357q189 0 297 -80.5t108 -245.5q0 -34 -6 -74l-90 -643q-30 -213 -169 -320.5t-359 -107.5h-340q-196 0 -302 84t-106 254zM416 360q0 -153 162 -153h251q182 0 211 194l84 609q4 16 4 49q0 73 -39 113 t-118 40h-254q-92 0 -144.5 -51.5t-66.5 -142.5q-2 -19 -86 -617q-4 -28 -4 -41zM541 1522l272 338h207l184 -338h-213l-90 184l-141 -184h-219z" />
<glyph unicode="&#xd5;" horiz-adv-x="1495" d="M88 311q0 39 6 86l90 635q21 132 93.5 226t180 140t240.5 46h357q189 0 297 -80.5t108 -245.5q0 -34 -6 -74l-90 -643q-30 -213 -169 -320.5t-359 -107.5h-340q-196 0 -302 84t-106 254zM416 360q0 -153 162 -153h251q182 0 211 194l84 609q4 16 4 49q0 73 -39 113 t-118 40h-254q-92 0 -144.5 -51.5t-66.5 -142.5q-2 -19 -86 -617q-4 -28 -4 -41zM479 1563q42 127 100 184t152 57q60 0 166.5 -28.5t163.5 -28.5q16 0 28.5 2.5t19.5 5.5t15 12t11 14t11.5 20t12.5 22l121 -27q-37 -119 -93.5 -181.5t-152.5 -62.5q-60 0 -164.5 28 t-156.5 28q-46 0 -68.5 -15t-40.5 -55z" />
<glyph unicode="&#xd6;" horiz-adv-x="1495" d="M88 311q0 39 6 86l90 635q21 132 93.5 226t180 140t240.5 46h357q189 0 297 -80.5t108 -245.5q0 -34 -6 -74l-90 -643q-30 -213 -169 -320.5t-359 -107.5h-340q-196 0 -302 84t-106 254zM416 360q0 -153 162 -153h251q182 0 211 194l84 609q4 16 4 49q0 73 -39 113 t-118 40h-254q-92 0 -144.5 -51.5t-66.5 -142.5q-2 -19 -86 -617q-4 -28 -4 -41zM535 1546l40 285h261l-41 -285h-260zM948 1546l41 285h262l-41 -285h-262z" />
<glyph unicode="&#xd7;" d="M80 236l436 382l-321 375l176 154l321 -375l434 381l140 -162l-435 -381l322 -374l-176 -154l-322 375l-438 -383z" />
<glyph unicode="&#xd8;" horiz-adv-x="1495" d="M88 311q0 39 6 86l90 635q21 132 93.5 226t180 140t240.5 46h357q28 0 78 -4l94 157l145 -65l-80 -133q168 -79 168 -281q0 -34 -6 -74l-90 -643q-30 -213 -169 -320.5t-359 -107.5h-340q-29 0 -43 2l-123 -208l-146 65l103 174q-199 74 -199 305zM416 360q0 -56 24 -94 l557 944q-4 0 -13 1t-13 1h-254q-92 0 -144.5 -51.5t-66.5 -142.5q-2 -19 -86 -617q-4 -28 -4 -41zM590 207h239q182 0 211 194l84 609q4 16 4 49q0 27 -6 51z" />
<glyph unicode="&#xd9;" horiz-adv-x="1599" d="M147 1217l29 200h610l-28 -203l-148 -2l-114 -804l-4 -52q0 -141 157 -141h234q90 0 143.5 50t65.5 143l112 804l-145 5l28 200h588l-28 -200l-150 -5l-113 -815q-59 -424 -503 -424h-330q-184 0 -282.5 80t-98.5 244q0 26 8 104l115 811zM600 1841l244 62l225 -371h-205 z" />
<glyph unicode="&#xda;" horiz-adv-x="1599" d="M147 1217l29 200h610l-28 -203l-148 -2l-114 -804l-4 -52q0 -141 157 -141h234q90 0 143.5 50t65.5 143l112 804l-145 5l28 200h588l-28 -200l-150 -5l-113 -815q-59 -424 -503 -424h-330q-184 0 -282.5 80t-98.5 244q0 26 8 104l115 811zM852 1532l287 362l247 -61 l-331 -301h-203z" />
<glyph unicode="&#xdb;" horiz-adv-x="1599" d="M147 1217l29 200h610l-28 -203l-148 -2l-114 -804l-4 -52q0 -141 157 -141h234q90 0 143.5 50t65.5 143l112 804l-145 5l28 200h588l-28 -200l-150 -5l-113 -815q-59 -424 -503 -424h-330q-184 0 -282.5 80t-98.5 244q0 26 8 104l115 811zM614 1522l273 338h207l184 -338 h-213l-90 184l-141 -184h-220z" />
<glyph unicode="&#xdc;" horiz-adv-x="1599" d="M147 1217l29 200h610l-28 -203l-148 -2l-114 -804l-4 -52q0 -141 157 -141h234q90 0 143.5 50t65.5 143l112 804l-145 5l28 200h588l-28 -200l-150 -5l-113 -815q-59 -424 -503 -424h-330q-184 0 -282.5 80t-98.5 244q0 26 8 104l115 811zM621 1550l41 285h260l-41 -285 h-260zM1034 1550l41 285h262l-41 -285h-262z" />
<glyph unicode="&#xdd;" horiz-adv-x="1462" d="M109 1217l28 200h602l-28 -200l-140 -3l185 -385l22 -69h4l37 67l293 387l-135 3l29 200h575l-29 -200l-116 -5l-543 -677l-47 -330l147 -4l-28 -201h-611l29 201l149 6l46 315l-351 690zM762 1532l287 362l247 -61l-331 -301h-203z" />
<glyph unicode="&#xde;" horiz-adv-x="1425" d="M-4 0l33 201l143 4l141 1007l-145 5l29 200h610l-27 -200l-147 -3l-15 -133h431q158 0 240.5 -54t82.5 -175q0 -39 -4 -57l-18 -127q-21 -162 -129.5 -231.5t-294.5 -69.5h-410l-27 -160l197 -6l-27 -201h-663zM543 565h350q72 0 103 27.5t40 95.5l13 74q2 12 2 35 q0 50 -31 67t-94 17h-336z" />
<glyph unicode="&#xdf;" horiz-adv-x="1380" d="M70 -434l186 1290h-170l29 203h172q0 2 2 16t2 17q33 209 167.5 318.5t334.5 109.5h170q69 0 131.5 -14t120.5 -44.5t93 -89.5t35 -139q0 -4 -6 -74.5t-6 -75.5q-37 -262 -231 -295v-12q106 -20 161.5 -77.5t55.5 -141.5q0 -16 -11 -118t-16 -136q-23 -159 -121 -242.5 t-262 -83.5h-159q-116 0 -199 33l41 275h207l-15 -103h82q71 0 107 30.5t43 100.5l20 174q2 12 2 37q0 61 -32.5 88.5t-110.5 28.5h-188l30 229h150q139 0 159 136q17 104 17 163q0 61 -41.5 93t-104.5 32h-151q-77 0 -129 -57.5t-64 -146.5l-202 -1444z" />
<glyph unicode="&#xe0;" horiz-adv-x="1243" d="M66 195q0 38 22 180q23 133 106.5 193.5t229.5 60.5h375l20 141q4 32 4 47q0 42 -27 59t-87 17h-228l-18 -129h-250l41 285q137 49 328 49h241q135 0 211 -53.5t76 -167.5q0 -39 -4 -62l-84 -590v-37l125 -6l-27 -182l-348 -12l-12 125h-4q-120 -138 -283 -138h-166 q-120 0 -180.5 59.5t-60.5 160.5zM346 244q0 -74 109 -74h90q32 0 64 7.5t64 23.5t54 46.5t27 71.5l20 140h-276q-66 0 -96 -21.5t-40 -83.5q-16 -96 -16 -110zM352 1513l244 62l225 -371h-205z" />
<glyph unicode="&#xe1;" horiz-adv-x="1206" d="M41 195q0 38 22 180q23 133 106.5 193.5t229.5 60.5h375l21 141q4 32 4 47q0 42 -27.5 59t-87.5 17h-227l-19 -129h-250l41 285q137 49 328 49h242q286 0 286 -221q0 -39 -4 -62l-84 -590v-37l125 -6l-26 -182l-348 -12l-13 125h-4q-120 -138 -282 -138h-166 q-120 0 -181 59.5t-61 160.5zM322 244q0 -74 108 -74h90q32 0 64 7.5t64 23.5t54 46.5t27 71.5l21 140h-277q-66 0 -95.5 -21.5t-39.5 -83.5q-16 -96 -16 -110zM524 1204l287 363l248 -62l-332 -301h-203z" />
<glyph unicode="&#xe2;" horiz-adv-x="1243" d="M66 195q0 38 22 180q23 133 106.5 193.5t229.5 60.5h375l20 141q4 32 4 47q0 42 -27 59t-87 17h-228l-18 -129h-250l41 285q137 49 328 49h241q135 0 211 -53.5t76 -167.5q0 -39 -4 -62l-84 -590v-37l125 -6l-27 -182l-348 -12l-12 125h-4q-120 -138 -283 -138h-166 q-120 0 -180.5 59.5t-60.5 160.5zM346 244q0 -74 109 -74h90q32 0 64 7.5t64 23.5t54 46.5t27 71.5l20 140h-276q-66 0 -96 -21.5t-40 -83.5q-16 -96 -16 -110zM346 1194l272 338h207l185 -338h-213l-90 184l-142 -184h-219z" />
<glyph unicode="&#xe3;" horiz-adv-x="1243" d="M66 195q0 38 22 180q23 133 106.5 193.5t229.5 60.5h375l20 141q4 32 4 47q0 42 -27 59t-87 17h-228l-18 -129h-250l41 285q137 49 328 49h241q135 0 211 -53.5t76 -167.5q0 -39 -4 -62l-84 -590v-37l125 -6l-27 -182l-348 -12l-12 125h-4q-120 -138 -283 -138h-166 q-120 0 -180.5 59.5t-60.5 160.5zM289 1231q42 127 100 184.5t152 57.5q60 0 166 -29t163 -29q16 0 28.5 3t20 5.5t15.5 12t11 13.5t11.5 20t12.5 22l121 -27q-37 -119 -93.5 -181t-152.5 -62q-60 0 -165 27.5t-157 27.5q-46 0 -68 -15t-40 -55zM346 244q0 -74 109 -74h90 q32 0 64 7.5t64 23.5t54 46.5t27 71.5l20 140h-276q-66 0 -96 -21.5t-40 -83.5q-16 -96 -16 -110z" />
<glyph unicode="&#xe4;" horiz-adv-x="1243" d="M66 195q0 38 22 180q23 133 106.5 193.5t229.5 60.5h375l20 141q4 32 4 47q0 42 -27 59t-87 17h-228l-18 -129h-250l41 285q137 49 328 49h241q135 0 211 -53.5t76 -167.5q0 -39 -4 -62l-84 -590v-37l125 -6l-27 -182l-348 -12l-12 125h-4q-120 -138 -283 -138h-166 q-120 0 -180.5 59.5t-60.5 160.5zM346 244q0 -74 109 -74h90q32 0 64 7.5t64 23.5t54 46.5t27 71.5l20 140h-276q-66 0 -96 -21.5t-40 -83.5q-16 -96 -16 -110zM350 1217l41 284h260l-41 -284h-260zM764 1217l41 284h262l-41 -284h-262z" />
<glyph unicode="&#xe5;" horiz-adv-x="1243" d="M66 195q0 38 22 180q23 133 106.5 193.5t229.5 60.5h375l20 141q4 32 4 47q0 42 -27 59t-87 17h-228l-18 -129h-250l41 285q137 49 328 49h241q135 0 211 -53.5t76 -167.5q0 -39 -4 -62l-84 -590v-37l125 -6l-27 -182l-348 -12l-12 125h-4q-120 -138 -283 -138h-166 q-120 0 -180.5 59.5t-60.5 160.5zM346 244q0 -74 109 -74h90q32 0 64 7.5t64 23.5t54 46.5t27 71.5l20 140h-276q-66 0 -96 -21.5t-40 -83.5q-16 -96 -16 -110zM494 1358q0 96 75 170t179 74q94 0 144 -48t50 -122q0 -102 -77 -175t-177 -73q-94 0 -144 50.5t-50 123.5z M627 1374q0 -37 21.5 -61.5t56.5 -24.5q45 0 78.5 36t33.5 85q0 37 -21 63.5t-61 26.5q-48 0 -78 -38t-30 -87z" />
<glyph unicode="&#xe6;" horiz-adv-x="1843" d="M66 195q0 38 16 145q21 143 121.5 220t253.5 77h334l18 143q4 20 4 35q0 43 -27.5 59.5t-85.5 16.5h-233l-16 -129h-246l41 289q132 47 309 47h260q140 0 201 -56q95 56 266 56h133q79 0 140.5 -11.5t114.5 -38.5t81.5 -78.5t28.5 -125.5q0 -1 -6 -70l-41 -293l-207 -30 h-467q-19 -129 -19 -154q0 -57 32.5 -76.5t96.5 -19.5h502l-22 -162q-105 -64 -258 -64h-238q-242 0 -319 138q-45 -63 -118.5 -100.5t-170.5 -37.5h-226q-119 0 -186 59t-67 161zM352 252q0 -78 103 -78h104q80 0 129.5 43.5t59.5 128.5l16 119h-264q-119 0 -133 -100 q-15 -107 -15 -113zM1085 643h404q18 129 18 164q0 55 -34 73.5t-101 18.5h-102q-32 0 -57 -5.5t-42.5 -14t-31 -27t-21.5 -35t-14.5 -48.5t-10 -56.5t-8.5 -69.5z" />
<glyph unicode="&#xe7;" horiz-adv-x="1087" d="M106 256q0 30 7 84q36 235 55 395q56 363 453 363h221q61 0 133.5 -13t120.5 -34l-45 -314h-242l22 156h-227q-58 0 -95 -33.5t-46 -97.5l-57 -410q-5 -45 -5 -47q0 -60 33 -86t105 -26h438l-23 -158q-91 -56 -249 -60q42 -31 68 -72.5t26 -82.5q0 -97 -89 -157t-227 -62 q-115 0 -200 26l20 144h150q70 0 103.5 18.5t33.5 69.5q0 53 -53 116h-68q-178 0 -270.5 66.5t-92.5 214.5z" />
<glyph unicode="&#xe8;" horiz-adv-x="1198" d="M106 252q0 40 5 74l59 417q51 355 465 355h133q80 0 141.5 -11.5t114 -38.5t81 -78.5t28.5 -125.5q0 -31 -7 -66l-39 -291l-206 -28h-461q-6 -50 -11.5 -89t-7.5 -53.5t-2 -21.5q0 -52 31.5 -75t101.5 -23h492q-20 -133 -23 -158q-101 -64 -256 -64h-288 q-105 0 -180.5 25t-123 88.5t-47.5 163.5zM375 1513l243 62l226 -371h-205zM446 647h396l18 125q2 12 2 35q0 55 -31.5 74.5t-103.5 19.5h-94q-82 0 -121.5 -33.5t-48.5 -103.5z" />
<glyph unicode="&#xe9;" horiz-adv-x="1202" d="M106 252q0 40 5 74l59 417q51 355 465 355h133q80 0 141.5 -11.5t114 -38.5t81 -78.5t28.5 -125.5q0 -31 -7 -66l-39 -291l-206 -28h-461q-6 -50 -11.5 -89t-7.5 -53.5t-2 -21.5q0 -52 31.5 -75t101.5 -23h492q-20 -133 -23 -158q-101 -64 -256 -64h-288 q-105 0 -180.5 25t-123 88.5t-47.5 163.5zM446 647h396l18 125q2 12 2 35q0 55 -31.5 74.5t-103.5 19.5h-94q-82 0 -121.5 -33.5t-48.5 -103.5zM580 1204l286 363l248 -62l-332 -301h-202z" />
<glyph unicode="&#xea;" horiz-adv-x="1198" d="M106 252q0 40 5 74l59 417q51 355 465 355h133q80 0 141.5 -11.5t114 -38.5t81 -78.5t28.5 -125.5q0 -31 -7 -66l-39 -291l-206 -28h-461q-6 -50 -11.5 -89t-7.5 -53.5t-2 -21.5q0 -52 31.5 -75t101.5 -23h492q-20 -133 -23 -158q-101 -64 -256 -64h-288 q-105 0 -180.5 25t-123 88.5t-47.5 163.5zM385 1194l272 338h207l185 -338h-213l-91 184l-141 -184h-219zM446 647h396l18 125q2 12 2 35q0 55 -31.5 74.5t-103.5 19.5h-94q-82 0 -121.5 -33.5t-48.5 -103.5z" />
<glyph unicode="&#xeb;" horiz-adv-x="1198" d="M106 252q0 40 5 74l59 417q51 355 465 355h133q80 0 141.5 -11.5t114 -38.5t81 -78.5t28.5 -125.5q0 -31 -7 -66l-39 -291l-206 -28h-461q-6 -50 -11.5 -89t-7.5 -53.5t-2 -21.5q0 -52 31.5 -75t101.5 -23h492q-20 -133 -23 -158q-101 -64 -256 -64h-288 q-105 0 -180.5 25t-123 88.5t-47.5 163.5zM383 1217l41 284h260l-41 -284h-260zM446 647h396l18 125q2 12 2 35q0 55 -31.5 74.5t-103.5 19.5h-94q-82 0 -121.5 -33.5t-48.5 -103.5zM797 1217l41 284h262l-41 -284h-262z" />
<glyph unicode="&#xec;" horiz-adv-x="673" d="M113 1513l243 62l226 -371h-205zM121 872l29 199l415 14l-127 -895l125 -4l-26 -186h-412l125 872h-129z" />
<glyph unicode="&#xed;" horiz-adv-x="673" d="M121 872l29 199l415 14l-127 -895l125 -4l-26 -186h-412l125 872h-129zM299 1204l287 363l248 -62l-332 -301h-203z" />
<glyph unicode="&#xee;" horiz-adv-x="673" d="M66 1194l272 338h207l184 -338h-213l-90 184l-141 -184h-219zM121 872l29 199l415 14l-127 -895l125 -4l-26 -186h-412l125 872h-129z" />
<glyph unicode="&#xef;" horiz-adv-x="673" d="M63 1217l41 284h261l-41 -284h-261zM121 872l29 199l415 14l-127 -895l125 -4l-26 -186h-412l125 872h-129zM477 1217l41 284h262l-41 -284h-262z" />
<glyph unicode="&#xf0;" horiz-adv-x="1218" d="M78 246q0 63 47 358q21 150 123.5 226.5t261.5 76.5h135q168 0 234 -61q0 4 9 62t9 79q0 31 -7.5 67.5t-21.5 55.5l-311 -94l-33 127l301 88q-34 25 -70 36t-112 11h-356l16 135q118 47 395 47q165 0 264 -35t148 -125l166 62l31 -143l-158 -50q31 -45 31 -180 q0 -10 -6 -51l-7 -41l-80 -584q-28 -185 -138 -261.5t-306 -76.5h-229q-75 0 -132.5 12.5t-105.5 41.5t-73 83.5t-25 133.5zM371 283q0 -54 27 -78.5t81 -24.5h180q121 0 142 148l51 358q-86 27 -176 27h-115q-61 0 -101.5 -29t-49.5 -86q-3 -27 -18.5 -134.5t-18.5 -133.5 q0 -7 -1 -23.5t-1 -23.5z" />
<glyph unicode="&#xf1;" horiz-adv-x="1333" d="M117 874l28 205l394 2l-2 -102q139 119 309 119h108q115 0 180.5 -46t65.5 -139q0 -19 -4 -55l-94 -670l125 -6l-27 -182h-407l108 772q0 2 1 14t1 13q-3 71 -94 71h-84q-115 0 -201 -22l-92 -658v-190h-307l121 874h-129zM362 1231q42 127 100 184.5t152 57.5 q60 0 166.5 -29t163.5 -29q16 0 28.5 2.5t19.5 5.5t15 12t11 14t11.5 20t12.5 22l121 -27q-37 -120 -93 -181.5t-152 -61.5q-60 0 -165 27.5t-157 27.5q-46 0 -68.5 -15t-40.5 -55z" />
<glyph unicode="&#xf2;" horiz-adv-x="1236" d="M94 254q0 47 4 74l62 430q25 171 141 255.5t289 84.5h244q156 0 243.5 -70t87.5 -211q0 -42 -4 -65l-59 -418q-50 -359 -430 -359h-234q-344 0 -344 279zM360 1513l244 62l225 -371h-204zM387 293q0 -53 30 -84t89 -31h156q64 0 102 38t47 101l61 439q2 10 2 28 q0 111 -112 111h-158q-137 0 -153 -139l-64 -439v-24z" />
<glyph unicode="&#xf3;" horiz-adv-x="1236" d="M94 254q0 47 4 74l62 430q25 171 141 255.5t289 84.5h244q156 0 243.5 -70t87.5 -211q0 -42 -4 -65l-59 -418q-50 -359 -430 -359h-234q-344 0 -344 279zM387 293q0 -53 30 -84t89 -31h156q64 0 102 38t47 101l61 439q2 10 2 28q0 111 -112 111h-158q-137 0 -153 -139 l-64 -439v-24zM586 1204l286 363l248 -62l-332 -301h-202z" />
<glyph unicode="&#xf4;" horiz-adv-x="1236" d="M94 254q0 47 4 74l62 430q25 171 141 255.5t289 84.5h244q156 0 243.5 -70t87.5 -211q0 -42 -4 -65l-59 -418q-50 -359 -430 -359h-234q-344 0 -344 279zM373 1194l272 338h207l184 -338h-213l-90 184l-141 -184h-219zM387 293q0 -53 30 -84t89 -31h156q64 0 102 38 t47 101l61 439q2 10 2 28q0 111 -112 111h-158q-137 0 -153 -139l-64 -439v-24z" />
<glyph unicode="&#xf5;" horiz-adv-x="1236" d="M94 254q0 47 4 74l62 430q25 171 141 255.5t289 84.5h244q156 0 243.5 -70t87.5 -211q0 -42 -4 -65l-59 -418q-50 -359 -430 -359h-234q-344 0 -344 279zM303 1231q42 127 100 184.5t152 57.5q60 0 166.5 -29t163.5 -29q16 0 28.5 2.5t19.5 5.5t15 12t11 14t11.5 20 t12.5 22l121 -27q-37 -119 -93.5 -181t-152.5 -62q-60 0 -164.5 27.5t-156.5 27.5q-46 0 -68.5 -15t-40.5 -55zM387 293q0 -53 30 -84t89 -31h156q64 0 102 38t47 101l61 439q2 10 2 28q0 111 -112 111h-158q-137 0 -153 -139l-64 -439v-24z" />
<glyph unicode="&#xf6;" horiz-adv-x="1236" d="M94 254q0 47 4 74l62 430q25 171 141 255.5t289 84.5h244q156 0 243.5 -70t87.5 -211q0 -42 -4 -65l-59 -418q-50 -359 -430 -359h-234q-344 0 -344 279zM369 1217l41 284h260l-41 -284h-260zM387 293q0 -53 30 -84t89 -31h156q64 0 102 38t47 101l61 439q2 10 2 28 q0 111 -112 111h-158q-137 0 -153 -139l-64 -439v-24zM782 1217l41 284h262l-41 -284h-262z" />
<glyph unicode="&#xf7;" d="M86 516l31 213h1124l-31 -213h-1124zM434 84l41 297h309l-41 -297h-309zM543 856l41 297h309l-41 -297h-309z" />
<glyph unicode="&#xf8;" horiz-adv-x="1255" d="M106 256q0 41 5 72l61 430q25 171 141 255.5t289 84.5h252q38 0 88 -11l100 154l129 -53l-96 -150q113 -73 113 -221q0 -40 -4 -65l-60 -418q-50 -359 -432 -359h-194q-69 0 -109 5l-115 -181l-129 56l103 161q-142 62 -142 240zM410 358q0 -63 10 -77l395 608 q-20 4 -33 4h-166q-131 0 -151 -137l-53 -367q0 -4 -1 -16t-1 -15zM518 180h164q63 0 100 37.5t47 99.5l48 340q4 12 4 33v43z" />
<glyph unicode="&#xf9;" horiz-adv-x="1316" d="M104 874l27 195l410 12l-111 -778q0 -4 -1 -15.5t-1 -15.5q0 -69 96 -69h92q114 0 195 22l90 649h-135l29 201l417 6l-122 -886l124 -7l-26 -194l-361 -2l-18 106q-126 -123 -305 -123h-127q-115 0 -179.5 46t-64.5 141q0 17 4 53l92 659h-125zM387 1513l244 62l225 -371 h-205z" />
<glyph unicode="&#xfa;" horiz-adv-x="1316" d="M104 874l27 195l410 12l-111 -778q0 -4 -1 -15.5t-1 -15.5q0 -69 96 -69h92q114 0 195 22l90 649h-135l29 201l417 6l-122 -886l124 -7l-26 -194l-361 -2l-18 106q-126 -123 -305 -123h-127q-115 0 -179.5 46t-64.5 141q0 17 4 53l92 659h-125zM604 1204l287 363l248 -62 l-332 -301h-203z" />
<glyph unicode="&#xfb;" horiz-adv-x="1316" d="M104 874l27 195l410 12l-111 -778q0 -4 -1 -15.5t-1 -15.5q0 -69 96 -69h92q114 0 195 22l90 649h-135l29 201l417 6l-122 -886l124 -7l-26 -194l-361 -2l-18 106q-126 -123 -305 -123h-127q-115 0 -179.5 46t-64.5 141q0 17 4 53l92 659h-125zM393 1194l273 338h206 l185 -338h-213l-90 184l-142 -184h-219z" />
<glyph unicode="&#xfc;" horiz-adv-x="1316" d="M104 874l27 195l410 12l-111 -778q0 -4 -1 -15.5t-1 -15.5q0 -69 96 -69h92q114 0 195 22l90 649h-135l29 201l417 6l-122 -886l124 -7l-26 -194l-361 -2l-18 106q-126 -123 -305 -123h-127q-115 0 -179.5 46t-64.5 141q0 17 4 53l92 659h-125zM395 1217l41 284h260 l-41 -284h-260zM809 1217l41 284h262l-41 -284h-262z" />
<glyph unicode="&#xfd;" horiz-adv-x="1159" d="M43 -420l31 217h192q53 1 79 21.5t44 58.5l51 107l-243 888l-123 2l28 197l387 2v-196l121 -521l13 -104h10l26 102l228 520l-172 9l28 188l418 2v-201l-477 -974q-31 -67 -56 -110.5t-65.5 -90t-87.5 -73t-117 -43.5t-159 -17q-94 0 -156 16zM535 1204l286 363l248 -62 l-332 -301h-202z" />
<glyph unicode="&#xfe;" horiz-adv-x="1284" d="M66 -424l239 1722h-135l29 199l422 14l-78 -534q131 121 280 121h111q138 0 205 -54.5t67 -152.5q0 -22 -6 -82l-76 -533q-21 -151 -119.5 -226t-236.5 -75h-123q-157 0 -229 86l-43 -297v-188h-307zM440 242q29 -18 83.5 -32.5t113.5 -14.5h78q64 0 94.5 28.5 t40.5 102.5l61 428l4 39q0 86 -112 86h-92q-35 0 -94.5 -8.5t-90.5 -18.5z" />
<glyph unicode="&#xff;" horiz-adv-x="1159" d="M43 -420l31 217h192q53 1 79 21.5t44 58.5l51 107l-243 888l-123 2l28 197l387 2v-196l121 -521l13 -104h10l26 102l228 520l-172 9l28 188l418 2v-201l-477 -974q-31 -67 -56 -110.5t-65.5 -90t-87.5 -73t-117 -43.5t-159 -17q-94 0 -156 16zM344 1217l41 284h260 l-41 -284h-260zM758 1217l41 284h262l-41 -284h-262z" />
<glyph unicode="&#x152;" horiz-adv-x="2187" d="M88 332q0 42 6 92q67 456 82 580q29 201 164.5 307t341.5 106h1526l-47 -358h-256l18 139h-504l-51 -364h328l16 112h217l-61 -438h-217l14 115h-328l-55 -404h492l20 143h277l-52 -362h-1530q-401 0 -401 332zM418 377q0 -148 157 -148h390l135 963h-391q-89 0 -143 -53 t-66 -142l-80 -575q-2 -16 -2 -45z" />
<glyph unicode="&#x153;" horiz-adv-x="1923" d="M106 256q0 41 5 72l61 430q25 171 141 255.5t289 84.5h244q138 0 221 -90q104 90 283 90h143q80 0 141.5 -11.5t115 -38.5t82 -78.5t28.5 -125.5q0 -10 -48 -359l-206 -28h-467q-5 -37 -9 -68.5t-6 -45.5t-3.5 -25t-2 -15t-0.5 -8q0 -54 35 -79.5t109 -25.5h487l-23 -151 q-101 -64 -256 -64h-296q-75 0 -140.5 22.5t-97.5 65.5q-119 -88 -252 -88h-231q-347 0 -347 281zM401 289q0 -51 29.5 -80t87.5 -29h156q63 0 100 37.5t47 99.5l62 439q2 10 2 28q0 109 -111 109h-158q-131 0 -151 -137l-62 -437q-2 -10 -2 -30zM1163 639h402 q20 145 20 168q0 53 -31.5 72.5t-101.5 19.5h-102q-37 0 -61.5 -5.5t-47 -21t-37 -44t-25 -75t-16.5 -114.5z" />
<glyph unicode="&#x178;" horiz-adv-x="1462" d="M109 1217l28 200h602l-28 -200l-140 -3l185 -385l22 -69h4l37 67l293 387l-135 3l29 200h575l-29 -200l-116 -5l-543 -677l-47 -330l147 -4l-28 -201h-611l29 201l149 6l46 315l-351 690zM565 1544l41 285h260l-41 -285h-260zM979 1544l41 285h262l-41 -285h-262z" />
<glyph unicode="&#x2c6;" horiz-adv-x="884" d="M141 1194l273 338h207l184 -338h-213l-90 184l-142 -184h-219z" />
<glyph unicode="&#x2dc;" horiz-adv-x="985" d="M219 1231q42 127 100 184.5t152 57.5q60 0 166.5 -29t163.5 -29q16 0 28.5 2.5t19.5 5.5t15 12t11 14t11.5 20t12.5 22l121 -27q-37 -119 -93.5 -181t-152.5 -62q-60 0 -164.5 27.5t-156.5 27.5q-46 0 -68.5 -15t-40.5 -55z" />
<glyph unicode="&#x2000;" horiz-adv-x="963" />
<glyph unicode="&#x2001;" horiz-adv-x="1927" />
<glyph unicode="&#x2002;" horiz-adv-x="963" />
<glyph unicode="&#x2003;" horiz-adv-x="1927" />
<glyph unicode="&#x2004;" horiz-adv-x="642" />
<glyph unicode="&#x2005;" horiz-adv-x="481" />
<glyph unicode="&#x2006;" horiz-adv-x="321" />
<glyph unicode="&#x2007;" horiz-adv-x="321" />
<glyph unicode="&#x2008;" horiz-adv-x="240" />
<glyph unicode="&#x2009;" horiz-adv-x="385" />
<glyph unicode="&#x200a;" horiz-adv-x="107" />
<glyph unicode="&#x2010;" horiz-adv-x="708" d="M68 469l34 244h596l-34 -244h-596z" />
<glyph unicode="&#x2011;" horiz-adv-x="708" d="M68 469l34 244h596l-34 -244h-596z" />
<glyph unicode="&#x2012;" horiz-adv-x="708" d="M68 469l34 244h596l-34 -244h-596z" />
<glyph unicode="&#x2013;" horiz-adv-x="1222" d="M119 492l31 223h1003l-31 -223h-1003z" />
<glyph unicode="&#x2014;" horiz-adv-x="1812" d="M147 492l31 223h1557l-31 -223h-1557z" />
<glyph unicode="&#x2018;" horiz-adv-x="530" d="M215 918l31 221l213 362h149l-96 -295l-2 -288h-295z" />
<glyph unicode="&#x2019;" horiz-adv-x="530" d="M145 918l97 294l2 289h295l-31 -221l-213 -362h-150z" />
<glyph unicode="&#x201a;" horiz-adv-x="540" d="M-2 -287l96 295l2 289h297l-31 -221l-212 -363h-152z" />
<glyph unicode="&#x201c;" horiz-adv-x="956" d="M219 918l31 221l213 362h149l-96 -295l-2 -288h-295zM645 918l31 221l213 362h151l-96 -295l-2 -288h-297z" />
<glyph unicode="&#x201d;" horiz-adv-x="956" d="M145 918l97 294l2 289h295l-31 -221l-213 -362h-150zM571 918l97 294l2 289h297l-31 -221l-213 -362h-152z" />
<glyph unicode="&#x201e;" horiz-adv-x="956" d="M12 -287l97 295l2 289h295l-31 -221l-213 -363h-150zM438 -287l97 295l2 289h297l-31 -221l-213 -363h-152z" />
<glyph unicode="&#x2022;" horiz-adv-x="845" d="M129 655q0 100 54 187.5t141 138.5t182 51q123 0 201.5 -80.5t78.5 -201.5q0 -153 -112.5 -266t-261.5 -113q-121 0 -202 81t-81 203z" />
<glyph unicode="&#x2026;" horiz-adv-x="1630" d="M78 0l45 309h305l-45 -309h-305zM604 0l45 309h305l-45 -309h-305zM1130 0l46 309h305l-45 -309h-306z" />
<glyph unicode="&#x202f;" horiz-adv-x="385" />
<glyph unicode="&#x2039;" horiz-adv-x="747" d="M88 498l21 137l514 371l110 -134l-348 -299l260 -337l-147 -127z" />
<glyph unicode="&#x203a;" horiz-adv-x="749" d="M25 236l356 337l-266 299l147 134l412 -371l-21 -137l-516 -389z" />
<glyph unicode="&#x205f;" horiz-adv-x="481" />
<glyph unicode="&#x20ac;" horiz-adv-x="1460" d="M53 465l23 158h174l22 157h-174l23 158h174q18 139 60 236t110.5 155t156 83.5t205.5 25.5h320q224 0 301 -41l-49 -342h-269l23 153h-303q-114 0 -159.5 -60.5t-65.5 -209.5h512l-23 -158h-512l-22 -157h503l-24 -158h-502q-12 -102 -12 -121q0 -76 39 -108.5t123 -32.5 h305l20 145h268l-45 -323q-57 -28 -160.5 -40t-191.5 -12h-303q-191 0 -289 77t-98 249q0 59 16 166h-176z" />
<glyph unicode="&#x2122;" horiz-adv-x="1478" d="M145 1214l29 203h590l-29 -203h-127l15 97h-91l-61 -437l59 -2l-12 -96h-276l14 98h59l62 437h-88l-15 -97h-129zM729 776l14 98h58l63 447h-57l12 96h277l61 -332l160 332h266l-14 -96h-56l-63 -447l55 -2l-12 -96h-264l14 98h64l61 410h-4l-176 -362h-127l-62 305 l-10 65h-2l-55 -418h59l-14 -98h-248z" />
<glyph unicode="&#x25fc;" horiz-adv-x="1075" d="M0 0v1075h1075v-1075h-1075z" />
<glyph unicode="&#xfb01;" horiz-adv-x="1318" d="M61 -434l187 1292h-170l26 201h170l21 149q26 174 146.5 248t363.5 74q98 0 236 -8t171 -17l-28 -196h-477q-114 0 -127 -97l-23 -153h311q37 2 182.5 13t182.5 13l-125 -895l119 -4l-27 -186h-405l123 858h-388l-172 -1214z" />
<glyph unicode="&#xfb02;" horiz-adv-x="1337" d="M61 -434l187 1292h-170l26 201h170l21 149q12 85 50 149t94.5 101t121.5 54.5t139 17.5q52 0 168 -6.5t176 -16.5l248 11l-188 -1330q8 -1 62.5 -3t62.5 -3l-27 -182h-409l186 1309h-283q-102 0 -114 -84l-23 -166h240l-29 -201h-240l-172 -1212z" />
</font>
</defs>
</svg>
