<?xml version="1.0" standalone="no"?>
<!DOCTYPE svg PUBLIC "-//W3C//DTD SVG 1.1//EN" "http://www.w3.org/Graphics/SVG/1.1/DTD/svg11.dtd" >
<svg xmlns="http://www.w3.org/2000/svg">
<metadata>
This is a custom SVG webfont generated by Font Squirrel.
Copyright   : Copyright The Morgan Project c 2000 Mario Feliciano All rights reserved No copy or modification permited
</metadata>
<defs>
<font id="MorganBigExtraboldRegular" horiz-adv-x="1411" >
<font-face units-per-em="2048" ascent="1638" descent="-410" />
<missing-glyph horiz-adv-x="573" />
<glyph unicode=" "  horiz-adv-x="573" />
<glyph unicode="&#x09;" horiz-adv-x="573" />
<glyph unicode="&#xa0;" horiz-adv-x="573" />
<glyph unicode="!" horiz-adv-x="606" d="M96 1417h414l-37 -944h-340zM102 0v367h402v-367h-402z" />
<glyph unicode="&#x22;" horiz-adv-x="968" d="M82 1417h358l-37 -610h-284zM528 1417h359l-37 -610h-285z" />
<glyph unicode="#" horiz-adv-x="1339" d="M33 287l39 276h180l35 279h-201l37 282h192l37 293h289l-37 -293h227l33 293h293l-37 -293h187l-23 -284h-197l-32 -277h196l-24 -276h-205l-33 -310h-291l37 310h-225l-35 -310h-293l41 310h-190zM543 563h225l31 279h-226z" />
<glyph unicode="$" horiz-adv-x="1337" d="M80 803v332q0 168 103.5 229t291.5 61h57v129h324v-129h342l19 -14v-330h-709v-176h426q172 0 255 -63.5t83 -220.5v-306q0 -178 -80 -250.5t-283 -72.5h-53v-164h-324v164h-399l-16 14v332h698v172h-455q-129 0 -204.5 70.5t-75.5 222.5z" />
<glyph unicode="%" horiz-adv-x="1757" d="M78 926v305q0 119 53 167t178 48h183q125 0 178 -48t53 -167v-305q0 -119 -53.5 -167t-177.5 -48h-183q-125 0 -178 48t-53 167zM197 -47l1101 1538h271l-1100 -1538h-272zM309 895h183v369h-183v-369zM1038 195v303q0 119 53.5 167t178.5 48h178q125 0 178 -48.5 t53 -166.5v-303q0 -119 -53 -167t-178 -48h-178q-125 0 -178.5 48t-53.5 167zM1266 162h186v366h-186v-366z" />
<glyph unicode="&#x26;" horiz-adv-x="1474" d="M88 313v140q0 115 51 184.5t174 97.5v17q-104 23 -157.5 79t-53.5 189v98q0 172 96.5 239.5t272.5 67.5h653l19 -20v-309h-606v-197h901v-332h-174v-559l-17 -16h-786q-182 0 -277.5 65.5t-95.5 255.5zM537 299h337v268h-337v-268z" />
<glyph unicode="'" horiz-adv-x="522" d="M82 1417h358l-37 -610h-284z" />
<glyph unicode="(" horiz-adv-x="647" d="M66 602v166q0 106 8 201.5t35.5 208t72.5 193.5t127 135.5t189 54.5h125v-207h-54q-72 0 -108.5 -141.5t-36.5 -378.5v-275q0 -238 34 -415t111 -177h54v-207h-125q-129 0 -220.5 85t-134.5 224.5t-60 268.5t-17 264z" />
<glyph unicode=")" horiz-adv-x="647" d="M25 -33h53q78 0 111.5 177.5t33.5 414.5v275q0 238 -36.5 379t-108.5 141h-53v207h125q106 0 188 -54.5t127 -135.5t72.5 -193.5t36 -208t8.5 -201.5v-166q0 -135 -17.5 -264t-60.5 -268.5t-134 -224.5q-90 -85 -220 -85h-125v207z" />
<glyph unicode="*" horiz-adv-x="966" d="M47 1225l121 211l190 -107v211h244v-211l189 107l129 -211l-236 -133l152 -230l-201 -139l-152 223l-151 -223l-207 137l156 232z" />
<glyph unicode="+" horiz-adv-x="1224" d="M88 510v274h387v387h275v-387h387v-274h-387v-385h-275v385h-387z" />
<glyph unicode="," horiz-adv-x="585" d="M61 -244l43 611h392l-162 -611h-273z" />
<glyph unicode="-" horiz-adv-x="823" d="M49 496v299h725v-299h-725z" />
<glyph unicode="." horiz-adv-x="585" d="M92 0v367h402v-367h-402z" />
<glyph unicode="/" horiz-adv-x="743" d="M10 -20l387 1454h348l-387 -1454h-348z" />
<glyph unicode="0" horiz-adv-x="1449" d="M86 434v529q0 260 106.5 365.5t364.5 105.5h336q258 0 364.5 -105.5t106.5 -365.5v-529q0 -248 -112.5 -349t-358.5 -101h-336q-246 0 -358.5 101t-112.5 349zM537 348h376v721h-376v-721z" />
<glyph unicode="1" horiz-adv-x="847" d="M68 1071v346h628v-1417h-448v1071h-180z" />
<glyph unicode="2" horiz-adv-x="1318" d="M80 0v545q0 178 79 250.5t249 72.5h383v211h-701v330l19 16h714q92 0 160 -12t129.5 -45t94 -97.5t32.5 -158.5v-285q0 -160 -76 -225t-209 -65h-448v-199h731v-338h-1157z" />
<glyph unicode="3" horiz-adv-x="1310" d="M76 8v330h708v211h-563v319h563v211h-706v326l20 20h758q176 0 272.5 -67.5t96.5 -239.5v-125q0 -131 -55.5 -188t-161.5 -80v-16q123 -27 174 -97.5t51 -185.5v-113q0 -190 -97.5 -255.5t-279.5 -65.5h-764z" />
<glyph unicode="4" horiz-adv-x="1439" d="M53 299v319l654 803h469v-819h210v-303h-210v-299h-404v299h-719zM379 602h393v451h-14z" />
<glyph unicode="5" horiz-adv-x="1343" d="M72 8v328h743v227h-709v854h1076v-340h-690v-192h487q135 0 211 -62.5t76 -222.5v-295q0 -184 -86 -248.5t-267 -64.5h-823z" />
<glyph unicode="6" horiz-adv-x="1449" d="M88 369v651q0 213 98.5 309t313.5 96h778l20 -20v-322h-763v-241q25 35 80 54t106 19h289q354 0 354 -352v-166q0 -414 -410 -413h-401q-221 0 -343 87t-122 298zM535 326h380v295h-380v-295z" />
<glyph unicode="7" horiz-adv-x="1277" d="M57 1081v336h1168v-393l-627 -1024h-502l684 1081h-723z" />
<glyph unicode="8" horiz-adv-x="1449" d="M86 317v125q0 113 64.5 186.5t173.5 90.5v16q-125 20 -181.5 78.5t-56.5 183.5v105q0 332 389 332h502q385 0 385 -324v-113q0 -125 -56.5 -179t-181.5 -81v-18q113 -20 176.5 -92t63.5 -185v-125q0 -100 -33 -168.5t-92 -103.5t-125.5 -48t-152.5 -13h-488 q-387 -1 -387 333zM537 301h376v260h-376v-260zM537 856h376v260h-376v-260z" />
<glyph unicode="9" horiz-adv-x="1449" d="M88 854v166q0 414 410 414h401q221 0 343 -87t122 -298v-652q0 -213 -98.5 -309t-313.5 -96h-778l-20 20v322h764v241q-25 -35 -80.5 -54t-106.5 -19h-289q-354 0 -354 352zM537 797h381v295h-381v-295z" />
<glyph unicode=":" horiz-adv-x="585" d="M92 0v367h402v-367h-402zM92 664v366h402v-366h-402z" />
<glyph unicode=";" horiz-adv-x="585" d="M61 -244l43 611h392l-162 -611h-273zM92 664v366h402v-366h-402z" />
<glyph unicode="&#x3c;" horiz-adv-x="1224" d="M139 545v219l832 405l110 -225l-600 -287l602 -278l-104 -227z" />
<glyph unicode="=" horiz-adv-x="1224" d="M90 295v270h1053v-270h-1053zM90 727v270h1053v-270h-1053z" />
<glyph unicode="&#x3e;" horiz-adv-x="1175" d="M141 379l602 278l-600 287l111 225l831 -405v-219l-839 -393z" />
<glyph unicode="?" horiz-adv-x="1228" d="M88 1114v295l18 16h678q201 0 279 -82.5t78 -226.5v-207q0 -137 -62.5 -208.5t-244.5 -71.5h-156v-156h-363v219q0 197 199 197h180v225h-606zM299 0v365h403v-365h-403z" />
<glyph unicode="@" horiz-adv-x="2058" d="M133 514q0 559 238.5 799.5t756.5 240.5q813 0 813 -673q0 -385 -155.5 -602.5t-474.5 -217.5h-494q-121 0 -209 53.5t-88 161.5q0 72 4 97l49 495q18 135 97.5 230.5t232.5 95.5h629l-107 -967q94 0 167 53.5t115 146.5t62.5 202.5t20.5 234.5q0 311 -172 436t-504 125 q-453 0 -639 -216t-186 -701q0 -145 18.5 -251.5t61.5 -182.5t100 -124t148.5 -75t192.5 -37t245 -10q229 0 504 47l-7 -117q-240 -61 -571 -61q-229 0 -385 40t-262.5 134t-153.5 250.5t-47 392.5zM870 381q0 -51 54 -51h186l57 592h-166h-4q-73 0 -82 -64l-45 -457v-20z " />
<glyph unicode="A" d="M84 0v946q0 119 33 207t87 142.5t137 88t171 46t201 12.5q139 0 241.5 -20.5t190.5 -71t134 -146.5t46 -239v-965h-448v266h-375v-266h-418zM502 608h375v459h-375v-459z" />
<glyph unicode="B" horiz-adv-x="1433" d="M88 0v1417h887q193 0 290 -60.5t97 -236.5v-162q0 -68 -20.5 -113.5t-59.5 -68t-70.5 -32t-76.5 -15.5v-16q125 -27 176 -84.5t51 -171.5v-138q0 -193 -89 -256t-280 -63h-905zM539 301h374v264h-374v-264zM539 856h374v262h-374v-262z" />
<glyph unicode="C" horiz-adv-x="1241" d="M72 438v539q0 217 95 332.5t337 115.5h659l21 -20v-334h-662v-725h662v-338l-17 -16h-643q-242 0 -347 106.5t-105 339.5z" />
<glyph unicode="D" horiz-adv-x="1433" d="M88 0v1417h819q246 0 350.5 -102.5t104.5 -310.5v-527q0 -270 -102.5 -373.5t-352.5 -103.5h-819zM539 352h374v713h-374v-713z" />
<glyph unicode="E" horiz-adv-x="1294" d="M88 0v1417h1145v-348h-694v-197h544v-325h-544v-199h694v-348h-1145z" />
<glyph unicode="F" horiz-adv-x="1286" d="M88 0v1417h1145v-348h-694v-213h546v-334h-546v-522h-451z" />
<glyph unicode="G" horiz-adv-x="1372" d="M72 408v583q0 133 32.5 222.5t98 133.5t139.5 61t178 17h752l20 -20v-334h-772v-723h363v377h409v-713l-14 -20h-758q-244 0 -346 94.5t-102 321.5z" />
<glyph unicode="H" horiz-adv-x="1449" d="M88 0v1417h451v-516h372v516h451v-1417h-451v514h-372v-514h-451z" />
<glyph unicode="I" horiz-adv-x="624" d="M88 0v1417h451v-1417h-451z" />
<glyph unicode="J" horiz-adv-x="1069" d="M45 4v352h496v1061h452v-1034q0 -199 -82 -295t-295 -96h-561z" />
<glyph unicode="K" horiz-adv-x="1445" d="M88 0v1417h451v-549h131l250 549h442l-275 -563q147 -20 211 -82.5t64 -191.5v-580h-451v514h-372v-514h-451z" />
<glyph unicode="L" horiz-adv-x="1286" d="M88 0v1417h451v-1063h694v-354h-1145z" />
<glyph unicode="M" horiz-adv-x="1857" d="M86 0v1417h621l225 -657l201 657h639v-1417h-426v838l-271 -838h-332l-262 836v-836h-395z" />
<glyph unicode="N" horiz-adv-x="1449" d="M88 0v1417h461l424 -698v698h389v-1417h-426l-459 758v-758h-389z" />
<glyph unicode="O" horiz-adv-x="1417" d="M72 453v516q0 117 33.5 201.5t89 136t140.5 82t173 42t203 11.5q635 0 635 -471v-506q0 -143 -48.5 -242.5t-140.5 -152t-199.5 -74t-250.5 -21.5q-111 0 -199 12.5t-172 44t-140.5 84t-90 138.5t-33.5 199zM522 348h373v721h-373v-721z" />
<glyph unicode="P" horiz-adv-x="1437" d="M88 0v1417h860q236 0 325 -110.5t89 -329.5v-182q0 -207 -93 -322t-321 -115h-409v-358h-451zM539 696h372v381h-372v-381z" />
<glyph unicode="Q" horiz-adv-x="1413" d="M72 483v445q0 514 637 514q135 0 244.5 -25.5t199.5 -83t140 -160t50 -243.5v-447q0 -418 -425 -491v-254h-418v256q-428 75 -428 489zM522 348h373v721h-373v-721z" />
<glyph unicode="R" horiz-adv-x="1441" d="M88 0v1417h854q236 0 328 -92t92 -301v-266q0 -297 -291 -316l318 -442h-515l-253 383h-82v-383h-451zM539 694h372v385h-372v-385z" />
<glyph unicode="S" horiz-adv-x="1341" d="M76 801v311q0 94 31.5 158.5t92 96.5t129 45t158.5 13h705l18 -16v-326h-684v-178h412q170 0 249 -72.5t79 -250.5v-205q0 -199 -81 -292t-280 -93h-772l-16 16v326h698v176h-459q-133 0 -206.5 65.5t-73.5 225.5z" />
<glyph unicode="T" horiz-adv-x="1382" d="M45 1065v352h1292v-352h-419v-1065h-453v1065h-420z" />
<glyph unicode="U" horiz-adv-x="1406" d="M84 451v966h451v-1069h374v1069h416v-954q0 -147 -44 -245.5t-132 -150t-192.5 -72t-249.5 -20.5q-139 0 -244 20.5t-195 71t-137 147t-47 237.5z" />
<glyph unicode="V" horiz-adv-x="1392" d="M76 915v502h450v-430q0 -274 49 -362l127 -228h9l127 217q61 106 61 379v424h418v-534q0 -244 -98 -406l-295 -487h-461l-277 461q-110 183 -110 464z" />
<glyph unicode="W" horiz-adv-x="2217" d="M84 457v960h451v-1065h348v1065h450v-1065h350v1065h451v-960q0 -143 -46 -240.5t-135 -149t-193.5 -72t-246.5 -20.5q-109 0 -227.5 29t-183.5 84q-66 -57 -183.5 -85t-232.5 -28q-139 0 -242.5 21.5t-188.5 74t-128 150t-43 236.5z" />
<glyph unicode="X" d="M70 0v403q0 242 243 310v16q-227 59 -227 297v391h434v-516h371v516h434v-387q0 -127 -67.5 -202.5t-172.5 -98.5v-16q125 -33 190.5 -110t65.5 -187v-416h-450v516h-371v-516h-450z" />
<glyph unicode="Y" horiz-adv-x="1441" d="M84 877v540h451v-518h372v518h451v-540q0 -180 -87 -256t-257 -76h-66v-545h-452v545h-66q-178 0 -262 76t-84 256z" />
<glyph unicode="Z" horiz-adv-x="1290" d="M70 0v315l587 748h-581v354h1136v-287l-614 -776h625v-354h-1153z" />
<glyph unicode="[" horiz-adv-x="659" d="M78 -242v1803h549v-209h-209v-1387h209v-207h-549z" />
<glyph unicode="\" horiz-adv-x="743" d="M16 1434h349l387 -1454h-349z" />
<glyph unicode="]" horiz-adv-x="659" d="M33 -35h209v1387h-209v209h549v-1803h-549v207z" />
<glyph unicode="^" horiz-adv-x="1060" d="M0 508v276h1061v-276h-1061z" />
<glyph unicode="_" horiz-adv-x="1024" d="M0 -96h1024v-160h-1024v160z" />
<glyph unicode="`" horiz-adv-x="677" d="M111 1802l270 78l186 -364h-219z" />
<glyph unicode="a" d="M84 0v946q0 119 33 207t87 142.5t137 88t171 46t201 12.5q139 0 241.5 -20.5t190.5 -71t134 -146.5t46 -239v-965h-448v266h-375v-266h-418zM502 608h375v459h-375v-459z" />
<glyph unicode="b" horiz-adv-x="1433" d="M88 0v1417h887q193 0 290 -60.5t97 -236.5v-162q0 -68 -20.5 -113.5t-59.5 -68t-70.5 -32t-76.5 -15.5v-16q125 -27 176 -84.5t51 -171.5v-138q0 -193 -89 -256t-280 -63h-905zM539 301h374v264h-374v-264zM539 856h374v262h-374v-262z" />
<glyph unicode="c" horiz-adv-x="1241" d="M72 438v539q0 217 95 332.5t337 115.5h659l21 -20v-334h-662v-725h662v-338l-17 -16h-643q-242 0 -347 106.5t-105 339.5z" />
<glyph unicode="d" horiz-adv-x="1433" d="M88 0v1417h819q246 0 350.5 -102.5t104.5 -310.5v-527q0 -270 -102.5 -373.5t-352.5 -103.5h-819zM539 352h374v713h-374v-713z" />
<glyph unicode="e" horiz-adv-x="1294" d="M72 414v585q0 215 98 320.5t344 105.5h698l21 -20v-334h-711v-199h561v-327h-561v-199h711v-332l-23 -22h-684q-246 0 -350 94.5t-104 327.5z" />
<glyph unicode="f" horiz-adv-x="1286" d="M72 0v999q0 217 91 321.5t337 104.5h712l21 -20v-334h-715v-215h567v-344h-567v-512h-446z" />
<glyph unicode="g" horiz-adv-x="1372" d="M72 408v583q0 133 32.5 222.5t98 133.5t139.5 61t178 17h752l20 -20v-334h-772v-723h363v377h409v-713l-14 -20h-758q-244 0 -346 94.5t-102 321.5z" />
<glyph unicode="h" horiz-adv-x="1449" d="M88 0v1417h451v-516h372v516h451v-1417h-451v514h-372v-514h-451z" />
<glyph unicode="i" horiz-adv-x="624" d="M88 0v1417h451v-1417h-451z" />
<glyph unicode="j" horiz-adv-x="1069" d="M45 4v352h496v1061h452v-1034q0 -199 -82 -295t-295 -96h-561z" />
<glyph unicode="k" horiz-adv-x="1445" d="M88 0v1417h451v-516h372v516h435v-420q0 -125 -56.5 -185t-163.5 -83v-16q123 -33 179.5 -99.5t56.5 -177.5v-436h-451v516h-372v-516h-451z" />
<glyph unicode="l" horiz-adv-x="1286" d="M88 0v1417h451v-1063h694v-354h-1145z" />
<glyph unicode="m" horiz-adv-x="2217" d="M84 0v961q0 143 46 240t135 148.5t193.5 72t246.5 20.5q109 0 227.5 -29t183.5 -84q66 57 183.5 85t232.5 28q139 0 242.5 -21.5t188.5 -74t128 -149.5t43 -236v-961h-451v1065h-348v-1065h-450v1065h-350v-1065h-451z" />
<glyph unicode="n" horiz-adv-x="1441" d="M84 0v965q0 117 34 203.5t89 138t140 83t172 42t200 10.5q111 0 200 -11.5t173 -43t141 -84t91 -137.5t34 -197v-969h-451v1069h-372v-1069h-451z" />
<glyph unicode="o" horiz-adv-x="1417" d="M72 453v516q0 117 33.5 201.5t89 136t140.5 82t173 42t203 11.5q635 0 635 -471v-506q0 -143 -48.5 -242.5t-140.5 -152t-199.5 -74t-250.5 -21.5q-111 0 -199 12.5t-172 44t-140.5 84t-90 138.5t-33.5 199zM522 348h373v721h-373v-721z" />
<glyph unicode="p" horiz-adv-x="1437" d="M88 0v1417h860q236 0 325 -110.5t89 -329.5v-182q0 -207 -93 -322t-321 -115h-409v-358h-451zM539 696h372v381h-372v-381z" />
<glyph unicode="q" horiz-adv-x="1413" d="M72 483v445q0 514 637 514q135 0 244.5 -25.5t199.5 -83t140 -160t50 -243.5v-447q0 -418 -425 -491v-254h-418v256q-428 75 -428 489zM522 348h373v721h-373v-721z" />
<glyph unicode="r" horiz-adv-x="1441" d="M88 0v1417h854q236 0 328 -92t92 -301v-156q0 -150 -49 -220t-174 -103v-17q125 -29 174 -93t49 -169v-266h-451v383h-372v-383h-451zM539 698h372v379h-372v-379z" />
<glyph unicode="s" horiz-adv-x="1341" d="M76 801v311q0 94 31.5 158.5t92 96.5t129 45t158.5 13h705l18 -16v-326h-684v-178h412q170 0 249 -72.5t79 -250.5v-205q0 -199 -81 -292t-280 -93h-772l-16 16v326h698v176h-459q-133 0 -206.5 65.5t-73.5 225.5z" />
<glyph unicode="t" d="M84 453v964h451v-241h790v-349h-790v-479h374v250h416v-137q0 -145 -47 -244.5t-136 -150t-193.5 -71t-243.5 -20.5q-621 1 -621 478z" />
<glyph unicode="u" horiz-adv-x="1406" d="M84 451v966h451v-1069h374v1069h416v-954q0 -147 -44 -245.5t-132 -150t-192.5 -72t-249.5 -20.5q-139 0 -244 20.5t-195 71t-137 147t-47 237.5z" />
<glyph unicode="v" horiz-adv-x="1392" d="M76 915v502h450v-430q0 -274 49 -362l127 -228h9l127 217q61 106 61 379v424h418v-534q0 -244 -98 -406l-295 -487h-461l-277 461q-110 183 -110 464z" />
<glyph unicode="w" horiz-adv-x="2217" d="M84 457v960h451v-1065h348v1065h450v-1065h350v1065h451v-960q0 -143 -46 -240.5t-135 -149t-193.5 -72t-246.5 -20.5q-109 0 -227.5 29t-183.5 84q-66 -57 -183.5 -85t-232.5 -28q-139 0 -242.5 21.5t-188.5 74t-128 150t-43 236.5z" />
<glyph unicode="x" d="M70 0v403q0 242 243 310v16q-227 59 -227 297v391h434v-516h371v516h434v-387q0 -127 -67.5 -202.5t-172.5 -98.5v-16q125 -33 190.5 -110t65.5 -187v-416h-450v516h-371v-516h-450z" />
<glyph unicode="y" horiz-adv-x="1441" d="M86 791v626h451v-565h370v565h451v-1003q0 -215 -99.5 -318.5t-314.5 -103.5h-792l-21 20v310h776v253q-20 -31 -91 -52t-128 -21h-305q-139 0 -218 64.5t-79 224.5z" />
<glyph unicode="z" horiz-adv-x="1290" d="M70 0v315l587 748h-581v354h1136v-287l-614 -776h625v-354h-1153z" />
<glyph unicode="{" horiz-adv-x="659" d="M-14 733l92 121v707h549v-209h-209v-523l-78 -88l78 -77v-699h209v-207h-549v858z" />
<glyph unicode="|" horiz-adv-x="747" d="M197 -20v1454h354v-1454h-354z" />
<glyph unicode="}" horiz-adv-x="659" d="M33 -35h209v699l77 77l-77 88v523h-209v209h549v-707l92 -121l-92 -117v-858h-549v207z" />
<glyph unicode="~" horiz-adv-x="1771" d="M0 508v276h1772v-276h-1772z" />
<glyph unicode="&#xa1;" horiz-adv-x="585" d="M84 20l39 920h342l35 -920h-416zM92 1073v365h402v-365h-402z" />
<glyph unicode="&#xa2;" horiz-adv-x="1261" d="M70 432v283q0 215 89 324.5t322 109.5h66v117h319v-117h293l21 -21v-290h-680v-533h680v-293l-17 -16h-297v-178h-319v178h-66q-219 0 -315 102.5t-96 333.5z" />
<glyph unicode="&#xa3;" horiz-adv-x="1320" d="M74 606v209h170v285q0 162 74.5 241.5t263.5 79.5h575l10 -8v-313h-477v-285h432l-47 -209h-385v-280h567v-326h-1173v326h160v280h-170z" />
<glyph unicode="&#xa4;" horiz-adv-x="1331" d="M63 465v166h152v162h-152v165h152v19q0 219 93 333.5t335 114.5h590l20 -20v-334h-591v-113h466l-45 -165h-421v-162h403l-45 -166h-358v-119h591v-338l-16 -16h-573q-242 0 -345.5 105.5t-103.5 340.5v27h-152z" />
<glyph unicode="&#xa5;" horiz-adv-x="1441" d="M84 924v493h451v-495h372v495h451v-493q0 -182 -77 -256t-245 -74h-88v-141h391v-209h-391v-244h-452v244h-392v209h392v141h-82q-176 0 -253 74t-77 256z" />
<glyph unicode="&#xa6;" horiz-adv-x="747" d="M197 -25v674h354v-674h-354zM197 760v674h354v-674h-354z" />
<glyph unicode="&#xa7;" horiz-adv-x="1353" d="M94 428v735q0 135 66.5 192.5t204.5 57.5h847l13 -8v-260h-723v-166h499q133 0 196 -64.5t63 -199.5v-717q0 -145 -80 -192.5t-240 -47.5h-801l-16 9v260h735v163h-516q-115 0 -181.5 61.5t-66.5 176.5zM502 469h356v233h-356v-233z" />
<glyph unicode="&#xa8;" horiz-adv-x="946" d="M133 1518v256h264v-256h-264zM549 1518v256h264v-256h-264z" />
<glyph unicode="&#xa9;" horiz-adv-x="1722" d="M59 369v692q0 477 547 477h510q549 0 549 -469v-700q0 -270 -147.5 -381t-407.5 -111h-500q-260 0 -405.5 110t-145.5 382zM326 389q0 -139 72.5 -205.5t232.5 -66.5h461q172 0 238.5 69.5t66.5 212.5v625q0 131 -63.5 203.5t-217.5 72.5h-526q-119 0 -191.5 -65.5 t-72.5 -183.5v-662zM442 516v381q0 139 61.5 213t215.5 74h477l12 -13v-229h-456v-463h456v-237l-10 -11h-467q-154 0 -221.5 67.5t-67.5 217.5z" />
<glyph unicode="&#xaa;" horiz-adv-x="796" d="M78 926v26q0 94 56 141.5t147 47.5h180v92h-328v156l23 22h309q236 0 235 -199v-450l-22 -23h-381q-111 0 -165 51.5t-54 135.5zM86 449v188h635v-188h-635zM315 881h146v139h-146v-139z" />
<glyph unicode="&#xab;" horiz-adv-x="1079" d="M45 641l215 455h307l-178 -455l178 -453h-307zM532 641l195 455h307l-178 -455l178 -453h-307z" />
<glyph unicode="&#xac;" horiz-adv-x="1224" d="M100 350l318 314l-318 315l199 195l313 -316l314 316l198 -197l-315 -313l315 -314l-198 -198l-314 313l-313 -313z" />
<glyph unicode="&#xad;" horiz-adv-x="823" d="M49 496v299h725v-299h-725z" />
<glyph unicode="&#xaf;" horiz-adv-x="884" d="M102 1546v221h680v-221h-680z" />
<glyph unicode="&#xb0;" horiz-adv-x="636" d="M39 1278q0 121 82 194.5t200.5 73.5t197.5 -73.5t79 -194.5q0 -115 -80 -189.5t-196 -74.5q-127 0 -205 72.5t-78 191.5zM207 1278q0 -41 29.5 -80t78.5 -39q55 0 86 35t31 84q0 51 -29.5 87t-81 36t-83 -37t-31.5 -86z" />
<glyph unicode="&#xb2;" horiz-adv-x="2523" d="M72 438v535q0 217 95 330.5t337 113.5h639l20 -20v-328h-641v-723h662v-338l-17 -16h-643q-242 0 -347 106.5t-105 339.5zM1264 1065v352h1214v-352h-379v-1065h-450v1065h-385z" />
<glyph unicode="&#xb3;" horiz-adv-x="2523" d="M88 0v1417h1079v-352h-628v-193h499v-325h-499v-199h645v-348h-1096zM1264 1065v352h1214v-352h-377v-1065h-450v1065h-387z" />
<glyph unicode="&#xb4;" horiz-adv-x="677" d="M111 1516l186 364l270 -78l-237 -286h-219z" />
<glyph unicode="&#xb6;" horiz-adv-x="1351" d="M88 457v651q0 164 84 236.5t264 72.5h803l14 -6v-1653h-323v1469h-152v-1045h-411q-156 0 -217.5 66t-61.5 209z" />
<glyph unicode="&#xb7;" horiz-adv-x="686" d="M141 514v367h404v-367h-404z" />
<glyph unicode="&#xb8;" horiz-adv-x="534" d="M84 -254l35 383h342l-113 -383h-264z" />
<glyph unicode="&#xb9;" horiz-adv-x="2523" d="M88 0v1417h1073v-352h-622v-209h499v-334h-499v-522h-451zM1266 1065v352h1212v-352h-379v-1065h-450v1065h-383z" />
<glyph unicode="&#xba;" horiz-adv-x="802" d="M86 449v188h635v-188h-635zM86 967v202q0 246 313.5 246t313.5 -239v-209q0 -246 -316 -246q-311 0 -311 246zM324 897h149v342h-149v-342z" />
<glyph unicode="&#xbb;" horiz-adv-x="1079" d="M45 188l178 453l-178 455h307l193 -455l-193 -453h-307zM512 188l178 453l-178 455h307l215 -455l-215 -453h-307z" />
<glyph unicode="&#xbc;" horiz-adv-x="2525" d="M76 801v303q0 94 31.5 158.5t92 96.5t129 45t158.5 13h664l18 -16v-332h-643v-164h355q170 0 248.5 -72.5t78.5 -250.5v-205q0 -199 -80.5 -292t-279.5 -93h-715l-16 16v326h641v176h-402q-133 0 -206.5 65.5t-73.5 225.5zM1274 1069v348h1206v-348h-379v-1069h-450v1069 h-377z" />
<glyph unicode="&#xbd;" horiz-adv-x="2594" d="M45 1069v348h1215v-348h-381v-1069h-451v1069h-383zM1335 1069v348h1215v-348h-381v-1069h-451v1069h-383z" />
<glyph unicode="&#xbe;" horiz-adv-x="2666" d="M72 408v583q0 133 32.5 222.5t98 133.5t139.5 61t178 17h766l21 -20v-334h-787v-723h363v377h409v-713l-14 -20h-758q-244 0 -346 94.5t-102 321.5zM1403 1069v348h1218v-348h-380v-1069h-451v1069h-387z" />
<glyph unicode="&#xbf;" horiz-adv-x="1228" d="M100 330v207q0 137 62.5 208.5t245.5 71.5h155v156h363v-219q0 -197 -199 -197h-180v-225h606v-295l-18 -17h-678q-201 0 -279 83.5t-78 226.5zM539 1081v365h403v-365h-403z" />
<glyph unicode="&#xc0;" d="M84 0v946q0 119 33 207t87 142.5t137 88t171 46t201 12.5q139 0 241.5 -20.5t190.5 -71t134 -146.5t46 -239v-965h-448v266h-375v-266h-418zM369 1802l270 78l186 -364h-219zM502 608h375v459h-375v-459z" />
<glyph unicode="&#xc1;" d="M84 0v946q0 119 33 207t87 142.5t137 88t171 46t201 12.5q139 0 241.5 -20.5t190.5 -71t134 -146.5t46 -239v-965h-448v266h-375v-266h-418zM502 608h375v459h-375v-459zM565 1516l187 364l268 -78l-236 -286h-219z" />
<glyph unicode="&#xc2;" d="M84 0v946q0 119 33 207t87 142.5t137 88t171 46t201 12.5q139 0 241.5 -20.5t190.5 -71t134 -146.5t46 -239v-965h-448v266h-375v-266h-418zM365 1516l227 339h227l223 -339h-231l-109 180l-108 -180h-229zM502 608h375v459h-375v-459z" />
<glyph unicode="&#xc3;" d="M84 0v946q0 119 33 207t87 142.5t137 88t171 46t201 12.5q139 0 241.5 -20.5t190.5 -71t134 -146.5t46 -239v-965h-448v266h-375v-266h-418zM299 1530q43 260 242 260q55 0 161 -29q127 -35 181 -35q39 0 61.5 21.5t42.5 67.5l125 -29q-37 -256 -229 -256q-55 0 -166 29 q-119 33 -180 32q-47 0 -67.5 -19.5t-39.5 -68.5zM502 608h375v459h-375v-459z" />
<glyph unicode="&#xc4;" d="M84 0v946q0 119 33 207t87 142.5t137 88t171 46t201 12.5q139 0 241.5 -20.5t190.5 -71t134 -146.5t46 -239v-965h-448v266h-375v-266h-418zM367 1518v256h262v-256h-262zM502 608h375v459h-375v-459zM782 1518v256h262v-256h-262z" />
<glyph unicode="&#xc5;" d="M84 0v946q0 119 33 207t87 142.5t137 88t171 46t201 12.5q139 0 241.5 -20.5t190.5 -71t134 -146.5t46 -239v-965h-448v266h-375v-266h-418zM502 608h375v459h-375v-459zM514 1696q0 92 64.5 147t136 55t136 -55t64.5 -147q0 -96 -64.5 -150.5t-135.5 -54.5 q-74 0 -137.5 54.5t-63.5 150.5zM633 1696q0 -37 26.5 -63.5t55.5 -26.5q33 0 57.5 23.5t24.5 66.5q0 41 -24.5 64.5t-57.5 23.5t-57.5 -23.5t-24.5 -64.5z" />
<glyph unicode="&#xc6;" horiz-adv-x="2072" d="M84 0v950q0 145 45 241.5t135 143.5t189.5 64.5t242.5 17.5h1315v-348h-696v-195h547v-325h-547v-201h696v-348h-1145v266h-364v-266h-418zM502 608h364v461h-364v-461z" />
<glyph unicode="&#xc7;" horiz-adv-x="1241" d="M72 438v539q0 217 95 332.5t337 115.5h659l21 -20v-334h-662v-725h662v-338l-17 -16h-249l-74 -246h-264l22 246h-78q-242 0 -347 106.5t-105 339.5z" />
<glyph unicode="&#xc8;" horiz-adv-x="1294" d="M88 0v1417h1145v-348h-694v-197h544v-325h-544v-199h694v-348h-1145zM397 1802l271 78l186 -364h-219z" />
<glyph unicode="&#xc9;" horiz-adv-x="1294" d="M88 0v1417h1145v-348h-694v-197h544v-325h-544v-199h694v-348h-1145zM537 1516l186 364l270 -78l-237 -286h-219z" />
<glyph unicode="&#xca;" horiz-adv-x="1294" d="M88 0v1417h1145v-348h-694v-197h544v-325h-544v-199h694v-348h-1145zM348 1516l227 339h228l223 -339h-231l-109 180l-108 -180h-230z" />
<glyph unicode="&#xcb;" horiz-adv-x="1294" d="M88 0v1417h1145v-348h-694v-197h544v-325h-544v-199h694v-348h-1145zM342 1518v256h262v-256h-262zM758 1518v256h264v-256h-264z" />
<glyph unicode="&#xcc;" horiz-adv-x="624" d="M-31 1802l271 78l186 -364h-219zM88 0v1417h451v-1417h-451z" />
<glyph unicode="&#xcd;" horiz-adv-x="624" d="M88 0v1417h451v-1417h-451zM207 1516l186 364l271 -78l-236 -286h-221z" />
<glyph unicode="&#xce;" horiz-adv-x="624" d="M-27 1516l228 339h227l223 -339h-229l-111 180l-106 -180h-232zM88 0v1417h451v-1417h-451z" />
<glyph unicode="&#xcf;" horiz-adv-x="624" d="M-27 1518v256h263v-256h-263zM88 0v1417h451v-1417h-451zM389 1518v256h262v-256h-262z" />
<glyph unicode="&#xd0;" horiz-adv-x="1536" d="M45 584v247h145v586h820q246 0 350 -102.5t104 -310.5v-527q0 -270 -102 -373.5t-352 -103.5h-820v584h-145zM641 352h375v713h-375v-234h248v-247h-248v-232z" />
<glyph unicode="&#xd1;" horiz-adv-x="1449" d="M88 0v1417h461l424 -698v698h389v-1417h-426l-459 758v-758h-389zM338 1530q43 260 242 260q53 0 163 -29q121 -35 179 -35q68 0 104 89l125 -29q-37 -256 -229 -256q-55 0 -166 29q-119 33 -181 32q-47 0 -67.5 -19.5t-38.5 -68.5z" />
<glyph unicode="&#xd2;" horiz-adv-x="1417" d="M72 453v516q0 117 33.5 201.5t89 136t140.5 82t173 42t203 11.5q635 0 635 -471v-506q0 -143 -48.5 -242.5t-140.5 -152t-199.5 -74t-250.5 -21.5q-111 0 -199 12.5t-172 44t-140.5 84t-90 138.5t-33.5 199zM389 1802l270 78l187 -364h-219zM522 348h373v721h-373v-721z " />
<glyph unicode="&#xd3;" horiz-adv-x="1417" d="M72 453v516q0 117 33.5 201.5t89 136t140.5 82t173 42t203 11.5q635 0 635 -471v-506q0 -143 -48.5 -242.5t-140.5 -152t-199.5 -74t-250.5 -21.5q-111 0 -199 12.5t-172 44t-140.5 84t-90 138.5t-33.5 199zM522 348h373v721h-373v-721zM590 1516l186 364l268 -78 l-235 -286h-219z" />
<glyph unicode="&#xd4;" horiz-adv-x="1417" d="M72 453v516q0 117 33.5 201.5t89 136t140.5 82t173 42t203 11.5q635 0 635 -471v-506q0 -143 -48.5 -242.5t-140.5 -152t-199.5 -74t-250.5 -21.5q-111 0 -199 12.5t-172 44t-140.5 84t-90 138.5t-33.5 199zM369 1516l227 339h227l226 -339h-232l-108 180l-109 -180h-231 zM522 348h373v721h-373v-721z" />
<glyph unicode="&#xd5;" horiz-adv-x="1417" d="M72 453v516q0 117 33.5 201.5t89 136t140.5 82t173 42t203 11.5q635 0 635 -471v-506q0 -143 -48.5 -242.5t-140.5 -152t-199.5 -74t-250.5 -21.5q-111 0 -199 12.5t-172 44t-140.5 84t-90 138.5t-33.5 199zM301 1530q43 260 242 260q57 0 164 -29q127 -35 180 -35 q39 0 61.5 21.5t40.5 67.5l127 -29q-37 -256 -229 -256q-55 0 -166 29q-119 33 -182 32q-45 0 -66.5 -19.5t-40.5 -68.5zM522 348h373v721h-373v-721z" />
<glyph unicode="&#xd6;" horiz-adv-x="1417" d="M72 453v516q0 117 33.5 201.5t89 136t140.5 82t173 42t203 11.5q635 0 635 -471v-506q0 -143 -48.5 -242.5t-140.5 -152t-199.5 -74t-250.5 -21.5q-111 0 -199 12.5t-172 44t-140.5 84t-90 138.5t-33.5 199zM358 1518v256h265v-256h-265zM522 348h373v721h-373v-721z M795 1518v256h264v-256h-264z" />
<glyph unicode="&#xd7;" horiz-adv-x="1224" d="M100 350l318 314l-318 315l199 195l313 -316l314 316l198 -197l-315 -313l315 -314l-198 -198l-314 313l-313 -313z" />
<glyph unicode="&#xd8;" horiz-adv-x="1417" d="M72 453v516q0 117 33.5 201.5t89 136t140.5 82t173 42t203 11.5q150 0 276 -31l66 137l118 -55l-59 -125q233 -113 234 -397v-506q0 -143 -48.5 -242.5t-140.5 -152t-199.5 -74t-250.5 -21.5q-139 0 -248 21l-68 -141l-119 55l58 123q-258 105 -258 420zM522 434l301 635 h-301v-635zM627 348h268v563z" />
<glyph unicode="&#xd9;" horiz-adv-x="1406" d="M84 451v966h451v-1069h374v1069h416v-954q0 -147 -44 -245.5t-132 -150t-192.5 -72t-249.5 -20.5q-139 0 -244 20.5t-195 71t-137 147t-47 237.5zM385 1802l270 78l187 -364h-219z" />
<glyph unicode="&#xda;" horiz-adv-x="1406" d="M84 451v966h451v-1069h374v1069h416v-954q0 -147 -44 -245.5t-132 -150t-192.5 -72t-249.5 -20.5q-139 0 -244 20.5t-195 71t-137 147t-47 237.5zM606 1516l187 364l270 -78l-238 -286h-219z" />
<glyph unicode="&#xdb;" horiz-adv-x="1406" d="M84 451v966h451v-1069h374v1069h416v-954q0 -147 -44 -245.5t-132 -150t-192.5 -72t-249.5 -20.5q-139 0 -244 20.5t-195 71t-137 147t-47 237.5zM385 1516l227 339h228l225 -339h-231l-111 180l-107 -180h-231z" />
<glyph unicode="&#xdc;" horiz-adv-x="1406" d="M84 451v966h451v-1069h374v1069h416v-954q0 -147 -44 -245.5t-132 -150t-192.5 -72t-249.5 -20.5q-139 0 -244 20.5t-195 71t-137 147t-47 237.5zM387 1518v256h264v-256h-264zM805 1518v256h262v-256h-262z" />
<glyph unicode="&#xdd;" horiz-adv-x="1441" d="M84 877v540h451v-518h372v518h451v-540q0 -180 -87 -256t-257 -76h-66v-545h-452v545h-66q-178 0 -262 76t-84 256zM625 1509l186 365l270 -78l-237 -287h-219z" />
<glyph unicode="&#xde;" horiz-adv-x="1437" d="M88 0v1417h451v-217h409q236 0 325 -110.5t89 -329.5v-117q0 -207 -93 -321.5t-321 -114.5h-409v-207h-451zM539 545h372v315h-372v-315z" />
<glyph unicode="&#xe0;" d="M84 0v946q0 119 33 207t87 142.5t137 88t171 46t201 12.5q139 0 241.5 -20.5t190.5 -71t134 -146.5t46 -239v-965h-448v266h-375v-266h-418zM369 1802l270 78l186 -364h-219zM502 608h375v459h-375v-459z" />
<glyph unicode="&#xe1;" d="M84 0v946q0 119 33 207t87 142.5t137 88t171 46t201 12.5q139 0 241.5 -20.5t190.5 -71t134 -146.5t46 -239v-965h-448v266h-375v-266h-418zM502 608h375v459h-375v-459zM565 1516l187 364l268 -78l-236 -286h-219z" />
<glyph unicode="&#xe2;" d="M84 0v946q0 119 33 207t87 142.5t137 88t171 46t201 12.5q139 0 241.5 -20.5t190.5 -71t134 -146.5t46 -239v-965h-448v266h-375v-266h-418zM365 1516l227 339h227l223 -339h-231l-109 180l-108 -180h-229zM502 608h375v459h-375v-459z" />
<glyph unicode="&#xe3;" d="M84 0v946q0 119 33 207t87 142.5t137 88t171 46t201 12.5q139 0 241.5 -20.5t190.5 -71t134 -146.5t46 -239v-965h-448v266h-375v-266h-418zM299 1530q43 260 242 260q55 0 161 -29q127 -35 181 -35q39 0 61.5 21.5t42.5 67.5l125 -29q-37 -256 -229 -256q-55 0 -166 29 q-119 33 -180 32q-47 0 -67.5 -19.5t-39.5 -68.5zM502 608h375v459h-375v-459z" />
<glyph unicode="&#xe4;" d="M84 0v946q0 119 33 207t87 142.5t137 88t171 46t201 12.5q139 0 241.5 -20.5t190.5 -71t134 -146.5t46 -239v-965h-448v266h-375v-266h-418zM367 1518v256h262v-256h-262zM502 608h375v459h-375v-459zM782 1518v256h262v-256h-262z" />
<glyph unicode="&#xe5;" d="M84 0v946q0 119 33 207t87 142.5t137 88t171 46t201 12.5q139 0 241.5 -20.5t190.5 -71t134 -146.5t46 -239v-965h-448v266h-375v-266h-418zM502 608h375v459h-375v-459zM514 1696q0 92 64.5 147t136 55t136 -55t64.5 -147q0 -96 -64.5 -150.5t-135.5 -54.5 q-74 0 -137.5 54.5t-63.5 150.5zM633 1696q0 -37 26.5 -63.5t55.5 -26.5q33 0 57.5 23.5t24.5 66.5q0 41 -24.5 64.5t-57.5 23.5t-57.5 -23.5t-24.5 -64.5z" />
<glyph unicode="&#xe6;" horiz-adv-x="2072" d="M84 0v950q0 145 45 241.5t135 143.5t189.5 64.5t242.5 17.5h1315v-348h-696v-195h547v-325h-547v-201h696v-348h-1145v266h-364v-266h-418zM502 608h364v461h-364v-461z" />
<glyph unicode="&#xe7;" horiz-adv-x="1241" d="M72 438v539q0 217 95 332.5t337 115.5h659l21 -20v-334h-662v-725h662v-338l-17 -16h-249l-74 -246h-264l22 246h-78q-242 0 -347 106.5t-105 339.5z" />
<glyph unicode="&#xe8;" horiz-adv-x="1294" d="M72 414v585q0 215 98 320.5t344 105.5h698l21 -20v-334h-711v-199h561v-327h-561v-199h711v-332l-23 -22h-684q-246 0 -350 94.5t-104 327.5zM410 1802l268 78l186 -364h-219z" />
<glyph unicode="&#xe9;" horiz-adv-x="1294" d="M72 414v585q0 215 98 320.5t344 105.5h698l21 -20v-334h-711v-199h561v-327h-561v-199h711v-332l-23 -22h-684q-246 0 -350 94.5t-104 327.5zM578 1516l186 364l268 -78l-235 -286h-219z" />
<glyph unicode="&#xea;" horiz-adv-x="1294" d="M72 414v585q0 215 98 320.5t344 105.5h698l21 -20v-334h-711v-199h561v-327h-561v-199h711v-332l-23 -22h-684q-246 0 -350 94.5t-104 327.5zM385 1516l227 339h228l223 -339h-229l-111 180l-107 -180h-231z" />
<glyph unicode="&#xeb;" horiz-adv-x="1294" d="M72 414v585q0 215 98 320.5t344 105.5h698l21 -20v-334h-711v-199h561v-327h-561v-199h711v-332l-23 -22h-684q-246 0 -350 94.5t-104 327.5zM369 1518v256h262v-256h-262zM786 1518v256h263v-256h-263z" />
<glyph unicode="&#xec;" horiz-adv-x="624" d="M-31 1802l271 78l186 -364h-219zM88 0v1417h451v-1417h-451z" />
<glyph unicode="&#xed;" horiz-adv-x="624" d="M88 0v1417h451v-1417h-451zM207 1516l186 364l271 -78l-236 -286h-221z" />
<glyph unicode="&#xee;" horiz-adv-x="624" d="M-27 1516l228 339h227l223 -339h-229l-111 180l-106 -180h-232zM88 0v1417h451v-1417h-451z" />
<glyph unicode="&#xef;" horiz-adv-x="624" d="M-27 1518v256h263v-256h-263zM88 0v1417h451v-1417h-451zM389 1518v256h262v-256h-262z" />
<glyph unicode="&#xf0;" horiz-adv-x="1536" d="M45 584v247h145v586h820q246 0 350 -102.5t104 -310.5v-527q0 -270 -102 -373.5t-352 -103.5h-820v584h-145zM641 352h375v713h-375v-234h248v-247h-248v-232z" />
<glyph unicode="&#xf1;" horiz-adv-x="1441" d="M84 0v965q0 117 34 203.5t89 138t140 83t172 42t200 10.5q111 0 200 -11.5t173 -43t141 -84t91 -137.5t34 -197v-969h-451v1069h-372v-1069h-451zM313 1530q47 260 242 260q57 0 164 -29q127 -35 180 -35q66 0 102 89l127 -29q-41 -256 -229 -256q-55 0 -166 29 q-119 33 -182 32q-45 0 -65.5 -19.5t-41.5 -68.5z" />
<glyph unicode="&#xf2;" horiz-adv-x="1417" d="M72 453v516q0 117 33.5 201.5t89 136t140.5 82t173 42t203 11.5q635 0 635 -471v-506q0 -143 -48.5 -242.5t-140.5 -152t-199.5 -74t-250.5 -21.5q-111 0 -199 12.5t-172 44t-140.5 84t-90 138.5t-33.5 199zM369 1802l270 78l186 -364h-219zM522 348h373v721h-373v-721z " />
<glyph unicode="&#xf3;" horiz-adv-x="1417" d="M72 453v516q0 117 33.5 201.5t89 136t140.5 82t173 42t203 11.5q635 0 635 -471v-506q0 -143 -48.5 -242.5t-140.5 -152t-199.5 -74t-250.5 -21.5q-111 0 -199 12.5t-172 44t-140.5 84t-90 138.5t-33.5 199zM522 348h373v721h-373v-721zM590 1516l186 364l268 -78 l-235 -286h-219z" />
<glyph unicode="&#xf4;" horiz-adv-x="1417" d="M72 453v516q0 117 33.5 201.5t89 136t140.5 82t173 42t203 11.5q635 0 635 -471v-506q0 -143 -48.5 -242.5t-140.5 -152t-199.5 -74t-250.5 -21.5q-111 0 -199 12.5t-172 44t-140.5 84t-90 138.5t-33.5 199zM369 1516l227 339h227l226 -339h-232l-108 180l-109 -180h-231 zM522 348h373v721h-373v-721z" />
<glyph unicode="&#xf5;" horiz-adv-x="1417" d="M72 453v516q0 117 33.5 201.5t89 136t140.5 82t173 42t203 11.5q635 0 635 -471v-506q0 -143 -48.5 -242.5t-140.5 -152t-199.5 -74t-250.5 -21.5q-111 0 -199 12.5t-172 44t-140.5 84t-90 138.5t-33.5 199zM301 1530q43 260 242 260q57 0 164 -29q127 -35 180 -35 q39 0 61.5 21.5t40.5 67.5l127 -29q-37 -256 -229 -256q-55 0 -166 29q-119 33 -182 32q-45 0 -66.5 -19.5t-40.5 -68.5zM522 348h373v721h-373v-721z" />
<glyph unicode="&#xf6;" horiz-adv-x="1417" d="M72 453v516q0 117 33.5 201.5t89 136t140.5 82t173 42t203 11.5q635 0 635 -471v-506q0 -143 -48.5 -242.5t-140.5 -152t-199.5 -74t-250.5 -21.5q-111 0 -199 12.5t-172 44t-140.5 84t-90 138.5t-33.5 199zM358 1518v256h265v-256h-265zM522 348h373v721h-373v-721z M795 1518v256h264v-256h-264z" />
<glyph unicode="&#xf7;" horiz-adv-x="1224" d="M86 510v276h1053v-276h-1053zM444 92v303h336v-303h-336zM444 887v305h336v-305h-336z" />
<glyph unicode="&#xf8;" horiz-adv-x="1417" d="M0 -20l152 188q-80 109 -80 285v516q0 117 33.5 201.5t89 136t140.5 82t173 42t203 11.5q248 0 399 -72l51 64h250l-147 -185q82 -111 82 -278v-506q0 -143 -48.5 -242.5t-140.5 -152t-199.5 -74t-250.5 -21.5q-260 0 -410 72l-55 -67h-242zM522 633l348 436h-348v-436z M539 348h356v445z" />
<glyph unicode="&#xf9;" horiz-adv-x="1406" d="M84 451v966h451v-1069h374v1069h416v-954q0 -147 -44 -245.5t-132 -150t-192.5 -72t-249.5 -20.5q-139 0 -244 20.5t-195 71t-137 147t-47 237.5zM385 1802l270 78l187 -364h-219z" />
<glyph unicode="&#xfa;" horiz-adv-x="1406" d="M84 451v966h451v-1069h374v1069h416v-954q0 -147 -44 -245.5t-132 -150t-192.5 -72t-249.5 -20.5q-139 0 -244 20.5t-195 71t-137 147t-47 237.5zM606 1516l187 364l270 -78l-238 -286h-219z" />
<glyph unicode="&#xfb;" horiz-adv-x="1406" d="M84 451v966h451v-1069h374v1069h416v-954q0 -147 -44 -245.5t-132 -150t-192.5 -72t-249.5 -20.5q-139 0 -244 20.5t-195 71t-137 147t-47 237.5zM385 1516l227 339h228l225 -339h-231l-111 180l-107 -180h-231z" />
<glyph unicode="&#xfc;" horiz-adv-x="1406" d="M84 451v966h451v-1069h374v1069h416v-954q0 -147 -44 -245.5t-132 -150t-192.5 -72t-249.5 -20.5q-139 0 -244 20.5t-195 71t-137 147t-47 237.5zM387 1518v256h264v-256h-264zM805 1518v256h262v-256h-262z" />
<glyph unicode="&#xfd;" horiz-adv-x="1441" d="M86 791v626h451v-565h370v565h451v-1003q0 -215 -99.5 -318.5t-314.5 -103.5h-792l-21 20v310h776v253q-20 -31 -91 -52t-128 -21h-305q-139 0 -218 64.5t-79 224.5zM627 1516l186 364l270 -78l-237 -286h-219z" />
<glyph unicode="&#xfe;" horiz-adv-x="1437" d="M88 0v1417h451v-217h409q236 0 325 -110.5t89 -329.5v-117q0 -207 -93 -321.5t-321 -114.5h-409v-207h-451zM539 545h372v315h-372v-315z" />
<glyph unicode="&#xff;" horiz-adv-x="1441" d="M86 791v626h451v-565h370v565h451v-1003q0 -215 -99.5 -318.5t-314.5 -103.5h-792l-21 20v310h776v253q-20 -31 -91 -52t-128 -21h-305q-139 0 -218 64.5t-79 224.5zM381 1518v256h262v-256h-262zM799 1518v256h262v-256h-262z" />
<glyph unicode="&#x152;" horiz-adv-x="2078" d="M72 459v479q0 147 41 244.5t125 147.5t181 68.5t238 18.5h1360v-348h-686v-195h553v-325h-553v-201h686v-348h-1362q-143 0 -239.5 17.5t-180 64.5t-123.5 140.5t-40 236.5zM522 348h359v721h-359v-721z" />
<glyph unicode="&#x153;" horiz-adv-x="2078" d="M72 459v479q0 147 41 244.5t125 147.5t181 68.5t238 18.5h1360v-348h-686v-195h553v-325h-553v-201h686v-348h-1362q-143 0 -239.5 17.5t-180 64.5t-123.5 140.5t-40 236.5zM522 348h359v721h-359v-721z" />
<glyph unicode="&#x178;" horiz-adv-x="1441" d="M84 877v540h451v-518h372v518h451v-540q0 -180 -87 -256t-257 -76h-66v-545h-452v545h-66q-178 0 -262 76t-84 256zM381 1518v256h262v-256h-262zM799 1518v256h262v-256h-262z" />
<glyph unicode="&#x2c6;" horiz-adv-x="811" d="M66 1516l227 339h227l225 -339h-231l-111 180l-106 -180h-231z" />
<glyph unicode="&#x2dc;" horiz-adv-x="946" d="M66 1530q47 260 241 260q57 0 164 -29q127 -35 180 -35q66 0 103 89l127 -29q-41 -256 -230 -256q-55 0 -166 29q-119 33 -182 32q-45 0 -65.5 -19.5t-40.5 -68.5z" />
<glyph unicode="&#x2013;" horiz-adv-x="1224" d="M82 508v276h1061v-276h-1061z" />
<glyph unicode="&#x2014;" horiz-adv-x="1935" d="M82 508v276h1771v-276h-1771z" />
<glyph unicode="&#x2018;" horiz-adv-x="546" d="M57 807l162 610h270l-43 -610h-389z" />
<glyph unicode="&#x2019;" horiz-adv-x="546" d="M57 807l43 610h389l-161 -610h-271z" />
<glyph unicode="&#x201a;" horiz-adv-x="546" d="M57 -244l43 611h389l-161 -611h-271z" />
<glyph unicode="&#x201c;" horiz-adv-x="1021" d="M57 807l162 610h270l-43 -610h-389zM532 807l162 610h271l-43 -610h-390z" />
<glyph unicode="&#x201d;" horiz-adv-x="1021" d="M57 807l43 610h389l-161 -610h-271zM532 807l43 610h390l-162 -610h-271z" />
<glyph unicode="&#x201e;" horiz-adv-x="1021" d="M57 -244l43 611h389l-161 -611h-271zM532 -244l43 611h390l-162 -611h-271z" />
<glyph unicode="&#x2022;" horiz-adv-x="686" d="M141 514v365h404v-365h-404z" />
<glyph unicode="&#x2026;" horiz-adv-x="1751" d="M92 0v367h400v-367h-400zM676 0v367h399v-367h-399zM1260 0v367h399v-367h-399z" />
<glyph unicode="&#x2039;" horiz-adv-x="612" d="M45 641l215 455h307l-178 -455l178 -453h-307z" />
<glyph unicode="&#x203a;" horiz-adv-x="612" d="M45 188l178 453l-178 455h307l215 -455l-215 -453h-307z" />
<glyph unicode="&#x20ac;" horiz-adv-x="1331" d="M63 465v166h152v162h-152v165h152v19q0 219 93 333.5t335 114.5h590l20 -20v-334h-591v-113h466l-45 -165h-421v-162h403l-45 -166h-358v-119h591v-338l-16 -16h-573q-242 0 -345.5 105.5t-103.5 340.5v27h-152z" />
<glyph unicode="&#x2122;" horiz-adv-x="3239" d="M45 1065v352h1292v-352h-419v-1065h-453v1065h-420zM1468 0v1417h621l225 -657l201 657h639v-1417h-426v838l-270 -838h-332l-262 836v-836h-396z" />
<glyph unicode="&#xe000;" horiz-adv-x="1415" d="M0 1415h1415v-1415h-1415v1415z" />
<glyph unicode="&#xfb01;" horiz-adv-x="1904" d="M88 0v1417h1145v-348h-694v-213h546v-334h-546v-522h-451zM1368 0v1417h451v-1417h-451z" />
<glyph unicode="&#xfb02;" horiz-adv-x="2566" d="M88 0v1417h1145v-348h-694v-213h546v-334h-546v-522h-451zM1368 0v1417h451v-1063h694v-354h-1145z" />
<glyph unicode="&#xfb03;" horiz-adv-x="3196" d="M72 0v999q0 217 91 321.5t337 104.5h712l21 -20v-334h-715v-215h567v-344h-567v-512h-446zM1358 0v999q0 217 91 321.5t337 104.5h713l20 -20v-334h-715v-215h568v-344h-568v-512h-446zM2660 0v1417h451v-1417h-451z" />
<glyph unicode="&#xfb04;" horiz-adv-x="3858" d="M72 0v999q0 217 91 321.5t337 104.5h712l21 -20v-334h-715v-215h567v-344h-567v-512h-446zM1358 0v999q0 217 91 321.5t337 104.5h713l20 -20v-334h-715v-215h568v-344h-568v-512h-446zM2660 0v1417h451v-1063h694v-354h-1145z" />
</font>
</defs>
</svg>
