<?xml version="1.0" standalone="no"?>
<!DOCTYPE svg PUBLIC "-//W3C//DTD SVG 1.1//EN" "http://www.w3.org/Graphics/SVG/1.1/DTD/svg11.dtd" >
<svg xmlns="http://www.w3.org/2000/svg">
<metadata></metadata>
<defs>
<font id="MorganPosterItalic" horiz-adv-x="913" >
<font-face units-per-em="2048" ascent="1772" descent="-276" />
<missing-glyph horiz-adv-x="286" />
<glyph horiz-adv-x="0" />
<glyph horiz-adv-x="2048" />
<glyph unicode="&#xd;" horiz-adv-x="681" />
<glyph unicode=" "  horiz-adv-x="286" />
<glyph unicode="&#x09;" horiz-adv-x="286" />
<glyph unicode="&#xa0;" horiz-adv-x="286" />
<glyph unicode="!" horiz-adv-x="415" d="M37 0l24 180h179l-25 -180h-178zM104 328l136 1089h168l-172 -1089h-132z" />
<glyph unicode="&#x22;" horiz-adv-x="663" d="M209 1049l33 368h151l-71 -368h-113zM471 1049l33 368h151l-69 -368h-115z" />
<glyph unicode="#" horiz-adv-x="786" d="M33 567l26 121h117l66 277h-127l24 120h127l60 261h118l-59 -261h190l60 261h119l-62 -261h123l-24 -120h-123l-66 -277h119l-25 -121h-123l-55 -250h-117l58 250h-193l-55 -250h-119l58 250h-117zM293 688h192l66 275h-193z" />
<glyph unicode="$" horiz-adv-x="811" d="M14 12l17 121h401q76 0 82 72l53 379q6 45 -1 59t-42 14h-245q-82 0 -124 37t-32 111l59 418q27 197 234 196h65l25 176h127l-25 -176h203l4 -6l-18 -127h-371q-78 0 -88 -65l-49 -361q-10 -59 55 -59h272q57 0 92 -38t27 -91l-65 -469q-14 -109 -74.5 -156t-169.5 -47 h-39l-22 -166h-127l22 166h-237z" />
<glyph unicode="%" horiz-adv-x="1234" d="M111 -49l919 1524h131l-919 -1524h-131zM143 924l52 352q20 147 165 147h142q148 0 125 -147l-49 -352q-20 -150 -166 -150h-142q-147 0 -127 150zM262 924q-6 -41 33 -41h115q45 0 49 51l49 344q2 18 -8.5 28.5t-32.5 10.5h-111q-37 0 -43 -39zM641 125l49 352 q20 147 168 148h139q147 -1 127 -148l-49 -352q-23 -150 -168 -150h-141q-147 0 -125 150zM758 123q-2 -39 35 -39h114q18 0 29.5 8t13.5 16.5t4 26.5l50 344q2 18 -9.5 27.5t-31.5 9.5h-111q-37 0 -43 -37z" />
<glyph unicode="&#x26;" horiz-adv-x="917" d="M49 211l57 399q20 145 160 166l2 6q-72 16 -95 57.5t-13 125.5l35 247q31 211 245 211h383l11 -12l-19 -131h-379q-76 0 -88 -68l-35 -247q-6 -55 14.5 -85t92.5 -30h502l-19 -139h-125l-100 -711l-10 -6h-389q-127 0 -186.5 48t-43.5 169zM209 221q-6 -47 10.5 -67.5 t61.5 -20.5h254l81 578h-239q-100 0 -109 -76z" />
<glyph unicode="'" horiz-adv-x="401" d="M209 1049l33 368h151l-71 -368h-113z" />
<glyph unicode="(" horiz-adv-x="405" d="M11 162q3 78 18 182l98 680q14 106 32.5 181t55.5 157t101.5 125t152.5 43h63l-16 -121h-59q-115 0 -156 -293l-123 -862q-45 -322 64 -322h61l-16 -118h-60q-88 2 -140 50t-65.5 134t-10.5 164z" />
<glyph unicode=")" horiz-adv-x="405" d="M-102 -186l16 118h59q57 0 99.5 95.5t60.5 230.5l123 862q41 289 -66 289h-63l16 121h60q74 0 122 -33t69.5 -80t26.5 -119.5t-0.5 -134t-17.5 -143.5l-96 -680q-14 -104 -34.5 -183t-57.5 -163t-101.5 -131t-150.5 -49h-65z" />
<glyph unicode="*" horiz-adv-x="583" d="M147 1288l62 88l133 -82l23 162h100l-23 -162l152 82l39 -88l-166 -90l80 -154l-90 -57l-84 162l-131 -162l-76 57l123 154z" />
<glyph unicode="+" horiz-adv-x="798" d="M113 618l16 111h236l32 238h111l-33 -238h236l-17 -111h-235l-33 -233h-111l33 233h-235z" />
<glyph unicode="," horiz-adv-x="446" d="M6 -193l86 373h176l-143 -373h-119z" />
<glyph unicode="-" horiz-adv-x="532" d="M55 629l21 145h434l-21 -145h-434z" />
<glyph unicode="." horiz-adv-x="446" d="M53 0l25 180h176l-25 -180h-176z" />
<glyph unicode="/" horiz-adv-x="489" d="M-86 -20l541 1454h155l-544 -1454h-152z" />
<glyph unicode="0" horiz-adv-x="925" d="M66 258l127 901q18 141 91.5 206t213.5 65h166q139 0 195 -65t38 -206l-127 -901q-20 -141 -95 -205.5t-214 -64.5h-166q-139 0 -194.5 64.5t-34.5 205.5zM221 238q-14 -109 88 -109h189q94 0 108 109l131 923q4 39 3 67.5t-22.5 45t-64.5 16.5h-180q-61 0 -87 -31.5 t-34 -97.5z" />
<glyph unicode="1" horiz-adv-x="557" d="M156 0l180 1276h-164l18 141h322l-199 -1417h-157z" />
<glyph unicode="2" horiz-adv-x="819" d="M8 0l88 627q23 168 201 168h242q61 0 71 75l47 334q8 76 -69 76h-402l19 131l14 12h418q109 0 150.5 -53t29.5 -143l-55 -398q-12 -92 -75.5 -135t-156.5 -43h-206q-37 0 -52.5 -15t-21.5 -56l-62 -437h484l-21 -143h-643z" />
<glyph unicode="3" horiz-adv-x="815" d="M-8 10l18 129h400q96 0 106 84l51 355q4 39 -16.5 56t-67.5 17h-243l20 144h238q100 0 108 69l49 344q4 33 -16.5 51.5t-60.5 18.5h-408l18 131l15 12h420q109 0 154.5 -49t31.5 -155l-43 -310q-10 -82 -45 -123t-111 -59l-2 -6q133 -25 113 -162l-47 -344 q-33 -217 -252 -217h-422z" />
<glyph unicode="4" horiz-adv-x="874" d="M12 344l21 158l551 917h202l-133 -948h160l-16 -127h-160l-49 -344h-137l49 344h-488zM168 471h348l107 748h-9z" />
<glyph unicode="5" horiz-adv-x="825" d="M-6 6l18 131h418q82 0 90 74l58 405q6 39 -15.5 52.5t-54.5 13.5h-391l102 735h594l-18 -141h-445l-63 -449h303q176 0 153 -161l-65 -467q-14 -100 -70.5 -152.5t-183.5 -52.5h-418z" />
<glyph unicode="6" d="M63 254l130 905q35 264 299 264h399l10 -12l-18 -133h-412q-104 0 -119 -117l-57 -399q51 76 154 76h210q88 0 133.5 -44t32.5 -132l-55 -406q-16 -119 -86 -192.5t-170 -73.5h-250q-111 0 -164 68.5t-37 195.5zM223 248q-8 -68 19.5 -95.5t95.5 -27.5h133 q66 0 96.5 24.5t40.5 92.5l51 368q12 88 -77 88h-191q-45 0 -78.5 -24.5t-38.5 -61.5z" />
<glyph unicode="7" horiz-adv-x="784" d="M14 0l654 1274h-506l20 143h664l-19 -133l-651 -1284h-162z" />
<glyph unicode="8" horiz-adv-x="917" d="M53 203l47 340q10 70 53.5 119t118.5 59l2 6q-74 20 -99 65.5t-15 127.5l41 290q33 223 272 224h242q94 0 143 -58.5t39 -142.5l-49 -338q-8 -70 -50 -108.5t-122 -59.5l-2 -6q74 -10 107.5 -60.5t23.5 -119.5l-47 -338q-29 -213 -273 -213h-223q-115 0 -170 48t-39 165z M217 223q-10 -94 94 -94h168q106 0 117 82l51 362q6 45 -17.5 61.5t-74.5 16.5h-186q-49 0 -72 -17.5t-31 -64.5zM311 891q-14 -94 95 -94h167q106 0 117 82l47 335q6 45 -17.5 61.5t-74.5 16.5h-186q-49 0 -71.5 -17.5t-31.5 -64.5z" />
<glyph unicode="9" d="M47 6l21 133h411q102 0 119 117l55 399q-51 -76 -153 -75h-211q-88 0 -133 44t-33 132l57 405q16 119 85 192.5t169 73.5h250q113 0 166 -68.5t35 -195.5l-127 -905q-37 -264 -299 -264h-400zM289 807q-12 -88 78 -88h190q45 0 79 24.5t38 61.5l51 364q10 68 -17.5 95.5 t-95.5 27.5h-133q-68 0 -98.5 -24.5t-38.5 -91.5z" />
<glyph unicode=":" horiz-adv-x="446" d="M53 0l25 180h176l-25 -180h-176zM143 639l25 180h176l-25 -180h-176z" />
<glyph unicode=";" horiz-adv-x="446" d="M6 -193l86 373h176l-143 -373h-119zM147 639l25 180h178l-24 -180h-179z" />
<glyph unicode="&#x3c;" horiz-adv-x="714" d="M109 625l12 88l487 225l39 -100l-375 -170l324 -168l-66 -101z" />
<glyph unicode="=" horiz-adv-x="798" d="M94 504l15 112h589l-14 -112h-590zM127 745l16 113h590l-16 -113h-590z" />
<glyph unicode="&#x3e;" horiz-adv-x="798" d="M135 500l373 168l-328 170l68 100l424 -225l-13 -88l-485 -226z" />
<glyph unicode="?" horiz-adv-x="770" d="M127 0l25 180h176l-25 -180h-176zM176 1278l19 133l14 12h379q209 0 184 -184l-57 -403q-27 -188 -203 -189h-96q-25 0 -34 -10t-13 -37l-39 -272h-142l48 331q8 57 52 96.5t101 39.5h103q59 0 71 63l47 338q6 49 -14.5 65.5t-71.5 16.5h-348z" />
<glyph unicode="@" horiz-adv-x="1402" d="M125 618q16 119 59 237t114 226.5t160 191.5t207.5 132t247.5 49q252 0 365 -156.5t78 -408.5q-31 -223 -164 -410.5t-299 -187.5q-51 0 -88 30.5t-43 86.5q-94 -115 -199 -115q-47 0 -79.5 26.5t-44 64.5t-16.5 82t3 81q16 111 63.5 233.5t138.5 225t195 102.5h219 l-151 -549q0 -6 -6 -29.5t-8 -29.5q-4 -35 10 -58.5t45 -23.5q61 0 117.5 53t93.5 133t60.5 153.5t31.5 129.5q27 201 -63.5 328.5t-282.5 127.5q-135 0 -253 -67.5t-196 -176t-127 -232.5t-67 -251q-35 -252 65.5 -403.5t343.5 -151.5q219 0 488 111l22 -96 q-113 -57 -261 -92t-279 -35q-199 0 -323 90t-164 237.5t-13 341.5zM557 590q-23 -170 59 -170q57 0 100.5 44t59.5 105l119 426h-107q-72 0 -143.5 -148.5t-87.5 -256.5z" />
<glyph unicode="A" d="M31 0l159 1143q43 295 388 295q160 0 240 -74q66 -60 66 -168q0 -24 -3 -51l-162 -1145h-160l51 371h-377l-51 -371h-151zM256 518h377l90 645q1 9 1 18q0 55 -45 83q-52 34 -128 34q-78 0 -137.5 -34.5t-67.5 -102.5z" />
<glyph unicode="B" d="M41 0l199 1417h473q109 1 155 -49q35 -38 34 -109q0 -22 -3 -47l-43 -305q-10 -82 -44 -123t-110 -59l-2 -6q114 -20 114 -127q0 -16 -3 -35l-47 -344q-33 -213 -250 -213h-473zM219 143h301q43 0 61.5 18.5t26.5 65.5l49 351q4 41 -11 57t-58 16h-297zM311 795h301 q43 0 60.5 12t23.5 57l49 340q1 9 1 16q0 54 -62 54h-307z" />
<glyph unicode="C" horiz-adv-x="761" d="M57 262l127 901q37 260 299 260h324l10 -12l-18 -131h-324q-68 0 -96.5 -35t-38.5 -106l-121 -860q-3 -23 -3 -42q0 -41 14 -65q22 -35 89 -35h318l-19 -131l-12 -12h-321q-137 0 -191 66q-41 49 -41 138q0 30 4 64z" />
<glyph unicode="D" d="M41 0l199 1417h428q229 0 229 -196q0 -26 -4 -56l-127 -903q-37 -262 -299 -262h-426zM221 143h221q145 0 166 131l121 869q2 15 2 29q1 48 -27 72q-36 30 -110 30h-215z" />
<glyph unicode="E" horiz-adv-x="817" d="M41 0l199 1417h612l-21 -143h-452l-66 -479h367l-21 -144h-366l-72 -508h453l-21 -143h-612z" />
<glyph unicode="F" horiz-adv-x="806" d="M41 0l199 1417h612l-21 -143h-452l-68 -488h367l-21 -143h-366l-90 -643h-160z" />
<glyph unicode="G" horiz-adv-x="888" d="M57 264l127 899q20 137 95 198.5t213 61.5h391l10 -12l-19 -131h-397q-68 0 -98.5 -35t-40.5 -106l-121 -863q-3 -20 -3 -38q0 -42 18 -66q24 -35 92 -35h233l72 502h155l-90 -633l-10 -12h-393q-143 0 -199 66q-40 48 -40 136q0 31 5 68z" />
<glyph unicode="H" horiz-adv-x="942" d="M41 0l199 1417h159l-86 -622h377l86 622h160l-199 -1417h-159l92 651h-377l-92 -651h-160z" />
<glyph unicode="I" horiz-adv-x="405" d="M41 0l199 1417h159l-198 -1417h-160z" />
<glyph unicode="J" horiz-adv-x="712" d="M-16 2l20 139h264q111 0 127 115l162 1161h158l-162 -1153q-20 -143 -87 -206.5t-206 -63.5h-268z" />
<glyph unicode="K" horiz-adv-x="919" d="M41 0l199 1417h159l-90 -633h174l295 633h156l-303 -633h65q82 0 108 -48q19 -35 20 -79q0 -17 -3 -34l-86 -623h-160l80 565q3 16 3 28q0 25 -11 35q-16 16 -55 17h-301l-90 -645h-160z" />
<glyph unicode="L" horiz-adv-x="753" d="M41 0l199 1417h157l-178 -1274h453l-21 -143h-610z" />
<glyph unicode="M" horiz-adv-x="1159" d="M41 0l199 1417h256l90 -780h10l299 780h258l-199 -1417h-145l174 1243h-12l-379 -928h-103l-116 922h-13l-174 -1237h-145z" />
<glyph unicode="N" horiz-adv-x="942" d="M41 0l199 1417h196l203 -1028h10l144 1028h143l-199 -1417h-159l-224 1118h-14l-158 -1118h-141z" />
<glyph unicode="O" horiz-adv-x="897" d="M59 283l121 854q43 301 389 301q162 0 244 -72q64 -57 64 -163q0 -30 -5 -64l-120 -858q-41 -301 -387 -301q-166 0 -247 72q-64 57 -64 167q0 30 5 64zM215 262q-2 -13 -2 -25q0 -55 38 -85q46 -36 130 -35q80 0 140.5 35.5t70.5 107.5l125 895q2 12 2 24q0 55 -40 85 q-48 36 -132 36q-186 0 -207 -147z" />
<glyph unicode="P" horiz-adv-x="915" d="M41 0l199 1417h477h2q189 0 189 -155q0 -21 -3 -45l-80 -576q-29 -215 -252 -215h-313l-59 -426h-160zM281 569h280q92 0 107 84l75 537q1 8 1 15q0 69 -85 69h-280z" />
<glyph unicode="Q" horiz-adv-x="897" d="M59 283l121 854q43 301 389 301q162 0 244 -72q64 -57 64 -163q0 -30 -5 -64l-120 -858q-35 -260 -308 -297l-24 -170h-158l25 170q-232 29 -232 239q0 28 4 60zM215 262q-2 -13 -2 -25q0 -55 38 -85q46 -35 130 -35q80 0 140.5 35.5t70.5 107.5l125 895q2 12 2 24 q0 54 -40 85q-48 36 -132 36q-186 0 -207 -147z" />
<glyph unicode="R" horiz-adv-x="925" d="M41 0l199 1417h462q117 0 168 -48q39 -37 39 -112q0 -24 -4 -51l-78 -547q-14 -102 -72.5 -151t-131.5 -49h-52l203 -459h-178l-197 446h-135l-63 -446h-160zM283 580h301q43 0 61.5 21.5t24.5 70.5l73 518q1 8 1 16q0 68 -82 68h-283z" />
<glyph unicode="S" horiz-adv-x="811" d="M4 6l19 131h409q78 0 84 74l53 369q6 43 -2 58t-43 15h-250q-86 0 -128 38q-33 30 -33 84q0 14 2 30l59 418q27 200 238 200h2h401l4 -6l-18 -137h-379q-78 0 -90 -68l-49 -352q-1 -6 -1 -12q0 -47 58 -47h278q58 0 94 -39q28 -31 29 -72q0 -10 -2 -22l-65 -467 q-16 -111 -76.5 -159t-171.5 -48h-412z" />
<glyph unicode="T" horiz-adv-x="835" d="M139 1274l21 143h753l-20 -143h-297l-178 -1274h-160l178 1274h-297z" />
<glyph unicode="U" horiz-adv-x="911" d="M72 293l157 1124h158l-158 -1120q-3 -21 -2 -39q-1 -69 41 -97q54 -36 142 -36q74 0 129 43t67 129l158 1120h151l-157 -1130q-23 -152 -129.5 -229.5t-255.5 -77.5q-166 0 -244 78q-61 62 -61 172q0 30 4 63z" />
<glyph unicode="V" horiz-adv-x="892" d="M152 492q-19 70 -19 179q0 121 23 290l63 456h162l-70 -504q-18 -122 -19 -212q0 -74 13 -126l88 -382h8l189 378q63 125 96 357l68 489h153l-65 -473q-47 -301 -119 -438l-277 -516h-167z" />
<glyph unicode="W" horiz-adv-x="1454" d="M70 274l159 1143h160l-162 -1159q-2 -11 -1 -21q0 -53 44 -83q52 -36 127 -35q184 0 207 155l160 1143h160l-162 -1159q-2 -11 -2 -21q0 -53 44 -83q52 -36 128 -35.5t136 36t71 105.5l161 1157h158l-160 -1138q-43 -299 -395 -299q-178 0 -252 81q-99 -81 -278 -81h-4 q-162 0 -241 72q-62 56 -62 162q0 28 4 60z" />
<glyph unicode="X" horiz-adv-x="905" d="M25 0l73 526q23 156 189 195l2 6q-72 15 -107 67q-27 40 -27 94q0 17 3 36l69 493h156l-68 -487q-2 -11 -2 -21q-1 -53 43 -84q52 -37 121 -37q76 0 138.5 33t72.5 103l70 493h153l-67 -489q-25 -154 -185 -201l-2 -6q70 -15 108 -63q30 -38 30 -92q0 -14 -2 -29 l-76 -537h-158l74 530q2 15 2 29q0 52 -36 76q-46 31 -134 31q-186 0 -205 -131l-76 -535h-159z" />
<glyph unicode="Y" horiz-adv-x="901" d="M113 657l106 760h160l-105 -745q-6 -43 11.5 -59.5t60.5 -16.5h229q18 0 30.5 3t20 6t12.5 14.5t6 14.5t3 19.5t2 18.5l105 745h161l-104 -753q-31 -203 -240 -203h-57l-65 -461h-160l65 461h-65q-179 0 -179 153q0 20 3 43z" />
<glyph unicode="Z" horiz-adv-x="802" d="M-12 0l16 119l655 1153h-487l21 145h657l-19 -129l-651 -1145h488l-21 -143h-659z" />
<glyph unicode="[" horiz-adv-x="417" d="M-35 -186l246 1716h330l-19 -127h-168l-209 -1464h166l-16 -125h-330z" />
<glyph unicode="\" horiz-adv-x="487" d="M125 1434h149l123 -1454h-151z" />
<glyph unicode="]" horiz-adv-x="417" d="M-98 -186l18 125h168l209 1464h-168l18 127h330l-246 -1716h-329z" />
<glyph unicode="^" horiz-adv-x="729" d="M10 651l15 113h731l-17 -113h-729z" />
<glyph unicode="_" horiz-adv-x="1024" />
<glyph unicode="`" horiz-adv-x="477" d="M256 1718l145 51l107 -276h-105z" />
<glyph unicode="a" d="M31 0l159 1143q43 295 388 295q160 0 240 -74q66 -60 66 -168q0 -24 -3 -51l-162 -1145h-160l51 371h-377l-51 -371h-151zM256 518h377l90 645q1 9 1 18q0 55 -45 83q-52 34 -128 34q-78 0 -137.5 -34.5t-67.5 -102.5z" />
<glyph unicode="b" d="M41 0l199 1417h473q109 1 155 -49q35 -38 34 -109q0 -22 -3 -47l-43 -305q-10 -82 -44 -123t-110 -59l-2 -6q114 -20 114 -127q0 -16 -3 -35l-47 -344q-33 -213 -250 -213h-473zM219 143h301q43 0 61.5 18.5t26.5 65.5l49 351q4 41 -11 57t-58 16h-297zM311 795h301 q43 0 60.5 12t23.5 57l49 340q1 9 1 16q0 54 -62 54h-307z" />
<glyph unicode="c" horiz-adv-x="761" d="M57 262l127 901q37 260 299 260h324l10 -12l-18 -131h-324q-68 0 -96.5 -35t-38.5 -106l-121 -860q-3 -23 -3 -42q0 -41 14 -65q22 -35 89 -35h318l-19 -131l-12 -12h-321q-137 0 -191 66q-41 49 -41 138q0 30 4 64z" />
<glyph unicode="d" d="M41 0l199 1417h428q229 0 229 -196q0 -26 -4 -56l-127 -903q-37 -262 -299 -262h-426zM221 143h221q145 0 166 131l121 869q2 15 2 29q1 48 -27 72q-36 30 -110 30h-215z" />
<glyph unicode="e" horiz-adv-x="817" d="M57 262l127 901q37 260 299 260h361l10 -12l-18 -131h-363q-66 0 -94.5 -35t-38.5 -106l-49 -346h387l-19 -144h-387l-53 -370q-3 -24 -3 -43q0 -40 14 -64q20 -35 87 -35h357l-19 -131l-12 -12h-358q-137 0 -191 66q-41 49 -41 138q0 30 4 64z" />
<glyph unicode="f" horiz-adv-x="817" d="M20 0l164 1163q37 260 299 260h361l10 -12l-18 -131h-365q-66 0 -93.5 -34t-37.5 -107l-49 -346h387l-19 -144h-387l-92 -649h-160z" />
<glyph unicode="g" horiz-adv-x="888" d="M57 264l127 899q20 137 95 198.5t213 61.5h391l10 -12l-19 -131h-397q-68 0 -98.5 -35t-40.5 -106l-121 -863q-3 -20 -3 -38q0 -42 18 -66q24 -35 92 -35h233l72 502h155l-90 -633l-10 -12h-393q-143 0 -199 66q-40 48 -40 136q0 31 5 68z" />
<glyph unicode="h" horiz-adv-x="942" d="M41 0l199 1417h159l-86 -622h377l86 622h160l-199 -1417h-159l92 651h-377l-92 -651h-160z" />
<glyph unicode="i" horiz-adv-x="405" d="M41 0l199 1417h159l-198 -1417h-160z" />
<glyph unicode="j" horiz-adv-x="712" d="M-16 2l20 139h264q111 0 127 115l162 1161h158l-162 -1153q-20 -143 -87 -206.5t-206 -63.5h-268z" />
<glyph unicode="k" horiz-adv-x="919" d="M41 0l199 1417h159l-88 -620h271q53 0 82.5 24.5t40.5 96.5l69 499h156l-70 -489q-12 -88 -45 -133t-117 -60v-6q118 -22 117 -132q0 -16 -2 -34l-78 -563h-160l80 561q1 10 1 19q0 77 -89 77h-274l-92 -657h-160z" />
<glyph unicode="l" horiz-adv-x="753" d="M41 0l199 1417h157l-178 -1274h453l-21 -143h-610z" />
<glyph unicode="m" horiz-adv-x="1454" d="M31 0l159 1139q43 299 396 299q178 0 252 -82q100 82 282 82q162 0 240 -72q63 -57 63 -165q0 -28 -4 -58l-159 -1143h-160l162 1159q2 11 2 21q0 52 -44 82q-52 36 -128 36q-184 0 -207 -155l-160 -1143h-160l162 1159q2 11 2 21q0 52 -44 82q-52 36 -128 36 t-136.5 -35.5t-70.5 -105.5l-162 -1157h-157z" />
<glyph unicode="n" horiz-adv-x="919" d="M31 0l159 1139q43 299 398 299q162 0 241 -72q61 -55 61 -159q0 -30 -5 -64l-160 -1143h-160l164 1159q1 9 1 18q0 55 -45 85q-52 36 -128 36t-136.5 -35.5t-70.5 -105.5l-162 -1157h-157z" />
<glyph unicode="o" horiz-adv-x="897" d="M59 283l121 854q43 301 389 301q162 0 244 -72q64 -57 64 -163q0 -30 -5 -64l-120 -858q-41 -301 -387 -301q-166 0 -247 72q-64 57 -64 167q0 30 5 64zM215 262q-2 -13 -2 -25q0 -55 38 -85q46 -36 130 -35q80 0 140.5 35.5t70.5 107.5l125 895q2 12 2 24q0 55 -40 85 q-48 36 -132 36q-186 0 -207 -147z" />
<glyph unicode="p" horiz-adv-x="915" d="M41 0l199 1417h477h2q189 0 189 -155q0 -21 -3 -45l-80 -576q-29 -215 -252 -215h-313l-59 -426h-160zM281 569h280q92 0 107 84l75 537q1 8 1 15q0 69 -85 69h-280z" />
<glyph unicode="q" horiz-adv-x="897" d="M59 283l121 854q43 301 389 301q162 0 244 -72q64 -57 64 -163q0 -30 -5 -64l-120 -858q-35 -260 -308 -297l-24 -172h-158l25 172q-232 29 -232 239q0 28 4 60zM215 262q-2 -13 -2 -25q0 -55 38 -85q46 -35 130 -35q80 0 140.5 35.5t70.5 107.5l125 895q2 12 2 24 q0 54 -40 85q-48 36 -132 36q-186 0 -207 -147z" />
<glyph unicode="r" horiz-adv-x="917" d="M41 0l199 1417h462q117 0 167 -48q38 -36 38 -111q0 -24 -4 -52l-74 -522q-20 -143 -155 -172v-6q114 -20 115 -124q0 -15 -3 -32l-49 -350h-159l49 356q2 11 2 21q0 63 -66 63h-303l-61 -440h-158zM281 580h290q84 0 99 94l73 516q1 8 1 16q0 68 -82 68h-285z" />
<glyph unicode="s" horiz-adv-x="811" d="M4 6l19 131h409q78 0 84 74l53 369q6 43 -2 58t-43 15h-250q-86 0 -128 38q-33 30 -33 84q0 14 2 30l59 418q27 200 238 200h2h401l4 -6l-18 -137h-379q-78 0 -90 -68l-49 -352q-1 -6 -1 -12q0 -47 58 -47h278q58 0 94 -39q28 -31 29 -72q0 -10 -2 -22l-65 -467 q-16 -111 -76.5 -159t-171.5 -48h-412z" />
<glyph unicode="t" horiz-adv-x="911" d="M74 293l157 1124h158l-45 -317h530l-20 -144h-530l-95 -671q-2 -15 -2 -28q-1 -26 7 -47q12 -32 31.5 -48.5t51 -24.5t53 -10t48.5 -2q70 0 125 43t63 113l64 452h153l-61 -434q-23 -156 -124 -237.5t-261 -81.5q-162 0 -244 80q-64 62 -64 169q0 30 5 64z" />
<glyph unicode="u" horiz-adv-x="911" d="M72 293l157 1124h158l-158 -1120q-3 -21 -2 -39q-1 -69 41 -97q54 -36 142 -36q74 0 129 43t67 129l158 1120h151l-157 -1130q-23 -152 -129.5 -229.5t-255.5 -77.5q-166 0 -244 78q-61 62 -61 172q0 30 4 63z" />
<glyph unicode="v" horiz-adv-x="892" d="M152 492q-19 70 -19 179q0 121 23 290l63 456h162l-70 -504q-18 -122 -19 -212q0 -74 13 -126l88 -382h8l189 378q63 125 96 357l68 489h153l-65 -473q-47 -301 -119 -438l-277 -516h-167z" />
<glyph unicode="w" horiz-adv-x="1454" d="M70 274l159 1143h160l-162 -1159q-2 -11 -1 -21q0 -53 44 -83q52 -36 127 -35q184 0 207 155l160 1143h160l-162 -1159q-2 -11 -2 -21q0 -53 44 -83q52 -36 128 -35.5t136 36t71 105.5l161 1157h158l-160 -1138q-43 -299 -395 -299q-178 0 -252 81q-99 -81 -278 -81h-4 q-162 0 -241 72q-62 56 -62 162q0 28 4 60z" />
<glyph unicode="x" horiz-adv-x="905" d="M25 0l73 526q23 156 189 195l2 6q-72 15 -107 67q-27 40 -27 94q0 17 3 36l69 493h156l-68 -487q-2 -11 -2 -21q-1 -53 43 -84q52 -37 121 -37q76 0 138.5 33t72.5 103l70 493h153l-67 -489q-25 -154 -185 -201l-2 -6q70 -15 108 -63q30 -38 30 -92q0 -14 -2 -29 l-76 -537h-158l74 530q2 15 2 29q0 52 -36 76q-46 31 -134 31q-186 0 -205 -131l-76 -535h-159z" />
<glyph unicode="y" horiz-adv-x="917" d="M41 6l20 133h412q102 0 119 117l39 281q-57 -76 -154 -76h-198q-88 0 -135 44q-36 34 -36 96q0 17 3 36l108 780h162l-102 -735q-1 -10 -1 -20q0 -68 78 -68h201q80 0 94 86l103 737h161l-161 -1159q-37 -264 -301 -264h-400z" />
<glyph unicode="z" horiz-adv-x="802" d="M-12 0l16 119l655 1153h-487l21 145h657l-19 -129l-651 -1145h488l-21 -143h-659z" />
<glyph unicode="{" horiz-adv-x="417" d="M-35 -186l121 850l-66 94l95 98l96 674h330l-19 -127h-168l-82 -574l-69 -67l51 -62l-109 -761h168l-18 -125h-330z" />
<glyph unicode="|" horiz-adv-x="516" d="M98 -20l209 1454h146l-209 -1454h-146z" />
<glyph unicode="}" horiz-adv-x="417" d="M-98 -186l18 125h168l109 766l71 61l-53 65l82 572h-168l18 127h330l-96 -678l65 -98l-94 -95l-121 -845h-329z" />
<glyph unicode="~" horiz-adv-x="1275" d="M10 651l15 113h1275l-16 -113h-1274z" />
<glyph unicode="&#xa1;" horiz-adv-x="415" d="M14 -203l172 1090h131l-135 -1090h-168zM182 1032l25 182h178l-25 -182h-178z" />
<glyph unicode="&#xa2;" horiz-adv-x="776" d="M70 266l86 608q37 260 299 261h43l24 176h127l-24 -176h161l11 -11l-19 -133h-334q-111 0 -133 -141l-82 -592q-8 -66 18.5 -90.5t98.5 -24.5h313l-18 -131l-14 -12h-162l-25 -182h-127l25 182h-37q-137 0 -193.5 65.5t-37.5 200.5z" />
<glyph unicode="&#xa3;" horiz-adv-x="868" d="M0 0l18 133h172l76 533h-176l16 120h177l57 404q16 125 78.5 179t183.5 54h258l6 -8l-18 -133h-266q-47 0 -62.5 -20.5t-23.5 -79.5l-56 -396h305l-40 -120h-281l-76 -533h400l-19 -133h-729z" />
<glyph unicode="&#xa4;" horiz-adv-x="823" d="M31 524l16 119h148l26 186h-147l16 119h148l30 215q37 260 299 260h301l11 -12l-19 -131h-301q-68 0 -96.5 -35t-38.5 -106l-27 -191h336l-41 -119h-311l-27 -186h283l-41 -119h-258l-35 -245q-10 -72 11.5 -107t88.5 -35h295l-18 -131l-12 -12h-299q-137 0 -191.5 65.5 t-36.5 202.5l37 262h-147z" />
<glyph unicode="&#xa5;" horiz-adv-x="901" d="M70 319l16 117h264l23 156h-66q-203 0 -176 196l88 629h160l-86 -614q-6 -43 11.5 -59.5t60.5 -16.5h229q18 0 30.5 3t19.5 6t12.5 14.5t6.5 14.5t3 19.5t2 18.5l86 614h161l-86 -622q-31 -203 -239 -203h-58l-22 -156h264l-16 -117h-264l-45 -319h-160l45 319h-264z" />
<glyph unicode="&#xa6;" horiz-adv-x="1024" />
<glyph unicode="&#xa7;" horiz-adv-x="950" d="M8 -227l17 118h477q68 0 78 68l30 227h-383q-78 0 -115.5 35t-27.5 103l127 909q27 182 219 182h485l5 -6l-17 -125h-467q-70 0 -82 -61l-28 -213h59h358q53 0 85 -36t26 -85l-133 -940q-14 -100 -68.5 -143.5t-156.5 -43.5h-482zM236 375q-8 -53 53 -53h342l67 485 q8 68 -59 67h-332z" />
<glyph unicode="&#xa8;" horiz-adv-x="610" d="M211 1511l22 148h152l-20 -148h-154zM508 1511l20 148h154l-23 -148h-151z" />
<glyph unicode="&#xa9;" horiz-adv-x="1441" d="M94 324l111 778q16 119 66.5 203t123 128t151.5 63.5t169 19.5h299q213 0 317.5 -98t71.5 -331l-105 -745q-33 -238 -167 -339t-351 -101h-286q-92 0 -167 19.5t-136.5 64.5t-87 131t-9.5 207zM227 332q-23 -166 51 -234.5t234 -68.5h285q178 0 262 71.5t108 239.5 l105 750q23 162 -41 230.5t-238 68.5h-297q-154 0 -246 -68t-114 -227zM440 422l82 586q31 213 244 213h268l10 -11l-16 -127h-264q-82 0 -94 -94l-78 -555q-12 -96 72 -96h258l-17 -125l-14 -12h-266q-113 0 -157 54t-28 167z" />
<glyph unicode="&#xaa;" horiz-adv-x="573" d="M90 715l12 80h430l-12 -80h-430zM147 1004l9 53q10 78 54 107.5t124 29.5h117l12 86q4 27 -12.5 36t-51.5 9h-176l10 74l17 16h174q78 0 115.5 -26.5t27.5 -98.5l-57 -401l-14 -15h-205q-74 0 -114 31t-30 99zM246 975q2 -10 11 -15.5t30 -5.5h129l24 166h-129 q-47 0 -53 -47l-10 -74q-4 -14 -2 -24z" />
<glyph unicode="&#xab;" horiz-adv-x="731" d="M129 709l168 264h123l-162 -264l86 -267h-123zM385 709l166 264h125l-162 -264l86 -267h-125z" />
<glyph unicode="&#xac;" horiz-adv-x="798" d="M123 489l211 187l-162 186l92 80l160 -188l213 186l68 -80l-213 -184l159 -184l-92 -80l-158 184l-211 -186z" />
<glyph unicode="&#xad;" horiz-adv-x="532" d="M55 629l21 145h434l-21 -145h-434z" />
<glyph unicode="&#xae;" d="M31 0l159 1143q43 295 388 295q160 0 240.5 -74t62.5 -219l-162 -1145h-160l51 371h-377l-51 -371h-151zM256 518h377l90 645q8 68 -44 101.5t-128 33.5q-78 0 -137.5 -34.5t-67.5 -102.5zM379 1522l14 102h420l-14 -102h-420z" />
<glyph unicode="&#xaf;" horiz-adv-x="591" d="M217 1522l14 102h420l-14 -102h-420z" />
<glyph unicode="&#xb0;" horiz-adv-x="475" d="M188.5 1382.5q10.5 65.5 63.5 113.5t120.5 48t108.5 -48t31 -114q-8 -66 -62.5 -111.5t-121.5 -45.5q-70 0 -110 46t-29.5 111.5zM264 1382.5q-4 -34.5 16.5 -60.5t57.5 -26t65.5 26t32.5 60.5t-16.5 60t-57 25.5t-65.5 -25.5t-33 -60z" />
<glyph unicode="&#xb1;" horiz-adv-x="897" d="M59 283l121 854q43 301 389 301q162 0 244 -72.5t59 -226.5l-120 -858q-41 -301 -387 -301q-166 0 -247 72.5t-59 230.5zM215 262q-10 -74 36 -109.5t130 -35.5q80 0 140.5 35.5t70.5 107.5l125 895q10 72 -38 108.5t-132 36.5q-186 0 -207 -147zM358 1522l15 102h418 l-15 -102h-418z" />
<glyph unicode="&#xb2;" horiz-adv-x="1024" />
<glyph unicode="&#xb3;" horiz-adv-x="1024" />
<glyph unicode="&#xb4;" horiz-adv-x="477" d="M223 1493l187 276l131 -51l-213 -225h-105z" />
<glyph unicode="&#xb6;" horiz-adv-x="950" d="M117 549l84 590q20 150 92 214t199 64h432l4 -8l-232 -1651h-145l215 1522h-129l-139 -985h-215q-106 0 -144.5 62.5t-21.5 191.5z" />
<glyph unicode="&#xb7;" horiz-adv-x="573" d="M176 692l141 125l111 -129l-141 -125z" />
<glyph unicode="&#xb8;" horiz-adv-x="460" d="M43 -209l74 305h151l-125 -305h-100z" />
<glyph unicode="&#xb9;" horiz-adv-x="1024" />
<glyph unicode="&#xba;" horiz-adv-x="573" d="M90 713l12 82h430l-12 -82h-430zM152 1028l30 227q23 164 215 164q80 0 133 -36.5t43 -120.5l-32 -230q-12 -84 -73.5 -124t-141.5 -40q-90 0 -138.5 36t-35.5 124zM252 1020q-4 -31 17.5 -47.5t66.5 -16.5q90 0 100 74l33 238q4 31 -16.5 48t-67.5 17q-88 0 -98 -65z " />
<glyph unicode="&#xbb;" horiz-adv-x="731" d="M90 442l164 267l-88 264h125l92 -264l-168 -267h-125zM344 442l166 267l-90 264h125l94 -264l-170 -267h-125z" />
<glyph unicode="&#xbc;" horiz-adv-x="1024" />
<glyph unicode="&#xbd;" horiz-adv-x="1024" />
<glyph unicode="&#xbe;" horiz-adv-x="1024" />
<glyph unicode="&#xbf;" horiz-adv-x="770" d="M4 -27l57 404q27 188 203 188h96q25 0 35.5 10.5t12.5 36.5l38 273h142l-47 -332q-8 -57 -52.5 -96t-99.5 -39h-102q-61 0 -74 -64l-47 -338q-6 -49 14.5 -65.5t71.5 -16.5h348l-18 -133l-15 -12h-379q-209 0 -184 184zM449 1032l24 180h176l-24 -180h-176z" />
<glyph unicode="&#xc0;" d="M31 0l159 1143q43 295 388 295q160 0 240.5 -74t62.5 -219l-162 -1145h-160l51 371h-377l-51 -371h-151zM256 518h377l90 645q8 68 -44 101.5t-128 33.5q-78 0 -137.5 -34.5t-67.5 -102.5zM381 1718l145 49l107 -274h-105z" />
<glyph unicode="&#xc1;" d="M31 0l159 1143q43 295 388 295q160 0 240.5 -74t62.5 -219l-162 -1145h-160l51 371h-377l-51 -371h-151zM256 518h377l90 645q8 68 -44 101.5t-128 33.5q-78 0 -137.5 -34.5t-67.5 -102.5zM532 1495l187 277l131 -52l-211 -225h-107z" />
<glyph unicode="&#xc2;" d="M31 0l159 1143q43 295 388 295q160 0 240.5 -74t62.5 -219l-162 -1145h-160l51 371h-377l-51 -371h-151zM256 518h377l90 645q8 68 -44 101.5t-128 33.5q-78 0 -137.5 -34.5t-67.5 -102.5zM362 1495l193 240h131l123 -240h-129l-74 147l-114 -147h-130z" />
<glyph unicode="&#xc3;" d="M31 0l159 1143q43 295 388 295q160 0 240.5 -74t62.5 -219l-162 -1145h-160l51 371h-377l-51 -371h-151zM256 518h377l90 645q8 68 -44 101.5t-128 33.5q-78 0 -137.5 -34.5t-67.5 -102.5zM324 1511q49 156 174 156q37 0 106 -20q86 -23 119 -23q47 0 84 57l67 -16 q-47 -152 -167 -152q-35 0 -109 21q-78 20 -119 20q-57 0 -86 -57z" />
<glyph unicode="&#xc4;" d="M31 0l159 1143q43 295 388 295q160 0 240.5 -74t62.5 -219l-162 -1145h-160l51 371h-377l-51 -371h-151zM256 518h377l90 645q8 68 -44 101.5t-128 33.5q-78 0 -137.5 -34.5t-67.5 -102.5zM362 1511l21 148h154l-21 -148h-154zM659 1511l21 148h151l-20 -148h-152z" />
<glyph unicode="&#xc5;" d="M31 0l159 1143q43 295 388 295q160 0 240.5 -74t62.5 -219l-162 -1145h-160l51 371h-377l-51 -371h-151zM256 518h377l90 645q8 68 -44 101.5t-128 33.5q-78 0 -137.5 -34.5t-67.5 -102.5zM453 1624q8 57 57 97t112.5 40t101.5 -40t29.5 -97t-57.5 -98t-112.5 -41 t-102.5 41t-28 98zM530.5 1624q-4.5 -29 14 -49.5t49.5 -20.5q29 0 54.5 20.5t29.5 49.5t-15.5 48.5t-50 19.5t-54 -19.5t-28 -48.5z" />
<glyph unicode="&#xc6;" horiz-adv-x="1314" d="M31 0l155 1106q20 150 114.5 230.5t254.5 80.5h795l-21 -143h-452l-66 -479h367l-21 -146h-366l-72 -506h452l-20 -143h-612l51 371h-357l-51 -371h-151zM256 518h356l105 756h-197q-160 0 -178 -133z" />
<glyph unicode="&#xc7;" horiz-adv-x="761" d="M57 262l127 901q37 260 299 260h324l10 -12l-18 -131h-324q-68 0 -96.5 -35t-38.5 -106l-121 -860q-10 -72 11.5 -107t88.5 -35h318l-19 -131l-12 -12h-157l-82 -203h-103l49 203h-28q-137 0 -191.5 65.5t-36.5 202.5z" />
<glyph unicode="&#xc8;" horiz-adv-x="817" d="M41 0l199 1417h612l-21 -143h-452l-66 -479h367l-21 -144h-366l-72 -508h453l-21 -143h-612zM393 1718l146 49l106 -274h-104z" />
<glyph unicode="&#xc9;" horiz-adv-x="817" d="M41 0l199 1417h612l-21 -143h-452l-66 -479h367l-21 -144h-366l-72 -508h453l-21 -143h-612zM541 1495l186 277l131 -52l-211 -225h-106z" />
<glyph unicode="&#xca;" horiz-adv-x="817" d="M41 0l199 1417h612l-21 -143h-452l-66 -479h367l-21 -144h-366l-72 -508h453l-21 -143h-612zM354 1495l193 240h131l123 -240h-129l-74 147l-115 -147h-129z" />
<glyph unicode="&#xcb;" horiz-adv-x="817" d="M41 0l199 1417h612l-21 -143h-452l-66 -479h367l-21 -144h-366l-72 -508h453l-21 -143h-612zM350 1511l21 148h153l-22 -148h-152zM645 1511l21 148h153l-20 -148h-154z" />
<glyph unicode="&#xcc;" horiz-adv-x="405" d="M41 0l199 1417h159l-198 -1417h-160zM129 1718l145 49l107 -274h-105z" />
<glyph unicode="&#xcd;" horiz-adv-x="405" d="M41 0l199 1417h159l-198 -1417h-160zM285 1495l186 277l131 -52l-211 -225h-106z" />
<glyph unicode="&#xce;" horiz-adv-x="405" d="M41 0l199 1417h159l-198 -1417h-160zM109 1495l192 240h131l123 -240h-129l-74 147l-114 -147h-129z" />
<glyph unicode="&#xcf;" horiz-adv-x="405" d="M41 0l199 1417h159l-198 -1417h-160zM109 1511l20 148h154l-21 -148h-153zM406 1511l20 148h152l-21 -148h-151z" />
<glyph unicode="&#xd0;" horiz-adv-x="1024" />
<glyph unicode="&#xd1;" horiz-adv-x="942" d="M41 0l199 1417h196l203 -1028h10l144 1028h143l-199 -1417h-159l-224 1118h-14l-158 -1118h-141zM340 1511q49 156 174 156q37 0 107 -20q86 -23 118 -23q47 0 84 57l68 -16q-47 -152 -168 -152q-35 0 -109 21q-78 20 -118 20q-57 0 -86 -57z" />
<glyph unicode="&#xd2;" horiz-adv-x="897" d="M59 283l121 854q43 301 389 301q162 0 244 -72.5t59 -226.5l-120 -858q-41 -301 -387 -301q-166 0 -247 72.5t-59 230.5zM215 262q-10 -74 36 -109.5t130 -35.5q80 0 140.5 35.5t70.5 107.5l125 895q10 72 -38 108.5t-132 36.5q-186 0 -207 -147zM381 1718l145 49 l107 -274h-105z" />
<glyph unicode="&#xd3;" horiz-adv-x="897" d="M59 283l121 854q43 301 389 301q162 0 244 -72.5t59 -226.5l-120 -858q-41 -301 -387 -301q-166 0 -247 72.5t-59 230.5zM215 262q-10 -74 36 -109.5t130 -35.5q80 0 140.5 35.5t70.5 107.5l125 895q10 72 -38 108.5t-132 36.5q-186 0 -207 -147zM532 1495l187 277 l131 -52l-211 -225h-107z" />
<glyph unicode="&#xd4;" horiz-adv-x="897" d="M59 283l121 854q43 301 389 301q162 0 244 -72.5t59 -226.5l-120 -858q-41 -301 -387 -301q-166 0 -247 72.5t-59 230.5zM215 262q-10 -74 36 -109.5t130 -35.5q80 0 140.5 35.5t70.5 107.5l125 895q10 72 -38 108.5t-132 36.5q-186 0 -207 -147zM354 1495l193 240h131 l123 -240h-129l-74 147l-115 -147h-129z" />
<glyph unicode="&#xd5;" horiz-adv-x="897" d="M59 283l121 854q43 301 389 301q162 0 244 -72.5t59 -226.5l-120 -858q-41 -301 -387 -301q-166 0 -247 72.5t-59 230.5zM215 262q-10 -74 36 -109.5t130 -35.5q80 0 140.5 35.5t70.5 107.5l125 895q10 72 -38 108.5t-132 36.5q-186 0 -207 -147zM315 1511 q49 156 174 156q37 0 107 -20q86 -23 119 -23q47 0 84 57l67 -16q-47 -152 -168 -152q-35 0 -108 21q-78 20 -119 20q-57 0 -86 -57z" />
<glyph unicode="&#xd6;" horiz-adv-x="897" d="M59 283l121 854q43 301 389 301q162 0 244 -72.5t59 -226.5l-120 -858q-41 -301 -387 -301q-166 0 -247 72.5t-59 230.5zM215 262q-10 -74 36 -109.5t130 -35.5q80 0 140.5 35.5t70.5 107.5l125 895q10 72 -38 108.5t-132 36.5q-186 0 -207 -147zM354 1511l21 148h153 l-20 -148h-154zM651 1511l21 148h151l-20 -148h-152z" />
<glyph unicode="&#xd7;" horiz-adv-x="1024" />
<glyph unicode="&#xd8;" horiz-adv-x="897" d="M-57 -18l116 184q-10 49 0 117l121 854q43 301 389 301q178 0 254 -84l54 82h114l-119 -185q8 -49 0 -112l-120 -858q-41 -301 -387 -301q-180 0 -256 81l-52 -79h-114zM213 225q12 -109 168 -108q80 0 140.5 35.5t70.5 107.5l100 711zM242 446l477 744q-12 111 -172 110 q-186 0 -207 -147z" />
<glyph unicode="&#xd9;" horiz-adv-x="911" d="M72 293l157 1124h158l-158 -1120q-14 -100 39.5 -136t141.5 -36q74 0 129 43t67 129l158 1120h151l-157 -1130q-23 -152 -129.5 -229.5t-255.5 -77.5q-166 0 -244 78.5t-57 234.5zM397 1718l146 49l106 -274h-104z" />
<glyph unicode="&#xda;" horiz-adv-x="911" d="M72 293l157 1124h158l-158 -1120q-14 -100 39.5 -136t141.5 -36q74 0 129 43t67 129l158 1120h151l-157 -1130q-23 -152 -129.5 -229.5t-255.5 -77.5q-166 0 -244 78.5t-57 234.5zM532 1495l187 277l131 -52l-211 -225h-107z" />
<glyph unicode="&#xdb;" horiz-adv-x="911" d="M72 293l157 1124h158l-158 -1120q-14 -100 39.5 -136t141.5 -36q74 0 129 43t67 129l158 1120h151l-157 -1130q-23 -152 -129.5 -229.5t-255.5 -77.5q-166 0 -244 78.5t-57 234.5zM362 1495l193 240h131l123 -240h-129l-74 147l-114 -147h-130z" />
<glyph unicode="&#xdc;" horiz-adv-x="911" d="M72 293l157 1124h158l-158 -1120q-14 -100 39.5 -136t141.5 -36q74 0 129 43t67 129l158 1120h151l-157 -1130q-23 -152 -129.5 -229.5t-255.5 -77.5q-166 0 -244 78.5t-57 234.5zM362 1511l21 148h152l-21 -148h-152zM657 1511l21 148h153l-20 -148h-154z" />
<glyph unicode="&#xdd;" horiz-adv-x="1024" />
<glyph unicode="&#xde;" horiz-adv-x="1024" />
<glyph unicode="&#xdf;" horiz-adv-x="811" d="M4 6l19 131h409q78 0 84 74l53 369q6 43 -2 58t-43 15h-250q-86 0 -128 38t-31 114l59 418q27 201 240 200h401l4 -6l-18 -137h-379q-78 0 -90 -68l-49 -352q-8 -59 57 -59h278q59 0 94.5 -39t26.5 -94l-65 -467q-16 -111 -76.5 -159t-171.5 -48h-412zM350 1735h129 l74 -150l115 150h129l-195 -240h-129z" />
<glyph unicode="&#xe0;" d="M31 0l159 1143q43 295 388 295q160 0 240.5 -74t62.5 -219l-162 -1145h-160l51 371h-377l-51 -371h-151zM256 518h377l90 645q8 68 -44 101.5t-128 33.5q-78 0 -137.5 -34.5t-67.5 -102.5zM381 1718l145 49l107 -274h-105z" />
<glyph unicode="&#xe1;" d="M31 0l159 1143q43 295 388 295q160 0 240.5 -74t62.5 -219l-162 -1145h-160l51 371h-377l-51 -371h-151zM256 518h377l90 645q8 68 -44 101.5t-128 33.5q-78 0 -137.5 -34.5t-67.5 -102.5zM532 1495l187 277l131 -52l-211 -225h-107z" />
<glyph unicode="&#xe2;" d="M31 0l159 1143q43 295 388 295q160 0 240.5 -74t62.5 -219l-162 -1145h-160l51 371h-377l-51 -371h-151zM256 518h377l90 645q8 68 -44 101.5t-128 33.5q-78 0 -137.5 -34.5t-67.5 -102.5zM362 1495l193 240h131l123 -240h-129l-74 147l-114 -147h-130z" />
<glyph unicode="&#xe3;" d="M31 0l159 1143q43 295 388 295q160 0 240.5 -74t62.5 -219l-162 -1145h-160l51 371h-377l-51 -371h-151zM256 518h377l90 645q8 68 -44 101.5t-128 33.5q-78 0 -137.5 -34.5t-67.5 -102.5zM324 1511q49 156 174 156q37 0 106 -20q86 -23 119 -23q47 0 84 57l67 -16 q-47 -152 -167 -152q-35 0 -109 21q-78 20 -119 20q-57 0 -86 -57z" />
<glyph unicode="&#xe4;" d="M31 0l159 1143q43 295 388 295q160 0 240.5 -74t62.5 -219l-162 -1145h-160l51 371h-377l-51 -371h-151zM256 518h377l90 645q8 68 -44 101.5t-128 33.5q-78 0 -137.5 -34.5t-67.5 -102.5zM362 1511l21 148h154l-21 -148h-154zM659 1511l21 148h151l-20 -148h-152z" />
<glyph unicode="&#xe5;" d="M31 0l159 1143q43 295 388 295q160 0 240.5 -74t62.5 -219l-162 -1145h-160l51 371h-377l-51 -371h-151zM256 518h377l90 645q8 68 -44 101.5t-128 33.5q-78 0 -137.5 -34.5t-67.5 -102.5zM453 1624q8 57 57 97t112.5 40t101.5 -40t29.5 -97t-57.5 -98t-112.5 -41 t-102.5 41t-28 98zM530.5 1624q-4.5 -29 14 -49.5t49.5 -20.5q29 0 54.5 20.5t29.5 49.5t-15.5 48.5t-50 19.5t-54 -19.5t-28 -48.5z" />
<glyph unicode="&#xe6;" horiz-adv-x="1314" d="M31 0l155 1106q20 150 114.5 230.5t254.5 80.5h795l-21 -143h-452l-66 -479h367l-21 -146h-366l-72 -506h452l-20 -143h-612l51 371h-357l-51 -371h-151zM256 518h356l105 756h-197q-160 0 -178 -133z" />
<glyph unicode="&#xe7;" horiz-adv-x="761" d="M57 262l127 901q37 260 299 260h324l10 -12l-18 -131h-324q-68 0 -96.5 -35t-38.5 -106l-121 -860q-10 -72 11.5 -107t88.5 -35h318l-19 -131l-12 -12h-157l-82 -203h-103l49 203h-28q-137 0 -191.5 65.5t-36.5 202.5z" />
<glyph unicode="&#xe8;" horiz-adv-x="817" d="M57 262l127 901q37 260 299 260h361l10 -12l-18 -131h-363q-66 0 -94.5 -35t-38.5 -106l-49 -346h387l-19 -144h-387l-53 -370q-10 -72 10.5 -107t87.5 -35h357l-19 -131l-12 -12h-358q-137 0 -191.5 65.5t-36.5 202.5zM397 1718l146 49l106 -274h-104z" />
<glyph unicode="&#xe9;" horiz-adv-x="817" d="M57 262l127 901q37 260 299 260h361l10 -12l-18 -131h-363q-66 0 -94.5 -35t-38.5 -106l-49 -346h387l-19 -144h-387l-53 -370q-10 -72 10.5 -107t87.5 -35h357l-19 -131l-12 -12h-358q-137 0 -191.5 65.5t-36.5 202.5zM541 1495l186 277l131 -52l-211 -225h-106z" />
<glyph unicode="&#xea;" horiz-adv-x="817" d="M57 262l127 901q37 260 299 260h361l10 -12l-18 -131h-363q-66 0 -94.5 -35t-38.5 -106l-49 -346h387l-19 -144h-387l-53 -370q-10 -72 10.5 -107t87.5 -35h357l-19 -131l-12 -12h-358q-137 0 -191.5 65.5t-36.5 202.5zM362 1495l193 240h131l123 -240h-129l-74 147 l-114 -147h-130z" />
<glyph unicode="&#xeb;" horiz-adv-x="817" d="M57 262l127 901q37 260 299 260h361l10 -12l-18 -131h-363q-66 0 -94.5 -35t-38.5 -106l-49 -346h387l-19 -144h-387l-53 -370q-10 -72 10.5 -107t87.5 -35h357l-19 -131l-12 -12h-358q-137 0 -191.5 65.5t-36.5 202.5zM362 1511l21 148h154l-21 -148h-154zM659 1511 l21 148h151l-20 -148h-152z" />
<glyph unicode="&#xec;" horiz-adv-x="405" d="M41 0l199 1417h159l-198 -1417h-160zM129 1718l145 49l107 -274h-105z" />
<glyph unicode="&#xed;" horiz-adv-x="405" d="M41 0l199 1417h159l-198 -1417h-160zM285 1495l186 277l131 -52l-211 -225h-106z" />
<glyph unicode="&#xee;" horiz-adv-x="405" d="M41 0l199 1417h159l-198 -1417h-160zM109 1495l192 240h131l123 -240h-129l-74 147l-114 -147h-129z" />
<glyph unicode="&#xef;" horiz-adv-x="405" d="M41 0l199 1417h159l-198 -1417h-160zM109 1511l20 148h154l-21 -148h-153zM406 1511l20 148h152l-21 -148h-151z" />
<glyph unicode="&#xf0;" horiz-adv-x="1024" />
<glyph unicode="&#xf1;" horiz-adv-x="919" d="M31 0l159 1139q43 299 398 299q162 0 241 -71.5t56 -223.5l-160 -1143h-160l164 1159q8 68 -44 103.5t-128 35.5t-136.5 -35.5t-70.5 -105.5l-162 -1157h-157zM326 1511q53 156 174 156q35 0 108 -20q82 -23 117 -23q49 0 84 57l68 -16q-47 -152 -166 -152 q-37 0 -111 20.5t-119 20.5q-55 0 -86 -57z" />
<glyph unicode="&#xf2;" horiz-adv-x="897" d="M59 283l121 854q43 301 389 301q162 0 244 -72.5t59 -226.5l-120 -858q-41 -301 -387 -301q-166 0 -247 72.5t-59 230.5zM215 262q-10 -74 36 -109.5t130 -35.5q80 0 140.5 35.5t70.5 107.5l125 895q10 72 -38 108.5t-132 36.5q-186 0 -207 -147zM381 1718l145 49 l107 -274h-105z" />
<glyph unicode="&#xf3;" horiz-adv-x="897" d="M59 283l121 854q43 301 389 301q162 0 244 -72.5t59 -226.5l-120 -858q-41 -301 -387 -301q-166 0 -247 72.5t-59 230.5zM215 262q-10 -74 36 -109.5t130 -35.5q80 0 140.5 35.5t70.5 107.5l125 895q10 72 -38 108.5t-132 36.5q-186 0 -207 -147zM532 1495l187 277 l131 -52l-211 -225h-107z" />
<glyph unicode="&#xf4;" horiz-adv-x="897" d="M59 283l121 854q43 301 389 301q162 0 244 -72.5t59 -226.5l-120 -858q-41 -301 -387 -301q-166 0 -247 72.5t-59 230.5zM215 262q-10 -74 36 -109.5t130 -35.5q80 0 140.5 35.5t70.5 107.5l125 895q10 72 -38 108.5t-132 36.5q-186 0 -207 -147zM354 1495l193 240h131 l123 -240h-129l-74 147l-115 -147h-129z" />
<glyph unicode="&#xf5;" horiz-adv-x="897" d="M59 283l121 854q43 301 389 301q162 0 244 -72.5t59 -226.5l-120 -858q-41 -301 -387 -301q-166 0 -247 72.5t-59 230.5zM215 262q-10 -74 36 -109.5t130 -35.5q80 0 140.5 35.5t70.5 107.5l125 895q10 72 -38 108.5t-132 36.5q-186 0 -207 -147zM315 1511 q49 156 174 156q37 0 107 -20q86 -23 119 -23q47 0 84 57l67 -16q-47 -152 -168 -152q-35 0 -108 21q-78 20 -119 20q-57 0 -86 -57z" />
<glyph unicode="&#xf6;" horiz-adv-x="897" d="M59 283l121 854q43 301 389 301q162 0 244 -72.5t59 -226.5l-120 -858q-41 -301 -387 -301q-166 0 -247 72.5t-59 230.5zM215 262q-10 -74 36 -109.5t130 -35.5q80 0 140.5 35.5t70.5 107.5l125 895q10 72 -38 108.5t-132 36.5q-186 0 -207 -147zM354 1511l21 148h153 l-20 -148h-154zM651 1511l21 148h151l-20 -148h-152z" />
<glyph unicode="&#xf7;" horiz-adv-x="798" d="M121 618l16 111h565l-16 -111h-565zM299 393l20 148h148l-21 -148h-147zM358 809l21 147h147l-20 -147h-148z" />
<glyph unicode="&#xf8;" horiz-adv-x="897" d="M-57 -18l116 184q-10 49 0 117l121 854q43 301 389 301q178 0 254 -84l54 82h114l-119 -185q8 -49 0 -112l-120 -858q-41 -301 -387 -301q-180 0 -256 81l-52 -79h-114zM213 225q12 -109 168 -108q80 0 140.5 35.5t70.5 107.5l100 711zM242 446l477 744q-12 111 -172 110 q-186 0 -207 -147z" />
<glyph unicode="&#xf9;" horiz-adv-x="911" d="M72 293l157 1124h158l-158 -1120q-14 -100 39.5 -136t141.5 -36q74 0 129 43t67 129l158 1120h151l-157 -1130q-23 -152 -129.5 -229.5t-255.5 -77.5q-166 0 -244 78.5t-57 234.5zM397 1718l146 49l106 -274h-104z" />
<glyph unicode="&#xfa;" horiz-adv-x="911" d="M72 293l157 1124h158l-158 -1120q-14 -100 39.5 -136t141.5 -36q74 0 129 43t67 129l158 1120h151l-157 -1130q-23 -152 -129.5 -229.5t-255.5 -77.5q-166 0 -244 78.5t-57 234.5zM532 1495l187 277l131 -52l-211 -225h-107z" />
<glyph unicode="&#xfb;" horiz-adv-x="911" d="M72 293l157 1124h158l-158 -1120q-14 -100 39.5 -136t141.5 -36q74 0 129 43t67 129l158 1120h151l-157 -1130q-23 -152 -129.5 -229.5t-255.5 -77.5q-166 0 -244 78.5t-57 234.5zM362 1495l193 240h131l123 -240h-129l-74 147l-114 -147h-130z" />
<glyph unicode="&#xfc;" horiz-adv-x="911" d="M72 293l157 1124h158l-158 -1120q-14 -100 39.5 -136t141.5 -36q74 0 129 43t67 129l158 1120h151l-157 -1130q-23 -152 -129.5 -229.5t-255.5 -77.5q-166 0 -244 78.5t-57 234.5zM362 1511l21 148h152l-21 -148h-152zM657 1511l21 148h153l-20 -148h-154z" />
<glyph unicode="&#xfd;" horiz-adv-x="1024" />
<glyph unicode="&#xfe;" horiz-adv-x="1024" />
<glyph unicode="&#xff;" horiz-adv-x="917" d="M41 6l20 133h412q102 0 119 117l39 281q-57 -76 -154 -76h-198q-88 0 -134.5 44t-33.5 132l108 780h162l-102 -735q-12 -88 77 -88h201q80 0 94 86l103 737h161l-161 -1159q-37 -264 -301 -264h-400zM365 1511l20 148h154l-21 -148h-153zM662 1511l20 148h152l-21 -148 h-151z" />
<glyph unicode="&#x152;" horiz-adv-x="1302" d="M63 301l115 815q39 301 373 301h786l-20 -143h-453l-65 -479h366l-20 -146h-367l-71 -506h452l-20 -143h-787q-164 0 -237.5 71.5t-51.5 229.5zM219 276q-10 -70 35 -101.5t121 -31.5h172l158 1131h-173q-174 0 -192 -133z" />
<glyph unicode="&#x153;" horiz-adv-x="1302" d="M63 301l115 815q39 301 373 301h786l-20 -143h-453l-65 -479h366l-20 -146h-367l-71 -506h452l-20 -143h-787q-164 0 -237.5 71.5t-51.5 229.5zM219 276q-10 -70 35 -101.5t121 -31.5h172l158 1131h-173q-174 0 -192 -133z" />
<glyph unicode="&#x178;" horiz-adv-x="901" d="M113 657l106 760h160l-105 -745q-6 -43 11.5 -59.5t60.5 -16.5h229q18 0 30.5 3t20 6t12.5 14.5t6 14.5t3 19.5t2 18.5l105 745h161l-104 -753q-31 -203 -240 -203h-57l-65 -461h-160l65 461h-65q-203 0 -176 196zM356 1511l21 148h153l-20 -148h-154zM653 1511l21 148 h151l-20 -148h-152z" />
<glyph unicode="&#x2c6;" horiz-adv-x="552" d="M195 1495l194 240h129l123 -240h-129l-74 150l-114 -150h-129z" />
<glyph unicode="&#x2dc;" horiz-adv-x="647" d="M190 1511q49 156 175 156q37 0 106 -20q82 -23 119 -23q45 0 82 57l69 -16q-47 -152 -168 -152q-35 0 -108 21q-78 20 -119 20q-53 0 -86 -57z" />
<glyph unicode="&#x2000;" horiz-adv-x="886" />
<glyph unicode="&#x2001;" horiz-adv-x="1772" />
<glyph unicode="&#x2002;" horiz-adv-x="886" />
<glyph unicode="&#x2003;" horiz-adv-x="1772" />
<glyph unicode="&#x2004;" horiz-adv-x="590" />
<glyph unicode="&#x2005;" horiz-adv-x="443" />
<glyph unicode="&#x2006;" horiz-adv-x="295" />
<glyph unicode="&#x2007;" horiz-adv-x="295" />
<glyph unicode="&#x2008;" horiz-adv-x="221" />
<glyph unicode="&#x2009;" horiz-adv-x="354" />
<glyph unicode="&#x200a;" horiz-adv-x="98" />
<glyph unicode="&#x2010;" horiz-adv-x="532" d="M55 629l21 145h434l-21 -145h-434z" />
<glyph unicode="&#x2011;" horiz-adv-x="532" d="M55 629l21 145h434l-21 -145h-434z" />
<glyph unicode="&#x2012;" horiz-adv-x="532" d="M55 629l21 145h434l-21 -145h-434z" />
<glyph unicode="&#x2013;" horiz-adv-x="858" d="M74 651l16 113h729l-16 -113h-729z" />
<glyph unicode="&#x2014;" horiz-adv-x="1402" d="M74 651l16 113h1274l-14 -113h-1276z" />
<glyph unicode="&#x2018;" horiz-adv-x="403" d="M156 1042l141 375h121l-86 -375h-176z" />
<glyph unicode="&#x2019;" horiz-adv-x="403" d="M168 1042l86 375h176l-141 -375h-121z" />
<glyph unicode="&#x201a;" horiz-adv-x="403" d="M-6 -193l86 373h176l-141 -373h-121z" />
<glyph unicode="&#x201c;" horiz-adv-x="661" d="M156 1042l141 375h121l-86 -375h-176zM414 1042l141 375h121l-86 -375h-176z" />
<glyph unicode="&#x201d;" horiz-adv-x="661" d="M168 1042l86 375h176l-141 -375h-121zM426 1042l86 375h176l-141 -375h-121z" />
<glyph unicode="&#x201e;" horiz-adv-x="661" d="M-6 -193l86 373h176l-141 -373h-121zM252 -193l86 373h176l-141 -373h-121z" />
<glyph unicode="&#x2022;" horiz-adv-x="573" d="M201 600l26 180h176l-26 -180h-176z" />
<glyph unicode="&#x2026;" horiz-adv-x="1165" d="M43 0l25 180h176l-25 -180h-176zM412 0l24 180h176l-24 -180h-176zM782 0l25 180h176l-25 -180h-176z" />
<glyph unicode="&#x202f;" horiz-adv-x="354" />
<glyph unicode="&#x2039;" horiz-adv-x="475" d="M127 707l168 266h125l-164 -266l88 -267h-125z" />
<glyph unicode="&#x203a;" horiz-adv-x="475" d="M90 440l164 269l-88 264h125l92 -264l-168 -269h-125z" />
<glyph unicode="&#x205f;" horiz-adv-x="443" />
<glyph unicode="&#x20ac;" horiz-adv-x="823" d="M31 524l16 119h148l26 186h-147l16 119h148l30 215q37 260 299 260h301l11 -12l-19 -131h-301q-68 0 -96.5 -35t-38.5 -106l-27 -191h336l-41 -119h-311l-27 -186h283l-41 -119h-258l-35 -245q-10 -72 11.5 -107t88.5 -35h295l-18 -131l-12 -12h-299q-137 0 -191.5 65.5 t-36.5 202.5l37 262h-147z" />
<glyph unicode="&#x2122;" horiz-adv-x="761" d="M57 262l127 901q37 260 299 260h324l10 -12l-18 -131h-324q-68 0 -96.5 -35t-38.5 -106l-121 -860q-10 -72 11.5 -107t88.5 -35h318l-19 -131l-12 -12h-321q-137 0 -191.5 65.5t-36.5 202.5zM387 1735h129l74 -150l115 150h129l-197 -240h-129z" />
<glyph unicode="&#xe000;" horiz-adv-x="1413" d="M0 0v1413h1413v-1413h-1413z" />
<glyph unicode="&#xfb01;" horiz-adv-x="1208" d="M41 0l199 1417h612l-21 -143h-452l-68 -488h367l-21 -143h-366l-90 -643h-160zM844 0l198 1417h160l-198 -1417h-160z" />
<glyph unicode="&#xfb02;" horiz-adv-x="1556" d="M41 0l199 1417h612l-21 -143h-452l-68 -488h367l-21 -143h-366l-90 -643h-160zM844 0l198 1417h158l-178 -1274h453l-21 -143h-610z" />
</font>
</defs>
</svg>
