<?xml version="1.0" standalone="no"?>
<!DOCTYPE svg PUBLIC "-//W3C//DTD SVG 1.1//EN" "http://www.w3.org/Graphics/SVG/1.1/DTD/svg11.dtd" >
<svg xmlns="http://www.w3.org/2000/svg">
<metadata></metadata>
<defs>
<font id="morganbig_regularregular" horiz-adv-x="703" >
<font-face units-per-em="1000" ascent="800" descent="-200" />
<missing-glyph horiz-adv-x="280" />
<glyph unicode="FT" horiz-adv-x="1153" d="M1131 614h-224v-614h-94v614h-238v78h556v-78zM515 614h-350v-237h312v-77h-312v-300h-95v692h445v-78z" />
<glyph unicode="TT" horiz-adv-x="1193" d="M571 614h-223v-614h-94v614h-232v78h549v-78zM1171 614h-223v-614h-94v614h-232v78h549v-78z" />
<glyph unicode="ET" horiz-adv-x="1166" d="M1144 614h-224v-614h-94v614h-238v78h556v-78zM556 0h-486v692h458v-78h-363v-227h300v-74h-300v-235h391v-78z" />
<glyph unicode="CT" horiz-adv-x="1160" d="M558 4l-8 -8h-273q-215 0 -215 211v273q0 212 214 212h240l8 -8v-70h-230q-137 0 -137 -148v-244q0 -148 141 -148h260v-70zM1138 614h-224v-614h-94v614h-237v78h555v-78z" />
<glyph unicode="GT" horiz-adv-x="1228" d="M602 4l-8 -8h-317q-215 0 -215 211v277q0 212 214 212h307l8 -8v-70h-295q-140 0 -140 -148v-226q0 -79 26.5 -124t94.5 -45h238v254h87v-325zM1206 614h-224v-614h-94v614h-236v78h554v-78z" />
<glyph unicode="ST" horiz-adv-x="1164" d="M544 143q0 -73 -42 -110t-113 -37h-318l-7 8v69h308q77 0 77 83v77q0 42 -19.5 59t-58.5 17h-163q-74 0 -112 34.5t-38 96.5v110q0 60 38.5 101t120.5 41h291l8 -8v-69h-277q-86 0 -86 -78v-83q0 -18 6.5 -30.5t15.5 -18.5t23.5 -9.5t23.5 -4t23 -0.5h166 q64 0 98.5 -35.5t34.5 -93.5v-119zM1142 614h-235v-614h-94v614h-237v78h566v-78z" />
<glyph unicode=" "  horiz-adv-x="280" />
<glyph unicode="&#x09;" horiz-adv-x="280" />
<glyph unicode="&#xa0;" horiz-adv-x="280" />
<glyph unicode="!" horiz-adv-x="296" d="M198 692l-9 -512h-82l-8 512h99zM202 0h-108v107h108v-107z" />
<glyph unicode="&#x22;" horiz-adv-x="376" d="M305 692l-9 -206h-71l-8 206h88zM159 692l-9 -206h-71l-7 206h87z" />
<glyph unicode="#" horiz-adv-x="627" d="M611 534l-8 -74h-104l-26 -229h106l-8 -73h-106l-19 -170h-75l20 170h-200l-19 -170h-75l20 170h-100l9 73h99l27 230h-107l9 73h106l19 159h74l-18 -159h199l19 159h75l-19 -159h102zM426 461h-200l-26 -230h199z" />
<glyph unicode="$" horiz-adv-x="656" d="M594 135q0 -71 -42 -105.5t-113 -34.5h-68v-109h-72v109h-228l-7 8v71h360q25 0 41.5 6t23.5 16.5t9.5 19.5t2.5 21v109q0 41 -18 53t-61 12h-215q-66 0 -105.5 31.5t-39.5 90.5v123q0 59 38 99.5t120 40.5h79v96h72v-96h196l8 -8v-71h-354q-28 0 -47 -13t-19 -40v-122 q0 -13 2.5 -22.5t10 -15.5t12 -9.5t17 -5t16.5 -2t18.5 0t15.5 0.5h211q136 0 136 -122v-131z" />
<glyph unicode="%" horiz-adv-x="845" d="M347 446q0 -47 -29.5 -71t-69.5 -24h-100q-42 0 -71.5 23t-29.5 73v163q0 49 29.5 72.5t71.5 23.5h97q42 0 72 -23t30 -73v-164zM282 447v155q0 21 -11 33t-31 12h-83q-44 0 -44 -37v-155q0 -44 42 -44h79q48 0 48 36zM700 -9h-101q-42 0 -71.5 23t-29.5 72v164 q0 50 29.5 73t71.5 23h97q43 0 72.5 -23t29.5 -73v-165q0 -47 -29 -70.5t-69 -23.5zM732 242q0 44 -41 44h-83q-45 0 -45 -36v-156q0 -20 11.5 -32.5t31.5 -12.5h79q47 0 47 38v155zM162 0l443 691h76l-443 -691h-76z" />
<glyph unicode="&#x26;" horiz-adv-x="720" d="M694 314h-84v-310l-8 -8h-361q-171 0 -171 154v80q0 49 23 78.5t77 41.5v5q-50 14 -73.5 39.5t-23.5 86.5v67q0 71 42.5 109.5t118.5 38.5h316l8 -8v-68h-322q-72 0 -72 -76v-80q0 -45 29 -59t80 -14h421v-77zM525 70v244h-269q-48 0 -70 -18.5t-22 -59.5v-65 q0 -101 88 -101h273z" />
<glyph unicode="'" horiz-adv-x="231" d="M159 692l-9 -206h-71l-7 206h87z" />
<glyph unicode="(" horiz-adv-x="287" d="M268 -117h-27q-55 0 -93.5 38.5t-57.5 103.5t-27 129.5t-8 137.5v85q0 385 186 385h27v-53h-20q-104 0 -104 -301v-135q0 -57 4.5 -110t14.5 -108t32 -88t53 -33h20v-51z" />
<glyph unicode=")" horiz-adv-x="287" d="M232 292q0 -56 -4.5 -108.5t-17 -109t-32.5 -97.5t-54.5 -67.5t-78.5 -26.5h-27v51h21q31 0 53 33t32 88t14.5 108t4.5 110v135q0 57 -4.5 106t-15.5 95t-32.5 73t-51.5 27h-21v53h27q187 0 187 -385v-85z" />
<glyph unicode="*" horiz-adv-x="469" d="M422 616l-125 -75l83 -128l-57 -39l-88 135l-90 -135l-57 39l84 128l-125 75l34 59l120 -69v138h67v-138l119 69z" />
<glyph unicode="+" horiz-adv-x="598" d="M256 71v205h-208v86h208v212h86v-212h209v-86h-209v-205h-86z" />
<glyph unicode="," horiz-adv-x="266" d="M191 107l-57 -210h-72l22 210h107z" />
<glyph unicode="-" horiz-adv-x="402" d="M378 299h-354v78h354v-78z" />
<glyph unicode="." horiz-adv-x="266" d="M187 0h-108v107h108v-107z" />
<glyph unicode="/" horiz-adv-x="345" d="M348 699l-257 -709h-86l257 709h86z" />
<glyph unicode="0" horiz-adv-x="702" d="M640 205q0 -112 -56 -162.5t-166 -50.5h-134q-110 0 -166 50.5t-56 162.5v281q0 113 55.5 163.5t166.5 50.5h134q111 0 166.5 -50.5t55.5 -163.5v-281zM545 207v256q0 78 -30 118.5t-99 40.5h-118q-74 0 -107.5 -29.5t-33.5 -102.5v-262q0 -158 129 -158h118q69 0 105 32 t36 105z" />
<glyph unicode="1" horiz-adv-x="414" d="M282 0h-94v617h-130v75h224v-692z" />
<glyph unicode="2" horiz-adv-x="644" d="M596 0h-534v250q0 65 37 101.5t109 36.5h205q83 0 83 68v82q0 80 -84 80h-352v70l8 8h362q81 0 120 -42.5t39 -99.5v-114q0 -129 -148 -129h-196q-87 0 -87 -75v-159h438v-77z" />
<glyph unicode="3" horiz-adv-x="640" d="M590 150q0 -154 -171 -154h-367l-8 8v70h364q46 0 67 22.5t21 71.5v63q0 42 -20 61.5t-67 19.5h-268v76h261q47 0 70.5 15.5t23.5 61.5v74q0 35 -21 57t-61 22h-363v70l8 8h367q77 0 119 -38t42 -110v-70q0 -60 -23.5 -85.5t-73.5 -39.5v-5q55 -13 77.5 -42t22.5 -78v-78 z" />
<glyph unicode="4" d="M666 181h-141v-181h-87v181h-401v89l371 424h117v-442h141v-71zM438 252v366h-5l-324 -366h329z" />
<glyph unicode="5" horiz-adv-x="656" d="M598 130q0 -56 -39.5 -95t-121.5 -39h-373l-8 8v70h363q84 0 84 80v123q0 67 -83 67h-345v348h488v-77h-400v-194h285q74 0 112 -33.5t38 -95.5v-162z" />
<glyph unicode="6" horiz-adv-x="705" d="M640 190q0 -108 -49 -153t-156 -45h-166q-105 0 -156 49.5t-51 159.5v296q0 94 50 146.5t142 52.5h342l8 -8v-69h-321q-56 0 -91 -33.5t-35 -88.5v-114q12 25 44.5 40.5t68.5 15.5h205q76 0 120.5 -38.5t44.5 -112.5v-98zM545 191v71q0 48 -24 75.5t-70 27.5h-191 q-47 0 -75 -25t-28 -65v-75q0 -71 34.5 -101.5t104.5 -30.5h104q73 0 109 26.5t36 96.5z" />
<glyph unicode="7" horiz-adv-x="624" d="M578 615l-393 -615h-103l396 616h-427v76h527v-77z" />
<glyph unicode="8" horiz-adv-x="708" d="M643 141q0 -56 -28.5 -91t-67 -46.5t-89.5 -11.5h-215q-178 0 -178 149v79q0 47 31.5 85.5t82.5 45.5v6q-59 14 -85 44t-26 91v48q0 79 49 119.5t130 40.5h206q84 0 133.5 -36t49.5 -113v-59q0 -59 -28 -89.5t-88 -45.5v-6q53 -7 88 -46t35 -85v-79zM545 471v47 q0 53 -31 81t-81 28h-155q-53 0 -85.5 -23.5t-32.5 -74.5v-47q0 -40 31.5 -68.5t80.5 -28.5h148q52 0 88.5 22.5t36.5 63.5zM548 154v63q0 50 -30.5 74t-82.5 24h-156q-119 0 -119 -87v-63q0 -52 31 -76.5t82 -24.5h149q126 0 126 90z" />
<glyph unicode="9" horiz-adv-x="705" d="M643 195q0 -94 -50 -146.5t-142 -52.5h-342l-8 8v69h340q54 0 80.5 35.5t26.5 94.5v106q-28 -56 -114 -56h-206q-69 0 -116 46t-47 118v83q0 108 49 154t156 46h166q105 0 156 -49.5t51 -159.5v-296zM548 417v75q0 71 -34.5 101.5t-104.5 30.5h-104q-75 0 -110 -22.5 t-35 -91.5v-88q0 -95 94 -95h191q47 0 75 25t28 65z" />
<glyph unicode=":" horiz-adv-x="266" d="M187 324h-108v107h108v-107zM187 0h-108v107h108v-107z" />
<glyph unicode=";" horiz-adv-x="266" d="M187 324h-108v107h108v-107zM191 107l-57 -210h-72l22 210h107z" />
<glyph unicode="&#x3c;" horiz-adv-x="598" d="M472 100l-384 185v68l385 187l38 -72l-307 -149l304 -145z" />
<glyph unicode="=" horiz-adv-x="598" d="M42 184v84h514v-84h-514zM42 369v84h514v-84h-514z" />
<glyph unicode="&#x3e;" horiz-adv-x="591" d="M126 100l-35 74l303 145l-306 149l37 72l386 -187v-68z" />
<glyph unicode="?" horiz-adv-x="600" d="M538 446q0 -64 -31 -96t-104 -32h-73q-47 0 -47 -44v-94h-85v102q0 108 103 108h74q21 0 34.5 3.5t25 19t11.5 44.5v89q0 34 -18 54t-67 20h-302v68l9 8h311q83 0 121 -34.5t38 -88.5v-127zM294 0h-107v107h107v-107z" />
<glyph unicode="@" horiz-adv-x="962" d="M447 -163q-210 0 -306.5 94t-96.5 304q0 274 116 391t370 117q179 0 283.5 -80t104.5 -249q0 -185 -77 -284.5t-234 -99.5h-210q-132 0 -132 100q0 14 1 20l29 267q8 59 41.5 96t94.5 37h245l-49 -454q66 -1 112.5 24.5t71 72t35 98.5t10.5 115q0 147 -89.5 215 t-243.5 68q-222 0 -319 -110t-97 -347q0 -191 89 -265t287 -74q103 0 237 23l-3 -49q-117 -30 -270 -30zM390 99h162l38 383h-146q-37 0 -50.5 -12t-16.5 -37l-32 -279q0 -2 -0.5 -6t-0.5 -6q0 -20 13 -31.5t33 -11.5z" />
<glyph unicode="A" d="M633 0h-95v181h-378v-181h-90v483q0 78 41 129.5t101.5 71.5t138.5 20q56 0 105 -12t89.5 -36.5t64 -67.5t23.5 -100v-488zM538 260v229q0 70 -55.5 102.5t-135.5 32.5q-52 0 -92 -12t-67.5 -44.5t-27.5 -81.5v-226h378z" />
<glyph unicode="B" horiz-adv-x="700" d="M638 150q0 -85 -46 -117.5t-125 -32.5h-397v692h405q77 0 119 -36.5t42 -107.5v-70q0 -60 -24 -85.5t-74 -39.5v-5q55 -13 77.5 -42t22.5 -78v-78zM544 460v86q0 34 -23 53t-64 19h-292v-231h279q49 0 74.5 13.5t25.5 59.5zM544 161v75q0 41 -22.5 59.5t-70.5 18.5h-286 v-240h285q48 0 71 19.5t23 67.5z" />
<glyph unicode="C" horiz-adv-x="606" d="M558 4l-8 -8h-273q-215 0 -215 211v277q0 212 214 212h274l8 -8v-70h-264q-137 0 -137 -148v-248q0 -148 141 -148h260v-70z" />
<glyph unicode="D" horiz-adv-x="700" d="M638 213q0 -112 -56 -162.5t-166 -50.5h-346v692h346q111 0 166.5 -50.5t55.5 -163.5v-265zM543 215v263q0 73 -34.5 105t-107.5 32h-236v-538h242q69 0 102.5 32.5t33.5 105.5z" />
<glyph unicode="E" horiz-adv-x="632" d="M584 0h-514v692h514v-78h-419v-227h328v-74h-328v-235h419v-78z" />
<glyph unicode="F" horiz-adv-x="628" d="M584 614h-419v-237h328v-77h-328v-300h-95v692h514v-78z" />
<glyph unicode="G" horiz-adv-x="670" d="M602 4l-8 -8h-317q-215 0 -215 211v277q0 212 214 212h318l8 -8v-70h-306q-140 0 -140 -148v-226q0 -79 26.5 -124t94.5 -45h238v254h87v-325z" />
<glyph unicode="H" horiz-adv-x="708" d="M638 0h-95v309h-378v-309h-95v692h95v-301h378v301h95v-692z" />
<glyph unicode="I" horiz-adv-x="235" d="M165 0h-95v692h95v-692z" />
<glyph unicode="J" horiz-adv-x="528" d="M458 189q0 -106 -48.5 -149.5t-148.5 -43.5h-217l-4 4v77h207q61 0 89 28.5t28 91.5v495h94v-503z" />
<glyph unicode="K" horiz-adv-x="706" d="M638 0h-95v226q0 83 -105 83h-273v-309h-95v692h95v-304h180l193 304h100l-198 -308h20h26l11 -1q75 -3 108 -41t33 -90v-252z" />
<glyph unicode="L" horiz-adv-x="628" d="M584 0h-514v692h95v-614h419v-78z" />
<glyph unicode="M" horiz-adv-x="870" d="M800 0h-90v580l-233 -580h-71l-253 585v-585h-83v692h134l241 -555l220 555h135v-692z" />
<glyph unicode="N" horiz-adv-x="708" d="M638 0h-93l-394 579v-579h-81v692h107l379 -556v556h82v-692z" />
<glyph unicode="O" horiz-adv-x="692" d="M630 206q0 -59 -24.5 -102.5t-66 -68t-90 -36t-103.5 -11.5q-57 0 -105.5 11.5t-89.5 35.5t-65 68t-24 103v277q0 79 42.5 130.5t103.5 71t138 19.5q75 0 136.5 -19.5t104.5 -70.5t43 -127v-281zM535 204v285q0 71 -56.5 103t-134.5 32q-37 0 -68 -7t-59 -22t-44 -43 t-16 -66v-280q0 -38 16 -66t44 -43t59 -22t68 -7q78 0 134.5 32.5t56.5 103.5z" />
<glyph unicode="P" horiz-adv-x="697" d="M638 384q0 -158 -178 -158h-295v-226h-95v692h392q176 0 176 -160v-148zM543 392v135q0 49 -22.5 68.5t-70.5 19.5h-285v-312h285q48 0 70.5 20t22.5 69z" />
<glyph unicode="Q" horiz-adv-x="692" d="M630 207q0 -101 -68.5 -154.5t-171.5 -62.5v-139h-88v139q-105 9 -172.5 62.5t-67.5 156.5v272q0 59 24 104t65 70t90 37t105 12q75 0 136.5 -20t104.5 -71.5t43 -128.5v-277zM535 204v285q0 71 -56.5 103t-134.5 32q-37 0 -68 -7t-59 -22t-44 -43t-16 -66v-280 q0 -38 16 -66t44 -43t59 -22t68 -7q78 0 134.5 32.5t56.5 103.5z" />
<glyph unicode="R" horiz-adv-x="704" d="M658 0h-117l-225 228h-151v-228h-95v692h395q173 0 173 -153v-145q0 -154 -169 -158q-1 -1 -47 -1zM543 399v128q0 48 -21.5 68t-69.5 20h-287v-312h285q93 0 93 96z" />
<glyph unicode="S" horiz-adv-x="655" d="M596 143q0 -73 -42 -110t-113 -37h-370l-7 8v69h360q77 0 77 83v77q0 42 -19.5 59t-58.5 17h-215q-74 0 -112 34.5t-38 96.5v114q0 60 38.5 101t120.5 41h346l8 -8v-69h-332q-86 0 -86 -78v-87q0 -18 6.5 -30.5t15.5 -18.5t23.5 -9.5t23.5 -4t23 -0.5h218 q64 0 98.5 -35.5t34.5 -93.5v-119z" />
<glyph unicode="T" horiz-adv-x="646" d="M624 614h-254v-614h-94v614h-254v78h602v-78z" />
<glyph unicode="U" d="M633 205q0 -58 -23 -101t-63.5 -67.5t-89 -36.5t-105.5 -12q-78 0 -139 20.5t-102 71.5t-41 128v484h95v-460q0 -76 52 -119.5t137 -43.5q79 0 134 36t55 112v475h90v-487z" />
<glyph unicode="V" horiz-adv-x="680" d="M621 449q0 -135 -52 -206l-183 -248h-93l-177 236q-33 44 -45 92.5t-12 128.5v240h96v-264q0 -50 9 -84.5t35 -68.5l142 -191h4l140 190q45 62 45 169v249h91v-243z" />
<glyph unicode="W" horiz-adv-x="1090" d="M70 692h95v-489q0 -134 167 -134q165 0 165 137v486h96v-489q0 -134 167 -134q165 0 165 137v486h95v-484q0 -115 -71.5 -167.5t-190.5 -52.5q-147 0 -213 76q-66 -76 -215 -76q-117 0 -188.5 52.5t-71.5 164.5v487z" />
<glyph unicode="X" horiz-adv-x="689" d="M628 0h-95v190q0 33 -11.5 56t-28.5 35t-44.5 19t-49.5 8.5t-55 1.5q-39 0 -66 -3.5t-58 -14t-47.5 -35.5t-16.5 -63v-194h-95v198q0 58 35.5 96t94.5 55v5q-51 9 -89 49t-38 94v195h92v-165q0 -70 52.5 -104t124.5 -34q37 0 69 6t63 19.5t49.5 41t18.5 65.5v171h92v-191 q0 -56 -36.5 -96t-91.5 -51v-5q53 -14 92 -52t39 -89v-208z" />
<glyph unicode="Y" horiz-adv-x="704" d="M636 434q0 -86 -47 -130.5t-130 -44.5h-59v-259h-95v259h-60q-84 0 -130.5 44.5t-46.5 130.5v258h95v-243q0 -59 28 -85t86 -26h150q58 0 86 26t28 85v243h95v-258z" />
<glyph unicode="Z" horiz-adv-x="630" d="M582 0h-528v62l411 552h-410v78h526v-65l-412 -549h413v-78z" />
<glyph unicode="[" horiz-adv-x="312" d="M275 -118h-216v880h216v-60h-128v-760h128v-60z" />
<glyph unicode="\" horiz-adv-x="345" d="M348 -10h-85l-257 709h85z" />
<glyph unicode="]" horiz-adv-x="312" d="M253 -118h-216v60h128v760h-128v60h216v-880z" />
<glyph unicode="^" horiz-adv-x="548" d="M128 133l-74 36l185 384h68l187 -386l-72 -37l-149 306z" />
<glyph unicode="_" horiz-adv-x="500" d="M500 -125h-500v64h500v-64z" />
<glyph unicode="`" horiz-adv-x="331" d="M187 745l-111 145l85 26l94 -171h-68z" />
<glyph unicode="a" d="M633 0h-95v181h-378v-181h-90v483q0 78 41 129.5t101.5 71.5t138.5 20q56 0 105 -12t89.5 -36.5t64 -67.5t23.5 -100v-488zM538 260v229q0 70 -55.5 102.5t-135.5 32.5q-52 0 -92 -12t-67.5 -44.5t-27.5 -81.5v-226h378z" />
<glyph unicode="b" horiz-adv-x="700" d="M638 150q0 -85 -46 -117.5t-125 -32.5h-397v692h405q77 0 119 -36.5t42 -107.5v-70q0 -60 -24 -85.5t-74 -39.5v-5q55 -13 77.5 -42t22.5 -78v-78zM544 460v86q0 34 -23 53t-64 19h-292v-231h279q49 0 74.5 13.5t25.5 59.5zM544 161v75q0 41 -22.5 59.5t-70.5 18.5h-286 v-240h285q48 0 71 19.5t23 67.5z" />
<glyph unicode="c" horiz-adv-x="606" d="M558 4l-8 -8h-273q-215 0 -215 211v277q0 212 214 212h274l8 -8v-70h-264q-137 0 -137 -148v-248q0 -148 141 -148h260v-70z" />
<glyph unicode="d" horiz-adv-x="700" d="M638 213q0 -112 -56 -162.5t-166 -50.5h-346v692h346q111 0 166.5 -50.5t55.5 -163.5v-265zM543 215v263q0 73 -34.5 105t-107.5 32h-236v-538h242q69 0 102.5 32.5t33.5 105.5z" />
<glyph unicode="e" horiz-adv-x="632" d="M584 4l-8 -8h-299q-215 0 -215 211v277q0 212 214 212h300l8 -8v-70h-290q-137 0 -137 -148v-83h335v-74h-335v-91q0 -147 142 -147h285v-71z" />
<glyph unicode="f" horiz-adv-x="632" d="M588 618h-286q-138 0 -138 -148v-93h334v-77h-334v-300h-94v484q0 212 213 212h297l8 -8v-70z" />
<glyph unicode="g" horiz-adv-x="670" d="M602 4l-8 -8h-317q-215 0 -215 211v277q0 212 214 212h318l8 -8v-70h-306q-140 0 -140 -148v-226q0 -79 26.5 -124t94.5 -45h238v254h87v-325z" />
<glyph unicode="h" horiz-adv-x="708" d="M638 0h-95v309h-378v-309h-95v692h95v-301h378v301h95v-692z" />
<glyph unicode="i" horiz-adv-x="235" d="M165 0h-95v692h95v-692z" />
<glyph unicode="j" horiz-adv-x="528" d="M458 189q0 -106 -48.5 -149.5t-148.5 -43.5h-217l-4 4v77h207q61 0 89 28.5t28 91.5v495h94v-503z" />
<glyph unicode="k" horiz-adv-x="706" d="M638 0h-95v225q0 47 -34 65.5t-96 18.5h-248v-309h-95v692h95v-301h251q127 0 127 133v168h92v-192q0 -59 -23.5 -93t-79.5 -50v-5q106 -21 106 -115v-237z" />
<glyph unicode="l" horiz-adv-x="628" d="M584 0h-514v692h95v-614h419v-78z" />
<glyph unicode="m" horiz-adv-x="1090" d="M1020 0h-95v489q0 134 -167 134q-165 0 -165 -137v-486h-96v489q0 134 -167 134q-165 0 -165 -137v-486h-95v484q0 115 71.5 167.5t190.5 52.5q147 0 213 -76q66 76 215 76q117 0 188.5 -52.5t71.5 -164.5v-487z" />
<glyph unicode="n" horiz-adv-x="708" d="M638 0h-95v489q0 69 -55 101.5t-136 32.5q-82 0 -134.5 -32.5t-52.5 -104.5v-486h-95v484q0 59 23.5 103t64.5 68.5t90 36.5t106 12q76 0 137.5 -20t104 -70.5t42.5 -126.5v-487z" />
<glyph unicode="o" horiz-adv-x="692" d="M630 206q0 -59 -24.5 -102.5t-66 -68t-90 -36t-103.5 -11.5q-57 0 -105.5 11.5t-89.5 35.5t-65 68t-24 103v277q0 79 42.5 130.5t103.5 71t138 19.5q75 0 136.5 -19.5t104.5 -70.5t43 -127v-281zM535 204v285q0 71 -56.5 103t-134.5 32q-37 0 -68 -7t-59 -22t-44 -43 t-16 -66v-280q0 -38 16 -66t44 -43t59 -22t68 -7q78 0 134.5 32.5t56.5 103.5z" />
<glyph unicode="p" horiz-adv-x="697" d="M638 384q0 -158 -178 -158h-295v-226h-95v692h392q176 0 176 -160v-148zM543 392v135q0 49 -22.5 68.5t-70.5 19.5h-285v-312h285q48 0 70.5 20t22.5 69z" />
<glyph unicode="q" horiz-adv-x="692" d="M630 207q0 -101 -68.5 -154.5t-171.5 -62.5v-139h-88v139q-105 9 -172.5 62.5t-67.5 156.5v272q0 59 24 104t65 70t90 37t105 12q75 0 136.5 -20t104.5 -71.5t43 -128.5v-277zM535 204v285q0 71 -56.5 103t-134.5 32q-37 0 -68 -7t-59 -22t-44 -43t-16 -66v-280 q0 -38 16 -66t44 -43t59 -22t68 -7q78 0 134.5 32.5t56.5 103.5z" />
<glyph unicode="r" horiz-adv-x="704" d="M638 0h-95v151q0 40 -31.5 58.5t-75.5 18.5h-271v-228h-95v692h395q173 0 173 -153v-130q0 -121 -100 -137v-6q100 -21 100 -114v-152zM543 402v125q0 48 -21.5 68t-69.5 20h-287v-312h270q44 0 76 24.5t32 74.5z" />
<glyph unicode="s" horiz-adv-x="655" d="M596 143q0 -73 -42 -110t-113 -37h-370l-7 8v69h360q77 0 77 83v77q0 42 -19.5 59t-58.5 17h-215q-74 0 -112 34.5t-38 96.5v114q0 60 38.5 101t120.5 41h346l8 -8v-69h-332q-86 0 -86 -78v-87q0 -18 6.5 -30.5t15.5 -18.5t23.5 -9.5t23.5 -4t23 -0.5h218 q64 0 98.5 -35.5t34.5 -93.5v-119z" />
<glyph unicode="t" d="M633 205q0 -58 -23 -101t-63.5 -67.5t-89 -36.5t-105.5 -12q-78 0 -139 20.5t-102 71.5t-41 128v484h95v-152h468v-78h-468v-241q0 -74 50.5 -113t128.5 -39q82 0 140.5 34t58.5 108v128h90v-134z" />
<glyph unicode="u" d="M633 205q0 -58 -23 -101t-63.5 -67.5t-89 -36.5t-105.5 -12q-78 0 -139 20.5t-102 71.5t-41 128v484h95v-460q0 -76 52 -119.5t137 -43.5q79 0 134 36t55 112v475h90v-487z" />
<glyph unicode="v" horiz-adv-x="680" d="M621 449q0 -135 -52 -206l-183 -248h-93l-177 236q-33 44 -45 92.5t-12 128.5v240h96v-264q0 -50 9 -84.5t35 -68.5l142 -191h4l140 190q45 62 45 169v249h91v-243z" />
<glyph unicode="w" horiz-adv-x="1090" d="M70 692h95v-489q0 -134 167 -134q165 0 165 137v486h96v-489q0 -134 167 -134q165 0 165 137v486h95v-484q0 -115 -71.5 -167.5t-190.5 -52.5q-147 0 -213 76q-66 -76 -215 -76q-117 0 -188.5 52.5t-71.5 164.5v487z" />
<glyph unicode="x" horiz-adv-x="689" d="M628 0h-95v190q0 33 -11.5 56t-28.5 35t-44.5 19t-49.5 8.5t-55 1.5q-39 0 -66 -3.5t-58 -14t-47.5 -35.5t-16.5 -63v-194h-95v198q0 58 35.5 96t94.5 55v5q-51 9 -89 49t-38 94v195h92v-165q0 -70 52.5 -104t124.5 -34q37 0 69 6t63 19.5t49.5 41t18.5 65.5v171h92v-191 q0 -56 -36.5 -96t-91.5 -51v-5q53 -14 92 -52t39 -89v-208z" />
<glyph unicode="y" horiz-adv-x="706" d="M636 185q0 -93 -49.5 -141t-143.5 -48h-345l-9 8v70h344q107 0 107 118v111q-17 -33 -42.5 -41.5t-69.5 -8.5h-188q-78 0 -125 46t-47 122v271h95v-259q0 -47 26.5 -74t72.5 -27h179q46 0 72.5 27.5t26.5 67.5v265h96v-507z" />
<glyph unicode="z" horiz-adv-x="630" d="M582 0h-528v62l411 552h-410v78h526v-65l-412 -549h413v-78z" />
<glyph unicode="{" horiz-adv-x="312" d="M275 -118h-216v430l-47 57l47 60v332h216v-60h-128v-283l-38 -43l38 -40v-393h128v-60z" />
<glyph unicode="|" horiz-adv-x="344" d="M214 -10h-84v710h84v-710z" />
<glyph unicode="}" horiz-adv-x="312" d="M300 369l-47 -57v-430h-216v60h128v393l38 40l-38 43v283h-128v60h216v-332z" />
<glyph unicode="~" horiz-adv-x="585" d="M106 237l-63 12q12 54 45.5 87t88.5 33q33 0 118 -18.5t120 -18.5q42 0 66 48l62 -15q-24 -116 -128 -116q-33 0 -119.5 18t-121.5 18q-28 0 -43 -11t-25 -37z" />
<glyph unicode="&#xa1;" horiz-adv-x="296" d="M202 586h-108v108h108v-108zM197 2h-99l9 512h82z" />
<glyph unicode="&#xa2;" horiz-adv-x="616" d="M550 4l-8 -8h-149v-100h-68v100h-55q-212 0 -212 209v143q0 210 212 210h55v96h68v-96h149l8 -8v-67h-262q-137 0 -137 -148v-118q0 -147 137 -147h262v-66z" />
<glyph unicode="&#xa3;" horiz-adv-x="645" d="M608 0h-546v71h133v248h-136v72h136v131q0 174 184 174h166l4 -4v-72h-149q-63 0 -86.5 -22t-23.5 -80v-127h251l-15 -72h-236v-248h318v-71z" />
<glyph unicode="&#xa5;" horiz-adv-x="704" d="M636 454q0 -86 -47 -130t-130 -44h-59v-69h234v-73h-234v-138h-95v138h-235v73h235v69h-60q-83 0 -130 44.5t-47 129.5v238h95v-227q0 -59 27.5 -84t86.5 -25h150q59 0 86.5 25t27.5 84v227h95v-238z" />
<glyph unicode="&#xa6;" horiz-adv-x="500" d="M293 379h-86v321h86v-321zM293 -10h-86v331h86v-331z" />
<glyph unicode="&#xa7;" horiz-adv-x="658" d="M583 14q0 -61 -36.5 -96.5t-98.5 -35.5h-358l-8 7v66h344q71 0 71 76v82h-294q-59 0 -93.5 31.5t-34.5 89.5v332q0 57 38.5 91.5t96.5 34.5h359l6 -8v-66h-322q-37 0 -63 -17.5t-26 -51.5v-89h296q57 0 90 -33.5t33 -91.5v-321zM497 186v138q0 63 -82 63h-251v-137 q0 -64 81 -64h252z" />
<glyph unicode="&#xa8;" horiz-adv-x="433" d="M69 754v88h88v-88h-88zM276 754v88h88v-88h-88z" />
<glyph unicode="&#xa9;" horiz-adv-x="851" d="M307 -62q-125 0 -192.5 53.5t-67.5 181.5v354q0 121 67 172.5t186 51.5h251q119 0 186 -50.5t67 -170.5v-357q0 -128 -68 -181.5t-192 -53.5h-237zM305 15h242q96 0 137.5 36.5t41.5 127.5v343q0 83 -41 119t-130 36h-264q-84 0 -125 -35t-41 -118v-347q0 -90 42.5 -126 t137.5 -36zM384 104q-76 0 -116.5 41.5t-40.5 118.5v168q0 76 40 118.5t116 42.5h197l10 -7v-69h-194q-47 0 -66.5 -24.5t-19.5 -74.5v-139q0 -50 20.5 -75.5t67.5 -25.5h192v-66l-9 -8h-197z" />
<glyph unicode="&#xaa;" horiz-adv-x="389" d="M334 354h-63v78h-150v-78h-59v226q0 58 37.5 84.5t97.5 26.5q59 0 98 -26.5t39 -82.5v-228zM271 483v98q0 58 -76 58q-74 0 -74 -59v-97h150zM327 228h-256v58h256v-58z" />
<glyph unicode="&#xab;" horiz-adv-x="491" d="M450 98h-88l-103 217l103 216h88l-101 -216zM234 98h-87l-106 217l106 216h87l-100 -216z" />
<glyph unicode="&#xae;" horiz-adv-x="850" d="M306 -62q-126 0 -193.5 53.5t-67.5 182.5v352q0 225 255 225h251q119 0 186 -50.5t67 -171.5v-355q0 -128 -68 -182t-192 -54h-238zM305 14h242q96 0 137.5 36.5t41.5 127.5v344q0 84 -41 119.5t-130 35.5h-264q-85 0 -126 -34.5t-41 -118.5v-347q0 -90 43 -126.5 t138 -36.5zM234 93v510h275q125 0 125 -115v-87q0 -76 -58 -95v-3q58 -18 58 -84v-126h-85v126q0 46 -57 46h-172v-172h-86zM320 336h174q55 0 55 56v88q0 27 -12 38.5t-40 11.5h-177v-194z" />
<glyph unicode="&#xaf;" horiz-adv-x="432" d="M67 756v69h298v-69h-298z" />
<glyph unicode="&#xb0;" horiz-adv-x="311" d="M248 593q-16 -38 -52 -55t-74 -3q-38 15 -55 50t-3 72q15 38 51.5 56.5t74.5 3.5q38 -14 54.5 -50.5t3.5 -73.5zM207 612q7 21 -5 40.5t-34 24.5t-40 -6t-24 -33q-6 -20 6 -40t34 -25q22 -4 40 7t23 32z" />
<glyph unicode="&#xb4;" horiz-adv-x="331" d="M76 745l94 171l85 -26l-111 -145h-68z" />
<glyph unicode="&#xb6;" horiz-adv-x="660" d="M574 -118h-82v745h-102v-538h-202q-69 0 -96.5 35t-27.5 102v331q0 73 42.5 104t129.5 31h334l4 -4v-806z" />
<glyph unicode="&#xb7;" horiz-adv-x="267" d="M188 286h-109v108h109v-108z" />
<glyph unicode="&#xb8;" horiz-adv-x="259" d="M198 33l-53 -174h-65l21 174h97z" />
<glyph unicode="&#xba;" horiz-adv-x="399" d="M327 228h-256v58h256v-58zM340 471q0 -60 -42.5 -92t-102.5 -32q-59 0 -102.5 31t-43.5 90v101q0 60 43 91.5t102 31.5q60 0 103 -30.5t43 -89.5v-101zM279 469v101q0 31 -25 49.5t-60 18.5q-36 0 -59.5 -18t-23.5 -50v-101q0 -31 25 -49.5t60 -18.5q36 0 59.5 18 t23.5 50z" />
<glyph unicode="&#xbb;" horiz-adv-x="491" d="M450 315l-106 -217h-87l100 217l-100 216h87zM232 315l-103 -217h-88l101 217l-101 216h88z" />
<glyph unicode="&#xbf;" horiz-adv-x="600" d="M416 587h-108v107h108v-107zM543 6l-8 -8h-312q-83 0 -120.5 34.5t-37.5 88.5v128q0 64 31 96t103 32h78q18 0 28 7.5t12.5 16.5t2.5 23v90h84v-102q0 -107 -102 -107h-68q-17 0 -27.5 -1.5t-23.5 -7.5t-19.5 -20t-6.5 -36v-96q0 -31 23 -50t73 -19h290v-69z" />
<glyph unicode="&#xc0;" d="M633 0h-95v181h-378v-181h-90v483q0 78 41 129.5t101.5 71.5t138.5 20q56 0 105 -12t89.5 -36.5t64 -67.5t23.5 -100v-488zM538 260v229q0 70 -55.5 102.5t-135.5 32.5q-52 0 -92 -12t-67.5 -44.5t-27.5 -81.5v-226h378zM315 745l-111 145l85 26l94 -171h-68z" />
<glyph unicode="&#xc1;" d="M633 0h-95v181h-378v-181h-90v483q0 78 41 129.5t101.5 71.5t138.5 20q56 0 105 -12t89.5 -36.5t64 -67.5t23.5 -100v-488zM538 260v229q0 70 -55.5 102.5t-135.5 32.5q-52 0 -92 -12t-67.5 -44.5t-27.5 -81.5v-226h378zM320 745l94 171l85 -26l-111 -145h-68z" />
<glyph unicode="&#xc2;" d="M633 0h-95v181h-378v-181h-90v483q0 78 41 129.5t101.5 71.5t138.5 20q56 0 105 -12t89.5 -36.5t64 -67.5t23.5 -100v-488zM538 260v229q0 70 -55.5 102.5t-135.5 32.5q-52 0 -92 -12t-67.5 -44.5t-27.5 -81.5v-226h378zM207 744l110 165h73l105 -165h-70l-74 113 l-74 -113h-70z" />
<glyph unicode="&#xc3;" d="M633 0h-95v181h-378v-181h-90v483q0 78 41 129.5t101.5 71.5t138.5 20q56 0 105 -12t89.5 -36.5t64 -67.5t23.5 -100v-488zM538 260v229q0 70 -55.5 102.5t-135.5 32.5q-52 0 -92 -12t-67.5 -44.5t-27.5 -81.5v-226h378zM213 752l-49 10q23 101 108 101q28 0 82 -14.5 t83 -14.5q36 0 55 40l47 -10q-21 -101 -102 -101q-28 0 -83 14.5t-84 14.5q-41 0 -57 -40z" />
<glyph unicode="&#xc4;" d="M633 0h-95v181h-378v-181h-90v483q0 78 41 129.5t101.5 71.5t138.5 20q56 0 105 -12t89.5 -36.5t64 -67.5t23.5 -100v-488zM538 260v229q0 70 -55.5 102.5t-135.5 32.5q-52 0 -92 -12t-67.5 -44.5t-27.5 -81.5v-226h378zM204 754v88h88v-88h-88zM411 754v88h88v-88h-88z " />
<glyph unicode="&#xc5;" d="M633 0h-95v181h-378v-181h-90v483q0 78 41 129.5t101.5 71.5t138.5 20q56 0 105 -12t89.5 -36.5t64 -67.5t23.5 -100v-488zM538 260v229q0 70 -55.5 102.5t-135.5 32.5q-52 0 -92 -12t-67.5 -44.5t-27.5 -81.5v-226h378zM353 731q-35 0 -60.5 24t-25.5 60t26 60t60 24 t59.5 -24t25.5 -60t-26 -60t-59 -24zM353 769q19 0 32.5 13.5t13.5 32.5t-13.5 32t-32.5 13t-33 -13t-14 -32t14 -32.5t33 -13.5z" />
<glyph unicode="&#xc6;" horiz-adv-x="1079" d="M1031 0h-513v181h-358v-181h-90v473q0 79 36 129t92.5 70t133.5 20h699v-78h-419v-227h328v-74h-328v-235h419v-78zM518 260v354h-189q-169 0 -169 -139v-215h358z" />
<glyph unicode="&#xc7;" horiz-adv-x="606" d="M558 4l-8 -8h-142l-41 -137h-65l16 137h-41q-215 0 -215 211v277q0 212 214 212h274l8 -8v-70h-264q-137 0 -137 -148v-248q0 -148 141 -148h260v-70z" />
<glyph unicode="&#xc8;" horiz-adv-x="632" d="M584 0h-514v692h514v-78h-419v-227h328v-74h-328v-235h419v-78zM323 745l-111 145l85 26l94 -171h-68z" />
<glyph unicode="&#xc9;" horiz-adv-x="632" d="M584 0h-514v692h514v-78h-419v-227h328v-74h-328v-235h419v-78zM284 745l94 171l85 -26l-111 -145h-68z" />
<glyph unicode="&#xca;" horiz-adv-x="632" d="M584 0h-514v692h514v-78h-419v-227h328v-74h-328v-235h419v-78zM186 744l110 165h73l105 -165h-70l-74 113l-74 -113h-70z" />
<glyph unicode="&#xcb;" horiz-adv-x="632" d="M584 0h-514v692h514v-78h-419v-227h328v-74h-328v-235h419v-78zM193 754v88h88v-88h-88zM400 754v88h88v-88h-88z" />
<glyph unicode="&#xcc;" horiz-adv-x="235" d="M165 0h-95v692h95v-692zM90 745l-111 145l85 26l94 -171h-68z" />
<glyph unicode="&#xcd;" horiz-adv-x="235" d="M165 0h-95v692h95v-692zM80 745l94 171l85 -26l-111 -145h-68z" />
<glyph unicode="&#xce;" horiz-adv-x="235" d="M165 0h-95v692h95v-692zM-26 744l110 165h73l105 -165h-70l-74 113l-74 -113h-70z" />
<glyph unicode="&#xcf;" horiz-adv-x="235" d="M165 0h-95v692h95v-692zM-30 754v88h88v-88h-88zM177 754v88h88v-88h-88z" />
<glyph unicode="&#xd0;" horiz-adv-x="725" d="M22 310v77h73v305h346q111 0 166.5 -50.5t55.5 -163.5v-265q0 -112 -56 -162.5t-166 -50.5h-346v310h-73zM568 215v263q0 73 -34.5 105t-107.5 32h-236v-228h182v-77h-182v-233h242q69 0 102.5 32.5t33.5 105.5z" />
<glyph unicode="&#xd1;" horiz-adv-x="708" d="M638 0h-93l-394 579v-579h-81v692h107l379 -556v556h82v-692zM215 752l-49 10q23 101 108 101q28 0 82 -14.5t83 -14.5q36 0 55 40l47 -10q-21 -101 -102 -101q-28 0 -83 14.5t-84 14.5q-41 0 -57 -40z" />
<glyph unicode="&#xd2;" horiz-adv-x="692" d="M630 206q0 -59 -24.5 -102.5t-66 -68t-90 -36t-103.5 -11.5q-57 0 -105.5 11.5t-89.5 35.5t-65 68t-24 103v277q0 79 42.5 130.5t103.5 71t138 19.5q75 0 136.5 -19.5t104.5 -70.5t43 -127v-281zM535 204v285q0 71 -56.5 103t-134.5 32q-37 0 -68 -7t-59 -22t-44 -43 t-16 -66v-280q0 -38 16 -66t44 -43t59 -22t68 -7q78 0 134.5 32.5t56.5 103.5zM315 745l-111 145l85 26l94 -171h-68z" />
<glyph unicode="&#xd3;" horiz-adv-x="692" d="M630 206q0 -59 -24.5 -102.5t-66 -68t-90 -36t-103.5 -11.5q-57 0 -105.5 11.5t-89.5 35.5t-65 68t-24 103v277q0 79 42.5 130.5t103.5 71t138 19.5q75 0 136.5 -19.5t104.5 -70.5t43 -127v-281zM535 204v285q0 71 -56.5 103t-134.5 32q-37 0 -68 -7t-59 -22t-44 -43 t-16 -66v-280q0 -38 16 -66t44 -43t59 -22t68 -7q78 0 134.5 32.5t56.5 103.5zM311 745l94 171l85 -26l-111 -145h-68z" />
<glyph unicode="&#xd4;" horiz-adv-x="692" d="M630 206q0 -59 -24.5 -102.5t-66 -68t-90 -36t-103.5 -11.5q-57 0 -105.5 11.5t-89.5 35.5t-65 68t-24 103v277q0 79 42.5 130.5t103.5 71t138 19.5q75 0 136.5 -19.5t104.5 -70.5t43 -127v-281zM535 204v285q0 71 -56.5 103t-134.5 32q-37 0 -68 -7t-59 -22t-44 -43 t-16 -66v-280q0 -38 16 -66t44 -43t59 -22t68 -7q78 0 134.5 32.5t56.5 103.5zM202 744l110 165h73l105 -165h-70l-74 113l-74 -113h-70z" />
<glyph unicode="&#xd5;" horiz-adv-x="692" d="M630 206q0 -59 -24.5 -102.5t-66 -68t-90 -36t-103.5 -11.5q-57 0 -105.5 11.5t-89.5 35.5t-65 68t-24 103v277q0 79 42.5 130.5t103.5 71t138 19.5q75 0 136.5 -19.5t104.5 -70.5t43 -127v-281zM535 204v285q0 71 -56.5 103t-134.5 32q-37 0 -68 -7t-59 -22t-44 -43 t-16 -66v-280q0 -38 16 -66t44 -43t59 -22t68 -7q78 0 134.5 32.5t56.5 103.5zM207 752l-49 10q23 101 108 101q28 0 82 -14.5t83 -14.5q36 0 55 40l47 -10q-21 -101 -102 -101q-28 0 -83 14.5t-84 14.5q-41 0 -57 -40z" />
<glyph unicode="&#xd6;" horiz-adv-x="692" d="M630 206q0 -59 -24.5 -102.5t-66 -68t-90 -36t-103.5 -11.5q-57 0 -105.5 11.5t-89.5 35.5t-65 68t-24 103v277q0 79 42.5 130.5t103.5 71t138 19.5q75 0 136.5 -19.5t104.5 -70.5t43 -127v-281zM535 204v285q0 71 -56.5 103t-134.5 32q-37 0 -68 -7t-59 -22t-44 -43 t-16 -66v-280q0 -38 16 -66t44 -43t59 -22t68 -7q78 0 134.5 32.5t56.5 103.5zM198 754v88h88v-88h-88zM405 754v88h88v-88h-88z" />
<glyph unicode="&#xd7;" horiz-adv-x="598" d="M136 97l-62 61l166 164l-167 167l60 61l167 -167l165 165l61 -60l-165 -166l163 -162l-61 -61l-163 163z" />
<glyph unicode="&#xd8;" horiz-adv-x="692" d="M630 206q0 -59 -24.5 -102.5t-66 -68t-90 -36t-103.5 -11.5q-80 0 -145 22l-46 -79l-70 34l48 83q-71 55 -71 158v277q0 79 42.5 130.5t103.5 71t138 19.5q87 0 152 -27l41 71l70 -34l-44 -76q65 -55 65 -151v-281zM157 206q0 -48 23 -77l275 475q-49 20 -111 20 q-37 0 -68 -7t-59 -22t-44 -43t-16 -66v-280zM535 204v285q0 37 -18 66l-274 -471q41 -16 101 -16q78 0 134.5 32.5t56.5 103.5z" />
<glyph unicode="&#xd9;" d="M633 205q0 -58 -23 -101t-63.5 -67.5t-89 -36.5t-105.5 -12q-78 0 -139 20.5t-102 71.5t-41 128v484h95v-460q0 -76 52 -119.5t137 -43.5q79 0 134 36t55 112v475h90v-487zM330 745l-111 145l85 26l94 -171h-68z" />
<glyph unicode="&#xda;" d="M633 205q0 -58 -23 -101t-63.5 -67.5t-89 -36.5t-105.5 -12q-78 0 -139 20.5t-102 71.5t-41 128v484h95v-460q0 -76 52 -119.5t137 -43.5q79 0 134 36t55 112v475h90v-487zM323 745l94 171l85 -26l-111 -145h-68z" />
<glyph unicode="&#xdb;" d="M633 205q0 -58 -23 -101t-63.5 -67.5t-89 -36.5t-105.5 -12q-78 0 -139 20.5t-102 71.5t-41 128v484h95v-460q0 -76 52 -119.5t137 -43.5q79 0 134 36t55 112v475h90v-487zM207 744l110 165h73l105 -165h-70l-74 113l-74 -113h-70z" />
<glyph unicode="&#xdc;" d="M633 205q0 -58 -23 -101t-63.5 -67.5t-89 -36.5t-105.5 -12q-78 0 -139 20.5t-102 71.5t-41 128v484h95v-460q0 -76 52 -119.5t137 -43.5q79 0 134 36t55 112v475h90v-487zM204 754v88h88v-88h-88zM411 754v88h88v-88h-88z" />
<glyph unicode="&#xdd;" horiz-adv-x="704" d="M636 434q0 -86 -47 -130.5t-130 -44.5h-59v-259h-95v259h-60q-84 0 -130.5 44.5t-46.5 130.5v258h95v-243q0 -59 28 -85t86 -26h150q58 0 86 26t28 85v243h95v-258zM311 745l94 171l85 -26l-111 -145h-68z" />
<glyph unicode="&#xde;" d="M165 0h-95v692h95v-123h297q176 0 176 -160v-106q0 -158 -178 -158h-295v-145zM543 311v93q0 49 -22.5 68.5t-70.5 19.5h-285v-270h285q48 0 70.5 20t22.5 69z" />
<glyph unicode="&#xdf;" horiz-adv-x="1310" d="M596 143q0 -73 -42 -110t-113 -37h-370l-7 8v69h360q77 0 77 83v77q0 42 -19.5 59t-58.5 17h-215q-74 0 -112 34.5t-38 96.5v114q0 60 38.5 101t120.5 41h346l8 -8v-69h-332q-86 0 -86 -78v-87q0 -18 6.5 -30.5t15.5 -18.5t23.5 -9.5t23.5 -4t23 -0.5h218 q64 0 98.5 -35.5t34.5 -93.5v-119zM1251 143q0 -73 -42 -110t-113 -37h-370l-7 8v69h360q77 0 77 83v77q0 42 -19.5 59t-58.5 17h-215q-74 0 -112 34.5t-38 96.5v114q0 60 38.5 101t120.5 41h346l8 -8v-69h-332q-86 0 -86 -78v-87q0 -18 6.5 -30.5t15.5 -18.5t23.5 -9.5 t23.5 -4t23 -0.5h218q64 0 98.5 -35.5t34.5 -93.5v-119z" />
<glyph unicode="&#xe0;" d="M633 0h-95v181h-378v-181h-90v483q0 78 41 129.5t101.5 71.5t138.5 20q56 0 105 -12t89.5 -36.5t64 -67.5t23.5 -100v-488zM538 260v229q0 70 -55.5 102.5t-135.5 32.5q-52 0 -92 -12t-67.5 -44.5t-27.5 -81.5v-226h378zM315 745l-111 145l85 26l94 -171h-68z" />
<glyph unicode="&#xe1;" d="M633 0h-95v181h-378v-181h-90v483q0 78 41 129.5t101.5 71.5t138.5 20q56 0 105 -12t89.5 -36.5t64 -67.5t23.5 -100v-488zM538 260v229q0 70 -55.5 102.5t-135.5 32.5q-52 0 -92 -12t-67.5 -44.5t-27.5 -81.5v-226h378zM320 745l94 171l85 -26l-111 -145h-68z" />
<glyph unicode="&#xe2;" d="M633 0h-95v181h-378v-181h-90v483q0 78 41 129.5t101.5 71.5t138.5 20q56 0 105 -12t89.5 -36.5t64 -67.5t23.5 -100v-488zM538 260v229q0 70 -55.5 102.5t-135.5 32.5q-52 0 -92 -12t-67.5 -44.5t-27.5 -81.5v-226h378zM207 744l110 165h73l105 -165h-70l-74 113 l-74 -113h-70z" />
<glyph unicode="&#xe3;" d="M633 0h-95v181h-378v-181h-90v483q0 78 41 129.5t101.5 71.5t138.5 20q56 0 105 -12t89.5 -36.5t64 -67.5t23.5 -100v-488zM538 260v229q0 70 -55.5 102.5t-135.5 32.5q-52 0 -92 -12t-67.5 -44.5t-27.5 -81.5v-226h378zM213 752l-49 10q23 101 108 101q28 0 82 -14.5 t83 -14.5q36 0 55 40l47 -10q-21 -101 -102 -101q-28 0 -83 14.5t-84 14.5q-41 0 -57 -40z" />
<glyph unicode="&#xe4;" d="M633 0h-95v181h-378v-181h-90v483q0 78 41 129.5t101.5 71.5t138.5 20q56 0 105 -12t89.5 -36.5t64 -67.5t23.5 -100v-488zM538 260v229q0 70 -55.5 102.5t-135.5 32.5q-52 0 -92 -12t-67.5 -44.5t-27.5 -81.5v-226h378zM204 754v88h88v-88h-88zM411 754v88h88v-88h-88z " />
<glyph unicode="&#xe5;" d="M633 0h-95v181h-378v-181h-90v483q0 78 41 129.5t101.5 71.5t138.5 20q56 0 105 -12t89.5 -36.5t64 -67.5t23.5 -100v-488zM538 260v229q0 70 -55.5 102.5t-135.5 32.5q-52 0 -92 -12t-67.5 -44.5t-27.5 -81.5v-226h378zM353 731q-35 0 -60.5 24t-25.5 60t26 60t60 24 t59.5 -24t25.5 -60t-26 -60t-59 -24zM353 769q19 0 32.5 13.5t13.5 32.5t-13.5 32t-32.5 13t-33 -13t-14 -32t14 -32.5t33 -13.5z" />
<glyph unicode="&#xe6;" horiz-adv-x="1079" d="M1031 0h-513v181h-358v-181h-90v473q0 79 36 129t92.5 70t133.5 20h699v-78h-419v-227h328v-74h-328v-235h419v-78zM518 260v354h-189q-169 0 -169 -139v-215h358z" />
<glyph unicode="&#xe7;" horiz-adv-x="606" d="M558 4l-8 -8h-142l-41 -137h-65l16 137h-41q-215 0 -215 211v277q0 212 214 212h274l8 -8v-70h-264q-137 0 -137 -148v-248q0 -148 141 -148h260v-70z" />
<glyph unicode="&#xe8;" horiz-adv-x="632" d="M584 4l-8 -8h-299q-215 0 -215 211v277q0 212 214 212h300l8 -8v-70h-290q-137 0 -137 -148v-83h335v-74h-335v-91q0 -147 142 -147h285v-71zM351 745l-111 145l85 26l94 -171h-68z" />
<glyph unicode="&#xe9;" horiz-adv-x="632" d="M584 4l-8 -8h-299q-215 0 -215 211v277q0 212 214 212h300l8 -8v-70h-290q-137 0 -137 -148v-83h335v-74h-335v-91q0 -147 142 -147h285v-71zM317 745l94 171l85 -26l-111 -145h-68z" />
<glyph unicode="&#xea;" horiz-adv-x="632" d="M584 4l-8 -8h-299q-215 0 -215 211v277q0 212 214 212h300l8 -8v-70h-290q-137 0 -137 -148v-83h335v-74h-335v-91q0 -147 142 -147h285v-71zM207 744l110 165h73l105 -165h-70l-74 113l-74 -113h-70z" />
<glyph unicode="&#xeb;" horiz-adv-x="632" d="M584 4l-8 -8h-299q-215 0 -215 211v277q0 212 214 212h300l8 -8v-70h-290q-137 0 -137 -148v-83h335v-74h-335v-91q0 -147 142 -147h285v-71zM205 754v88h88v-88h-88zM412 754v88h88v-88h-88z" />
<glyph unicode="&#xec;" horiz-adv-x="235" d="M165 0h-95v692h95v-692zM90 745l-111 145l85 26l94 -171h-68z" />
<glyph unicode="&#xed;" horiz-adv-x="235" d="M165 0h-95v692h95v-692zM80 745l94 171l85 -26l-111 -145h-68z" />
<glyph unicode="&#xee;" horiz-adv-x="235" d="M165 0h-95v692h95v-692zM-26 744l110 165h73l105 -165h-70l-74 113l-74 -113h-70z" />
<glyph unicode="&#xef;" horiz-adv-x="235" d="M165 0h-95v692h95v-692zM-30 754v88h88v-88h-88zM177 754v88h88v-88h-88z" />
<glyph unicode="&#xf0;" horiz-adv-x="725" d="M22 310v77h73v305h346q111 0 166.5 -50.5t55.5 -163.5v-265q0 -112 -56 -162.5t-166 -50.5h-346v310h-73zM568 215v263q0 73 -34.5 105t-107.5 32h-236v-228h182v-77h-182v-233h242q69 0 102.5 32.5t33.5 105.5z" />
<glyph unicode="&#xf1;" horiz-adv-x="708" d="M638 0h-95v489q0 69 -55 101.5t-136 32.5q-82 0 -134.5 -32.5t-52.5 -104.5v-486h-95v484q0 59 23.5 103t64.5 68.5t90 36.5t106 12q76 0 137.5 -20t104 -70.5t42.5 -126.5v-487zM215 752l-49 10q23 101 108 101q28 0 82 -14.5t83 -14.5q36 0 55 40l47 -10 q-21 -101 -102 -101q-28 0 -83 14.5t-84 14.5q-41 0 -57 -40z" />
<glyph unicode="&#xf2;" horiz-adv-x="692" d="M630 206q0 -59 -24.5 -102.5t-66 -68t-90 -36t-103.5 -11.5q-57 0 -105.5 11.5t-89.5 35.5t-65 68t-24 103v277q0 79 42.5 130.5t103.5 71t138 19.5q75 0 136.5 -19.5t104.5 -70.5t43 -127v-281zM535 204v285q0 71 -56.5 103t-134.5 32q-37 0 -68 -7t-59 -22t-44 -43 t-16 -66v-280q0 -38 16 -66t44 -43t59 -22t68 -7q78 0 134.5 32.5t56.5 103.5zM315 745l-111 145l85 26l94 -171h-68z" />
<glyph unicode="&#xf3;" horiz-adv-x="692" d="M630 206q0 -59 -24.5 -102.5t-66 -68t-90 -36t-103.5 -11.5q-57 0 -105.5 11.5t-89.5 35.5t-65 68t-24 103v277q0 79 42.5 130.5t103.5 71t138 19.5q75 0 136.5 -19.5t104.5 -70.5t43 -127v-281zM535 204v285q0 71 -56.5 103t-134.5 32q-37 0 -68 -7t-59 -22t-44 -43 t-16 -66v-280q0 -38 16 -66t44 -43t59 -22t68 -7q78 0 134.5 32.5t56.5 103.5zM311 745l94 171l85 -26l-111 -145h-68z" />
<glyph unicode="&#xf4;" horiz-adv-x="692" d="M630 206q0 -59 -24.5 -102.5t-66 -68t-90 -36t-103.5 -11.5q-57 0 -105.5 11.5t-89.5 35.5t-65 68t-24 103v277q0 79 42.5 130.5t103.5 71t138 19.5q75 0 136.5 -19.5t104.5 -70.5t43 -127v-281zM535 204v285q0 71 -56.5 103t-134.5 32q-37 0 -68 -7t-59 -22t-44 -43 t-16 -66v-280q0 -38 16 -66t44 -43t59 -22t68 -7q78 0 134.5 32.5t56.5 103.5zM202 744l110 165h73l105 -165h-70l-74 113l-74 -113h-70z" />
<glyph unicode="&#xf5;" horiz-adv-x="692" d="M630 206q0 -59 -24.5 -102.5t-66 -68t-90 -36t-103.5 -11.5q-57 0 -105.5 11.5t-89.5 35.5t-65 68t-24 103v277q0 79 42.5 130.5t103.5 71t138 19.5q75 0 136.5 -19.5t104.5 -70.5t43 -127v-281zM535 204v285q0 71 -56.5 103t-134.5 32q-37 0 -68 -7t-59 -22t-44 -43 t-16 -66v-280q0 -38 16 -66t44 -43t59 -22t68 -7q78 0 134.5 32.5t56.5 103.5zM207 752l-49 10q23 101 108 101q28 0 82 -14.5t83 -14.5q36 0 55 40l47 -10q-21 -101 -102 -101q-28 0 -83 14.5t-84 14.5q-41 0 -57 -40z" />
<glyph unicode="&#xf6;" horiz-adv-x="692" d="M630 206q0 -59 -24.5 -102.5t-66 -68t-90 -36t-103.5 -11.5q-57 0 -105.5 11.5t-89.5 35.5t-65 68t-24 103v277q0 79 42.5 130.5t103.5 71t138 19.5q75 0 136.5 -19.5t104.5 -70.5t43 -127v-281zM535 204v285q0 71 -56.5 103t-134.5 32q-37 0 -68 -7t-59 -22t-44 -43 t-16 -66v-280q0 -38 16 -66t44 -43t59 -22t68 -7q78 0 134.5 32.5t56.5 103.5zM198 754v88h88v-88h-88zM405 754v88h88v-88h-88z" />
<glyph unicode="&#xf7;" horiz-adv-x="598" d="M236 95v121h126v-121h-126zM56 277v86h486v-86h-486zM236 423v120h126v-120h-126z" />
<glyph unicode="&#xf8;" horiz-adv-x="692" d="M630 206q0 -59 -24.5 -102.5t-66 -68t-90 -36t-103.5 -11.5q-80 0 -145 22l-46 -79l-70 34l48 83q-71 55 -71 158v277q0 79 42.5 130.5t103.5 71t138 19.5q87 0 152 -27l41 71l70 -34l-44 -76q65 -55 65 -151v-281zM157 206q0 -48 23 -77l275 475q-49 20 -111 20 q-37 0 -68 -7t-59 -22t-44 -43t-16 -66v-280zM535 204v285q0 37 -18 66l-274 -471q41 -16 101 -16q78 0 134.5 32.5t56.5 103.5z" />
<glyph unicode="&#xf9;" d="M633 205q0 -58 -23 -101t-63.5 -67.5t-89 -36.5t-105.5 -12q-78 0 -139 20.5t-102 71.5t-41 128v484h95v-460q0 -76 52 -119.5t137 -43.5q79 0 134 36t55 112v475h90v-487zM330 745l-111 145l85 26l94 -171h-68z" />
<glyph unicode="&#xfa;" d="M633 205q0 -58 -23 -101t-63.5 -67.5t-89 -36.5t-105.5 -12q-78 0 -139 20.5t-102 71.5t-41 128v484h95v-460q0 -76 52 -119.5t137 -43.5q79 0 134 36t55 112v475h90v-487zM323 745l94 171l85 -26l-111 -145h-68z" />
<glyph unicode="&#xfb;" d="M633 205q0 -58 -23 -101t-63.5 -67.5t-89 -36.5t-105.5 -12q-78 0 -139 20.5t-102 71.5t-41 128v484h95v-460q0 -76 52 -119.5t137 -43.5q79 0 134 36t55 112v475h90v-487zM207 744l110 165h73l105 -165h-70l-74 113l-74 -113h-70z" />
<glyph unicode="&#xfc;" d="M633 205q0 -58 -23 -101t-63.5 -67.5t-89 -36.5t-105.5 -12q-78 0 -139 20.5t-102 71.5t-41 128v484h95v-460q0 -76 52 -119.5t137 -43.5q79 0 134 36t55 112v475h90v-487zM204 754v88h88v-88h-88zM411 754v88h88v-88h-88z" />
<glyph unicode="&#xfd;" horiz-adv-x="706" d="M636 185q0 -93 -49.5 -141t-143.5 -48h-345l-9 8v70h344q107 0 107 118v111q-17 -33 -42.5 -41.5t-69.5 -8.5h-188q-78 0 -125 46t-47 122v271h95v-259q0 -47 26.5 -74t72.5 -27h179q46 0 72.5 27.5t26.5 67.5v265h96v-507zM314 745l94 171l85 -26l-111 -145h-68z" />
<glyph unicode="&#xfe;" d="M165 0h-95v692h95v-123h297q176 0 176 -160v-106q0 -158 -178 -158h-295v-145zM543 311v93q0 49 -22.5 68.5t-70.5 19.5h-285v-270h285q48 0 70.5 20t22.5 69z" />
<glyph unicode="&#xff;" horiz-adv-x="706" d="M636 185q0 -93 -49.5 -141t-143.5 -48h-345l-9 8v70h344q107 0 107 118v111q-17 -33 -42.5 -41.5t-69.5 -8.5h-188q-78 0 -125 46t-47 122v271h95v-259q0 -47 26.5 -74t72.5 -27h179q46 0 72.5 27.5t26.5 67.5v265h96v-507zM204 754v88h88v-88h-88zM411 754v88h88v-88 h-88z" />
<glyph unicode="&#x100;" d="M633 0h-95v181h-378v-181h-90v483q0 78 41 129.5t101.5 71.5t138.5 20q56 0 105 -12t89.5 -36.5t64 -67.5t23.5 -100v-488zM538 260v229q0 70 -55.5 102.5t-135.5 32.5q-52 0 -92 -12t-67.5 -44.5t-27.5 -81.5v-226h378zM202 756v69h298v-69h-298z" />
<glyph unicode="&#x101;" d="M633 0h-95v181h-378v-181h-90v483q0 78 41 129.5t101.5 71.5t138.5 20q56 0 105 -12t89.5 -36.5t64 -67.5t23.5 -100v-488zM538 260v229q0 70 -55.5 102.5t-135.5 32.5q-52 0 -92 -12t-67.5 -44.5t-27.5 -81.5v-226h378zM202 756v69h298v-69h-298z" />
<glyph unicode="&#x102;" d="M633 0h-95v181h-378v-181h-90v483q0 78 41 129.5t101.5 71.5t138.5 20q56 0 105 -12t89.5 -36.5t64 -67.5t23.5 -100v-488zM538 260v229q0 70 -55.5 102.5t-135.5 32.5q-52 0 -92 -12t-67.5 -44.5t-27.5 -81.5v-226h378zM349 751q-66 0 -115 41t-49 110h65q13 -91 99 -91 q50 0 75 25.5t28 65.5h65q0 -69 -51 -110t-117 -41z" />
<glyph unicode="&#x103;" d="M633 0h-95v181h-378v-181h-90v483q0 78 41 129.5t101.5 71.5t138.5 20q56 0 105 -12t89.5 -36.5t64 -67.5t23.5 -100v-488zM538 260v229q0 70 -55.5 102.5t-135.5 32.5q-52 0 -92 -12t-67.5 -44.5t-27.5 -81.5v-226h378zM349 751q-66 0 -115 41t-49 110h65q13 -91 99 -91 q50 0 75 25.5t28 65.5h65q0 -69 -51 -110t-117 -41z" />
<glyph unicode="&#x104;" d="M632 -176q-138 9 -138 95q0 48 45 81h-1v181h-378v-181h-90v483q0 78 41 129.5t101.5 71.5t138.5 20q56 0 105 -12t89.5 -36.5t64 -67.5t23.5 -100v-488h-5q-59 -26 -59 -63q0 -43 97 -51zM538 260v229q0 70 -55.5 102.5t-135.5 32.5q-52 0 -92 -12t-67.5 -44.5 t-27.5 -81.5v-226h378z" />
<glyph unicode="&#x105;" d="M632 -176q-138 9 -138 95q0 48 45 81h-1v181h-378v-181h-90v483q0 78 41 129.5t101.5 71.5t138.5 20q56 0 105 -12t89.5 -36.5t64 -67.5t23.5 -100v-488h-5q-59 -26 -59 -63q0 -43 97 -51zM538 260v229q0 70 -55.5 102.5t-135.5 32.5q-52 0 -92 -12t-67.5 -44.5 t-27.5 -81.5v-226h378z" />
<glyph unicode="&#x106;" horiz-adv-x="606" d="M558 4l-8 -8h-273q-215 0 -215 211v277q0 212 214 212h274l8 -8v-70h-264q-137 0 -137 -148v-248q0 -148 141 -148h260v-70zM299 745l94 171l85 -26l-111 -145h-68z" />
<glyph unicode="&#x107;" horiz-adv-x="606" d="M558 4l-8 -8h-273q-215 0 -215 211v277q0 212 214 212h274l8 -8v-70h-264q-137 0 -137 -148v-248q0 -148 141 -148h260v-70zM299 745l94 171l85 -26l-111 -145h-68z" />
<glyph unicode="&#x108;" horiz-adv-x="606" d="M558 4l-8 -8h-273q-215 0 -215 211v277q0 212 214 212h274l8 -8v-70h-264q-137 0 -137 -148v-248q0 -148 141 -148h260v-70zM203 744l110 165h73l105 -165h-70l-74 113l-74 -113h-70z" />
<glyph unicode="&#x109;" horiz-adv-x="606" d="M558 4l-8 -8h-273q-215 0 -215 211v277q0 212 214 212h274l8 -8v-70h-264q-137 0 -137 -148v-248q0 -148 141 -148h260v-70zM203 744l110 165h73l105 -165h-70l-74 113l-74 -113h-70z" />
<glyph unicode="&#x10a;" horiz-adv-x="606" d="M558 4l-8 -8h-273q-215 0 -215 211v277q0 212 214 212h274l8 -8v-70h-264q-137 0 -137 -148v-248q0 -148 141 -148h260v-70zM308 754v88h88v-88h-88z" />
<glyph unicode="&#x10b;" horiz-adv-x="606" d="M558 4l-8 -8h-273q-215 0 -215 211v277q0 212 214 212h274l8 -8v-70h-264q-137 0 -137 -148v-248q0 -148 141 -148h260v-70zM308 754v88h88v-88h-88z" />
<glyph unicode="&#x10c;" horiz-adv-x="606" d="M558 4l-8 -8h-273q-215 0 -215 211v277q0 212 214 212h274l8 -8v-70h-264q-137 0 -137 -148v-248q0 -148 141 -148h260v-70zM322 747l-106 165h70l74 -114l74 114h70l-109 -165h-73z" />
<glyph unicode="&#x10d;" horiz-adv-x="606" d="M558 4l-8 -8h-273q-215 0 -215 211v277q0 212 214 212h274l8 -8v-70h-264q-137 0 -137 -148v-248q0 -148 141 -148h260v-70zM322 747l-106 165h70l74 -114l74 114h70l-109 -165h-73z" />
<glyph unicode="&#x10e;" horiz-adv-x="700" d="M638 213q0 -112 -56 -162.5t-166 -50.5h-346v692h346q111 0 166.5 -50.5t55.5 -163.5v-265zM543 215v263q0 73 -34.5 105t-107.5 32h-236v-538h242q69 0 102.5 32.5t33.5 105.5zM312 747l-106 165h70l74 -114l74 114h70l-109 -165h-73z" />
<glyph unicode="&#x10f;" horiz-adv-x="700" d="M638 213q0 -112 -56 -162.5t-166 -50.5h-346v692h346q111 0 166.5 -50.5t55.5 -163.5v-265zM543 215v263q0 73 -34.5 105t-107.5 32h-236v-538h242q69 0 102.5 32.5t33.5 105.5zM312 747l-106 165h70l74 -114l74 114h70l-109 -165h-73z" />
<glyph unicode="&#x110;" horiz-adv-x="725" d="M22 310v77h73v305h346q111 0 166.5 -50.5t55.5 -163.5v-265q0 -112 -56 -162.5t-166 -50.5h-346v310h-73zM568 215v263q0 73 -34.5 105t-107.5 32h-236v-228h182v-77h-182v-233h242q69 0 102.5 32.5t33.5 105.5z" />
<glyph unicode="&#x111;" horiz-adv-x="725" d="M22 310v77h73v305h346q111 0 166.5 -50.5t55.5 -163.5v-265q0 -112 -56 -162.5t-166 -50.5h-346v310h-73zM568 215v263q0 73 -34.5 105t-107.5 32h-236v-228h182v-77h-182v-233h242q69 0 102.5 32.5t33.5 105.5z" />
<glyph unicode="&#x112;" horiz-adv-x="632" d="M584 0h-514v692h514v-78h-419v-227h328v-74h-328v-235h419v-78zM185 756v69h298v-69h-298z" />
<glyph unicode="&#x113;" horiz-adv-x="632" d="M584 4l-8 -8h-299q-215 0 -215 211v277q0 212 214 212h300l8 -8v-70h-290q-137 0 -137 -148v-83h335v-74h-335v-91q0 -147 142 -147h285v-71zM197 756v69h298v-69h-298z" />
<glyph unicode="&#x114;" horiz-adv-x="632" d="M584 0h-514v692h514v-78h-419v-227h328v-74h-328v-235h419v-78zM331 751q-66 0 -115 41t-49 110h65q13 -91 99 -91q50 0 75 25.5t28 65.5h65q0 -69 -51 -110t-117 -41z" />
<glyph unicode="&#x115;" horiz-adv-x="632" d="M584 4l-8 -8h-299q-215 0 -215 211v277q0 212 214 212h300l8 -8v-70h-290q-137 0 -137 -148v-83h335v-74h-335v-91q0 -147 142 -147h285v-71zM351 751q-66 0 -115 41t-49 110h65q13 -91 99 -91q50 0 75 25.5t28 65.5h65q0 -69 -51 -110t-117 -41z" />
<glyph unicode="&#x116;" horiz-adv-x="632" d="M584 0h-514v692h514v-78h-419v-227h328v-74h-328v-235h419v-78zM286 754v88h88v-88h-88z" />
<glyph unicode="&#x117;" horiz-adv-x="632" d="M584 4l-8 -8h-299q-215 0 -215 211v277q0 212 214 212h300l8 -8v-70h-290q-137 0 -137 -148v-83h335v-74h-335v-91q0 -147 142 -147h285v-71zM298 754v88h88v-88h-88z" />
<glyph unicode="&#x118;" horiz-adv-x="632" d="M573 -176q-138 9 -138 95q0 48 45 81h-410v692h514v-78h-419v-227h328v-74h-328v-235h419v-78h-15q-59 -26 -59 -63q0 -43 97 -51z" />
<glyph unicode="&#x119;" horiz-adv-x="632" d="M584 -176q-138 9 -138 95q0 44 40 77h-209q-215 0 -215 211v277q0 212 214 212h300l8 -8v-70h-290q-137 0 -137 -148v-83h335v-74h-335v-91q0 -147 142 -147h285v-71q-32 -16 -47.5 -31t-15.5 -36q0 -43 97 -51z" />
<glyph unicode="&#x11a;" horiz-adv-x="632" d="M584 0h-514v692h514v-78h-419v-227h328v-74h-328v-235h419v-78zM295 747l-106 165h70l74 -114l74 114h70l-109 -165h-73z" />
<glyph unicode="&#x11b;" horiz-adv-x="632" d="M584 4l-8 -8h-299q-215 0 -215 211v277q0 212 214 212h300l8 -8v-70h-290q-137 0 -137 -148v-83h335v-74h-335v-91q0 -147 142 -147h285v-71zM322 747l-106 165h70l74 -114l74 114h70l-109 -165h-73z" />
<glyph unicode="&#x11c;" horiz-adv-x="670" d="M602 4l-8 -8h-317q-215 0 -215 211v277q0 212 214 212h318l8 -8v-70h-306q-140 0 -140 -148v-226q0 -79 26.5 -124t94.5 -45h238v254h87v-325zM222 744l110 165h73l105 -165h-70l-74 113l-74 -113h-70z" />
<glyph unicode="&#x11d;" horiz-adv-x="670" d="M602 4l-8 -8h-317q-215 0 -215 211v277q0 212 214 212h318l8 -8v-70h-306q-140 0 -140 -148v-226q0 -79 26.5 -124t94.5 -45h238v254h87v-325zM222 744l110 165h73l105 -165h-70l-74 113l-74 -113h-70z" />
<glyph unicode="&#x11e;" horiz-adv-x="670" d="M602 4l-8 -8h-317q-215 0 -215 211v277q0 212 214 212h318l8 -8v-70h-306q-140 0 -140 -148v-226q0 -79 26.5 -124t94.5 -45h238v254h87v-325zM365 751q-66 0 -115 41t-49 110h65q13 -91 99 -91q50 0 75 25.5t28 65.5h65q0 -69 -51 -110t-117 -41z" />
<glyph unicode="&#x11f;" horiz-adv-x="670" d="M602 4l-8 -8h-317q-215 0 -215 211v277q0 212 214 212h318l8 -8v-70h-306q-140 0 -140 -148v-226q0 -79 26.5 -124t94.5 -45h238v254h87v-325zM365 751q-66 0 -115 41t-49 110h65q13 -91 99 -91q50 0 75 25.5t28 65.5h65q0 -69 -51 -110t-117 -41z" />
<glyph unicode="&#x120;" horiz-adv-x="670" d="M602 4l-8 -8h-317q-215 0 -215 211v277q0 212 214 212h318l8 -8v-70h-306q-140 0 -140 -148v-226q0 -79 26.5 -124t94.5 -45h238v254h87v-325zM325 754v88h88v-88h-88z" />
<glyph unicode="&#x121;" horiz-adv-x="670" d="M602 4l-8 -8h-317q-215 0 -215 211v277q0 212 214 212h318l8 -8v-70h-306q-140 0 -140 -148v-226q0 -79 26.5 -124t94.5 -45h238v254h87v-325zM325 754v88h88v-88h-88z" />
<glyph unicode="&#x122;" horiz-adv-x="670" d="M602 4l-8 -8h-317q-215 0 -215 211v277q0 212 214 212h318l8 -8v-70h-306q-140 0 -140 -148v-226q0 -79 26.5 -124t94.5 -45h238v254h87v-325zM305 -205l20 162h110l-55 -162h-75z" />
<glyph unicode="&#x123;" horiz-adv-x="670" d="M602 4l-8 -8h-317q-215 0 -215 211v277q0 212 214 212h318l8 -8v-70h-306q-140 0 -140 -148v-226q0 -79 26.5 -124t94.5 -45h238v254h87v-325zM305 -205l20 162h110l-55 -162h-75z" />
<glyph unicode="&#x124;" horiz-adv-x="708" d="M638 0h-95v309h-378v-309h-95v692h95v-301h378v301h95v-692zM210 744l110 165h73l105 -165h-70l-74 113l-74 -113h-70z" />
<glyph unicode="&#x125;" horiz-adv-x="708" d="M638 0h-95v309h-378v-309h-95v692h95v-301h378v301h95v-692zM210 744l110 165h73l105 -165h-70l-74 113l-74 -113h-70z" />
<glyph unicode="&#x126;" horiz-adv-x="708" d="M19 524v75h51v93h95v-93h378v93h95v-93h51v-75h-51v-524h-95v309h-378v-309h-95v524h-51zM165 391h378v133h-378v-133z" />
<glyph unicode="&#x127;" horiz-adv-x="708" d="M19 524v75h51v93h95v-93h378v93h95v-93h51v-75h-51v-524h-95v309h-378v-309h-95v524h-51zM165 391h378v133h-378v-133z" />
<glyph unicode="&#x128;" horiz-adv-x="235" d="M165 0h-95v692h95v-692zM-21 752l-49 10q23 101 108 101q28 0 82 -14.5t83 -14.5q36 0 55 40l47 -10q-21 -101 -102 -101q-28 0 -83 14.5t-84 14.5q-41 0 -57 -40z" />
<glyph unicode="&#x129;" horiz-adv-x="235" d="M165 0h-95v692h95v-692zM-21 752l-49 10q23 101 108 101q28 0 82 -14.5t83 -14.5q36 0 55 40l47 -10q-21 -101 -102 -101q-28 0 -83 14.5t-84 14.5q-41 0 -57 -40z" />
<glyph unicode="&#x12a;" horiz-adv-x="235" d="M165 0h-95v692h95v-692zM-31 756v69h298v-69h-298z" />
<glyph unicode="&#x12b;" horiz-adv-x="235" d="M165 0h-95v692h95v-692zM-31 756v69h298v-69h-298z" />
<glyph unicode="&#x12c;" horiz-adv-x="235" d="M165 0h-95v692h95v-692zM116 751q-66 0 -115 41t-49 110h65q13 -91 99 -91q50 0 75 25.5t28 65.5h65q0 -69 -51 -110t-117 -41z" />
<glyph unicode="&#x12d;" horiz-adv-x="235" d="M165 0h-95v692h95v-692zM116 751q-66 0 -115 41t-49 110h65q13 -91 99 -91q50 0 75 25.5t28 65.5h65q0 -69 -51 -110t-117 -41z" />
<glyph unicode="&#x12e;" horiz-adv-x="235" d="M168 -176q-138 9 -138 95q0 48 45 81h-5v692h95v-692h-1q-59 -26 -59 -63q0 -43 97 -51z" />
<glyph unicode="&#x12f;" horiz-adv-x="235" d="M168 -176q-138 9 -138 95q0 48 45 81h-5v692h95v-692h-1q-59 -26 -59 -63q0 -43 97 -51z" />
<glyph unicode="&#x130;" horiz-adv-x="235" d="M165 0h-95v692h95v-692zM74 754v88h88v-88h-88z" />
<glyph unicode="&#x131;" horiz-adv-x="235" d="M165 0h-95v692h95v-692z" />
<glyph unicode="&#x132;" horiz-adv-x="700" d="M630 189q0 -106 -48.5 -149.5t-148.5 -43.5h-177l-4 4v77h167q61 0 89 28.5t28 91.5v495h94v-503zM165 0h-95v692h95v-692z" />
<glyph unicode="&#x133;" horiz-adv-x="700" d="M630 189q0 -106 -48.5 -149.5t-148.5 -43.5h-177l-4 4v77h167q61 0 89 28.5t28 91.5v495h94v-503zM165 0h-95v692h95v-692z" />
<glyph unicode="&#x134;" horiz-adv-x="528" d="M458 189q0 -106 -48.5 -149.5t-148.5 -43.5h-217l-4 4v77h207q61 0 89 28.5t28 91.5v495h94v-503zM233 744l110 165h73l105 -165h-70l-74 113l-74 -113h-70z" />
<glyph unicode="&#x135;" horiz-adv-x="528" d="M458 189q0 -106 -48.5 -149.5t-148.5 -43.5h-217l-4 4v77h207q61 0 89 28.5t28 91.5v495h94v-503zM233 744l110 165h73l105 -165h-70l-74 113l-74 -113h-70z" />
<glyph unicode="&#x136;" horiz-adv-x="706" d="M638 0h-95v226q0 83 -105 83h-273v-309h-95v692h95v-304h180l193 304h100l-198 -308h20h26l11 -1q75 -3 108 -41t33 -90v-252zM288 -205l20 162h110l-55 -162h-75z" />
<glyph unicode="&#x137;" horiz-adv-x="706" d="M638 0h-95v225q0 47 -34 65.5t-96 18.5h-248v-309h-95v692h95v-301h251q127 0 127 133v168h92v-192q0 -59 -23.5 -93t-79.5 -50v-5q106 -21 106 -115v-237zM284 -205l20 162h110l-55 -162h-75z" />
<glyph unicode="&#x138;" horiz-adv-x="706" d="M638 0h-95v226q0 83 -105 83h-273v-309h-95v692h95v-304h180l193 304h100l-198 -308h20h26l11 -1q75 -3 108 -41t33 -90v-252z" />
<glyph unicode="&#x139;" horiz-adv-x="628" d="M584 0h-514v692h95v-614h419v-78zM88 745l94 171l85 -26l-111 -145h-68z" />
<glyph unicode="&#x13a;" horiz-adv-x="628" d="M584 0h-514v692h95v-614h419v-78zM88 745l94 171l85 -26l-111 -145h-68z" />
<glyph unicode="&#x13b;" horiz-adv-x="628" d="M584 0h-514v692h95v-614h419v-78zM249 -205l20 162h110l-55 -162h-75z" />
<glyph unicode="&#x13c;" horiz-adv-x="628" d="M584 0h-514v692h95v-614h419v-78zM249 -205l20 162h110l-55 -162h-75z" />
<glyph unicode="&#x13d;" horiz-adv-x="628" d="M584 0h-514v692h95v-614h419v-78zM270 511l20 181h110l-55 -181h-75z" />
<glyph unicode="&#x13e;" horiz-adv-x="628" d="M584 0h-514v692h95v-614h419v-78zM270 511l20 181h110l-55 -181h-75z" />
<glyph unicode="&#x13f;" horiz-adv-x="628" d="M584 0h-514v692h95v-614h419v-78zM307 341v88h88v-88h-88z" />
<glyph unicode="&#x140;" horiz-adv-x="628" d="M584 0h-514v692h95v-614h419v-78zM307 341v88h88v-88h-88z" />
<glyph unicode="&#x141;" horiz-adv-x="675" d="M32 179v91l85 65v357h95v-285l172 132v-91l-172 -132v-238h419v-78h-514v244z" />
<glyph unicode="&#x142;" horiz-adv-x="675" d="M32 179v91l85 65v357h95v-285l172 132v-91l-172 -132v-238h419v-78h-514v244z" />
<glyph unicode="&#x143;" horiz-adv-x="708" d="M638 0h-93l-394 579v-579h-81v692h107l379 -556v556h82v-692zM329 745l94 171l85 -26l-111 -145h-68z" />
<glyph unicode="&#x144;" horiz-adv-x="708" d="M638 0h-95v489q0 69 -55 101.5t-136 32.5q-82 0 -134.5 -32.5t-52.5 -104.5v-486h-95v484q0 59 23.5 103t64.5 68.5t90 36.5t106 12q76 0 137.5 -20t104 -70.5t42.5 -126.5v-487zM329 745l94 171l85 -26l-111 -145h-68z" />
<glyph unicode="&#x145;" horiz-adv-x="708" d="M638 0h-93l-394 579v-579h-81v692h107l379 -556v556h82v-692zM289 -205l20 162h110l-55 -162h-75z" />
<glyph unicode="&#x146;" horiz-adv-x="708" d="M638 0h-95v489q0 69 -55 101.5t-136 32.5q-82 0 -134.5 -32.5t-52.5 -104.5v-486h-95v484q0 59 23.5 103t64.5 68.5t90 36.5t106 12q76 0 137.5 -20t104 -70.5t42.5 -126.5v-487zM293 -205l20 162h110l-55 -162h-75z" />
<glyph unicode="&#x147;" horiz-adv-x="708" d="M638 0h-93l-394 579v-579h-81v692h107l379 -556v556h82v-692zM316 747l-106 165h70l74 -114l74 114h70l-109 -165h-73z" />
<glyph unicode="&#x148;" horiz-adv-x="708" d="M638 0h-95v489q0 69 -55 101.5t-136 32.5q-82 0 -134.5 -32.5t-52.5 -104.5v-486h-95v484q0 59 23.5 103t64.5 68.5t90 36.5t106 12q76 0 137.5 -20t104 -70.5t42.5 -126.5v-487zM316 747l-106 165h70l74 -114l74 114h70l-109 -165h-73z" />
<glyph unicode="&#x14a;" horiz-adv-x="708" d="M638 -25q0 -106 -48.5 -149.5t-148.5 -43.5h-169l-4 4v77h171q59 0 81.5 27.5t22.5 92.5v20l-392 576v-579h-81v692h107l379 -556v556h82v-717z" />
<glyph unicode="&#x14b;" horiz-adv-x="708" d="M638 -25q0 -106 -48.5 -149.5t-148.5 -43.5h-169l-4 4v77h159q60 0 88 28.5t28 91.5v506q0 69 -55 101.5t-136 32.5q-82 0 -134.5 -32.5t-52.5 -104.5v-486h-95v484q0 59 23.5 103t64.5 68.5t90 36.5t106 12q76 0 137.5 -20t104 -70.5t42.5 -126.5v-512z" />
<glyph unicode="&#x14c;" horiz-adv-x="692" d="M630 206q0 -59 -24.5 -102.5t-66 -68t-90 -36t-103.5 -11.5q-57 0 -105.5 11.5t-89.5 35.5t-65 68t-24 103v277q0 79 42.5 130.5t103.5 71t138 19.5q75 0 136.5 -19.5t104.5 -70.5t43 -127v-281zM535 204v285q0 71 -56.5 103t-134.5 32q-37 0 -68 -7t-59 -22t-44 -43 t-16 -66v-280q0 -38 16 -66t44 -43t59 -22t68 -7q78 0 134.5 32.5t56.5 103.5zM197 756v69h298v-69h-298z" />
<glyph unicode="&#x14d;" horiz-adv-x="692" d="M630 206q0 -59 -24.5 -102.5t-66 -68t-90 -36t-103.5 -11.5q-57 0 -105.5 11.5t-89.5 35.5t-65 68t-24 103v277q0 79 42.5 130.5t103.5 71t138 19.5q75 0 136.5 -19.5t104.5 -70.5t43 -127v-281zM535 204v285q0 71 -56.5 103t-134.5 32q-37 0 -68 -7t-59 -22t-44 -43 t-16 -66v-280q0 -38 16 -66t44 -43t59 -22t68 -7q78 0 134.5 32.5t56.5 103.5zM197 756v69h298v-69h-298z" />
<glyph unicode="&#x14e;" horiz-adv-x="692" d="M630 206q0 -59 -24.5 -102.5t-66 -68t-90 -36t-103.5 -11.5q-57 0 -105.5 11.5t-89.5 35.5t-65 68t-24 103v277q0 79 42.5 130.5t103.5 71t138 19.5q75 0 136.5 -19.5t104.5 -70.5t43 -127v-281zM535 204v285q0 71 -56.5 103t-134.5 32q-37 0 -68 -7t-59 -22t-44 -43 t-16 -66v-280q0 -38 16 -66t44 -43t59 -22t68 -7q78 0 134.5 32.5t56.5 103.5zM344 751q-66 0 -115 41t-49 110h65q13 -91 99 -91q50 0 75 25.5t28 65.5h65q0 -69 -51 -110t-117 -41z" />
<glyph unicode="&#x14f;" horiz-adv-x="692" d="M630 206q0 -59 -24.5 -102.5t-66 -68t-90 -36t-103.5 -11.5q-57 0 -105.5 11.5t-89.5 35.5t-65 68t-24 103v277q0 79 42.5 130.5t103.5 71t138 19.5q75 0 136.5 -19.5t104.5 -70.5t43 -127v-281zM535 204v285q0 71 -56.5 103t-134.5 32q-37 0 -68 -7t-59 -22t-44 -43 t-16 -66v-280q0 -38 16 -66t44 -43t59 -22t68 -7q78 0 134.5 32.5t56.5 103.5zM344 751q-66 0 -115 41t-49 110h65q13 -91 99 -91q50 0 75 25.5t28 65.5h65q0 -69 -51 -110t-117 -41z" />
<glyph unicode="&#x150;" horiz-adv-x="692" d="M630 206q0 -59 -24.5 -102.5t-66 -68t-90 -36t-103.5 -11.5q-57 0 -105.5 11.5t-89.5 35.5t-65 68t-24 103v277q0 79 42.5 130.5t103.5 71t138 19.5q75 0 136.5 -19.5t104.5 -70.5t43 -127v-281zM535 204v285q0 71 -56.5 103t-134.5 32q-37 0 -68 -7t-59 -22t-44 -43 t-16 -66v-280q0 -38 16 -66t44 -43t59 -22t68 -7q78 0 134.5 32.5t56.5 103.5zM225 745l82 147l86 -26l-99 -121h-69zM385 745l82 147l86 -26l-99 -121h-69z" />
<glyph unicode="&#x151;" horiz-adv-x="692" d="M630 206q0 -59 -24.5 -102.5t-66 -68t-90 -36t-103.5 -11.5q-57 0 -105.5 11.5t-89.5 35.5t-65 68t-24 103v277q0 79 42.5 130.5t103.5 71t138 19.5q75 0 136.5 -19.5t104.5 -70.5t43 -127v-281zM535 204v285q0 71 -56.5 103t-134.5 32q-37 0 -68 -7t-59 -22t-44 -43 t-16 -66v-280q0 -38 16 -66t44 -43t59 -22t68 -7q78 0 134.5 32.5t56.5 103.5zM225 745l82 147l86 -26l-99 -121h-69zM385 745l82 147l86 -26l-99 -121h-69z" />
<glyph unicode="&#x152;" horiz-adv-x="1049" d="M1001 0h-675q-120 0 -192 51t-72 166v255q0 115 72.5 167.5t191.5 52.5h675v-78h-402v-227h347v-74h-347v-235h402v-78zM504 78v536h-174q-78 0 -125.5 -33t-47.5 -106v-258q0 -73 47.5 -106t125.5 -33h174z" />
<glyph unicode="&#x153;" horiz-adv-x="1049" d="M1001 0h-675q-120 0 -192 51t-72 166v255q0 115 72.5 167.5t191.5 52.5h675v-78h-402v-227h347v-74h-347v-235h402v-78zM504 78v536h-174q-78 0 -125.5 -33t-47.5 -106v-258q0 -73 47.5 -106t125.5 -33h174z" />
<glyph unicode="&#x154;" horiz-adv-x="704" d="M658 0h-117l-225 228h-151v-228h-95v692h395q173 0 173 -153v-145q0 -154 -169 -158q-1 -1 -47 -1zM543 399v128q0 48 -21.5 68t-69.5 20h-287v-312h285q93 0 93 96zM262 745l94 171l85 -26l-111 -145h-68z" />
<glyph unicode="&#x155;" horiz-adv-x="704" d="M638 0h-95v151q0 40 -31.5 58.5t-75.5 18.5h-271v-228h-95v692h395q173 0 173 -153v-130q0 -121 -100 -137v-6q100 -21 100 -114v-152zM543 402v125q0 48 -21.5 68t-69.5 20h-287v-312h270q44 0 76 24.5t32 74.5zM308 745l94 171l85 -26l-111 -145h-68z" />
<glyph unicode="&#x156;" horiz-adv-x="704" d="M658 0h-117l-225 228h-151v-228h-95v692h395q173 0 173 -153v-145q0 -154 -169 -158q-1 -1 -47 -1zM543 399v128q0 48 -21.5 68t-69.5 20h-287v-312h285q93 0 93 96zM287 -205l20 162h110l-55 -162h-75z" />
<glyph unicode="&#x157;" horiz-adv-x="704" d="M638 0h-95v151q0 40 -31.5 58.5t-75.5 18.5h-271v-228h-95v692h395q173 0 173 -153v-130q0 -121 -100 -137v-6q100 -21 100 -114v-152zM543 402v125q0 48 -21.5 68t-69.5 20h-287v-312h270q44 0 76 24.5t32 74.5zM289 -205l20 162h110l-55 -162h-75z" />
<glyph unicode="&#x158;" horiz-adv-x="704" d="M658 0h-117l-225 228h-151v-228h-95v692h395q173 0 173 -153v-145q0 -154 -169 -158q-1 -1 -47 -1zM543 399v128q0 48 -21.5 68t-69.5 20h-287v-312h285q93 0 93 96zM314 747l-106 165h70l74 -114l74 114h70l-109 -165h-73z" />
<glyph unicode="&#x159;" horiz-adv-x="704" d="M638 0h-95v151q0 40 -31.5 58.5t-75.5 18.5h-271v-228h-95v692h395q173 0 173 -153v-130q0 -121 -100 -137v-6q100 -21 100 -114v-152zM543 402v125q0 48 -21.5 68t-69.5 20h-287v-312h270q44 0 76 24.5t32 74.5zM289 747l-106 165h70l74 -114l74 114h70l-109 -165h-73z " />
<glyph unicode="&#x15a;" horiz-adv-x="655" d="M596 143q0 -73 -42 -110t-113 -37h-370l-7 8v69h360q77 0 77 83v77q0 42 -19.5 59t-58.5 17h-215q-74 0 -112 34.5t-38 96.5v114q0 60 38.5 101t120.5 41h346l8 -8v-69h-332q-86 0 -86 -78v-87q0 -18 6.5 -30.5t15.5 -18.5t23.5 -9.5t23.5 -4t23 -0.5h218 q64 0 98.5 -35.5t34.5 -93.5v-119zM294 745l94 171l85 -26l-111 -145h-68z" />
<glyph unicode="&#x15b;" horiz-adv-x="655" d="M596 143q0 -73 -42 -110t-113 -37h-370l-7 8v69h360q77 0 77 83v77q0 42 -19.5 59t-58.5 17h-215q-74 0 -112 34.5t-38 96.5v114q0 60 38.5 101t120.5 41h346l8 -8v-69h-332q-86 0 -86 -78v-87q0 -18 6.5 -30.5t15.5 -18.5t23.5 -9.5t23.5 -4t23 -0.5h218 q64 0 98.5 -35.5t34.5 -93.5v-119zM294 745l94 171l85 -26l-111 -145h-68z" />
<glyph unicode="&#x15c;" horiz-adv-x="655" d="M596 143q0 -73 -42 -110t-113 -37h-370l-7 8v69h360q77 0 77 83v77q0 42 -19.5 59t-58.5 17h-215q-74 0 -112 34.5t-38 96.5v114q0 60 38.5 101t120.5 41h346l8 -8v-69h-332q-86 0 -86 -78v-87q0 -18 6.5 -30.5t15.5 -18.5t23.5 -9.5t23.5 -4t23 -0.5h218 q64 0 98.5 -35.5t34.5 -93.5v-119zM183 744l110 165h73l105 -165h-70l-74 113l-74 -113h-70z" />
<glyph unicode="&#x15d;" horiz-adv-x="655" d="M596 143q0 -73 -42 -110t-113 -37h-370l-7 8v69h360q77 0 77 83v77q0 42 -19.5 59t-58.5 17h-215q-74 0 -112 34.5t-38 96.5v114q0 60 38.5 101t120.5 41h346l8 -8v-69h-332q-86 0 -86 -78v-87q0 -18 6.5 -30.5t15.5 -18.5t23.5 -9.5t23.5 -4t23 -0.5h218 q64 0 98.5 -35.5t34.5 -93.5v-119zM183 744l110 165h73l105 -165h-70l-74 113l-74 -113h-70z" />
<glyph unicode="&#x15e;" horiz-adv-x="655" d="M596 143q0 -73 -42 -110t-113 -37h-67l-41 -137h-65l16 137h-213l-7 8v69h360q77 0 77 83v77q0 42 -19.5 59t-58.5 17h-215q-74 0 -112 34.5t-38 96.5v114q0 60 38.5 101t120.5 41h346l8 -8v-69h-332q-86 0 -86 -78v-87q0 -18 6.5 -30.5t15.5 -18.5t23.5 -9.5t23.5 -4 t23 -0.5h218q64 0 98.5 -35.5t34.5 -93.5v-119z" />
<glyph unicode="&#x15f;" horiz-adv-x="655" d="M596 143q0 -73 -42 -110t-113 -37h-370l-7 8v69h360q77 0 77 83v77q0 42 -19.5 59t-58.5 17h-215q-74 0 -112 34.5t-38 96.5v114q0 60 38.5 101t120.5 41h346l8 -8v-69h-332q-86 0 -86 -78v-87q0 -18 6.5 -30.5t15.5 -18.5t23.5 -9.5t23.5 -4t23 -0.5h218 q64 0 98.5 -35.5t34.5 -93.5v-119zM251 -205l20 162h110l-55 -162h-75z" />
<glyph unicode="&#x160;" horiz-adv-x="655" d="M596 143q0 -73 -42 -110t-113 -37h-370l-7 8v69h360q77 0 77 83v77q0 42 -19.5 59t-58.5 17h-215q-74 0 -112 34.5t-38 96.5v114q0 60 38.5 101t120.5 41h346l8 -8v-69h-332q-86 0 -86 -78v-87q0 -18 6.5 -30.5t15.5 -18.5t23.5 -9.5t23.5 -4t23 -0.5h218 q64 0 98.5 -35.5t34.5 -93.5v-119zM289 747l-106 165h70l74 -114l74 114h70l-109 -165h-73z" />
<glyph unicode="&#x161;" horiz-adv-x="655" d="M596 143q0 -73 -42 -110t-113 -37h-370l-7 8v69h360q77 0 77 83v77q0 42 -19.5 59t-58.5 17h-215q-74 0 -112 34.5t-38 96.5v114q0 60 38.5 101t120.5 41h346l8 -8v-69h-332q-86 0 -86 -78v-87q0 -18 6.5 -30.5t15.5 -18.5t23.5 -9.5t23.5 -4t23 -0.5h218 q64 0 98.5 -35.5t34.5 -93.5v-119zM289 747l-106 165h70l74 -114l74 114h70l-109 -165h-73z" />
<glyph unicode="&#x162;" horiz-adv-x="646" d="M624 614h-254v-614h-94v614h-254v78h602v-78zM258 -205l20 162h110l-55 -162h-75z" />
<glyph unicode="&#x163;" d="M633 205q0 -58 -23 -101t-63.5 -67.5t-89 -36.5t-105.5 -12q-78 0 -139 20.5t-102 71.5t-41 128v484h95v-152h468v-78h-468v-241q0 -74 50.5 -113t128.5 -39q82 0 140.5 34t58.5 108v128h90v-134zM287 -205l20 162h110l-55 -162h-75z" />
<glyph unicode="&#x164;" horiz-adv-x="646" d="M624 614h-254v-614h-94v614h-254v78h602v-78zM285 747l-106 165h70l74 -114l74 114h70l-109 -165h-73z" />
<glyph unicode="&#x165;" d="M633 205q0 -58 -23 -101t-63.5 -67.5t-89 -36.5t-105.5 -12q-78 0 -139 20.5t-102 71.5t-41 128v484h95v-152h468v-78h-468v-241q0 -74 50.5 -113t128.5 -39q82 0 140.5 34t58.5 108v128h90v-134zM333 689l-106 165h70l74 -114l74 114h70l-109 -165h-73z" />
<glyph unicode="&#x166;" horiz-adv-x="646" d="M624 614h-254v-220h112v-75h-112v-319h-94v319h-113v75h113v220h-254v78h602v-78z" />
<glyph unicode="&#x167;" horiz-adv-x="728" d="M22 282v76h73v334h95v-152h468v-78h-468v-104h199v-76h-199v-61q0 -74 50.5 -113t128.5 -39q82 0 140.5 34t58.5 108v128h90v-134q0 -58 -23 -101t-63.5 -67.5t-89 -36.5t-105.5 -12q-78 0 -139 20.5t-102 71.5t-41 128v74h-73z" />
<glyph unicode="&#x168;" d="M633 205q0 -58 -23 -101t-63.5 -67.5t-89 -36.5t-105.5 -12q-78 0 -139 20.5t-102 71.5t-41 128v484h95v-460q0 -76 52 -119.5t137 -43.5q79 0 134 36t55 112v475h90v-487zM213 752l-49 10q23 101 108 101q28 0 82 -14.5t83 -14.5q36 0 55 40l47 -10q-21 -101 -102 -101 q-28 0 -83 14.5t-84 14.5q-41 0 -57 -40z" />
<glyph unicode="&#x169;" d="M633 205q0 -58 -23 -101t-63.5 -67.5t-89 -36.5t-105.5 -12q-78 0 -139 20.5t-102 71.5t-41 128v484h95v-460q0 -76 52 -119.5t137 -43.5q79 0 134 36t55 112v475h90v-487zM213 752l-49 10q23 101 108 101q28 0 82 -14.5t83 -14.5q36 0 55 40l47 -10q-21 -101 -102 -101 q-28 0 -83 14.5t-84 14.5q-41 0 -57 -40z" />
<glyph unicode="&#x16a;" d="M633 205q0 -58 -23 -101t-63.5 -67.5t-89 -36.5t-105.5 -12q-78 0 -139 20.5t-102 71.5t-41 128v484h95v-460q0 -76 52 -119.5t137 -43.5q79 0 134 36t55 112v475h90v-487zM202 756v69h298v-69h-298z" />
<glyph unicode="&#x16b;" d="M633 205q0 -58 -23 -101t-63.5 -67.5t-89 -36.5t-105.5 -12q-78 0 -139 20.5t-102 71.5t-41 128v484h95v-460q0 -76 52 -119.5t137 -43.5q79 0 134 36t55 112v475h90v-487zM202 756v69h298v-69h-298z" />
<glyph unicode="&#x16c;" d="M633 205q0 -58 -23 -101t-63.5 -67.5t-89 -36.5t-105.5 -12q-78 0 -139 20.5t-102 71.5t-41 128v484h95v-460q0 -76 52 -119.5t137 -43.5q79 0 134 36t55 112v475h90v-487zM349 751q-66 0 -115 41t-49 110h65q13 -91 99 -91q50 0 75 25.5t28 65.5h65q0 -69 -51 -110 t-117 -41z" />
<glyph unicode="&#x16d;" d="M633 205q0 -58 -23 -101t-63.5 -67.5t-89 -36.5t-105.5 -12q-78 0 -139 20.5t-102 71.5t-41 128v484h95v-460q0 -76 52 -119.5t137 -43.5q79 0 134 36t55 112v475h90v-487zM349 751q-66 0 -115 41t-49 110h65q13 -91 99 -91q50 0 75 25.5t28 65.5h65q0 -69 -51 -110 t-117 -41z" />
<glyph unicode="&#x16e;" d="M633 205q0 -58 -23 -101t-63.5 -67.5t-89 -36.5t-105.5 -12q-78 0 -139 20.5t-102 71.5t-41 128v484h95v-460q0 -76 52 -119.5t137 -43.5q79 0 134 36t55 112v475h90v-487zM353 731q-35 0 -60.5 24t-25.5 60t26 60t60 24t59.5 -24t25.5 -60t-26 -60t-59 -24zM353 769 q19 0 32.5 13.5t13.5 32.5t-13.5 32t-32.5 13t-33 -13t-14 -32t14 -32.5t33 -13.5z" />
<glyph unicode="&#x16f;" d="M633 205q0 -58 -23 -101t-63.5 -67.5t-89 -36.5t-105.5 -12q-78 0 -139 20.5t-102 71.5t-41 128v484h95v-460q0 -76 52 -119.5t137 -43.5q79 0 134 36t55 112v475h90v-487zM353 731q-35 0 -60.5 24t-25.5 60t26 60t60 24t59.5 -24t25.5 -60t-26 -60t-59 -24zM353 769 q19 0 32.5 13.5t13.5 32.5t-13.5 32t-32.5 13t-33 -13t-14 -32t14 -32.5t33 -13.5z" />
<glyph unicode="&#x170;" d="M633 205q0 -58 -23 -101t-63.5 -67.5t-89 -36.5t-105.5 -12q-78 0 -139 20.5t-102 71.5t-41 128v484h95v-460q0 -76 52 -119.5t137 -43.5q79 0 134 36t55 112v475h90v-487zM228 745l82 147l86 -26l-99 -121h-69zM388 745l82 147l86 -26l-99 -121h-69z" />
<glyph unicode="&#x171;" d="M633 205q0 -58 -23 -101t-63.5 -67.5t-89 -36.5t-105.5 -12q-78 0 -139 20.5t-102 71.5t-41 128v484h95v-460q0 -76 52 -119.5t137 -43.5q79 0 134 36t55 112v475h90v-487zM228 745l82 147l86 -26l-99 -121h-69zM388 745l82 147l86 -26l-99 -121h-69z" />
<glyph unicode="&#x172;" d="M433 -176q-138 9 -138 95q0 38 32 70q-112 5 -184.5 58.5t-72.5 160.5v484h95v-460q0 -76 52 -119.5t137 -43.5q79 0 134 36t55 112v475h90v-487q0 -97 -61.5 -149t-160.5 -64q-41 -23 -41 -55q0 -43 97 -51z" />
<glyph unicode="&#x173;" d="M433 -176q-138 9 -138 95q0 38 32 70q-112 5 -184.5 58.5t-72.5 160.5v484h95v-460q0 -76 52 -119.5t137 -43.5q79 0 134 36t55 112v475h90v-487q0 -97 -61.5 -149t-160.5 -64q-41 -23 -41 -55q0 -43 97 -51z" />
<glyph unicode="&#x174;" horiz-adv-x="1090" d="M70 692h95v-489q0 -134 167 -134q165 0 165 137v486h96v-489q0 -134 167 -134q165 0 165 137v486h95v-484q0 -115 -71.5 -167.5t-190.5 -52.5q-147 0 -213 76q-66 -76 -215 -76q-117 0 -188.5 52.5t-71.5 164.5v487zM401 744l110 165h73l105 -165h-70l-74 113l-74 -113 h-70z" />
<glyph unicode="&#x175;" horiz-adv-x="1090" d="M70 692h95v-489q0 -134 167 -134q165 0 165 137v486h96v-489q0 -134 167 -134q165 0 165 137v486h95v-484q0 -115 -71.5 -167.5t-190.5 -52.5q-147 0 -213 76q-66 -76 -215 -76q-117 0 -188.5 52.5t-71.5 164.5v487zM401 744l110 165h73l105 -165h-70l-74 113l-74 -113 h-70z" />
<glyph unicode="&#x176;" horiz-adv-x="704" d="M636 434q0 -86 -47 -130.5t-130 -44.5h-59v-259h-95v259h-60q-84 0 -130.5 44.5t-46.5 130.5v258h95v-243q0 -59 28 -85t86 -26h150q58 0 86 26t28 85v243h95v-258zM220 744l110 165h73l105 -165h-70l-74 113l-74 -113h-70z" />
<glyph unicode="&#x177;" horiz-adv-x="706" d="M636 185q0 -93 -49.5 -141t-143.5 -48h-345l-9 8v70h344q107 0 107 118v111q-17 -33 -42.5 -41.5t-69.5 -8.5h-188q-78 0 -125 46t-47 122v271h95v-259q0 -47 26.5 -74t72.5 -27h179q46 0 72.5 27.5t26.5 67.5v265h96v-507zM220 744l110 165h73l105 -165h-70l-74 113 l-74 -113h-70z" />
<glyph unicode="&#x178;" horiz-adv-x="704" d="M636 434q0 -86 -47 -130.5t-130 -44.5h-59v-259h-95v259h-60q-84 0 -130.5 44.5t-46.5 130.5v258h95v-243q0 -59 28 -85t86 -26h150q58 0 86 26t28 85v243h95v-258zM218 754v88h88v-88h-88zM425 754v88h88v-88h-88z" />
<glyph unicode="&#x179;" horiz-adv-x="630" d="M582 0h-528v62l411 552h-410v78h526v-65l-412 -549h413v-78zM288 745l94 171l85 -26l-111 -145h-68z" />
<glyph unicode="&#x17a;" horiz-adv-x="630" d="M582 0h-528v62l411 552h-410v78h526v-65l-412 -549h413v-78zM288 745l94 171l85 -26l-111 -145h-68z" />
<glyph unicode="&#x17b;" horiz-adv-x="630" d="M582 0h-528v62l411 552h-410v78h526v-65l-412 -549h413v-78zM283 754v88h88v-88h-88z" />
<glyph unicode="&#x17c;" horiz-adv-x="630" d="M582 0h-528v62l411 552h-410v78h526v-65l-412 -549h413v-78zM283 754v88h88v-88h-88z" />
<glyph unicode="&#x17d;" horiz-adv-x="630" d="M582 0h-528v62l411 552h-410v78h526v-65l-412 -549h413v-78zM288 747l-106 165h70l74 -114l74 114h70l-109 -165h-73z" />
<glyph unicode="&#x17e;" horiz-adv-x="630" d="M582 0h-528v62l411 552h-410v78h526v-65l-412 -549h413v-78zM288 747l-106 165h70l74 -114l74 114h70l-109 -165h-73z" />
<glyph unicode="&#x192;" horiz-adv-x="480" d="M443 618h-100q-18 0 -28.5 -2t-22.5 -9t-17 -24.5t-5 -45.5v-151h153v-66h-153v-452l-95 -11v463h-128v66h128v154q0 86 38 121t114 35h112l4 -4v-74z" />
<glyph unicode="&#x218;" horiz-adv-x="655" d="M596 143q0 -73 -42 -110t-113 -37h-370l-7 8v69h360q77 0 77 83v77q0 42 -19.5 59t-58.5 17h-215q-74 0 -112 34.5t-38 96.5v114q0 60 38.5 101t120.5 41h346l8 -8v-69h-332q-86 0 -86 -78v-87q0 -18 6.5 -30.5t15.5 -18.5t23.5 -9.5t23.5 -4t23 -0.5h218 q64 0 98.5 -35.5t34.5 -93.5v-119zM251 -205l20 162h110l-55 -162h-75z" />
<glyph unicode="&#x219;" horiz-adv-x="655" d="M596 143q0 -73 -42 -110t-113 -37h-370l-7 8v69h360q77 0 77 83v77q0 42 -19.5 59t-58.5 17h-215q-74 0 -112 34.5t-38 96.5v114q0 60 38.5 101t120.5 41h346l8 -8v-69h-332q-86 0 -86 -78v-87q0 -18 6.5 -30.5t15.5 -18.5t23.5 -9.5t23.5 -4t23 -0.5h218 q64 0 98.5 -35.5t34.5 -93.5v-119zM251 -205l20 162h110l-55 -162h-75z" />
<glyph unicode="&#x2c6;" horiz-adv-x="396" d="M54 744l110 165h73l105 -165h-70l-74 113l-74 -113h-70z" />
<glyph unicode="&#x2c7;" horiz-adv-x="360" d="M142 747l-106 165h70l74 -114l74 114h70l-109 -165h-73z" />
<glyph unicode="&#x2d8;" horiz-adv-x="394" d="M195 751q-66 0 -115 41t-49 110h65q13 -91 99 -91q50 0 75 25.5t28 65.5h65q0 -69 -51 -110t-117 -41z" />
<glyph unicode="&#x2d9;" horiz-adv-x="291" d="M101 754v88h88v-88h-88z" />
<glyph unicode="&#x2da;" horiz-adv-x="285" d="M144 731q-35 0 -60.5 24t-25.5 60t26 60t60 24t59.5 -24t25.5 -60t-26 -60t-59 -24zM144 769q19 0 32.5 13.5t13.5 32.5t-13.5 32t-32.5 13t-33 -13t-14 -32t14 -32.5t33 -13.5z" />
<glyph unicode="&#x2db;" horiz-adv-x="300" d="M211 -176q-138 9 -138 95q0 39 33 70t78 41l23 -30q-59 -26 -59 -63q0 -43 97 -51z" />
<glyph unicode="&#x2dc;" horiz-adv-x="462" d="M92 752l-49 10q23 101 108 101q28 0 82 -14.5t83 -14.5q36 0 55 40l47 -10q-21 -101 -102 -101q-28 0 -83 14.5t-84 14.5q-41 0 -57 -40z" />
<glyph unicode="&#x2dd;" horiz-adv-x="376" d="M18 745l82 147l86 -26l-99 -121h-69zM178 745l82 147l86 -26l-99 -121h-69z" />
<glyph unicode="&#x2013;" horiz-adv-x="598" d="M558 281h-518v78h518v-78z" />
<glyph unicode="&#x2014;" horiz-adv-x="945" d="M905 281h-865v78h865v-78z" />
<glyph unicode="&#x2018;" horiz-adv-x="232" d="M181 692l-22 -210h-107l57 210h72z" />
<glyph unicode="&#x2019;" horiz-adv-x="232" d="M181 692l-57 -210h-72l22 210h107z" />
<glyph unicode="&#x201a;" horiz-adv-x="232" d="M181 107l-57 -210h-72l22 210h107z" />
<glyph unicode="&#x201c;" horiz-adv-x="397" d="M345 692l-22 -210h-107l57 210h72zM181 692l-22 -210h-107l57 210h72z" />
<glyph unicode="&#x201d;" horiz-adv-x="397" d="M345 692l-57 -210h-72l22 210h107zM181 692l-57 -210h-72l22 210h107z" />
<glyph unicode="&#x201e;" horiz-adv-x="397" d="M345 107l-57 -210h-72l22 210h107zM181 107l-57 -210h-72l22 210h107z" />
<glyph unicode="&#x2020;" horiz-adv-x="559" d="M510 473h-188v-558h-84v558h-190v74h190v214h84v-214h188v-74z" />
<glyph unicode="&#x2021;" horiz-adv-x="559" d="M510 97h-188v-216h-84v216h-190v73h190v303h-190v74h190v215h84v-215h188v-74h-188v-303h188v-73z" />
<glyph unicode="&#x2022;" horiz-adv-x="335" d="M167 249l-87 87l89 89l87 -87z" />
<glyph unicode="&#x2026;" horiz-adv-x="784" d="M706 0h-107v107h107v-107zM446 0h-108v107h108v-107zM186 0h-108v107h108v-107z" />
<glyph unicode="&#x2030;" horiz-adv-x="1212" d="M1067 -9h-101q-42 0 -71.5 23t-29.5 72v164q0 50 29.5 73t71.5 23h97q43 0 72.5 -23t29.5 -73v-165q0 -47 -29 -70.5t-69 -23.5zM1100 242q0 44 -42 44h-83q-45 0 -45 -36v-156q0 -20 12 -32.5t31 -12.5h80q47 0 47 38v155zM347 446q0 -47 -29.5 -71t-69.5 -24h-100 q-42 0 -71.5 23t-29.5 73v163q0 49 29.5 72.5t71.5 23.5h97q42 0 72 -23t30 -73v-164zM282 447v155q0 21 -11 33t-31 12h-83q-44 0 -44 -37v-155q0 -44 42 -44h79q48 0 48 36zM700 -9h-101q-42 0 -71.5 23t-29.5 72v164q0 50 29.5 73t71.5 23h97q43 0 72.5 -23t29.5 -73 v-165q0 -47 -29 -70.5t-69 -23.5zM732 242q0 44 -41 44h-83q-45 0 -45 -36v-156q0 -20 11.5 -32.5t31.5 -12.5h79q47 0 47 38v155zM162 0l443 691h76l-443 -691h-76z" />
<glyph unicode="&#x2039;" horiz-adv-x="275" d="M234 98h-87l-106 217l106 216h87l-100 -216z" />
<glyph unicode="&#x203a;" horiz-adv-x="275" d="M234 315l-105 -217h-88l101 217l-101 216h88z" />
<glyph unicode="&#x2044;" horiz-adv-x="524" d="M-3 -17l447 708h89l-447 -708h-89z" />
<glyph unicode="&#x20ac;" horiz-adv-x="650" d="M534 292l-16 -63h-288v-8q0 -74 29 -111t100 -37h243v-69l-8 -8h-243q-216 0 -216 208v25h-106v63h106v108h-106v63h106v23q0 210 214 210h245l8 -8v-69h-247q-71 0 -98 -36.5t-27 -111.5v-8h338l-16 -63h-322v-108h304z" />
<glyph unicode="&#x2122;" horiz-adv-x="721" d="M145 388v252h-105v52h274v-52h-106v-252h-63zM348 388v304h73l86 -214l84 214h75v-304h-57v201l-83 -201h-42l-82 197v-197h-54z" />
<glyph unicode="&#x2212;" horiz-adv-x="598" d="M48 276v86h503v-86h-503z" />
<glyph unicode="&#xe000;" horiz-adv-x="690" d="M0 690h690v-690h-690v690z" />
<glyph horiz-adv-x="500" />
<glyph horiz-adv-x="235" d="M165 0h-95v692h95v-692zM74 754v88h88v-88h-88z" />
<glyph horiz-adv-x="238" d="M59 511l20 181h110l-55 -181h-75z" />
<glyph horiz-adv-x="238" d="M59 -205l20 162h110l-55 -162h-75z" />
<glyph horiz-adv-x="1009" d="M529 -322q-108 0 -208 17.5t-204.5 64.5t-180.5 119.5t-124.5 192.5t-48.5 274q0 160 53 287.5t149 210t228.5 126t292.5 43.5q54 0 110 -9.5t109.5 -29.5t87 -57t33.5 -86q0 -42 -19.5 -70t-55 -40.5t-71.5 -17t-83 -3.5q-67 0 -115 2q-2 -14 -4 -72t-3 -68l-2 -52 q315 -10 441 -10q33 1 50 1q37 0 80 21.5t57 48.5l11 -6q-62 -102 -289 -102q-70 0 -151 3q-3 -16 -5.5 -57t-4.5 -82t-3 -48q0 -9 -2 -55l156 10l4 -3l-37 -61l-7 5l23 36l-141 -10q-2 -28 -6.5 -102.5t-6.5 -96.5q-2 -18 -20.5 -44t-36.5 -34l1 -1q31 5 100 7t83 3v-1 q-13 -32 -30 -36q-20 -5 -49 -4l-166 3l-19 -2l-8 12q42 11 64 23t27.5 21t8.5 25q9 84 15 226l-101 -3l3 19l100 6q6 119 9 220l40 24q-34 2 -102.5 3t-89.5 2q-1 -31 -6.5 -102.5t-5.5 -75.5q-3 -69 -23 -122.5t-46 -83t-58 -48.5t-56 -24.5t-45 -5.5q-45 0 -88 17t-69 42 l33 43q12 -19 66 -44t89 -25q27 0 52.5 9.5t50.5 30.5t40 61.5t15 95.5q0 2 2 39.5t4 94t3 99.5q-10 0 -45.5 1.5t-46.5 1.5q-61 0 -110 -44.5t-49 -107.5q19 -42 80 -70q0 -5 -6.5 -19.5t-10.5 -18.5q-68 30 -75 99q0 76 56.5 130t146.5 69l61 -2l5 172l42 19 q-263 10 -280 10q-61 0 -110 -44t-49 -106q18 -40 81 -65q0 -3 -4.5 -11t-10.5 -17t-7 -11q-69 29 -76 100q0 71 58.5 123t135.5 71q70 0 223.5 -7.5t243.5 -7.5q39 0 66.5 10t40 26.5t18 31.5t5.5 30q0 42 -35 74t-89.5 48t-108 24t-102.5 8q-134 0 -253.5 -40.5 t-212.5 -115.5t-147.5 -193.5t-54.5 -263.5q1 -343 194.5 -510.5t565.5 -167.5q147 0 271.5 44.5t218.5 130.5t147 222.5t53 310.5q0 90 -22 175.5t-74 167.5t-128.5 145t-195 105.5t-264.5 50.5l7 6q185 -5 326.5 -58.5t226 -141.5t126.5 -197.5t42 -236.5 q0 -744 -774 -744z" />
<glyph horiz-adv-x="500" />
<glyph horiz-adv-x="500" />
<glyph horiz-adv-x="500" />
</font>
</defs>
</svg>
